<?xml version="1.0" encoding="utf-8" ?><svg xmlns="http://www.w3.org/2000/svg" xmlns:xlink="http://www.w3.org/1999/xlink" width="2764" height="1504" viewBox="0 0 2764 1504"><defs><linearGradient id="gradient_0" gradientUnits="userSpaceOnUse" x1="391.37103" y1="760.87421" x2="670.5332" y2="753.76385"><stop offset="0" stop-color="#AA7F41"/><stop offset="1" stop-color="#D9B46F"/></linearGradient></defs><path fill="url(#gradient_0)" d="M385.199 543.874C400.659 530.592 425.516 504.849 441.147 495.335C455.11 486.836 568.784 457.436 587.809 455.547C612.668 453.079 643.057 454.907 668.624 454.871C668.405 461.781 668.251 467.491 668.552 474.436C644.145 474.433 614.462 473.693 590.49 475.641C577.043 476.733 550.162 485.355 536.156 488.474C529.188 490.026 504.61 496.228 498.508 498.578C532.283 507.998 567.593 513.227 601.384 521.521C630.15 528.582 641.589 525.155 669.615 526.286C669.638 532.076 669.916 540.25 669.544 545.849L632.924 545.749C627.911 581.964 620.94 618.365 615.339 654.456C613 669.528 607.75 695.397 606.794 710.267C627.408 709.554 648.036 709.325 668.66 709.582L668.473 729.896C649.649 729.906 625.135 729.189 606.778 730.097C610.311 757.143 618.289 792.186 623.367 819.605L652.763 982.538C656.767 1004.77 666.665 1045.4 667.465 1065.92L390.525 725.865C366.547 699.138 345.295 669.03 321.775 641.82C315.182 634.192 307.713 626.155 302.025 617.901C307.598 612.268 318.132 603.728 324.51 597.979L385.199 543.874ZM459.185 683.949C485.129 637.17 502.34 575.884 527.957 526.7C504.123 522.73 478.845 517.088 455.053 512.145C445.202 518.847 432.563 530.899 423.349 539.088C411.089 549.838 398.775 560.525 386.406 571.149C369.522 586.199 352.432 601.014 335.139 615.592C353.509 626.123 373.816 638.056 392.423 648.033C414.509 660.314 436.765 672.288 459.185 683.949ZM548.193 885.886C552.019 891.138 568.568 913.55 573.243 914.83C573.538 909.414 558.042 885.049 554.294 879.857C549.804 873.103 542.205 858.645 537.942 851.158L500.682 784.854C487.57 761.433 468.612 731.596 456.976 708.358C437.388 695.971 407.975 680.665 386.924 668.856L374.801 662.28C369.458 659.344 363.348 655.774 357.813 653.421L374.818 671.651C381.671 680.218 388.465 688.832 395.201 697.492C400.925 705.691 407.984 714.5 414.534 722.15C446.496 759.481 476.903 797.903 507.509 836.332C520.846 853.078 535.296 868.692 548.193 885.886ZM485.294 713.881C490.997 723.338 495.747 733.126 501.033 742.829C536.778 808.436 574.577 872.912 610.119 938.647C616.436 950.332 624.066 962.102 631.125 973.366C631.088 969.772 622.972 934.338 621.768 926.682C616.208 891.324 610.012 855.872 602.85 820.789C597.103 792.634 588.102 756.868 585.707 728.429C565.21 725.71 544.741 722.781 524.303 719.645C512.83 717.9 496.499 714.907 485.294 713.881ZM612.862 544.967C596.005 540.755 578.625 537.742 561.698 533.697C556.718 532.507 550.878 531.13 545.836 530.593C541.411 544.142 537.397 554.817 531.963 567.921C516.205 605.923 502.162 644.818 483.444 681.512C482.268 683.817 481.247 687.845 481.62 690.413C488.467 694.435 543.679 702.013 554.744 703.709C564.611 705.121 575.551 706.936 585.367 708.037C592.348 676.462 597.741 641.953 603.402 609.973C606.997 589.66 607.855 564.929 612.862 544.967Z"/><path fill="white" fill-opacity="0.094117649" d="M554.294 879.857C558.042 885.049 573.538 909.414 573.243 914.83C568.568 913.55 552.019 891.138 548.193 885.886C550.914 887.123 552.857 888.669 555.166 887.976C554.957 885.112 554.672 882.705 554.294 879.857Z"/><path fill="white" fill-opacity="0.094117649" d="M357.813 653.421C363.348 655.774 369.458 659.344 374.801 662.28C373.145 666.247 373.354 667.435 374.818 671.651L357.813 653.421Z"/><path fill="#A3783A" d="M302.025 617.901C307.598 612.268 318.132 603.728 324.51 597.979L385.199 543.874C385.674 552.057 386.782 556.099 386.523 564.641L381.706 569.768L382.275 570.744L386.406 571.149C369.522 586.199 352.432 601.014 335.139 615.592C353.509 626.123 373.816 638.056 392.423 648.033C390.98 648.826 389.037 649.385 389.078 650.859C389.189 654.848 386.925 665.745 386.924 668.856L374.801 662.28C369.458 659.344 363.348 655.774 357.813 653.421L374.818 671.651C381.671 680.218 388.465 688.832 395.201 697.492L390.773 698.723C388.726 703.241 390.512 719.305 390.525 725.865C366.547 699.138 345.295 669.03 321.775 641.82C315.182 634.192 307.713 626.155 302.025 617.901Z"/><path fill="#3F3533" d="M1751.44 660.364C1786.12 656.759 1826.99 667.626 1830.41 708.21C1832.99 738.731 1831.14 769.361 1831.7 800.023C1832.09 821.654 1834.75 836.153 1839.62 856.903C1825.91 857.007 1812.2 856.993 1798.49 856.861L1796.79 821.588L1796.12 822.797L1794.01 821.825C1788.36 827.243 1784.82 836.679 1778.75 843.129C1743.73 880.331 1655.18 871.957 1654.62 810.749C1654.77 736.462 1768.69 760.555 1790.96 725.855C1796.42 717.362 1795.97 705.133 1793.67 695.655C1791.27 685.759 1784.16 677.528 1775.45 672.399C1767.67 667.818 1758.91 666.627 1750.04 667.874C1713.08 673.074 1703.68 709.454 1679.34 714.738C1675.42 715.589 1671.36 714.922 1668.01 712.692C1664.83 710.575 1662.25 707.198 1661.57 703.384C1660.89 699.646 1661.95 696.319 1664.33 693.412C1667.45 689.596 1672.93 687.007 1677.16 684.614C1699.72 671.856 1725.57 662.797 1751.44 660.364ZM1710.63 843.023C1736.42 860.331 1766.86 848.625 1782.55 823.744C1797.92 799.382 1795.78 766.313 1796.71 737.88C1794.99 736.554 1795.96 737.009 1793.58 736.974C1786.38 741.372 1780.3 744.863 1772.25 747.376C1743.37 756.401 1703.44 759.704 1694.97 795.178C1690.59 813.497 1695.37 831.558 1710.63 843.023Z"/><path fill="#3F3533" d="M1104.45 668.78C1104.97 676.117 1104.45 696.521 1105.34 700.537C1109.41 696.788 1114.07 690.123 1118 685.659C1132.59 669.086 1149.34 659.146 1171.81 660.075C1200.68 661.269 1205.92 681.75 1212.79 705.475C1215.51 704.768 1221.64 695.304 1223.72 692.418C1240.94 668.504 1274.51 648.884 1303 666.041C1333.7 684.527 1324.87 731.287 1326.78 762.284C1326.55 774.51 1327.27 786.292 1327.48 798.48C1327.8 817.241 1327.45 837.22 1328.89 855.9C1324.32 857.676 1292.65 857.513 1288.23 855.17C1291.21 843.131 1290.91 800.103 1290.77 785.07C1290.53 760.503 1295.45 704.15 1286.73 683.834C1266.44 651.499 1218.6 703.113 1214.49 725.313C1212.17 737.798 1215.17 754.761 1214.61 767.707C1215.47 796.173 1213.61 828.524 1217.87 856.359C1205.46 856.58 1186.19 857.176 1174.09 856.24C1179.3 827.767 1176.14 788.451 1177.34 758.773C1177.93 744.21 1179.73 691.041 1170.9 681.403C1147.12 655.471 1112.95 698.159 1104.36 719.341C1103.24 723.808 1102.11 730.385 1102 734.8C1101.37 760.783 1101.1 787.054 1101.87 813.03C1102.3 827.665 1104.75 842.147 1104.67 856.967C1091.38 856.992 1077.21 857.279 1063.99 857.014C1064.81 800.191 1067.76 742.949 1064.18 686.096C1063.81 680.23 1063.31 674.664 1063.57 668.758C1076.94 668.566 1091.11 668.293 1104.45 668.78Z"/><path fill="#3F3533" d="M2139.05 660.385C2173.94 658.619 2206.48 667.581 2225.83 698.944C2231.17 707.599 2237.45 728.433 2237.03 738.619C2232.75 741.867 2103.75 739.803 2086.26 740.106C2085.6 764.079 2084.76 785.324 2095.01 807.538C2123.3 868.829 2193.85 867.438 2228.3 813.566C2230.2 808.529 2237.5 787.485 2239.77 785.589C2243.59 785.125 2242.3 784.78 2245.54 786.218L2246.12 788.607C2240.6 806.04 2235.89 818.342 2224.44 832.985C2191.3 875.39 2122.44 873.899 2082.68 842.682C2039.64 808.879 2034.96 736.93 2068.76 695.531C2086.13 674.26 2112.15 662.859 2139.05 660.385ZM2138.24 731.759C2146.05 731.763 2194.31 733.143 2198.08 729.619C2200.13 723.417 2197.49 717.324 2195.82 711.33C2189.46 688.516 2174.59 668.464 2148.82 668.451C2110.51 670.144 2098.33 695.249 2089.4 727.886L2090.03 730.402C2095.66 733.228 2129.9 731.851 2138.24 731.759Z"/><path fill="#3F3533" d="M827.831 538.136L951.587 538.195C969.813 538.247 998.14 537.494 1015.72 538.971C1009.9 546.352 1004.29 553.89 998.883 561.577C951.592 547.047 921.351 544.879 871.169 546.681C871.907 592.275 870.795 637.666 871.771 683.436C905.997 684.426 942.644 682.868 976.775 680.734L976.706 696.111C941.202 692.552 906.657 692.712 871.082 692.462L871.26 757.5L871.37 849.239C911.968 849.507 953.263 849.891 993.284 842.33C1002.72 840.548 1016.48 835.636 1025.56 835.188C1024.43 839.245 1017.78 851.575 1015.51 856.34C995.017 856.989 971.874 856.435 951.053 856.43L827.485 856.395C829.62 833.623 828.846 808.168 829.581 785.029C831.934 702.737 831.35 620.387 827.831 538.136Z"/><path fill="#CEA765" d="M701.766 372.355C707.439 371.971 716.08 371.528 721.424 372.925C719.823 385.755 720.877 421.017 720.895 435.48L720.804 559.164L719.843 998.461L719.776 1102.62C719.801 1110.21 719.418 1140.15 720.936 1146.06C713.686 1146.6 708.826 1146.4 701.652 1146.08C700.497 1083.95 702.11 1018.34 701.95 955.701L701.766 372.355Z"/><path fill="#3F3533" d="M2342.09 660.411C2349.47 659.961 2356.89 660.281 2364.21 661.364C2385.87 664.727 2406.27 675.583 2418.81 693.775C2422.3 698.851 2427.33 705.407 2426.32 711.597C2424.91 713.978 2423.58 715.266 2420.83 716.52C2391.41 728.131 2394.13 675.365 2365.49 670.06C2341.19 665.557 2320.66 667.496 2313.04 693.13C2326 751.184 2445.72 745.222 2437.46 816.81C2432.88 856.436 2380.72 870.481 2347.76 864.406C2328.7 862.351 2306.35 852.318 2293 838.166C2284.13 828.754 2279.08 814.947 2275.88 802.549C2272.68 790.153 2298.73 787.811 2304.48 794.177C2308.51 798.641 2310.16 810.7 2312.28 816.469C2321.79 856.787 2372.76 872.193 2401.19 841.256C2405.74 836.025 2408.42 824.364 2407.2 817.354C2400.8 780.809 2348.88 769.388 2321.79 751.803C2305.39 741.154 2287.87 730.093 2286.05 709.589C2282.9 674.106 2312.63 663.223 2342.09 660.411Z"/><path fill="#3F3533" d="M1921.82 586.111C1931.14 585.553 1942.91 585.835 1952.42 585.835C1948.54 623.746 1952.98 645.832 1915.91 668.182C1928.58 668.169 1996.69 665.996 2002.76 671.727L2001.71 673.516C1992.19 678.918 1956.06 676.459 1943.42 676.641C1942.46 712.914 1943.29 749.912 1943.19 786.175C1943.15 801.208 1943.21 849.93 1961.53 853.993C1992.57 860.877 2000.02 808.432 2005.21 788.633C2005.29 783.648 2005.17 780.218 2007.61 775.867C2010.59 774.142 2009.01 774.448 2012.55 775.113C2013.42 776.341 2013.66 778.293 2013.52 779.763C2010.31 812.969 1998.6 866.858 1956.39 867.423C1946.49 867.795 1928.82 861.977 1922.3 854.28C1902.56 831.006 1907.55 782.792 1907.83 754.237C1907.87 728.608 1907.71 702.979 1907.35 677.352C1896.79 677.405 1873.88 679.088 1865.6 672.966L1865.46 671.024C1872.95 662.841 1890.04 673.543 1906.27 656.907C1923.87 638.855 1921.75 609.855 1921.82 586.111Z"/><path fill="#3F3533" d="M1600.13 667.348C1607.94 666.716 1626.57 665.783 1624.93 677.376C1621.18 703.892 1595.96 692.292 1582 691.736C1559.72 690.85 1537.25 714.249 1522.59 728.757C1522.58 758.695 1523.11 788.63 1524.2 818.549C1524.71 830.611 1524.95 844.792 1526.63 856.59C1512.65 856.655 1498.66 856.816 1484.68 857.075C1484.68 853.914 1484.92 850.43 1485.06 847.244C1488.52 785.353 1486.44 730.979 1486.28 669.273C1499.43 669.112 1512.57 669.153 1525.72 669.396C1526.27 683.223 1525.26 699.928 1524.22 713.661C1545.95 689.139 1566.39 672.007 1600.13 667.348Z"/><path fill="#3F3533" d="M1388.1 668.398C1401.23 668.29 1414.46 668.061 1427.58 668.535C1423.64 706.183 1425.57 743.953 1425.28 781.698C1425.08 807.407 1427.1 830.92 1428.97 856.456C1415.06 856.738 1401.14 856.732 1387.22 856.438C1389.34 815.825 1390 775.149 1389.2 734.489C1388.96 717.027 1386.47 684.155 1388.1 668.398Z"/><path fill="#3F3533" fill-opacity="0.98431373" d="M1946.11 941.342C1949.98 941.065 1953.8 940.697 1957.74 941.011C1989.28 943.53 2007.89 980.226 1983.25 1003.56C1977.99 1008.54 1972.28 1010.41 1965.39 1012.32C1907.68 1020.6 1895.95 953.567 1946.11 941.342ZM1961.09 1008C1977.18 1000.9 1983.17 978.415 1976.37 963.139C1973.25 956.011 1967.44 950.408 1960.2 947.557C1955.43 945.731 1951.81 945.8 1946.81 946.135C1920.61 956.905 1924.13 1015.45 1961.09 1008Z"/><path fill="#3F3533" fill-opacity="0.98823529" d="M1181.29 941.359C1201.29 939.943 1221.77 947.301 1226.95 968.736C1229.1 977.902 1227.55 987.548 1222.62 995.573C1216.39 1005.55 1207.22 1010.22 1196.11 1012.68C1162.17 1015.77 1136.53 991.913 1154.54 957.586C1159.83 947.493 1170.77 943.824 1181.29 941.359ZM1194.13 1007.76C1221.79 995.03 1218.33 942.457 1181.28 946.226C1151.31 961.093 1161.5 1014.34 1194.13 1007.76Z"/><path fill="white" fill-opacity="0.011764706" d="M721.424 372.925C723.753 374.849 724.426 374.658 724.465 378.002C724.729 400.109 724.509 422.612 724.471 444.69L724.466 577.63L724.334 1006.5C724.329 1020.34 725.742 1141.58 722.628 1144.95C722.238 1145.37 721.444 1145.78 720.936 1146.06C719.418 1140.15 719.801 1110.21 719.776 1102.62L719.843 998.461L720.804 559.164L720.895 435.48C720.877 421.017 719.823 385.755 721.424 372.925Z"/><defs><linearGradient id="gradient_1" gradientUnits="userSpaceOnUse" x1="2416.811" y1="958.19043" x2="2327.9783" y2="947.45477"><stop offset="0" stop-color="#3F3533" stop-opacity="0.95294118"/><stop offset="1" stop-color="#3F3533"/></linearGradient></defs><path fill="url(#gradient_1)" d="M2413.76 999.297C2399 1013.26 2378.59 1017.39 2359.48 1010.75C2326.94 999.482 2316.61 961.295 2327.21 931.061C2338.85 896.513 2387.58 882.055 2413.32 910.032C2416.72 913.721 2424.6 921.598 2422.46 926.663C2419.03 929.425 2413.45 930.485 2409.06 931.674C2404.83 917.888 2397.75 902.254 2381.5 900.416C2372.89 899.515 2364.29 902.129 2357.64 907.664C2317.75 940.899 2354.03 1044.48 2409.8 995.294C2413.09 997.144 2412.11 996.032 2413.76 999.297Z"/><defs><linearGradient id="gradient_2" gradientUnits="userSpaceOnUse" x1="1890.1758" y1="971.21381" x2="1801.8417" y2="932.13983"><stop offset="0" stop-color="#3F3533" stop-opacity="0.94509804"/><stop offset="1" stop-color="#3F3533"/></linearGradient></defs><path fill="url(#gradient_2)" d="M1877 1004.27C1851.19 1020.68 1820.68 1013.18 1803.72 988.122C1794.54 974.425 1791.25 957.611 1794.59 941.463C1800.68 910.705 1832.1 890.736 1862.87 896.51C1878.51 899.445 1888.61 912.149 1896.82 924.879C1892.65 926.719 1886.58 929.843 1882.26 929.283C1875.04 923.334 1869.89 900.196 1854.4 899.938C1799.1 899.018 1796.23 998.642 1848.72 1007.04C1859.32 1008.73 1868.87 1003.56 1876.75 997.405L1878.25 998.946L1877 1004.27Z"/><path fill="#3F3533" fill-opacity="0.9137255" d="M2167.59 898.303C2172.6 898.182 2177.89 898.252 2182.93 898.234C2184.18 910.655 2183.6 927.43 2183.52 940.132L2183.04 1006.2C2208.27 1006.73 2209.85 1004.29 2231.58 1001.31L2232.79 1002.55L2232.58 1006.06C2230.61 1007.43 2227.32 1009.56 2224.98 1009.78C2206.95 1011.52 2184.77 1010.71 2166.58 1010.69C2165.88 996.036 2163.79 906.129 2167.59 898.303Z"/><path fill="#3F3533" d="M2169.24 900.49L2181.51 900.49C2181.67 910.655 2180.67 920.838 2180.57 931.001L2180.51 1008.34C2176.47 1008.44 2173.56 1008.78 2169.69 1007.44C2168.84 1003.56 2169.22 981.325 2169.23 976.111L2169.24 900.49Z"/><defs><linearGradient id="gradient_3" gradientUnits="userSpaceOnUse" x1="841.32343" y1="954.06201" x2="907.02234" y2="953.66162"><stop offset="0" stop-color="#3F3533" stop-opacity="0.9254902"/><stop offset="1" stop-color="#3F3533"/></linearGradient></defs><path fill="url(#gradient_3)" d="M825.362 899.18C848.383 898.468 878.232 896.124 896.248 913.373C917.989 934.188 918.74 972.521 897.409 993.996C878.041 1013.49 856.455 1010.6 831.525 1010.71C827.736 1010.75 826.312 1010.78 823.892 1008.54C824.268 1007.59 824.371 1006.96 824.995 1006.3L825.756 1008.3C831.738 1009.11 834.025 1009.41 840.045 1007.69L841.725 1004.63L845.642 1006.85C849.085 1006.33 853.497 1006.1 857.102 1005.84C897.855 1002.88 906.928 938.734 881.864 913.906C870.787 902.932 855.787 903.506 841.239 903.658L841.144 901.752C837.286 900.347 830.879 901.141 826.49 901.348C826.508 910.942 827.576 982.947 825.237 985.599C824.504 960.383 824.227 924.095 825.362 899.18Z"/><path fill="#3F3533" fill-opacity="0.97647059" d="M1373.44 899.263C1378.22 898.588 1383.02 898.586 1387.85 898.462C1388.24 917.09 1388.98 935.688 1389.35 954.279C1389.74 973.997 1388.96 990.838 1391.73 1010.51C1385.94 1010.64 1382.71 1010.73 1376.99 1010C1381.31 1009.81 1383.92 1009.96 1387.97 1008.28C1387.82 1002.59 1385.73 995.43 1385.6 988.748C1385.18 967.959 1385.6 947.112 1385.53 926.334C1385.52 922.142 1386.25 903.198 1384.78 900.79C1383.91 900.725 1377.98 900.871 1377.88 901.897C1376.82 913.014 1377.99 974.104 1374.32 979.686C1374.15 973.405 1374.03 967.123 1373.97 960.84C1365.84 951.751 1353.41 939.721 1341.27 951.841C1324.62 968.47 1327.36 1009.95 1358.39 1006.87C1357.51 1009.38 1357.1 1010.07 1357.23 1012.78C1336.1 1012.45 1317.44 1005.41 1315.63 981.365C1314.75 970.93 1318.17 960.59 1325.09 952.731C1339.84 935.918 1358.35 937.585 1373.85 952.355C1373.45 934.661 1373.31 916.962 1373.44 899.263Z"/><path fill="#3F3533" d="M2093.64 898.292C2098.57 898.325 2104.25 898.23 2109.1 898.57C2108.57 916.923 2108.79 935.6 2108.72 953.98C2108.64 973.435 2108.08 990.98 2110.85 1010.28C2105.81 1010.7 2099.68 1011.59 2094.89 1010.37C2092.91 1008.4 2093.4 1009.52 2092.91 1007.16C2096.5 1001.89 2091.57 1003.36 2089.8 996.379C2093.98 988.22 2095.01 964.876 2090.14 956.835C2090.65 954.282 2091.16 951.732 2091.7 949.186C2093.57 944.571 2092.32 909.359 2093.64 898.292Z"/><path fill="#3F3533" fill-opacity="0.96078432" d="M1012.47 1008.1C1011.84 1006.09 1011.42 1005.12 1010.59 1003.22C1006.62 1003.27 999.43 1009.27 994.6 1011.66C989.283 1014.33 983.082 1014.59 977.557 1012.39C968.791 1008.91 957.614 997.7 963.403 987.915C971.221 974.7 996.276 969.63 1010.38 965.149L1010.78 967.324C1014.73 968.191 1014.11 967.393 1015.99 969.899C1017.45 978.1 1013.23 989.26 1011.98 997.582C1011.48 1000.92 1012.6 1004.52 1012.47 1008.1ZM984.444 1005.97C1004.83 1009.73 1016.02 987.365 1012.18 971.445C1010.07 970.356 1011.19 970.577 1008.65 971.047C998.785 974.616 982.405 978.844 977.235 988.957C974.095 995.098 979.201 1002.52 984.444 1005.97Z"/><path fill="#3F3533" d="M2245.9 899.107C2251.1 899.081 2256.86 898.92 2261.99 899.351C2262.7 911.397 2263.56 993.92 2261.24 1001.81C2260.29 1002.18 2260.13 1002.57 2259.32 1003.39C2259.75 1005.25 2259.88 1005.48 2259.81 1007.36C2256.11 1008.38 2250.98 1008.52 2247.72 1006.45C2247.66 1002.65 2247.86 1001 2245.78 997.767C2245.06 991.653 2245.2 985.482 2245.24 979.336C2245.39 952.624 2244.55 925.794 2245.9 899.107Z"/><path fill="#3F3533" d="M2006.37 899.113C2011.17 898.515 2018.32 898.797 2023.37 898.847C2022.39 935.982 2022.1 973.132 2022.48 1010.28C2018.64 1010.67 2012.53 1010.47 2008.46 1010.45C2008.12 1006.46 2008.21 1002.14 2008.09 998.114C2007.13 965.192 2007.93 931.996 2006.37 899.113Z"/><path fill="#3F3533" d="M1722.86 899.794C1728.22 897.902 1732.87 898.354 1738.54 898.537C1738.21 922.731 1738.05 946.926 1738.08 971.122C1738.12 982.618 1737.81 1000.06 1739.18 1011.17C1734.49 1011.07 1729.35 1011.21 1724.83 1010.19C1727.13 997.283 1722.71 1003.31 1719.82 997.36C1724.04 990.27 1726.13 967.759 1723.83 959.521C1722.38 952.782 1723.84 947.524 1723.77 940.387C1723.65 928.233 1724.5 911.622 1722.86 899.794Z"/><path fill="#3F3533" d="M826.49 901.348C830.879 901.141 837.286 900.347 841.144 901.752L841.239 903.658C840.586 911.543 840.101 921.509 840.876 929.398C838.734 949.7 843.641 983.218 841.725 1004.63L840.045 1007.69C834.025 1009.41 831.738 1009.11 825.756 1008.3L824.995 1006.3C825.589 1001.59 825.256 990.767 825.237 985.599C827.576 982.947 826.508 910.942 826.49 901.348Z"/><defs><linearGradient id="gradient_4" gradientUnits="userSpaceOnUse" x1="1719.7836" y1="977.96832" x2="1669.4631" y2="974.23358"><stop offset="0" stop-color="#3F3533" stop-opacity="0.85882354"/><stop offset="1" stop-color="#3F3533"/></linearGradient></defs><path fill="url(#gradient_4)" d="M1722.22 949.491C1722.4 938.985 1721.15 907.911 1722.86 899.794C1724.5 911.622 1723.65 928.233 1723.77 940.387C1723.84 947.524 1722.38 952.782 1723.83 959.521C1718.84 954.109 1710.35 946.281 1702.81 946.483C1674.41 947.241 1673.83 1007.25 1703.18 1007.46C1709.95 1007.5 1715.01 1001.89 1719.82 997.36C1722.71 1003.31 1727.13 997.283 1724.83 1010.19C1723.5 1006.42 1724.97 1005.23 1723.27 1002.34C1717.25 1002.8 1712.08 1012.1 1704.02 1013.07C1672.1 1016.88 1654 979.908 1671.41 955.102C1676.57 947.635 1684.55 942.596 1693.51 941.148C1704.89 939.384 1713.28 943.094 1722.22 949.491Z"/><path fill="#3F3533" d="M1406.93 570.443C1414.29 573.279 1428.95 589.647 1434.52 596.189C1426.17 604.331 1415.62 614.681 1406.2 621.391C1395.97 610.277 1389.17 604.952 1377.19 595.918C1385.9 587.66 1397.53 578.627 1406.93 570.443Z"/><defs><linearGradient id="gradient_5" gradientUnits="userSpaceOnUse" x1="1262.9224" y1="977.33179" x2="1298.7245" y2="973.03174"><stop offset="0" stop-color="#3F3533" stop-opacity="0.85882354"/><stop offset="1" stop-color="#3F3533"/></linearGradient></defs><path fill="url(#gradient_5)" d="M1254.6 943.448C1256.97 947.262 1256.25 946.792 1256.5 951.767C1261.09 950.655 1267.69 943.688 1273.19 941.911C1294.41 935.059 1302.72 953.439 1303.02 971.099C1303.23 983.958 1304 997.553 1303.15 1010.22L1289.36 1010.52C1288.49 1003.73 1287.41 983.737 1288.24 977.23C1291.89 948.534 1273.84 934.446 1255.85 962.846C1255.82 978.637 1255.66 994.586 1255.84 1010.36C1250.6 1010.42 1244.6 1010.63 1239.45 1010.34C1239.38 1000.47 1238.5 950.883 1240.44 944.352C1242.37 950.454 1241.53 999.089 1241.5 1008.47C1245.35 1008.61 1249.62 1008.51 1253.51 1008.5C1253.45 998.203 1252.81 950.137 1254.6 943.448Z"/><path fill="#3F3533" fill-opacity="0.97647059" d="M1593.81 943.953C1597.29 943.258 1599.45 942.43 1602.75 943.572C1604.86 946.209 1604.72 946.901 1605.25 950.395C1612.04 952.44 1619.52 937.243 1634.02 941.584C1660.12 949.395 1653.81 989.56 1652.99 1010.44C1648.51 1010.48 1642.78 1010.69 1638.41 1010.46C1639.12 990.796 1649.42 921.498 1609.53 955.891C1601.15 963.119 1604.24 998.766 1604.83 1010.64C1600.05 1010.66 1594.25 1010.83 1589.56 1010.51C1589.44 1000.91 1588.01 950.307 1589.95 945.196C1591.45 954.377 1590.63 979.385 1590.92 990.608L1591.41 986.95C1592.69 994.983 1592.52 1000.46 1592.49 1008.51L1601.51 1008.51C1601.44 992.981 1601.12 977.346 1602.33 961.868C1602.79 956.044 1603.43 951.602 1602.32 945.846C1599.48 943.895 1597.6 944.321 1593.81 943.953Z"/><defs><linearGradient id="gradient_6" gradientUnits="userSpaceOnUse" x1="2091.8542" y1="974.02228" x2="2039.67" y2="980.22241"><stop offset="0" stop-color="#403634" stop-opacity="0.90980393"/><stop offset="1" stop-color="#3F3533"/></linearGradient></defs><path fill="url(#gradient_6)" d="M2078.98 1011.75C2057.58 1016.63 2039.9 1006.81 2036.04 984.558C2034.32 974.408 2036.74 963.992 2042.75 955.637C2055.48 937.649 2074.61 936.7 2091.7 949.186C2091.16 951.732 2090.65 954.282 2090.14 956.835C2050 916.695 2033.7 1011.01 2077.74 1007.19L2078.98 1011.75Z"/><defs><linearGradient id="gradient_7" gradientUnits="userSpaceOnUse" x1="1537.5322" y1="943.79309" x2="1562.5391" y2="1008.1228"><stop offset="0" stop-color="#3F3533" stop-opacity="0.96862745"/><stop offset="1" stop-color="#3F3533"/></linearGradient></defs><path fill="url(#gradient_7)" d="M1518.71 963.526C1516.47 960.94 1513.86 958.651 1513.4 955.453C1518.33 944.371 1542.23 940.291 1553.12 942.063C1572.99 945.298 1573.77 960.796 1574.03 977.375C1574.24 988.489 1574.15 999.476 1573.72 1010.61C1570.73 1010.7 1562.82 1011.23 1560.41 1009.98C1560.53 1004.07 1558.37 997.531 1558.23 988.681C1558.72 982.698 1558.94 976.922 1559.17 970.934C1558.12 968.508 1558.52 965.519 1558.63 962.783C1560.38 955.127 1556.77 948.084 1549.11 946.334C1539.15 944.061 1525.46 957.421 1518.71 963.526Z"/><defs><linearGradient id="gradient_8" gradientUnits="userSpaceOnUse" x1="1101.6144" y1="976.06677" x2="1129.9172" y2="974.37866"><stop offset="0" stop-color="#3F3533" stop-opacity="0.82352942"/><stop offset="1" stop-color="#3F3533"/></linearGradient></defs><path fill="url(#gradient_8)" d="M1095.7 952.778C1100.27 944.701 1117.42 937.655 1125.05 943.179C1141.09 954.793 1135.27 991.26 1134.42 1008.07C1131.14 1010.18 1130.79 1010.65 1127.05 1011.11C1110.39 1004.16 1135.53 942.423 1106.47 947.947C1092.85 950.537 1096.14 999.022 1097.07 1009.19C1091.9 1009.87 1086.9 1010.44 1081.73 1009.22C1086.49 1008.89 1088.66 1008.77 1093.36 1007.67C1095.4 1004.81 1092.11 971.135 1092.85 965.171C1093.29 961.631 1096.12 955.761 1095.7 952.778Z"/><defs><linearGradient id="gradient_9" gradientUnits="userSpaceOnUse" x1="1413.1636" y1="993.67523" x2="1443.2134" y2="966.20703"><stop offset="0" stop-color="#3F3533" stop-opacity="0.89411765"/><stop offset="1" stop-color="#3F3533"/></linearGradient></defs><path fill="url(#gradient_9)" d="M1428.85 1008.78C1435.1 1009.28 1443.62 1009.59 1446.49 1002.86C1458.06 975.737 1395.19 977.676 1407.13 949.139C1408.86 945.017 1416.7 942.899 1420.97 942.025L1429.46 942.626L1429.62 943.397L1426.69 944.434C1422.66 945.738 1414.88 948.226 1417.62 954.412C1424.88 970.801 1468.76 975.704 1459.19 999.387C1453.17 1014.28 1436.03 1014.21 1422.97 1011.37C1426.96 1010.47 1426.15 1011.22 1428.85 1008.78Z"/><path fill="#3F3533" d="M1374.32 979.686C1377.99 974.104 1376.82 913.014 1377.88 901.897C1377.98 900.871 1383.91 900.725 1384.78 900.79C1386.25 903.198 1385.52 922.142 1385.53 926.334C1385.6 947.112 1385.18 967.959 1385.6 988.748C1385.73 995.43 1387.82 1002.59 1387.97 1008.28C1383.92 1009.96 1381.31 1009.81 1376.99 1010C1376.1 1007.06 1377.08 1006.01 1375.18 1001.81C1371.45 999.37 1372.27 995.75 1372.22 991.678C1373.54 987.838 1373.82 983.745 1374.32 979.686Z"/><path fill="#3F3533" d="M1042.13 973.559C1042.44 964.419 1038.05 935.983 1055.94 944.134C1058.24 946.758 1058.03 947.412 1058.42 951.088C1059.06 953.021 1059.66 954.574 1060.01 956.58C1050.7 967.205 1059.95 1005.24 1055.51 1009.79L1041.88 1009.11L1042.13 973.559Z"/><path fill="#3F3533" d="M929.957 944.679C933.605 944.519 943.924 944.06 944.308 946.218C946.147 956.56 945.407 1000.7 945.385 1010.11C940.879 1010.77 935.755 1010.5 931.146 1010.44C931.376 989.721 931.078 965.381 929.957 944.679Z"/><path fill="#3F3533" fill-opacity="0.97647059" d="M1558.63 962.783C1558.52 965.519 1558.12 968.508 1559.17 970.934C1549.84 974.089 1528.47 980.197 1525.95 989.562C1519.98 1011.8 1549.66 1013.31 1558.23 988.681C1558.37 997.531 1560.53 1004.07 1560.41 1009.98C1559.88 1008.41 1559.42 1006.58 1558.43 1005.23C1555.45 1001.14 1539.73 1017.74 1526.61 1014.49C1519.08 1012.62 1514.73 1007.13 1511.02 1000.78C1513.18 965.155 1533.17 979.346 1557.46 963.55L1558.63 962.783Z"/><defs><linearGradient id="gradient_10" gradientUnits="userSpaceOnUse" x1="1061.7499" y1="975.60199" x2="1092.5383" y2="974.66357"><stop offset="0" stop-color="#3F3533" stop-opacity="0.81176472"/><stop offset="1" stop-color="#3F3533"/></linearGradient></defs><path fill="url(#gradient_10)" d="M1058.42 951.088C1093.83 929.944 1083.6 952.838 1095.7 952.778C1096.12 955.761 1093.29 961.631 1092.85 965.171C1092.11 971.135 1095.4 1004.81 1093.36 1007.67C1088.66 1008.77 1086.49 1008.89 1081.73 1009.22C1081.36 997.333 1084.12 953.193 1074.68 948.106C1069.74 949.163 1064.37 953.568 1060.01 956.58C1059.66 954.574 1059.06 953.021 1058.42 951.088Z"/><path fill="#3F3533" d="M1240.44 944.352C1244.82 943.063 1249.97 943.422 1254.6 943.448C1252.81 950.137 1253.45 998.203 1253.51 1008.5C1249.62 1008.51 1245.35 1008.61 1241.5 1008.47C1241.53 999.089 1242.37 950.454 1240.44 944.352Z"/><path fill="#3F3533" d="M1015.44 945.051C1030.23 956.858 1028.08 991.87 1026.6 1009.83C1023.29 1009.74 1014.47 1010.07 1012.47 1008.1C1012.6 1004.52 1011.48 1000.92 1011.98 997.582C1013.23 989.26 1017.45 978.1 1015.99 969.899C1014.11 967.393 1014.73 968.191 1010.78 967.324L1010.38 965.149L1012.31 964.109C1014.21 959.331 1012.99 952.189 1012.77 946.584L1015.44 945.051Z"/><path fill="#3F3533" fill-opacity="0.94901961" d="M1890.08 961.894L1890.3 958.801C1881.66 952.885 1862.3 964.091 1852.67 960.204C1850.73 958.001 1851.29 958.973 1851.22 955.378C1855.89 950.622 1899.58 952.888 1908.19 953.835L1897.82 958.838C1896.82 970.905 1898.61 1001.73 1897.07 1009.09C1894.27 1010.41 1893.74 1010.18 1890.51 1010.01C1893.95 994.304 1890.17 994.941 1888.21 981.138C1887.59 976.792 1890.91 969.859 1890.08 961.894Z"/><path fill="#3F3533" d="M1589.95 945.196L1593.81 943.953C1597.6 944.321 1599.48 943.895 1602.32 945.846C1603.43 951.602 1602.79 956.044 1602.33 961.868C1601.12 977.346 1601.44 992.981 1601.51 1008.51L1592.49 1008.51C1592.52 1000.46 1592.69 994.983 1591.41 986.95L1590.92 990.608C1590.63 979.385 1591.45 954.377 1589.95 945.196Z"/><path fill="white" fill-opacity="0.011764706" d="M1286.73 683.834C1295.45 704.15 1290.53 760.503 1290.77 785.07C1290.91 800.103 1291.21 843.131 1288.23 855.17L1286.55 854.058C1286.24 811.282 1286.67 768.421 1287.64 725.664C1287.95 711.822 1286.19 698.764 1286.73 683.834Z"/><path fill="#3F3533" fill-opacity="0.94509804" d="M1012.31 964.109C1011.79 923.325 978.126 961.25 967.085 959.607C963.105 946.541 988.917 942.281 997.532 941.472C1004.28 940.838 1009.45 941.983 1015.44 945.051L1012.77 946.584C1012.99 952.189 1014.21 959.331 1012.31 964.109Z"/><path fill="#3F3533" fill-opacity="0.94901961" d="M2245.78 997.767C2247.86 1001 2247.66 1002.65 2247.72 1006.45C2250.98 1008.52 2256.11 1008.38 2259.81 1007.36C2259.88 1005.48 2259.75 1005.25 2259.32 1003.39C2260.13 1002.57 2260.29 1002.18 2261.24 1001.81C2266.26 1013.72 2300.22 998.982 2310.24 1004.18L2310.2 1005.77C2305 1012.26 2282.94 1010.64 2274.61 1010.56C2266.98 1010.49 2250.28 1011.06 2243.66 1008.95C2244.73 1004.6 2245.23 1002.27 2245.78 997.767Z"/><path fill="white" fill-opacity="0.0078431377" d="M1326.78 762.284C1332.38 775.251 1332.96 839.482 1331.08 854.278L1328.89 855.9C1327.45 837.22 1327.8 817.241 1327.48 798.48C1327.27 786.292 1326.55 774.51 1326.78 762.284Z"/><path fill="#3F3533" fill-opacity="0.97647059" d="M1422.97 1011.37C1415.92 1008.25 1394.52 995.433 1406.05 987.268C1416.05 987.033 1418.12 1002.28 1428.85 1008.78C1426.15 1011.22 1426.96 1010.47 1422.97 1011.37Z"/><path fill="#3F3533" fill-opacity="0.96862745" d="M1420.97 942.025C1431.18 940.471 1461.07 942.994 1454.59 959.5C1451.74 961.876 1453.33 961.338 1449.67 961.223C1437.57 954.442 1443.55 949.104 1426.69 944.434L1429.62 943.397L1429.46 942.626L1420.97 942.025Z"/><path fill="white" fill-opacity="0.011764706" d="M840.876 929.398C841.356 929.927 841.835 930.455 842.315 930.983C842.959 954.527 847.877 983.439 845.642 1006.85L841.725 1004.63C843.641 983.218 838.734 949.7 840.876 929.398Z"/><path fill="#3F3533" d="M935.442 909.984C940.178 909.951 946.457 915.793 946.329 920.431C943.619 922.936 940.99 924.901 938.081 927.146C933.998 927.431 928.325 921.818 924.266 918.764C928.936 915.532 931.23 913.776 935.442 909.984Z"/><path fill="#3F3533" fill-opacity="0.74509805" d="M2409.8 995.294C2416.62 986.511 2424.1 967.266 2428 965.633C2430.22 973.496 2420.46 994.714 2413.76 999.297C2412.11 996.032 2413.09 997.144 2409.8 995.294Z"/><path fill="#3F3533" fill-opacity="0.627451" d="M1876.75 997.405C1886.09 983.722 1884.83 977.763 1889.8 962.735L1890.08 961.894C1890.91 969.859 1887.59 976.792 1888.21 981.138C1890.17 994.941 1893.95 994.304 1890.51 1010.01C1889.19 1006.14 1888.84 994.89 1888.79 990.34L1887.56 991.542L1888.31 991.785C1886.42 992.629 1880.11 1001.13 1877 1004.27L1878.25 998.946L1876.75 997.405Z"/><path fill="white" fill-opacity="0.011764706" d="M1037.48 1010.49C1039.11 998.493 1036.74 982.127 1042.13 973.559L1041.88 1009.11L1055.51 1009.79C1051.02 1010.79 1042.4 1010.49 1037.48 1010.49Z"/><path fill="#3F3533" fill-opacity="0.78823531" d="M1358.39 1006.87C1365.12 1004.59 1369.35 997.729 1372.22 991.678C1372.27 995.75 1371.45 999.37 1375.18 1001.81C1368.88 1003.2 1366.78 1010.19 1357.23 1012.78C1357.1 1010.07 1357.51 1009.38 1358.39 1006.87Z"/><path fill="#3F3533" fill-opacity="0.79215688" d="M2077.74 1007.19C2083.24 1004.25 2085.8 1001.02 2089.8 996.379C2091.57 1003.36 2096.5 1001.89 2092.91 1007.16L2092.25 1004.23L2090.75 1003.88C2087.3 1006.45 2082.74 1010.2 2078.98 1011.75L2077.74 1007.19Z"/></svg>