<?xml version="1.0" encoding="utf-8" ?><svg xmlns="http://www.w3.org/2000/svg" xmlns:xlink="http://www.w3.org/1999/xlink" width="2592" height="1662" viewBox="0 0 2592 1662"><path fill="#2A3F77" d="M1006.5 1092.49C1014.09 1092.41 1020.51 1092.43 1028.1 1092.83C1053.41 1135.52 1077.05 1181.86 1102.24 1225.13C1112.42 1242.61 1137.07 1281.52 1144.23 1298.16C1143.53 1229.98 1143.62 1161.8 1144.51 1093.63C1162.01 1093.39 1179.5 1093.3 1197 1093.37C1195.07 1183.77 1195.95 1278.71 1196.64 1369.08L1152.5 1369.25C1147.54 1369.35 1129.19 1370.15 1127.31 1367.92C1112.49 1350.34 1019.42 1171.04 1013.27 1168.01C1012.06 1172.28 1012.51 1218.34 1012.52 1226.92L1012.44 1368.66C997.063 1369.49 975.357 1368.94 959.481 1368.96C957.486 1322.6 960.238 1266.3 960.224 1219.07C960.009 1191.61 959.995 1164.15 960.183 1136.69C960.183 1128.3 959.735 1101.2 961.195 1094.55C967.985 1091.35 997.178 1092.46 1006.5 1092.49Z"/><path fill="#2A3F77" d="M1357.57 1089.41C1407.8 1085.31 1469.17 1096.1 1494.72 1145.14C1497.22 1149.93 1499.96 1152.93 1501.56 1158.35C1501.32 1159.7 1501.29 1161.68 1500.32 1162C1487.2 1166.32 1463.83 1174.79 1450.83 1175.93C1446.76 1176.29 1439.5 1164.73 1437.07 1161.66C1424.71 1145.83 1408.36 1138.18 1388.7 1136.21C1333.34 1130.67 1301.35 1162.72 1296.86 1216.66C1292.43 1269.96 1310.74 1321.24 1370.88 1326.19C1400.51 1328.63 1431.38 1321.55 1454.26 1301.9C1454.81 1294.51 1456.61 1273.17 1453.57 1267.44C1446.22 1264.57 1399.19 1265.88 1387.03 1265.5L1387.14 1253.25L1387.65 1222.57C1422.19 1221.33 1474.25 1221.75 1508.86 1222.51L1508.61 1322.75C1458.14 1384.6 1318.69 1393.53 1268.04 1328.53C1253.24 1309.54 1242.98 1287.71 1240.04 1263.77C1228.62 1170.56 1258.16 1104.98 1357.57 1089.41Z"/><path fill="#2A3F77" d="M1598.52 256.234C1618.34 223.722 1622.2 212.127 1659.92 192.138C1651.3 224.325 1657.03 326.745 1659.19 363.507C1660.16 379.991 1665.26 403.883 1665.82 420.737C1666.52 441.672 1657.22 450.807 1662.1 473.917C1672.1 521.198 1696.29 570.251 1696.34 618.473C1696.36 633.942 1684.22 648.53 1673 657.958C1656.74 671.817 1639.23 689.134 1616.77 685.908C1574.46 679.829 1567.51 660.638 1578.88 624.458C1581.7 615.488 1532.72 563.849 1522.2 553.117C1488.79 547.517 1486.79 533.744 1459.76 514.109C1454.92 531.489 1516.14 608.727 1529.67 626.712C1552.29 656.79 1565.68 683.913 1560.06 723.236C1559.84 724.776 1559.38 724.602 1558.11 725.175C1549.99 713.821 1547.74 704.372 1541.91 692.09C1537.07 681.884 1529.83 670.573 1523.7 660.971C1512.23 643.213 1499.86 626.047 1486.65 609.54C1461.51 577.502 1427.45 542.367 1432.32 499.083C1436 466.353 1454.79 440.669 1479.78 420.359C1483.16 421.575 1484.8 421.774 1487.06 424.377C1478.59 442.138 1471.25 465.166 1473.73 485.051C1481.59 548.189 1557.57 512.786 1568.58 521.78C1575.58 527.498 1587.63 547.578 1588.76 556.472C1583.26 557.153 1567.75 538.579 1559.01 539.124C1551.52 539.591 1548 544.506 1542.57 549.737C1557.94 567.104 1579.69 585.156 1590.95 605.029C1600.17 621.306 1565.86 656.41 1599.95 664.171C1605.28 665.384 1613.28 669.244 1618.33 666.518C1620.4 658.383 1601.8 643.576 1603.12 633.644C1605.65 630.958 1604.5 631.789 1608.49 630.878C1618.07 637.27 1627.64 666.509 1638.15 665.57C1645.19 664.94 1662.85 646.538 1668.79 640.709C1690.36 619.554 1676.4 588.651 1670.88 563.813C1662.05 527.97 1648.6 492.795 1643.26 455.981C1641.37 442.931 1652.96 429.984 1652.33 416.805C1650.5 397.874 1644.96 380.529 1643.11 361.093C1640.19 330.481 1639.53 300.431 1637.81 269.756C1637.29 260.503 1637.74 251.555 1637.1 241.939C1625.22 258.489 1617.81 274.591 1603.4 290.805C1585.64 289.006 1563.08 284.667 1544.94 282.075C1521.66 278.777 1498.23 276.62 1474.74 275.61L1487.71 304.244C1470.1 309.5 1450.29 313.076 1432.86 318.742C1391.81 332.088 1349.22 350.216 1311.67 371.292C1295.86 380.189 1280.29 389.523 1264.99 399.285C1258.76 403.35 1236.35 420.197 1230.91 419.875C1230.88 418.19 1231.18 416.809 1232.14 415.4C1266.98 364.145 1319.69 325.967 1377.58 304.658C1393.52 298.792 1409.05 293.678 1425.37 288.999C1417.35 283.12 1402.9 268.69 1395.6 261.456C1463.96 239.919 1529.54 238.982 1598.52 256.234Z"/><path fill="#2A3F77" d="M2190 1092.5C2199.63 1092.55 2231.88 1091.35 2238.95 1093.48C2243 1097.65 2260.79 1150.84 2263.8 1159.27L2308 1280.08C2314.3 1297.7 2320.72 1315.29 2327.28 1332.82C2331.41 1343.95 2335.99 1357.39 2341.4 1367.8L2342.17 1369.26C2322.27 1369.36 2302.38 1369.33 2282.48 1369.19C2274.85 1347.89 2265.89 1321.08 2257.01 1300.52C2247.88 1299.76 2232.14 1300.18 2222.5 1300.16L2153.2 1300.08C2147.55 1319.09 2136.04 1349.98 2129.01 1368.54C2113.08 1369.65 2085.08 1369.37 2068.92 1368.75C2081.36 1346.03 2086.65 1325.89 2095.32 1301.91L2145.32 1167.29C2151.42 1150.6 2163.52 1112.08 2171.85 1094.49C2173.11 1091.83 2185.69 1092.43 2190 1092.5ZM2208.5 1254.46C2220.22 1254.55 2232.13 1254.52 2243.83 1254.75C2242.08 1247.91 2235.55 1230.86 2233.34 1224.42C2229.38 1212.84 2211.55 1152.46 2205.65 1144.78C2203.68 1148.38 2197.08 1166.27 2196.58 1169.42C2194.25 1184.26 2168.26 1244.37 2169.47 1253.23C2173.44 1255.56 2201.95 1254.53 2208.5 1254.46Z"/><path fill="#2A3F77" d="M1697.5 1092.49L1710.11 1092.54C1712.29 1097.38 1714.11 1103.43 1715.95 1108.48C1727.25 1139.58 1737.83 1170.96 1749.24 1202.01L1785.48 1300.83C1793.52 1322.19 1803.25 1345 1809.89 1366.77C1807.64 1371.08 1753.6 1369.76 1752.78 1367.88C1744.84 1349.8 1731.49 1318.53 1727.47 1299.83C1704.54 1299.08 1677.96 1299.74 1654.75 1299.75L1623.97 1299.75C1618.55 1316.65 1605.74 1353.15 1598.98 1369.05C1579.93 1369.2 1560.87 1369.19 1541.82 1369.02C1546.59 1353.33 1552.64 1339 1557.88 1323.64C1575.82 1271.09 1596.3 1219.42 1615.14 1167.19C1623.96 1142.75 1633.41 1118.04 1641.01 1093.24C1658.15 1092.39 1679.82 1092.82 1697.5 1092.49ZM1637.67 1254.07C1651.53 1254.27 1665.39 1254.31 1679.25 1254.18L1713.76 1254.06C1703.39 1227 1695.51 1199.8 1685.86 1172.55C1683.57 1166.1 1678.5 1147.43 1674.21 1144.06C1664 1180.21 1648.42 1217.26 1637.67 1254.07Z"/><path fill="#2A3F77" d="M758.784 1092.46C780.846 1092.33 802.907 1092.35 824.968 1092.52C835.778 1117.57 848.158 1154.61 857.649 1180.94L904.934 1309.75C907.093 1315.64 926.303 1365.29 925.803 1367.92C922.239 1369.79 873.628 1370.28 870.28 1368.66C863.676 1365.46 847.114 1308.7 844.234 1299.87L827.25 1299.9L740.258 1300.13C732.507 1315.49 722.674 1350.4 715.565 1368.86C696.309 1369.07 677.051 1369.09 657.794 1368.91C665.021 1349.61 670.919 1328.77 678.212 1310.01C693.758 1270.01 708.603 1231.21 722.918 1190.73L745.999 1125.81C748.238 1119.42 755.218 1095.14 758.784 1092.46ZM753.161 1254.78L794.25 1254.82C806.225 1254.82 818.828 1255.03 830.745 1254.8C824.858 1238.28 796.591 1151.05 790.979 1143.75C780.51 1177.13 767.808 1209.76 756.577 1242.88C755.254 1246.78 753.913 1250.73 753.161 1254.78Z"/><path fill="#2A3F77" d="M411.494 1092.49L445.508 1092.49C447.301 1130.6 444.903 1176.61 445.942 1215.99C486.876 1176.97 528.704 1133.91 569.039 1093.48C587.933 1092.22 617.765 1093.1 637.475 1093.07C604.578 1124.89 572.61 1159 539.594 1190.91C533.894 1196.41 523.862 1206.25 519.706 1212.52C548.984 1246.02 582.537 1288.4 609.976 1323.48C623.109 1341.08 633.053 1353.45 648.491 1368.82C626.385 1369.81 598.788 1369.72 576.561 1369.27C570.835 1360.43 558.868 1347.24 552.205 1338.23C528.863 1306.64 500.867 1275.46 478.652 1243.52C469.027 1249.84 454.211 1262.72 444.658 1270.43C445.475 1303.28 445.741 1336.14 445.455 1369C426.384 1369.68 404.6 1369.26 385.325 1369.32C384.845 1356.05 384.882 1342.42 384.974 1329.12C385.518 1250.46 383.834 1171.33 385.299 1092.71C394.009 1092.46 402.517 1092.81 411.494 1092.49Z"/><path fill="#2A3F77" d="M1346.38 673.583C1363.36 673.219 1414.67 675.486 1431.06 677.829C1422.85 704.447 1415.95 731.805 1407.85 758.944C1404.4 753.006 1402.35 749.255 1398.01 743.991C1355.86 769.964 1291.97 814.575 1253.49 844.394C1232.29 832.45 1209.68 817.763 1189.02 804.654C1122.4 841.788 1054.46 877.134 987.958 914.391C983.588 914.575 979.056 917.446 974.971 919.513C978.576 915.009 982.755 911.572 986.892 906.207C1031.46 868.917 1075.06 830.157 1118.8 791.898C1141.3 772.21 1165.17 753.931 1187.92 733.986C1205.74 746.239 1236.66 768.161 1254.95 777.829C1291.72 749.312 1323.48 720.251 1358.89 690.563C1354.88 683.592 1351.46 679.708 1346.38 673.583Z"/><path fill="#2A3F77" d="M1845.22 1092.46C1864.8 1092.26 1884.38 1092.28 1903.95 1092.49L1903.8 1323.08C1952.08 1323.38 2002.39 1322.14 2050.43 1323.3C2050.56 1332.14 2053.12 1363.82 2048.89 1369.12L1844.46 1369.48C1843.04 1347.46 1843.73 1096.86 1845.22 1092.46Z"/><path fill="#40A6D7" d="M1213.18 424.911L1214.92 425.343C1218.56 430.934 1217.38 576.672 1217.39 595.813C1198.92 610.756 1200.73 623.615 1217.34 639.356C1217.57 669.075 1217.58 698.796 1217.36 728.515C1210.11 724.374 1194.06 712.007 1186.45 706.521C1176.24 715.764 1165.98 724.078 1155.32 732.759C1148.93 737.973 1145.43 740.668 1138.43 744.944C1139.57 728.091 1140.2 711.206 1140.32 694.314C1141.39 693.126 1142.45 691.93 1143.5 690.726C1156.79 675.483 1156.33 662.192 1140.56 649.018C1139.87 627.3 1140.62 600.381 1140.76 577.679C1141.91 547.345 1137.91 513.333 1143.86 483.67C1149.33 456.434 1190.53 437.697 1213.18 424.911Z"/><path fill="#40A6D7" d="M1320.1 469.951L1322 470.147C1324.29 472.848 1323.25 532.444 1323.27 539.917L1323.92 693.135C1323.41 693.657 1322.05 695.136 1321.07 695.974C1299.43 714.43 1277.19 734.457 1254.21 751.049C1253.32 751.027 1252.44 751.005 1251.56 750.984C1248.87 749.095 1248.9 749.271 1247.78 746.25L1247.59 638.567C1261.98 624.024 1260.99 609.816 1247.06 595.818C1243.9 507.218 1250.19 513.87 1320.1 469.951Z"/><path fill="#40A6D7" d="M1109.1 576.629L1110.75 577.632C1112.47 582.665 1111.23 637.792 1111.16 647.455C1093.52 664.928 1094.49 675.202 1111.16 693.3C1111.48 719.53 1111.61 745.761 1111.54 771.993C1090.75 791.857 1066.02 810.655 1044.3 830.96C1041.76 833.591 1040.42 835.533 1036.95 836.554L1036.07 835.762C1034.49 827.907 1034.99 779.347 1034.91 769.283C1034.52 741.628 1034.37 713.971 1034.44 686.313C1034.53 608.659 1042.71 617.85 1109.1 576.629Z"/><path fill="#2A3F77" d="M1698.92 746.445C1707.3 746.113 1715.64 747.876 1723.17 751.574C1733.96 756.991 1740.91 765.139 1744.79 776.589C1756.36 810.795 1727.4 842.21 1711.13 871.421C1703.05 886.167 1696.63 901.763 1691.99 917.924C1683.77 947.202 1689.3 975.457 1676.37 1002.27C1664.33 1027.25 1645.67 1031.61 1620.99 1036.45C1609.01 1038.8 1595.29 1042.33 1583.64 1046.05C1568.26 1050.95 1553.07 1058.88 1537.62 1063.8C1521.42 1069.48 1512.34 1060.5 1508.69 1044.98C1502.07 1016.76 1509.83 971.833 1542.72 963.681C1548.8 962.175 1560.44 961.579 1565.79 964.929C1565.74 968.676 1542.49 978.855 1535.47 988.408L1534.71 989.451C1529.24 997.642 1522.02 1037.98 1528.89 1044C1546.84 1045.48 1583.57 1026.72 1602.48 1020.87C1621.81 1014.89 1643.17 1009.05 1661.83 1001.54C1669.08 971.293 1666.45 965.329 1668.81 938.081C1670.48 917.967 1674.89 898.175 1681.91 879.251C1686.02 868.007 1689.02 862.823 1695.48 852.568C1705.18 837.383 1727.26 813.977 1726.2 795.126C1722.94 736.948 1602.63 791.342 1586.67 775.46L1587.57 773.901C1599.6 767.503 1656.73 754.556 1672.92 750.026C1677.85 748.649 1693.1 746.952 1698.92 746.445Z"/><path fill="#2A3F77" d="M1395.57 871.362C1380.13 868.121 1356.88 860.431 1342.32 869.63C1330.3 877.223 1308.24 917.865 1305.12 932.19C1304.5 935.025 1304.03 938.793 1305.73 941.32C1308.99 946.159 1318.03 947.038 1323.46 947.054C1337.35 947.095 1352.12 942.456 1365.88 940.229C1398.87 934.889 1416.49 938.657 1449.04 943.147C1460.07 944.67 1472.37 946.218 1482.99 941.872C1496.95 936.156 1542.54 872.185 1556.43 856.559C1559.86 852.697 1563.95 847.016 1568.17 844.111C1568.42 843.941 1568.69 843.809 1568.95 843.657C1572.05 843.328 1575.43 842.488 1577.9 844.044C1579.18 847.21 1578.82 848.484 1578.64 852.008C1560.08 878.252 1517.7 946.88 1492.15 960.996C1484.85 965.025 1476.01 965.193 1467.9 964.683C1444.25 963.195 1420.48 954.687 1396.81 956.443C1377.03 957.91 1356.99 964.776 1337.57 968.852C1321.99 972.124 1300.88 975.105 1286.88 965.427C1282.18 962.181 1279.41 957.961 1278.53 952.27C1275.46 932.368 1301.28 891.619 1313.43 875.432C1321.79 864.29 1331.25 853.873 1345.83 851.974C1362.69 849.777 1381.68 860.597 1394.56 870.571L1395.57 871.362Z"/><defs><linearGradient id="gradient_0" gradientUnits="userSpaceOnUse" x1="1187.3859" y1="935.45862" x2="1203.698" y2="760.64252"><stop offset="0" stop-color="#B1B2B3" stop-opacity="0.96470588"/><stop offset="1" stop-color="#B1B2B3"/></linearGradient></defs><path fill="url(#gradient_0)" d="M1253.58 861.629C1267.32 850.635 1289.68 836.365 1304.72 826.261L1385.02 772.288C1383.48 778.431 1381.85 784.552 1380.14 790.65C1355.47 809.226 1326.31 827.273 1300.44 844.765C1286.72 854.036 1263.92 871.547 1250.63 879.147C1240.81 873.074 1190.95 840.016 1182.87 843.302C1125.17 866.754 1068.05 893.314 1011.61 919.763L1010.97 919.195C1013.33 917.683 1019.16 914.541 1020.11 912.556L1024.9 909.691C1034.3 906.513 1057.5 892.327 1067.49 886.604C1093.21 871.909 1119.14 857.567 1145.26 843.584C1157.04 837.246 1176.14 826.449 1188.19 821.857C1210.34 832.714 1231.97 850.905 1253.58 861.629Z"/><path fill="#2A3F77" d="M1217.96 1429.24C1224.6 1428.97 1232.27 1429.24 1238.99 1429.31C1238.45 1453.19 1239.55 1481.9 1239.51 1506.41L1224.66 1506.35C1224.66 1491.17 1225.26 1469.62 1223.81 1455.01C1217.22 1468.38 1211.12 1489.99 1204.52 1504.9C1194.76 1509.67 1192.04 1502 1189.73 1494.52C1188.14 1489.34 1185.77 1484.04 1183.51 1479.11C1180.79 1470.72 1177.92 1462.39 1174.89 1454.11C1174.24 1471.93 1174.8 1488.84 1174.49 1506.42C1171.27 1506.49 1162.26 1506.5 1159.63 1507.07C1159 1483.09 1160.91 1451.54 1159.21 1429.48C1182.72 1428.82 1181.56 1426.31 1188.38 1449.25C1191.67 1460.3 1196.4 1472.52 1199.81 1483.88C1204.25 1468.38 1212.14 1444.15 1217.96 1429.24Z"/><path fill="#2A3F77" d="M784.845 1429.02C808.194 1427.41 802.163 1427.4 813.611 1446.44C820.785 1458.36 828.369 1470.08 835.142 1482.52C836.031 1465.19 835.368 1446.42 835.869 1428.76C842.586 1428.66 846.906 1428.83 853.61 1429.41C852.534 1443.38 851.767 1457.37 851.309 1471.37C851.12 1479.06 851.383 1500.34 849.833 1506.33L832.838 1506.44C830.234 1501.64 803.441 1456.04 801.387 1454.58C798.731 1458.47 799.767 1499.29 800.002 1506.37L785.651 1506.46C785.167 1486.77 783.058 1447.46 784.845 1429.02Z"/><path fill="#2A3F77" d="M1336.24 1428.5C1339.42 1428.53 1342.82 1428.69 1346.03 1428.79C1355.86 1446.33 1369.5 1468.9 1378.07 1485.9C1379.88 1476.16 1378.46 1441.14 1378.59 1429.13C1383.58 1428.79 1390.63 1427.65 1394.46 1430.78C1394.43 1436.58 1394.95 1504.48 1394.46 1505.87L1390.9 1506.66L1375.75 1506.44C1369.31 1496.29 1348.68 1457.64 1342.76 1452.81C1341.01 1457.84 1342.15 1498 1342.15 1506.37C1337.41 1506.45 1332.25 1506.3 1327.47 1506.26C1327.08 1495.05 1326.82 1439.01 1329.09 1430.25C1332.05 1428.05 1331.81 1428.78 1336.24 1428.5Z"/><path fill="#2A3F77" d="M941.224 1429.28C954.326 1428.06 988.597 1429.05 1003.03 1429.19L1002.9 1442.12C988.288 1442.05 973.672 1442.08 959.058 1442.2L959.041 1460.22C972.587 1460.11 986.41 1459.85 999.925 1460.3L999.864 1473.51C988.307 1474.04 973.555 1473.64 961.75 1473.67C960.004 1473.94 960.82 1473.76 959.19 1475.07C958.268 1480.32 958.71 1487.54 958.837 1493.05C974.125 1492.91 989.414 1493.01 1004.7 1493.34C1004.86 1497.32 1004.55 1503.14 1004.44 1507.27C994.728 1507.49 948.763 1508.13 942.748 1506.11C939.714 1499.39 940.138 1437.9 941.224 1429.28Z"/><path fill="#2A3F77" d="M1291.97 1429.5L1315.87 1429.47L1315.81 1442.49C1300.88 1442.64 1285.95 1442.69 1271.02 1442.64L1270.97 1460.34C1284.41 1460.6 1298.6 1460.38 1312.09 1460.39L1312.05 1473.35C1298.24 1473.71 1284.04 1473.46 1270.07 1473.78C1270.73 1480.25 1270.39 1487.13 1270.24 1493.66L1282.75 1493.6C1294.77 1493.43 1306.8 1493.46 1318.82 1493.7L1318.77 1506.8C1298.04 1506.62 1273.94 1507.43 1253.53 1506.26C1253.06 1481.05 1253.4 1454.82 1253.39 1429.54L1291.97 1429.5Z"/><path fill="#2A3F77" d="M1508.59 1427.43C1527.28 1428.12 1530.3 1432.88 1538.32 1448.76L1522.16 1450.42C1517.62 1444.88 1515.31 1441.4 1507.43 1440.6C1501.93 1440.04 1493.79 1442.18 1494.52 1449.35C1495.71 1458.52 1502.96 1459.2 1510.31 1460.08C1525.32 1461.87 1541.13 1464.13 1541.75 1482.65C1541.96 1488.77 1539.69 1494.71 1535.46 1499.13C1526.68 1508.21 1513.6 1508.11 1502.1 1508.02C1491.69 1506.38 1480.85 1502.86 1476.14 1492.39C1476.2 1488.24 1475.61 1490.06 1477.78 1486.68C1481.13 1484.31 1485.8 1484.43 1490.11 1484.02C1500.45 1503.16 1525.4 1496.85 1524.48 1484.9C1517.68 1473.82 1497.64 1472.94 1486.14 1466.64C1478.2 1462.3 1478.73 1458.68 1475.66 1449.17L1478.85 1438.89C1490.25 1429.18 1493.68 1428.71 1508.59 1427.43Z"/><path fill="#2A3F77" d="M1034.47 1428.32C1059.26 1427.85 1065.69 1425.31 1077.26 1449.43C1066.27 1449.8 1060.51 1451.7 1055.51 1442.47C1052.81 1439.56 1044.12 1439.11 1041.19 1439.82C1022.06 1444.46 1031.9 1459.21 1047.09 1460.36C1056.47 1461.07 1066.59 1464.76 1074.46 1469.28C1088.16 1490.82 1074.96 1502.72 1054.17 1507.2C1031.78 1508.84 1020.2 1508.88 1011.7 1485.75C1025.81 1482.72 1025.21 1481.44 1034.69 1492.38C1038.13 1496.35 1063.17 1498.68 1062.67 1484.39C1055.49 1470.11 1001.29 1476.72 1016.98 1439.57C1019.84 1432.8 1028.09 1430.08 1034.47 1428.32Z"/><path fill="#2A3F77" d="M1901.15 1429.37C1907.56 1428.58 1953.63 1427.76 1958.28 1430.6C1958.89 1435.18 1957.29 1439.74 1956.15 1444.35C1942.46 1456.58 1927.65 1478.52 1917.59 1493.65C1926.15 1493.82 1954.63 1492.13 1960.4 1495.14C1961.61 1498.96 1960.91 1503.2 1960.62 1507.31C1951.33 1508.55 1908.28 1507.68 1896.49 1507.53C1896.24 1503.41 1896.29 1498.29 1896.23 1494.09C1901.41 1489.9 1932.17 1449.9 1937.77 1442.61C1925.3 1442.34 1912.83 1442.25 1900.36 1442.34C1900.28 1437.81 1899.87 1433.67 1901.15 1429.37Z"/><path fill="#2A3F77" d="M1746.55 1429.03C1759.25 1427.8 1779.51 1428.76 1785.89 1442.19C1787.99 1446.61 1789.1 1448.22 1787.21 1452.78C1775.24 1458.08 1767.05 1441.59 1756.14 1441.35C1727.04 1440.68 1728.69 1495.56 1756.59 1495.76C1763.14 1495.8 1765.97 1493.7 1770.6 1489.35C1777.88 1479.21 1779.76 1481.36 1791.46 1484.41C1790.85 1485.66 1790.21 1486.89 1789.55 1488.12C1779.12 1507.36 1754.39 1514.4 1736.53 1503.38C1708.13 1485.86 1711.27 1437.15 1746.55 1429.03Z"/><path fill="#2A3F77" d="M1833.7 1428.8L1890.45 1429.05C1890.65 1432.92 1890.53 1438.16 1890.56 1442.14C1877.28 1442.07 1864.01 1442.08 1850.73 1442.18L1850.73 1464.84C1861.31 1465.23 1877.62 1463.42 1887.71 1465.96C1889.44 1466.39 1889.87 1469.52 1890.46 1471.51C1890.08 1474.01 1890.25 1474.49 1888.69 1476.5C1882.22 1479.57 1858.88 1478.14 1849.98 1478.11L1849.99 1507.4C1844.48 1507.72 1838.23 1507.5 1832.65 1507.42C1832.3 1497.64 1831.65 1433.75 1833.7 1428.8Z"/><path fill="#2A3F77" d="M859.703 1428.4L876.773 1428.63C878.162 1435.98 893.813 1483.71 897.428 1486.69C900.379 1473.77 912.765 1442.33 918.003 1429.53C924.528 1429.08 928.671 1429.36 935.248 1429.78L929.054 1445.42C920.958 1460.88 914.587 1477.86 909.461 1494.53C908.13 1498.86 909.102 1502.9 905.647 1506.27C900.71 1507.55 895.125 1506.95 889.923 1506.76C878.774 1482.69 868.927 1455.29 858.66 1430.41L859.703 1428.4Z"/><path fill="#2A3F77" d="M1085.68 1428.38C1107.55 1428.87 1130.51 1428.52 1152.54 1428.71L1152.11 1442.83C1143.07 1442.24 1134.72 1442.31 1125.68 1442.33L1126.05 1485.77C1126.02 1493.44 1126.16 1499.96 1126.6 1507.62C1121.19 1507.96 1114.46 1507.81 1108.93 1507.82L1109.07 1442.62C1101.66 1442.12 1091.11 1442.46 1083.48 1442.47C1083.38 1440.77 1083.3 1439.07 1083.24 1437.37C1083.09 1432.31 1082.83 1431.41 1085.68 1428.38Z"/><path fill="#2A3F77" d="M1401.28 1428.95C1421.43 1427.86 1449.25 1428.67 1469.98 1428.64C1470.26 1432.86 1470.95 1437.32 1468.78 1440.76C1463.49 1445.22 1452.67 1443.13 1444.37 1443.05C1444.29 1456.45 1444.33 1469.85 1444.48 1483.25L1444.34 1506.54C1438.89 1506.65 1432.96 1506.4 1427.48 1506.26L1427.07 1442.94L1402.53 1442.77C1401.97 1438.87 1401.64 1433.02 1401.28 1428.95Z"/><path fill="#2A3F77" d="M1656.72 1428.45C1657.62 1428.43 1658.52 1428.42 1659.42 1428.41C1663.48 1428.41 1665.27 1428.13 1668.15 1431.01C1668.95 1436.9 1668.28 1447.62 1668.2 1453.96L1667.85 1493.25C1680.82 1493.84 1696.42 1493.36 1709.59 1493.27C1709.78 1498.86 1711.64 1504.85 1706.09 1506.94L1651.03 1507.09C1650.72 1487.32 1650.19 1450.17 1651.53 1430.79C1654.36 1428.31 1652.75 1429.17 1656.72 1428.45Z"/><path fill="#2A3F77" d="M1583.79 1428.79L1599.12 1428.83C1599.89 1449.72 1599.46 1472.8 1599.44 1493.87L1642.45 1493.68C1642.61 1498.58 1643.81 1503.82 1639.79 1506.86L1583.99 1506.79C1583.38 1494.87 1580.42 1437.1 1583.79 1428.79Z"/><path fill="#B1B2B3" fill-opacity="0.58431375" d="M1252.99 859.333C1279.25 840.997 1305.72 822.968 1332.4 805.249C1348.43 794.449 1369.18 779.659 1385.53 770.049L1387.55 770.45C1387.6 775.391 1383.76 787.138 1382.06 792.128C1367.06 801.835 1255.18 879.462 1250.71 879.928C1243.58 877.53 1229.27 868.216 1222.29 864.016C1210.28 856.827 1198.15 849.84 1185.91 843.058C1144.82 861.231 1103.66 879.263 1062.58 897.468C1040.18 907.396 1016.27 921.235 993.251 928.771C997.512 925.565 1015.6 912.714 1020.11 912.556C1019.16 914.541 1013.33 917.683 1010.97 919.195L1011.61 919.763C1068.05 893.314 1125.17 866.754 1182.87 843.302C1190.95 840.016 1240.81 873.074 1250.63 879.147C1263.92 871.547 1286.72 854.036 1300.44 844.765C1326.31 827.273 1355.47 809.226 1380.14 790.65C1381.85 784.552 1383.48 778.431 1385.02 772.288L1304.72 826.261C1289.68 836.365 1267.32 850.635 1253.58 861.629C1231.97 850.905 1210.34 832.714 1188.19 821.857C1176.14 826.449 1157.04 837.246 1145.26 843.584C1119.14 857.567 1093.21 871.909 1067.49 886.604C1057.5 892.327 1034.3 906.513 1024.9 909.691C1029.83 905.417 1059.15 889.216 1065.98 885.333C1091.82 870.539 1117.87 856.121 1144.13 842.083C1156.3 835.565 1176.24 824.384 1188.73 819.874C1211.24 831.972 1231.41 847.667 1252.99 859.333Z"/><path fill="#2A3F77" d="M754.551 1429.42C759.912 1429.16 765.353 1429.46 770.724 1429.65C770.803 1439.25 772.195 1502.66 769.844 1506.41L754.031 1506.4C753.855 1496.22 752.167 1434.32 754.551 1429.42Z"/><path fill="#2A3F77" d="M1567.11 426.422C1577.07 426.531 1598.75 429.265 1609.3 430.297C1609.7 441.98 1608.34 454.473 1609.16 465.868C1609.66 472.871 1614.43 482.565 1614.05 490.207C1611.89 485.799 1602.21 474.352 1598.68 469.819C1587.75 455.762 1576.27 441.768 1567.11 426.422Z"/><path fill="#293A6A" d="M1661.11 606.95C1664.49 607.562 1664.41 607.472 1667.36 609.138C1672.58 616.103 1667.95 623.517 1661.84 628.004C1658.15 627.72 1656.92 628.018 1654.31 625.742C1651.99 619.651 1656.99 611.249 1661.11 606.95Z"/><path fill="#FFFEFE" fill-opacity="0.047058824" d="M1174.89 1454.11C1177.92 1462.39 1180.79 1470.72 1183.51 1479.11L1179.67 1476.67C1174.85 1478.97 1177.58 1502.22 1177.43 1508.42C1173.66 1508.49 1161.98 1509.43 1159.63 1507.07C1162.26 1506.5 1171.27 1506.49 1174.49 1506.42C1174.8 1488.84 1174.24 1471.93 1174.89 1454.11Z"/><path fill="#293A6A" d="M1568.95 843.657C1579.29 833.653 1583.7 830.395 1597.27 825.847C1591.19 835.064 1585.23 843.144 1578.64 852.008C1578.82 848.484 1579.18 847.21 1577.9 844.044C1575.43 842.488 1572.05 843.328 1568.95 843.657Z"/><path fill="#2A3F77" fill-opacity="0.70980394" d="M960.898 929.187C966.608 922.623 979.483 911.091 986.892 906.207C982.755 911.572 978.576 915.009 974.971 919.513C979.056 917.446 983.588 914.575 987.958 914.391C986.739 916.78 964.838 927.317 960.898 929.187Z"/><path fill="#293A6A" fill-opacity="0.92156863" d="M1479.78 420.359C1482.71 417.517 1491.85 408.011 1495.5 407.55C1495.38 409.933 1488.68 421.589 1487.06 424.377C1484.8 421.774 1483.16 421.575 1479.78 420.359Z"/></svg>