<?xml version="1.0" encoding="utf-8" ?><svg xmlns="http://www.w3.org/2000/svg" xmlns:xlink="http://www.w3.org/1999/xlink" width="2592" height="1632" viewBox="0 0 2592 1632"><path fill="#30378E" d="M399.793 835.512C415.977 834.367 444.928 835.342 462.047 835.382C425.266 867.434 382.641 901.56 347.583 933.884C353.333 946.573 365.709 964.689 373.576 976.447C386.485 995.848 399.646 1015.08 413.053 1034.14C423.967 1025.62 483.593 931.016 495.504 912.986C507.466 894.878 534.459 854.283 545.734 835.408C562.61 834.852 582.462 835.178 599.323 835.449C599.865 840.336 599.967 843.793 602.162 848.267C603.428 861.669 616.907 908.989 620.648 923.464C630.698 962.341 640.345 1011.73 653.217 1049.34C635.618 1049.56 618.017 1049.51 600.419 1049.21C598.665 1041.27 592.434 1011.35 589.27 1005.56C584.017 1002.86 498.652 1004.03 487.756 1004.08C478.353 1020.08 468.911 1031.58 459.853 1049.25C427.995 1049.57 396.134 1049.55 364.277 1049.21C348.714 1023.4 326.197 993.633 309.142 966.654C300.082 972.557 281.916 989.237 273.098 996.942C270.922 1013.19 264.207 1033.11 262.779 1049.33C245.848 1049.42 228.916 1049.39 211.986 1049.23C213.003 1036.96 219.247 1010.65 221.811 997.729C229.827 957.345 239.461 917.146 247.127 876.665C248.221 870.884 253.51 838.417 256.069 835.456C264.219 835.43 300.933 833.833 305.571 836.758C306.669 839.633 288.34 921.98 286.902 932.69C323.487 898.758 363.43 868.351 399.793 835.512ZM511.85 966.059C519.592 965.874 527.336 965.773 535.08 965.758C550.962 965.995 566.845 966.099 582.729 966.068C579.697 956.129 565.365 889.377 562.517 886.622C557.55 892.036 515.212 958.668 511.85 966.059Z"/><path fill="#30378E" d="M1456.18 835.369C1464.98 835.268 1497.88 834.334 1504.58 836.006C1505.7 838.61 1504.96 842.194 1504.29 845.01C1491.33 899.181 1482.47 954.066 1470.26 1008.42C1482.83 1008.68 1574.79 1007.41 1579.43 1009.77C1580.92 1018.29 1574.04 1034.25 1572.96 1046.12L1572.83 1047.74C1607.05 998.199 1640.62 948.21 1673.54 897.79C1684.13 881.772 1702.9 849.081 1715.02 835.553C1727.94 834.716 1753.79 835.148 1766.99 835.566C1772.18 863.484 1781.65 898.987 1788.69 926.801C1790.35 930.715 1793.89 944.935 1795.09 949.549C1801.53 974.417 1805.8 999.922 1812.35 1024.75C1813.56 1029.32 1816.95 1043.98 1819.34 1047.55C1813.84 1050.68 1775.6 1049.62 1767.18 1049.42C1766.3 1040.9 1761.25 1012.89 1757.65 1005.96C1751.52 1002.91 1668.71 1003.59 1656.02 1003.66C1649.23 1012.83 1635.15 1038.26 1628.78 1049.22C1609.67 1049.35 1590.71 1049.95 1571.66 1048.61C1565.37 1048.46 1557.93 1050.1 1551.78 1049.87C1505.5 1048.17 1457.03 1051.81 1410.96 1049.26C1412.61 1036.71 1417.91 1015.59 1420.73 1002.4L1438.8 916.299C1442.28 899.823 1451.12 847.799 1456.18 835.369ZM1680.76 965.935L1701.5 965.935L1749.76 966.087C1744.13 942.961 1738.64 909.431 1730.35 888.689C1719 902.978 1691.36 948.486 1680.76 965.935Z"/><path fill="#2FA3D9" d="M1927.78 452.072C1975.99 453.612 2031.02 458.312 2073.94 482.756C2084.94 489.015 2095.89 498.274 2105.68 506.39C2135.08 488.535 2172.65 480.148 2206.84 479.159C2156.77 556.525 2144.01 627.515 2161.98 719.146C2167.47 738.796 2170.94 763.096 2178.03 781.996C2191.62 818.195 2214.72 846.689 2189.97 885.754C2170.13 916.893 2116.69 943.513 2081.91 923.08C2068.3 915.082 2064.09 885.799 2051.74 873.222C2011.5 832.241 1961.75 811.747 1949.43 748.766C1942.7 714.362 1965.09 663.465 1994.48 645.293C1979.19 686.034 1954.77 723.642 1975.07 766.544C1990.64 799.457 2013.33 810.006 2038.42 832.65C2050.8 843.961 2061.73 856.761 2070.97 870.756C2073.53 874.658 2077.2 880.15 2078.75 884.246C2081.77 892.189 2080.6 907.509 2091.43 909.967C2145.95 922.347 2091.65 864.955 2104.77 847.854C2107.91 846.573 2107.81 846.39 2111 847.098C2122.99 855.038 2122.99 899.918 2148.59 894.09C2169.65 889.296 2180.76 858.66 2174.67 839.454C2168.38 817.15 2156.87 801.433 2151.15 779.251C2132.9 712.529 2128.79 649.073 2136.99 580.407C2139.58 558.717 2142.25 534.563 2150.14 513.992C2131.61 524.039 2118.22 537.748 2106.39 555.082C2065.68 513.191 2039.16 497.302 1979.31 494.374C1983.92 504.968 1989.37 513.767 1995.58 523.489C1890.98 531.449 1809.93 568.72 1741.1 649.453C1737.6 653.555 1715.22 682.424 1712.78 684.144C1708.12 685.351 1709.02 687.147 1704.35 687.8C1702.92 685.766 1704.46 677.941 1704.57 673.762C1739.62 601.489 1800.62 535.238 1877.93 509.487C1900.47 501.978 1921.53 497.084 1944.94 492.955C1939.7 482.456 1931.57 463.411 1927.78 452.072Z"/><path fill="#30378E" d="M868.649 835.431C881.898 834.544 905.901 835.17 919.914 835.145C917.532 847.682 914.211 860.212 911.718 872.749C900.026 931.56 886.173 990.714 875.569 1049.68C863.953 1050.43 845.841 1049.88 833.953 1049.52C823.34 1033.93 811.922 1013.44 801.621 997.183C785.016 970.975 768.517 944.556 753.015 917.69C747.693 947.826 738.597 979.719 732.933 1010.06C730.401 1023.62 726.997 1036.06 725.557 1050.06C708.265 1050.02 690.973 1049.88 673.682 1049.65C680.747 1025.97 684.928 1000.75 689.761 976.433L708.014 887.883C710.815 874.277 714.799 846.639 719.276 835.338C730.954 834.957 749.859 834.983 761.256 835.655C781.948 865.599 798.651 899.949 819.732 930.069C827.577 941.277 834.738 955.388 842.34 967.218C848.382 949.652 853.607 911.17 857.747 891.794C860.508 878.871 867.74 847.27 868.649 835.431Z"/><path fill="#30378E" d="M1283.17 835.238C1300.06 835.02 1316.96 835.03 1333.86 835.27C1340.04 853.44 1346.65 884.369 1351.3 903.75L1377.35 1012.07C1379.27 1020.3 1387.03 1041.38 1387.2 1047.99C1383.28 1051.17 1345 1049.77 1337.04 1049.69L1324.97 1003.97L1245.75 1004.05L1225.13 1004.25C1215.5 1019.56 1205 1034.01 1195.35 1049.23C1177.16 1049.46 1158.96 1049.43 1140.77 1049.14C1148.8 1035.81 1158.73 1022.17 1167.27 1008.96C1194.75 966.435 1222.78 923.483 1251.86 882.07C1257.04 874.689 1278.36 840.023 1283.17 835.238ZM1270.75 965.74L1318.14 965.535C1315.29 951.67 1303.68 896.262 1296.92 887.842C1290.53 897.1 1253.14 956.603 1250.42 964.342C1253.89 966.68 1266.36 965.846 1270.75 965.74Z"/><path fill="#30378E" d="M1067.18 830.475C1091.13 829.804 1124 836.484 1143.77 850.08C1151.33 855.277 1159.3 862.515 1166.24 868.664C1153.79 878.481 1141.39 888.362 1129.04 898.308C1118.6 887.652 1105.49 879.992 1091.08 876.126C1069.5 870.413 1044.76 874.171 1025.57 885.15C992.484 904.667 973.575 950.079 994.427 984.828C1011.79 1013.77 1060.09 1018 1086.73 1001.19C1090.01 988.2 1097.99 950.991 1098.7 939.142C1104.63 938.907 1111.48 939.029 1117.5 938.985L1146.26 938.824C1140.34 956.569 1131.56 1010.1 1128.94 1028.66C1104.85 1040.25 1090.8 1048.45 1062.66 1051.99C1031.16 1056.1 994.221 1051.66 968.47 1031.36C920.775 993.755 926.566 923.652 962.115 879.803C990.268 845.077 1025.62 835.48 1067.18 830.475Z"/><path fill="#2FA3D9" d="M2182.52 1025.37C2209.01 1023.99 2228.23 1030.25 2243.17 1053.88C2253.03 1069.48 2256.19 1086.15 2255.59 1104.24C2254.75 1129.42 2236.62 1147.13 2230.63 1170.43C2222.68 1211.72 2224.76 1256.43 2216.8 1297.27C2210.42 1330.06 2188.84 1355.46 2154.8 1359.65C2145.29 1361.45 2129.36 1360.4 2120.68 1364.4C2100.51 1373.46 2081.73 1404.72 2055.91 1397.08C2028.33 1388.93 2023.79 1362.12 2027.86 1337.41C2031.34 1316.31 2034.43 1298.26 2040.18 1278.19C2056.9 1277.39 2072.8 1274.81 2089.41 1273.48C2089.91 1273.85 2090.41 1274.23 2090.91 1274.61C2090.68 1275.39 2090.53 1276.11 2090.01 1276.78C2079.18 1290.58 2069.29 1292.84 2053.42 1296.59C2051.83 1306.59 2050.12 1316.58 2048.3 1326.54C2047.21 1338.59 2043.92 1363.36 2055.34 1369.87C2071.16 1378.9 2096.99 1351.2 2110.4 1344.78C2133.71 1333.62 2167.25 1333.9 2181.89 1310.94C2193.01 1293.48 2187.38 1265.83 2187.17 1245.92C2187.09 1233.17 2187.86 1220.42 2189.49 1207.77C2191.37 1194.12 2194.63 1180.69 2199.22 1167.69C2210.15 1137.57 2225.72 1113.63 2217.46 1078.78C2215.95 1072.42 2212.74 1064.37 2206.44 1061.44C2176.45 1047.49 2141.22 1073.47 2110.64 1079.29C2079.2 1085.28 2056.58 1088.34 2029.2 1071.43C2046.74 1069.31 2068.7 1068.53 2085.06 1062.45C2125.31 1047.48 2137.44 1030.59 2182.52 1025.37Z"/><defs><linearGradient id="gradient_0" gradientUnits="userSpaceOnUse" x1="1400.0173" y1="652.28815" x2="1539.7411" y2="578.12457"><stop offset="0" stop-color="#3365AF"/><stop offset="1" stop-color="#3AB0E5"/></linearGradient></defs><path fill="url(#gradient_0)" d="M1321.27 487.854C1425.18 530.604 1567.14 596.614 1610.83 706.341C1616.25 719.967 1619.17 732.086 1623.66 743.63C1620.56 745.287 1620.23 745.664 1616.83 745.873C1601.47 711.872 1568.51 680.058 1540.56 656.557C1484.28 609.233 1414.47 582.565 1348.32 552.38C1347.07 546.07 1343.26 545.075 1340.59 539.627C1334.75 527.718 1317.75 500.888 1314.27 489.719L1315.04 488.688L1321.27 487.854Z"/><path fill="#2FA3D9" d="M1942.71 674.947C1942.67 678.072 1933.42 705.864 1931.88 711.375C1917.24 763.642 1908.74 806.321 1919.33 860.373C1925.33 895.494 1942.39 923.346 1958.19 955.058C1980.7 1000.27 1999.98 1056.09 1982.79 1106.37C1979.25 1116.73 1971.19 1131.85 1962.6 1138.69C1961.57 1136.23 1963.9 1111.44 1963.84 1106.36C1962.92 1032.96 1923.98 974.645 1902.04 907.556C1884.4 853.61 1885.21 791.757 1905.99 738.798C1911.64 724.538 1930.63 682.976 1942.71 674.947Z"/><path fill="#2FA3D9" d="M2107.03 1106.83L2108.32 1107.72L2108.43 1109.29C2095.27 1127.19 2084.93 1138.8 2073.36 1158.78C2057 1187.04 2038.57 1237.9 2013.16 1258.11C2003.95 1265.4 1992.86 1269.92 1981.19 1271.15C1958.3 1273.72 1938.55 1262.68 1915.79 1263.3C1893.96 1263.9 1869.08 1274.18 1847.33 1272.85C1839.32 1272.36 1832.41 1266.67 1827.62 1260.53C1820.46 1251.37 1819.7 1239.62 1821.89 1228.28C1826.99 1201.83 1841.25 1174.15 1863.22 1158.09C1883.48 1146.53 1904.62 1158.84 1917.18 1175.48C1904.06 1175.56 1891.25 1175.72 1878.13 1175.01C1863.52 1182.54 1850.83 1200.1 1845.95 1215.33C1841.03 1230.66 1835.77 1244.89 1858.09 1243.27C1877.01 1241.9 1895.66 1237.9 1914.46 1237.76C1933.18 1237.61 1951.6 1247.49 1970.59 1244.48C2010.67 1238.72 2018.21 1189.12 2041.49 1162.89C2064.51 1135.57 2076.04 1125.38 2107.03 1106.83Z"/><path fill="#378ACA" d="M1300.23 608.284C1319.82 614.718 1357.01 628.469 1375.25 638.288C1436.79 665.513 1488.04 696.758 1537.3 743.073C1540.44 746.026 1555.53 761.249 1557.23 764.217L1554.78 764.836C1555.03 771.66 1571.95 784.631 1569.37 787.928C1560.42 787.998 1554.11 774.857 1548.99 776.828C1549.58 778.896 1550.05 780.377 1550.76 782.37C1521.56 759.33 1497.1 740.817 1463.57 723.451C1436.81 709.598 1411.11 699.588 1383.32 688.217C1364.69 681.596 1322.91 663.174 1304.92 654.28L1305.82 652.948C1308.25 651.979 1308.14 651.956 1310.16 650.239C1311.19 645.885 1310.26 644.19 1307.79 640.117L1304.63 640.561C1296.9 634.235 1301.11 617.932 1293.53 610.991C1292.22 609.782 1291.96 610.522 1291.4 608.215C1294.34 608.274 1297.29 608.297 1300.23 608.284Z"/><path fill="#3469B2" d="M1300.23 608.284C1319.82 614.718 1357.01 628.469 1375.25 638.288L1374 638.373C1360.75 639.18 1328.5 619.975 1322.99 620.364C1324.76 628.351 1336.44 658.72 1339.63 665.464C1346.46 669.342 1350.6 670.148 1356.1 673.116C1364.91 677.863 1379.78 679.212 1383.32 688.217C1364.69 681.596 1322.91 663.174 1304.92 654.28L1305.82 652.948C1308.25 651.979 1308.14 651.956 1310.16 650.239C1311.19 645.885 1310.26 644.19 1307.79 640.117L1304.63 640.561C1296.9 634.235 1301.11 617.932 1293.53 610.991C1292.22 609.782 1291.96 610.522 1291.4 608.215C1294.34 608.274 1297.29 608.297 1300.23 608.284Z"/><path fill="#378ACA" d="M1366.69 436.5C1367.58 428.574 1371.16 416.353 1369.2 410.086C1368.46 407.741 1368.4 408.897 1368.03 405.483C1373.37 402.536 1389.76 418.016 1403.15 417.328C1463.93 447.487 1516 478.952 1562.35 528.615C1576.17 543.934 1588.14 558.846 1598.67 576.723C1587.18 581.356 1594.63 578.77 1583.27 577.129C1570.65 564.764 1555.65 553.36 1541.64 542.479C1523.42 529.912 1501.45 514.146 1482.68 503.124C1448.82 483.23 1411.25 464.021 1375.94 446.823C1373.89 443.095 1369.82 439.58 1366.69 436.5Z"/><path fill="#2FA3D9" d="M1541.64 542.479L1542.49 539.051L1543.96 538.703C1553.3 542.31 1563.6 557.94 1573.69 556.776C1582.71 546.883 1558.14 537.449 1557.73 528.39L1562.35 528.615C1576.17 543.934 1588.14 558.846 1598.67 576.723C1587.18 581.356 1594.63 578.77 1583.27 577.129C1570.65 564.764 1555.65 553.36 1541.64 542.479Z"/><path fill="#E32E29" d="M1279.4 1161.51C1333.09 1136.09 1368.23 1192.15 1326.94 1231.68C1315.84 1242.32 1300.69 1243.92 1285.9 1242.81C1275.26 1240.35 1272.79 1238.83 1264.53 1231.64C1262.56 1245.75 1259.36 1260.23 1257.23 1274.55C1250.42 1274.96 1241.8 1274.77 1234.85 1274.81C1235.05 1264.97 1257.1 1158.8 1259.37 1156.35L1273.81 1156.84L1279.4 1161.51ZM1299.96 1224.82C1333.6 1210.4 1332.35 1168.93 1292.47 1174.32C1257.64 1189.07 1265.78 1231.44 1299.96 1224.82Z"/><path fill="#30378E" d="M1328.88 543.478C1312.35 536.117 1295.36 527.874 1278.87 520.159C1237.84 500.964 1190.32 479.12 1163.02 441.574C1154.62 430.024 1135.56 393.761 1137.65 380.788C1142.53 384.596 1159.45 406.861 1170.26 416.056C1214.65 453.83 1257.42 460.843 1308.22 482.374L1321.27 487.854L1315.04 488.688L1314.27 489.719C1317.75 500.888 1334.75 527.718 1340.59 539.627C1343.26 545.075 1347.07 546.07 1348.32 552.38L1328.88 543.478Z"/><path fill="#3469B2" d="M1328.88 543.478L1329.68 540.635C1332.26 540.532 1333.1 541.539 1335.78 542.911L1336.78 542.848L1336.37 543.169C1336.36 541.394 1336.47 540.415 1334.78 539.317C1328.32 535.151 1325.69 525.643 1318.82 522.226C1314.72 520.191 1313.18 524.588 1308.45 523.152C1306.63 517.764 1308.15 501.319 1308.61 494.632C1304.36 492.496 1297.18 489.556 1299.46 483.914C1303.06 481.277 1303 482.171 1308.22 482.374L1321.27 487.854L1315.04 488.688L1314.27 489.719C1317.75 500.888 1334.75 527.718 1340.59 539.627C1343.26 545.075 1347.07 546.07 1348.32 552.38L1328.88 543.478Z"/><path fill="#E32E29" d="M814.837 1130.44C822.211 1130.23 829.795 1130.33 837.187 1130.34C846.479 1172.45 856.148 1202.19 868.762 1242.33C860.931 1242.97 851.957 1242.8 844.016 1242.84C841.032 1235.33 838.926 1225.5 836.955 1217.51C823.603 1216.9 806.399 1217.4 792.75 1217.39L780.699 1217.52C775.315 1224.58 769.954 1234.44 764.07 1242.42C757.11 1243.2 747.2 1242.87 739.986 1242.83C756.291 1215.72 774.588 1189.28 792.015 1162.85C795.832 1157.06 811.007 1133.73 814.837 1130.44ZM793.377 1199.2L808.831 1199.3L832 1199.18C830.468 1191.51 824.675 1160.41 819.641 1156.45C811.294 1169.7 800.675 1185.64 793.377 1199.2Z"/><path fill="#30378E" d="M1375.94 446.823C1329.67 427.601 1257.09 379.529 1221.81 342.883C1211.51 332.181 1191.5 303.67 1192.12 288.634L1193.65 287.446C1225.78 326.013 1263.67 343.608 1306.44 367.074C1338.34 384.581 1371.33 400.239 1403.15 417.328C1389.76 418.016 1373.37 402.536 1368.03 405.483C1368.4 408.897 1368.46 407.741 1369.2 410.086C1371.16 416.353 1367.58 428.574 1366.69 436.5C1369.82 439.58 1373.89 443.095 1375.94 446.823Z"/><path fill="#30378E" d="M1304.92 654.28C1299.68 652.81 1277.31 641.557 1271.42 638.565C1234.28 619.67 1195.37 602.891 1164.3 574.277C1152.2 563.141 1131.99 533.923 1128.81 515.789C1128.47 513.813 1129.58 513.227 1130.7 512.189C1190.54 572.913 1225.14 579.345 1300.23 608.284C1297.29 608.297 1294.34 608.274 1291.4 608.215C1291.96 610.522 1292.22 609.782 1293.53 610.991C1301.11 617.932 1296.9 634.235 1304.63 640.561L1307.79 640.117C1310.26 644.19 1311.19 645.885 1310.16 650.239C1308.14 651.956 1308.25 651.979 1305.82 652.948L1304.92 654.28Z"/><path fill="#E32E29" d="M1063.44 1130.2C1089.29 1129.44 1120.41 1130.29 1146.51 1130.38C1146.39 1136.57 1145.98 1142.24 1145.52 1148.41C1126.56 1149.41 1102.37 1148.55 1082.63 1148.89C1080.67 1157.29 1079.07 1166.99 1077.64 1175.53C1094.8 1175.49 1114.15 1175.06 1131.1 1176.63C1129.89 1181.79 1129.05 1188.21 1128.21 1193.54C1111.4 1194.27 1091.22 1193.94 1074.15 1194.07L1071.18 1205.3C1070.21 1211.84 1068.82 1217.73 1067.91 1224.78C1087.89 1224.65 1113.42 1223.65 1132.86 1224.63C1129.91 1231.85 1128.96 1234.68 1127.3 1242.29C1118.76 1243.19 1098.33 1242.85 1089.18 1242.88C1074.28 1242.93 1054.23 1243.58 1039.65 1242.52C1045.27 1214.96 1052.35 1187.65 1057.09 1159.85C1058.72 1150.27 1060.88 1139.54 1063.44 1130.2Z"/><path fill="#E32E29" d="M1468.09 1156.31C1469.84 1156.24 1471.6 1156.2 1473.35 1156.21C1489.55 1156.28 1503.72 1162.83 1510.06 1178.42C1513.74 1187.46 1513.06 1195.75 1513.02 1205.25C1498.58 1205.26 1484.14 1205.16 1469.7 1204.96C1463.02 1204.9 1446.48 1203.16 1442.63 1208.04C1442.63 1216.77 1450.88 1222.52 1458.26 1225.56C1470.51 1230.61 1480.84 1224.78 1491.91 1220.15C1496.86 1224.09 1502.08 1227.25 1499.06 1233.66C1493.61 1238.34 1481.73 1241.88 1474.62 1243.02C1433.62 1249.56 1404.9 1212.84 1430.68 1176.9C1439.72 1164.29 1453.32 1158.62 1468.09 1156.31ZM1465.5 1192.44C1472.02 1192.54 1487.01 1193.35 1492.44 1191.5C1496.93 1179.5 1481.67 1172.6 1471.59 1172.28C1462.57 1173.66 1444.43 1180.87 1444.2 1191.4C1448.1 1193.42 1460.73 1192.54 1465.5 1192.44Z"/><path fill="#E32E29" d="M1156.13 1156.35C1163.24 1156.1 1170.76 1156.39 1177.91 1156.54C1181.98 1166.53 1185.38 1172.88 1191.58 1181.67C1200.43 1175.3 1211.29 1164.39 1220.29 1156.85C1228.13 1156.45 1235.97 1156.62 1243.82 1156.7C1235.67 1164.32 1208.03 1192.11 1203.36 1200.57C1207.36 1206.66 1225.51 1235.46 1225.84 1240.78C1223.84 1242.99 1223.89 1242.34 1220.25 1243.11L1204.13 1242.91C1199.36 1236.89 1190.83 1221.98 1186.39 1214.76C1179.99 1220.61 1167.75 1235.36 1160.59 1242.9C1151.03 1242.96 1142.6 1243.01 1133.04 1242.44C1148.37 1227.04 1161.89 1214.32 1176.59 1197.74C1172.09 1187.37 1156.53 1163.9 1156.13 1156.35Z"/><path fill="#E32E29" d="M1556.67 1156.22C1571.55 1154.29 1587.64 1158.11 1601.36 1163.71L1592.35 1178.79C1583.77 1175.19 1547.68 1163.32 1547.71 1181.59C1555.65 1194.85 1614.21 1194 1590.92 1228.07C1583.63 1238.74 1567.71 1242.75 1554.92 1243.36C1537.59 1242.97 1529.03 1239.99 1513.1 1233.74C1518.19 1228.73 1519.71 1225.87 1522.6 1219.67C1528.83 1221.54 1535.07 1223.35 1541.34 1225.11C1549.98 1227.49 1571.37 1231.06 1574.41 1219.19C1572.2 1213.42 1562.56 1209.7 1556.77 1208.57C1513.65 1200.09 1515.38 1167.56 1556.67 1156.22Z"/><path fill="#E32E29" d="M1646.37 1156.35C1661.41 1156.05 1670.46 1157.82 1684.71 1162.57C1682.34 1168.25 1680.23 1172.24 1677.29 1177.68C1664.21 1173.4 1647.91 1167.57 1635.17 1176.24C1632.77 1177.87 1632.69 1178.93 1632.3 1181.49C1635.54 1188.52 1646.1 1191.13 1654.01 1192.65C1678.26 1197.29 1689.62 1210.73 1671.94 1232.75C1664.17 1242.42 1648.99 1243.4 1636.45 1243.21C1631.37 1242.82 1626.14 1242.02 1621.11 1241.26C1601.46 1238.31 1594.95 1236.44 1610.09 1219.43C1621.2 1224.17 1654.76 1236.16 1659.61 1218.08C1657.32 1212.21 1643.78 1208.87 1637.72 1207.55C1617.16 1203.07 1602.75 1190.14 1617.07 1169.02C1623.21 1159.97 1635.82 1157.61 1646.37 1156.35Z"/><path fill="#E32E29" d="M1415.81 1156.14C1420.07 1156.57 1419.29 1155.82 1421.74 1158.2C1422.64 1162.75 1420.77 1168.23 1419.64 1172.97C1409.97 1175.81 1400.77 1177.94 1392.7 1184.25C1379.69 1194.41 1377.47 1226 1376.3 1242.1C1368.28 1242.38 1362.37 1242.54 1354.29 1242.09C1354.23 1234.53 1367.89 1166.13 1370.85 1157.36C1375.86 1157.13 1383.16 1156.43 1387.86 1157.56C1389.34 1157.91 1391.57 1161.89 1392.41 1163.32C1395.75 1163.95 1407.83 1157.77 1414.61 1156.38L1415.81 1156.14Z"/><path fill="#E32E29" d="M984.45 1156.27C987.929 1155.9 989.582 1155.35 991.887 1158.11C992.665 1162.85 990.261 1169.91 989.079 1175.11C963.53 1176.75 956.374 1187.89 951.687 1211.86C949.7 1222.03 948 1232.12 946.58 1242.41L929.246 1242.58C927.88 1242.3 927.81 1241.97 926.531 1241.07C925.474 1234.16 940.079 1166.61 943.158 1156.66C947.722 1156.56 955.818 1156.1 960.216 1157.32C961.408 1157.65 961.972 1159.94 962.61 1161.43C965.547 1161.91 974.886 1157.09 983.017 1156.39L984.45 1156.27Z"/><path fill="#2FA3D9" d="M2057.78 617.589C2064.16 619.584 2090.15 637.756 2095.35 642.496C2095.9 655.56 2103.53 703.463 2102.11 710.149C2098.44 710.976 2092.92 711.501 2089.38 710.076C2081.02 696.616 2061.86 633.402 2057.78 617.589Z"/><path fill="#E32E29" d="M896.179 1155.97C902.474 1155.79 909.468 1155.98 915.822 1156.01C912.073 1178.39 904.194 1220.86 898.394 1242.55C892.164 1243.17 884.497 1242.81 878.128 1242.69C881.977 1224.08 885.728 1205.44 889.381 1186.79C891.078 1178.19 893.459 1163.87 896.179 1155.97Z"/><path fill="#E32E29" d="M1748.1 1188.48C1761.02 1188.48 1774.81 1188.24 1787.63 1188.97C1786.91 1193.36 1786.07 1200.93 1783.67 1204.64C1782.74 1206.07 1781.42 1205.81 1779.25 1206.19C1770.24 1206.22 1743.05 1209.14 1739.03 1201.85C1740.11 1193.93 1739.62 1189.3 1748.1 1188.48Z"/><path fill="#48A0C8" fill-opacity="0.98431373" d="M1550.76 782.37C1550.05 780.377 1549.58 778.896 1548.99 776.828C1554.11 774.857 1560.42 787.998 1569.37 787.928C1571.95 784.631 1555.03 771.66 1554.78 764.836L1557.23 764.217C1573.88 781.433 1584.95 797.981 1594.81 819.719C1586.99 814.848 1560.94 790.571 1550.76 782.37Z"/><path fill="#E32E29" d="M908.197 1118.89C914.012 1118.94 920.068 1119.79 923.331 1125.31C924.777 1127.72 925.127 1130.62 924.292 1133.3C922.745 1138.4 919.332 1140.32 914.99 1142.78C896.825 1143.67 892.57 1128.93 908.197 1118.89Z"/><path fill="#48A0C8" fill-opacity="0.94901961" d="M1583.27 577.129C1594.63 578.77 1587.18 581.356 1598.67 576.723C1602.99 583.914 1618.31 611.253 1616.51 618.467C1617.76 619.025 1585.54 579.787 1583.27 577.129Z"/><path fill="#48A0C8" fill-opacity="0.94117647" d="M1704.57 673.762C1704.46 677.941 1702.92 685.766 1704.35 687.8C1709.02 687.147 1708.12 685.351 1712.78 684.144C1709.88 688.955 1685.34 725.504 1683.39 726.366L1682.75 724.946C1684.73 715.287 1699.52 683.446 1704.57 673.762Z"/><path fill="#2FA3D9" fill-opacity="0.83529413" d="M1616.83 745.873C1620.23 745.664 1620.56 745.287 1623.66 743.63C1626.68 754.497 1628.84 760.533 1628.48 771.909C1624.14 763.296 1620.63 754.722 1616.83 745.873Z"/></svg>