<?xml version="1.0" encoding="utf-8" ?><svg xmlns="http://www.w3.org/2000/svg" xmlns:xlink="http://www.w3.org/1999/xlink" width="2446" height="1288" viewBox="0 0 2446 1288"><path fill="#C6A865" d="M1221.14 269.311C1224.52 269.192 1232.36 269.752 1234.82 271.816C1323.4 346.15 1419.44 416.908 1529.51 456.363C1612.26 486.029 1704.62 507.458 1785.51 544.027C1796.35 548.929 1879.95 585.702 1874.46 597.025C1868.68 598.471 1853.74 591.634 1847.46 589.546C1833.56 585.075 1819.61 580.755 1805.61 576.586C1761.85 563.25 1717.8 550.855 1673.51 539.411C1639.11 530.204 1604.63 521.283 1570.08 512.648C1408.5 471.597 1319.85 424.99 1227.1 277.619C1222.92 277.679 1211 296.459 1208.36 300.769C1181.33 344.947 1145.9 382.889 1105.3 414.975C1075.89 437.727 1029.62 467.269 994.911 479.311C876.981 520.224 753.401 541.408 634.236 578.578C625.155 581.41 582.19 597.933 576.418 597.245L575.506 595.664C575.562 595.495 575.612 595.324 575.674 595.157C581.454 579.698 674.679 540.835 693.554 532.823C763.476 503.141 836.854 486.513 908.25 461.548C944.147 448.995 980.254 433.001 1013.69 414.895C1065.55 386.809 1115.5 352.397 1162.4 316.77C1171.06 310.165 1179.54 303.312 1187.81 296.219C1196.49 288.641 1211.54 273.965 1221.14 269.311Z"/><path fill="#C6A865" d="M2304.67 201.949L2306.09 202.244C2307.34 204.68 2304.09 243.484 2304.27 250.275C2305.92 312.891 2304.25 374.886 2316.16 436.644C2317.9 445.668 2304.78 468.173 2307.88 478.969C2317.33 532.132 2344.96 585.601 2347.85 639.612C2349.31 666.936 2293.72 717.043 2266.1 712.967C2225.89 707.032 2210.97 688.272 2223.19 649.436C2227.86 634.595 2176.99 586.445 2166.16 575.013C2138.83 572.133 2118.57 548.372 2097.32 530.932C2119.12 613.461 2223.88 666.513 2202.55 761.003C2197.93 749.696 2197.36 742.57 2190.7 728.79C2173.36 692.915 2148.39 657.439 2123.61 626.389C2095.37 591.001 2063.51 562.379 2070.96 512.345C2076.04 478.178 2110.94 440.473 2137.29 421.017C2126.28 447.424 2108.63 483.411 2116.62 513.372C2124.23 541.909 2154.12 547.548 2179.68 544.71C2188.3 543.753 2209.78 536.921 2215.65 542.044C2223.13 548.574 2232.88 571.908 2235.27 581.619C2226.9 574.372 2206.4 553.084 2194.35 561.02C2184.83 567.281 2191.34 575.378 2196.28 581.778C2203.18 590.209 2212.97 600.466 2220.68 608.233C2243.6 631.332 2240.89 643.121 2228.32 670.542C2235.05 694.064 2247.57 691.6 2269.15 694.746C2258.06 682.816 2256.6 674.421 2247.94 661.72C2250.23 658.236 2252.52 654.401 2254.73 650.836C2258.85 659.368 2277.2 691.383 2285.78 692.045C2295.27 688.398 2314.39 667.006 2322.48 659.337C2338.55 644.083 2326 609.888 2321.14 591.288C2315.31 568.932 2308.32 544.271 2302.17 521.789C2297.89 505.664 2291.96 489.989 2289.42 473.5C2287.24 459.777 2301.25 447.503 2300.19 433.592C2299.46 424.106 2297 413.903 2295.22 404.515C2292.9 392.366 2291.09 380.124 2289.8 367.821C2286.08 334.496 2284.97 290.2 2282.25 254.843C2274.03 268.718 2260.85 286.3 2251.21 299.676C2234.53 298.78 2211.46 295.145 2194.56 292.862C2166.51 289.071 2143.32 286.943 2115.08 286.888C2119.47 296.068 2123.57 305.386 2127.36 314.83C2055.81 332.97 1995.04 355.262 1931.06 393.017C1906.61 407.45 1883.8 423.379 1859.34 437.427C1867.74 425.909 1876.23 412.31 1885.46 401.721C1918.33 363.995 1964.59 336.184 2010.57 317.406C2027.79 310.371 2045.17 305.009 2062.57 298.672C2052.92 289.568 2041.76 280.032 2031.74 271.264C2049.01 266.29 2063.98 263.742 2081.24 260.46C2142.81 248.752 2186.24 252.373 2246.11 266.909C2259.79 234.305 2273.82 218.578 2304.67 201.949Z"/><path fill="#C6A865" d="M142.972 201.755C167.017 209.712 181.812 224.387 194.4 245.817C198.532 252.85 201.746 260.32 206.225 267.201L206.812 268.093C277.182 244.661 349.753 252.791 420.168 271.235C412.884 279.93 398.351 288.308 390.661 298.989C406.773 305.742 425.806 310.898 443.342 318.191C489.467 337.374 534.294 365.682 567.67 403.22C575.945 412.527 584.612 426.605 591.318 437.226C571.821 425.325 553.86 412.676 533.438 400.691C488.649 373.911 441.318 351.631 392.138 334.177C371.26 326.979 346.08 320.308 324.663 314.239C327.603 304.879 332.106 296.912 335.12 287.522C290.363 286.634 244.864 294.76 200.04 298.507C189.859 285.166 178.704 267.113 167.04 255.388C167.808 297.527 162.877 343.832 159.18 386.071C157.963 399.975 150.652 415.103 150.184 429.988C149.637 447.415 162.094 459.262 160.049 476.431C156.741 494.527 149.92 514.603 144.975 532.488C140.021 550.407 135.892 568.243 131.395 586.26C127.744 600.888 117.826 628.155 119.614 642.629C124.169 659.316 142.81 676.284 155.597 686.623C170.877 698.977 172.689 690.137 181.182 678.756C185.416 671.631 191.522 660.682 196.21 654.254C199.373 655.377 200.059 658.931 202.475 662.732C198.168 669.452 193.732 676.088 190.056 683.168C187.914 687.527 185.249 691.641 182.684 695.769C194.255 693.947 222.296 692.563 221.659 674.474C221.171 660.647 209.064 643.906 215.834 628.406C223.314 611.278 255.416 588.174 263.129 569.907C255.636 540.056 222.814 574.924 214.226 583.026C218.108 574.543 231.698 541.659 241.615 538.299C249.283 535.701 267.75 540.357 277.241 541.021C286.469 541.654 295.739 541.143 304.841 539.499C356.166 529.903 333.885 466.363 319.948 434.084C318.306 430.282 316.72 428.248 315.906 423.961L317.055 423.497C337.599 439.688 368.668 472.733 376.203 497.809C393.313 554.751 362.213 583.648 331.042 622.165C317.82 638.702 305.292 655.781 293.488 673.358C284.252 686.995 275.106 701.447 267.63 716.116C261.019 729.086 255.991 742.609 249.507 755.545L248.853 755.376C245.142 751.491 245.838 737.094 246.225 731.58C251.192 660.68 317.003 616.173 344.844 555.47C346.531 551.791 352.219 537.476 350.821 534.353C349.672 534.571 349.801 534.497 348.917 535.222C328.952 551.592 311.503 570.075 285.626 575.279C267.898 590.155 249.991 613.27 233.988 630.399C217.256 648.307 241.704 674.941 225.159 693.785C197.283 723.184 167.28 716.282 139.41 693.013C94.23 655.293 100.584 636.751 114.844 584.263C121.478 560.2 128.253 536.176 135.167 512.191C137.729 503.19 144.425 481.706 143.589 473.116L143.515 472.409C142.477 461.94 134.716 450.396 134.985 441.011C135.496 423.177 140.52 406.107 142.209 387.908C145.769 349.56 146.025 313.665 145.648 275.179C145.384 248.157 146.395 228.511 142.972 201.755Z"/><path fill="#C6A865" d="M1237.3 90.4191C1242.68 93.1523 1267.78 123.141 1274.24 130.041C1284.92 141.423 1295.85 152.564 1307.02 163.457C1407.69 260.789 1543.68 345.028 1670.93 402.318C1702.54 416.666 1734.61 429.967 1767.1 442.2C1860.11 477.797 1937.62 505.705 1998.5 593.327C2031.77 641.202 2055.45 711.382 2044.83 769.795L2044.06 770.73C2042.24 770.72 2042.84 771.18 2042.32 769.344C2036.05 747.076 2033.3 723.785 2025.97 701.784C2007.28 645.707 1972.62 585.277 1921.96 552.526C1887.88 530.494 1844.9 513.948 1807.57 497.737C1669.76 437.877 1526.47 403.984 1405.93 309.307C1344.38 260.96 1287.24 205.034 1252.61 133.48C1246.71 121.284 1239.07 103.756 1237.3 90.4191Z"/><path fill="#C6A865" d="M407.131 701.634L407.31 701.068C409.788 693.005 410.316 684.342 413.304 676.313C423.604 648.638 436.425 615.694 453.684 591.686C482.975 550.942 528.69 511.571 573.288 488.574C636.433 456.014 706.431 436.698 770.936 406.85C922.852 338.06 1066.64 247.888 1180.81 125.142C1190.63 114.585 1201.47 102.248 1211.92 92.3514L1213.24 92.9194C1215.95 105.558 1181.33 163.816 1173.22 176.531C1150.28 212.492 1123.24 241.133 1092.19 269.912C1032.82 323.965 964.975 367.902 891.365 399.968C847.506 419.282 803.725 434.625 759.149 451.458C724.432 464.71 689.895 478.427 655.547 492.608C614.595 509.432 550.78 535.426 516.676 561.332C482.604 587.212 450.133 636.5 434.667 675.979C429.852 688.271 412.871 735.468 413.365 747.903C410.841 751.652 409.555 754.165 407.513 758.206C403.443 754.007 407.898 712.394 407.131 701.634Z"/><path fill="#C6A865" d="M1300.97 473.506C1314.59 479.95 1329.59 488.478 1343.27 495.463C1365.71 506.82 1388.59 517.261 1411.87 526.758C1509.04 565.28 1613.04 576.458 1715.07 591.572C1725.41 593.196 1740.9 596.1 1750.95 597.188C1764.86 600.007 1847.28 616.4 1849.1 627.549C1839.45 630.467 1739.34 615.848 1720.12 614.442C1615.38 606.786 1500.38 620.057 1406.92 563.24C1364.66 537.552 1329.61 513.32 1300.97 473.506Z"/><path fill="#C6A865" d="M594.575 628.961C613.235 618.876 646.593 609.206 667.31 604.412C693.663 598.123 720.294 593.054 747.115 589.222C785.862 583.855 822.767 581.035 861.779 574.37C957.491 558.868 1049.96 527.578 1135.43 481.778L1137.63 489.092C1131.1 496 1124.44 502.782 1117.65 509.436C1062.45 562.424 991.473 595.961 915.487 604.957C890.054 608.053 860.332 608.183 834.463 609.299C798.102 610.879 761.759 612.835 725.439 615.166C698.955 616.998 671.906 620.533 645.498 623.643C627.116 625.808 613.502 629.196 594.575 628.961Z"/><path fill="#C6A865" d="M986.629 748.806L1025.69 748.981C1036.23 766.764 1085.94 854.046 1097.31 862.723C1097.43 862.819 1097.55 862.92 1097.67 863.018C1095.64 826.113 1096.08 786.019 1096.49 749.012C1104.24 748.802 1120.93 747.524 1127.13 750.588C1130.1 756.011 1125.65 891.225 1128.68 914.107C1117.68 914.27 1106.69 914.314 1095.69 914.238L1090.31 914.202C1081.44 909.517 1034.96 814.798 1021.71 804.958C1017.76 808.892 1019.8 902.555 1019.92 914.363C1009.24 914.578 998.549 914.656 987.86 914.597L986.629 748.806Z"/><path fill="#C6A865" d="M1238 746.413C1264.94 745.212 1297.89 755.958 1310.54 781.277C1312.23 784.661 1313.92 788.034 1315.56 791.445C1307.53 794.551 1291.04 798.324 1282.13 800.556C1281.92 800.075 1281.7 799.597 1281.48 799.121C1273.36 781.978 1260.32 776.061 1241.96 774.553C1181.9 769.622 1172.18 869.749 1223.63 886.548C1244.2 893.262 1266.67 886.073 1285.28 876.472L1284.44 854.476L1243.63 854.643L1243.16 829.974C1243.25 829.528 1244.05 828.37 1244.33 827.91C1250.32 825.972 1307.96 826.567 1318.41 826.471C1318.19 843.212 1317.16 870.84 1318.57 886.879C1288.01 921.756 1217.04 929.182 1181.89 898.182C1145.94 866.481 1146.09 805.404 1177.02 770.434C1192.67 752.736 1215.56 747.543 1238 746.413Z"/><path fill="#C6A865" d="M92.5456 776.344C103.714 774.973 128.287 777.498 138.511 780.572C151.02 784.334 215.588 797.647 220.653 805.447C206.415 815.459 116.246 788.701 93.45 797.566C67.3499 805.935 71.2281 838.854 85.2525 856.593C116.018 895.507 132.746 934.404 134.271 984.528C134.795 1001.76 136.226 1023.28 141.959 1040.47C165.62 1052.4 209.04 1061.72 235.459 1071.7C245.226 1075.39 273.711 1086.97 281.498 1088.8C281.621 1074.83 278.046 1055.23 276.34 1040.68C271.069 1016.41 255.148 1012.42 233.881 1004.73C268.997 994.997 289.098 1004.56 299.538 1041.01C304.841 1059.53 306.628 1102.01 282.885 1108.22C268.501 1105.78 248.236 1095.44 232.437 1089.87C204.474 1080.02 164.777 1075.35 140.453 1060.62C112.993 1043.98 117.616 999.117 112.674 970.726C109.564 953.398 104.166 936.56 96.6231 920.653C77.3379 879.558 30.5472 840.434 62.2913 792.055C68.9819 781.858 81.201 778.216 92.5456 776.344Z"/><path fill="#C6A865" d="M865.067 749.203C871.555 748.123 898.303 748.927 906.18 749.049C913.684 767.952 920.31 791.855 928.568 809.581C943.906 842.503 953.506 882.837 969.149 914.46C957.008 914.557 944.866 914.525 932.726 914.364C927.046 903.07 923.372 887.093 916.801 875.857C915.619 873.837 915.178 874.345 912.25 873.798L855.735 873.972C850.667 887.538 845.428 901.039 840.019 914.473C828.974 914.842 816.627 914.508 805.487 914.44C814.464 895.388 819.665 874.679 826.875 855.199C839.805 820.268 854.27 784.834 865.067 749.203ZM863.857 846.3C872.086 846.717 879.516 846.684 887.75 846.618L909.22 846.512C906.1 837.312 890.927 788.386 885.24 785.653C885.063 785.568 884.874 785.508 884.691 785.436C881.74 800.353 870.56 831.286 863.857 846.3Z"/><path fill="#C6A865" d="M1717.06 749.021L1757.08 748.977C1760.07 760.676 1772.73 792.527 1777.34 804.752C1791.19 841.483 1804.84 876.675 1817.1 914.123C1805.89 914.427 1794.04 914.316 1782.78 914.399C1779.94 904.036 1772.11 884.047 1768.25 873.573L1758.75 873.478L1706.5 873.901C1700.16 886.12 1695.3 901.213 1690.89 914.379L1656.42 914.296C1660.9 903.198 1664.1 889.726 1668.42 879.015C1680.22 849.755 1691.12 820.515 1701.75 790.896C1703.71 785.424 1715.88 751.008 1717.06 749.021ZM1714.85 847.128L1739.25 847.265L1758.3 847.497C1752.79 831.847 1745.18 804.655 1737.99 788.465C1737.27 788.084 1736.54 787.703 1735.81 787.322C1728.4 807.464 1722.01 827.448 1714.85 847.128Z"/><path fill="#C6A865" d="M1396.9 749.128C1409.98 748.809 1424.33 749.052 1437.49 749.045C1455.97 805.072 1476.81 860.291 1499.96 914.555L1463.06 914.522C1460.62 907.232 1451.43 880.962 1448.03 875.18C1445.25 873.493 1441.45 873.996 1437.98 874.018L1386.97 874.115C1381.69 887.456 1375.67 900.544 1372.23 914.56C1361.83 915.156 1346.76 914.619 1336.01 914.569C1353.27 871.847 1367.54 827.723 1385.45 785.205C1389.26 776.148 1393.03 755.699 1396.9 749.128ZM1394.61 847.427L1418.5 847.38C1425.75 847.323 1433.66 847.426 1440.84 847.186C1436.33 836.511 1422.17 789.426 1417.01 784.584C1409.86 795.547 1401.06 832.776 1394.61 847.427Z"/><path fill="#C6A865" d="M2341.1 776.382C2360.57 775.388 2377.62 776.349 2389.2 794.664C2413.85 833.661 2384.7 868.276 2365.07 900.984C2356.93 914.542 2349.63 928.649 2344.67 943.707C2329.49 986.457 2347.52 1057.11 2288.17 1071.33C2248.61 1080.81 2214.54 1089.9 2177.27 1106.56C2146.56 1120.28 2146.03 1056.57 2152.03 1038.14C2162.55 1005.83 2184.73 994.766 2217.1 1004.16C2204.99 1010.31 2187.53 1014.88 2179.35 1025.7C2171.7 1046.65 2166.77 1067.57 2171.33 1089.81C2182.67 1086.39 2210.51 1074.19 2223.99 1069.34C2246.38 1061.29 2290.93 1050.31 2308.89 1040.33C2315.41 1031.04 2317.25 974.655 2319.11 959.394C2323.97 919.376 2339.46 894.382 2362.44 861.888C2369.56 851.833 2377.03 839.9 2377.29 826.88C2378.53 763.527 2245.2 820.706 2231.05 806.162L2231.76 804.458C2243.13 795.355 2322.2 779.087 2341.1 776.382Z"/><path fill="#C6A865" d="M752.524 748.869C764.114 748.178 784.213 748.52 795.801 749.007C771.28 773.383 747.458 794.922 722.223 818.462C734.535 830.367 761.617 865.978 773.224 880.844C778.931 889.512 794.986 906.922 802.171 914.287C787.249 914.635 771.758 914.385 756.785 914.341C749.155 905.733 739.476 892.415 732.078 882.899C721.126 868.864 709.922 855.028 698.471 841.396C691.425 846.908 685.26 852.243 678.525 858.138L678.555 914.285C667.204 914.449 655.531 914.315 644.15 914.325C642.856 858.297 643.999 805.018 644.761 749.203C653.967 748.402 668.912 748.872 678.54 748.89C678.355 771.468 677.639 798.353 678.972 820.54C682.27 816.61 685.782 812.939 689.518 809.429C710.746 789.486 731.22 768.729 752.524 748.869Z"/><path fill="#C6A865" d="M1013.16 963.117C1047.24 959.715 1077.68 984.436 1081.34 1018.49C1085.01 1052.54 1060.52 1083.17 1026.5 1087.09C992.109 1091.06 961.072 1066.24 957.369 1031.82C953.666 997.402 978.715 966.556 1013.16 963.117ZM1023.94 1066.17C1069.11 1056.82 1065.76 981.434 1014.33 983.356C988.705 990.744 978.676 1016.12 986.667 1040.69C992.836 1059.65 1004.77 1066.21 1023.94 1066.17Z"/><path fill="#C6A865" d="M1203.43 964.361C1247.58 965.224 1305.99 956.851 1309.42 1020.57C1310.51 1040.78 1304.66 1055.16 1291.08 1070.07L1290.62 1070.42C1264.87 1090.01 1233.74 1085.97 1202.19 1085.99C1204.1 1070.45 1200.47 967.566 1203.43 964.361ZM1226.88 1065.23C1247.53 1065.64 1257.92 1068.09 1274.31 1054.29C1287.04 1035.63 1289.8 1006.15 1269.61 990.824C1260.9 984.212 1238.48 983.629 1227.2 984.149C1227.43 1011.18 1227.32 1038.2 1226.88 1065.23Z"/><path fill="#C6A865" d="M208.633 858.435C244.424 864.2 289.632 954.336 321.545 974.392C352.276 993.705 389.86 968.761 425.44 973.717C440.226 975.776 504.618 989.499 511.783 978.647C516.27 963.068 485.952 907.424 469.52 900.624C454.614 894.455 432.929 902.48 418.526 906.883C433.436 891.353 447.604 886.598 468.602 884.846C490.959 885.654 506.378 914.673 517.265 931.428C528.322 948.443 557.266 993.676 527.392 1006.14C526.062 1006.69 524.7 1007.16 523.313 1007.55C489.218 1017.2 448.083 994.095 413.782 993.075C393.382 990.526 342.844 1008.04 326.429 1003.03C293.328 992.931 256.616 923.738 234.51 896.127C226.542 886.176 211.845 866.528 208.633 858.435Z"/><path fill="#C6A865" d="M2242.4 857.018C2238.23 863.993 2234.13 871.341 2229.06 877.667C2199.3 916.506 2172.06 970.827 2132.85 999.386C2119.47 1009.14 2057.44 992.415 2035.74 993.723C1998.25 995.984 1946.72 1024.61 1914.58 999.279C1903.39 973.309 1930.83 932.054 1946.09 911.616C1975.33 872.442 1999.08 879.099 2033.07 906.758C2015.51 902.219 1992.71 891.427 1976.18 903.453C1964.39 912.026 1931.12 968.318 1940.83 980.687C1944.68 983.135 1948.86 984.533 1953.42 984.217C1981.91 981.471 2007.55 974.135 2036.43 973.526C2057.39 973.084 2107.72 987.377 2122.45 978.543C2160.76 955.559 2185.55 900.534 2219.68 871.777C2228.26 863.801 2231.95 861.933 2242.4 857.018Z"/><path fill="#C6A865" d="M1375.52 965.078C1382.87 964.664 1392.82 964.902 1400.37 964.864C1418.48 991.693 1434.66 1020.45 1452.49 1047.38C1452.22 1019.93 1452.2 992.479 1452.44 965.032L1475.58 965.038C1476.11 1005.02 1476.32 1045.01 1476.21 1085C1467.47 1085.18 1458.23 1085.02 1449.44 1085.01C1430.66 1057.77 1416.95 1034.35 1399.76 1006.16C1399.28 1033.08 1398.57 1058.21 1399.15 1085.14L1374.16 1085.2C1373.85 1045.43 1375.24 1004.99 1375.52 965.078Z"/><path fill="#C6A865" d="M1519.68 749.129C1530.26 748.741 1542.46 749.072 1553.16 749.11L1552.69 887.583C1582.61 887.604 1612.69 886.875 1642.59 887.444C1643.09 896.414 1643.13 905.403 1642.72 914.378L1519.24 914.204C1518.13 859.183 1518.27 804.144 1519.68 749.129Z"/><path fill="#C6A865" d="M1545.81 963.519C1577.21 960.606 1595.17 967.991 1610.9 995.389C1601.96 998.29 1595.48 999.775 1586.27 1001.77C1580.69 994.706 1575.86 989.174 1567.46 985.308C1559.72 981.751 1550.85 981.525 1542.93 984.684C1512 996.776 1511.04 1051.24 1541.65 1064.01C1557.4 1070.59 1572.72 1063.95 1587.39 1057.9C1587.43 1052.18 1586.8 1046.34 1586.31 1040.63C1578.99 1040.46 1561.97 1042.56 1557.38 1038.97L1557.17 1035.25L1557.15 1020.83C1574.52 1020.6 1592.78 1020.97 1610.22 1021.05L1610.42 1066.95C1584.15 1085.64 1549.44 1096.06 1519.77 1077.64C1490.79 1059.64 1484.58 1015.89 1503.24 988.475C1513.7 973.115 1528.16 966.879 1545.81 963.519Z"/><path fill="#C6A865" d="M841.318 964.991C846.561 964.274 859.167 964.654 864.959 964.704L865.055 1011.19C882.156 1011.55 900.367 1011.25 917.559 1011.26C917.985 996.474 917.626 979.846 917.635 964.916L942.202 964.811C942.579 995.992 942.493 1027.18 941.946 1058.35C941.891 1063.49 942.474 1080.65 941.442 1083.97L939.127 1085.1L917.801 1085L917.247 1032.82C900.115 1032.57 882.626 1032.71 865.463 1032.66C865.111 1049.85 865.35 1067.89 865.314 1085.14C857.679 1085.42 849.144 1085.28 841.433 1085.32C840.983 1045.21 840.945 1005.1 841.318 964.991Z"/><path fill="#C6A865" d="M1097.55 964.642C1105.1 964.567 1114.62 964.224 1122.01 964.544L1122.31 1065.04C1143.59 1065.05 1166.66 1064.6 1187.76 1065.11L1187.85 1085.15L1097.88 1085.49C1097.99 1079.49 1098.98 1046.7 1097.86 1042.69C1098.75 1035.53 1098.49 1018.49 1098.38 1010.8C1098.19 996.509 1098.79 978.707 1097.55 964.642Z"/><path fill="#C6A865" d="M1326.29 965.237C1332.51 964.101 1345.12 964.559 1352.03 964.633C1352.02 1003.62 1351.22 1046.77 1352.73 1085.36L1326.14 1085.47C1326.88 1044.77 1326.09 1005.8 1326.29 965.237Z"/><path fill="#C6A865" d="M216.288 439.603C222.378 438.622 234.372 437.14 238.724 442.224C235.272 451.483 220.932 467.004 214.468 475.705C209.041 483.01 205.035 488.761 199.978 496.579C198.754 498.852 193.954 506.59 192.054 507.961C190.873 505.353 192.726 500.958 193.465 497.813C197.832 479.221 196.408 463.152 193.996 444.402C201.583 440.926 208.131 440.473 216.288 439.603Z"/><path fill="#C6A865" d="M2212.7 443.249L2258.98 444.045C2258.04 448.231 2257.54 452.891 2255.91 456.787C2250.06 465.386 2256.37 483.769 2253.52 493.75C2252.13 494.281 2250.88 494.756 2249.78 495.176C2239.98 477.97 2222.35 459.644 2212.7 443.249Z"/><path fill="#E6D5AC" d="M1097.86 1042.69C1092.97 1029.83 1096.05 989.654 1094.13 983.316C1091.9 982.463 1091.37 982.601 1088.89 982.599L1088.11 982.604L1086.77 980.847C1086.11 973.09 1090.82 967.711 1097.55 964.642C1098.79 978.707 1098.19 996.509 1098.38 1010.8C1098.49 1018.49 1098.75 1035.53 1097.86 1042.69Z"/><path fill="#C6A865" d="M2313.06 627.476C2319.02 644.384 2321.62 642.361 2305.62 653.841L2303.94 653.651C2296.09 646.768 2307.49 632.583 2313.06 627.476Z"/><path fill="#21B0FE" fill-opacity="0.06666667" d="M1715.07 591.572C1725.3 588.949 1725.46 583.784 1738.48 588.283C1743.46 590.005 1758 592.371 1761.02 596.711C1757.4 597.081 1754.57 597.132 1750.95 597.188C1740.9 596.1 1725.41 593.196 1715.07 591.572Z"/><path fill="#C6A865" d="M413.365 747.903C412.211 753.505 409.778 766.998 406.602 771.024L405.285 770.078C400.988 755.896 403.484 716.519 407.131 701.634C407.898 712.394 403.443 754.007 407.513 758.206C409.555 754.165 410.841 751.652 413.365 747.903Z"/><path fill="#C6A865" d="M138.807 627.491C143.542 631.341 150.504 645.848 147.686 652.322L145.602 652.792C141.542 648.668 136.973 648.503 134.324 643.255C132.159 638.964 136.127 630.976 138.807 627.491Z"/><path fill="#21B0FE" fill-opacity="0.035294119" d="M1090.31 914.202L1095.69 914.238C1104.87 916.073 1116.75 915.946 1126.54 916.701C1117.95 920.504 1099.04 925.909 1090.94 920.1C1089.2 916.703 1089.44 918.25 1090.31 914.202Z"/><path fill="#A68942" d="M2249.78 495.176C2250.88 494.756 2252.13 494.281 2253.52 493.75C2256.37 483.769 2250.06 465.386 2255.91 456.787C2254.89 468.773 2255.78 474.148 2257.69 485.926C2258.35 489.973 2261.54 504.492 2261.08 507.517C2257.19 506.302 2251.75 498.583 2249.78 495.176Z"/><path fill="#B38B4D" d="M1135.43 481.778C1140.96 478.501 1146.47 475.193 1151.97 471.853C1147.58 477.271 1142.33 484.108 1137.63 489.092L1135.43 481.778Z"/></svg>