<?xml version="1.0" encoding="utf-8" ?><svg xmlns="http://www.w3.org/2000/svg" xmlns:xlink="http://www.w3.org/1999/xlink" width="2678" height="1568" viewBox="0 0 2678 1568"><path fill="#FFFEFE" fill-opacity="0.0078431377" d="M0 0L2678 0L2678 1568L0 1568L0 0ZM563.019 987.494C573.781 987.638 584.545 987.686 595.308 987.636C606.795 987.608 618.772 987.762 630.212 987.526C626.765 976.696 603.031 912.602 596.166 908.331C590.826 917.073 566.23 977.046 563.019 987.494ZM1535.35 941.792C1526.41 943.097 1501.74 963.45 1496.68 964.239L1486.25 987.71L1552.86 987.545C1548.97 973.428 1541.27 955.35 1535.35 941.792ZM2014.37 987.655L2050.74 987.676L2075.31 987.657C2072.15 974.933 2049 915.35 2040.95 906.87C2035.32 912.489 2027.32 940.045 2023.89 948.849C2019.34 960.549 2018.46 974.898 2014.37 987.655ZM2028.51 1182.68C2025.23 1176.44 2024.1 1171.45 2018.33 1167.06C1981.32 1138.89 1938.02 1178.81 1958.92 1217.9C1973.35 1244.91 2011.1 1246.92 2027.56 1218.57C2032.6 1206.55 2031.2 1194.75 2028.51 1182.68ZM1778.47 1176.29L1776.33 1170.67C1766 1155.48 1741.34 1154.97 1725.11 1158.71C1726.31 1170.48 1725.39 1191.32 1725.16 1203.85C1731.52 1208.47 1766.64 1205.06 1773.29 1197.13C1779.07 1190.24 1778.35 1184.25 1778.47 1176.29ZM1382.69 1199.25C1388.39 1193.26 1389.17 1190.02 1391.55 1182.25C1381.67 1154.44 1360.99 1157.81 1335.99 1158.21C1335.97 1174.31 1336.07 1190.42 1336.31 1206.52C1349.78 1206.36 1372.62 1207.89 1382.69 1199.25ZM2299.65 718.564L2303.97 718.976C2305.99 722.587 2304.27 723.231 2304.71 728.245C2307.75 722.99 2317.19 708.344 2317.32 703.321L2315.6 703.374C2309.15 707.741 2304.54 712.525 2299.65 718.564ZM2396 684.554C2390.1 679.534 2384.75 675.992 2377.87 672.356C2380.06 680.787 2383.16 684.506 2385.5 691.18C2389.27 686.499 2390.15 685.79 2396 684.554ZM2405.08 1161.72L2410.92 1160.65L2412.03 1161.99C2411.36 1166.58 2406.52 1171.99 2404.22 1179.17C2408.1 1175.1 2423.27 1152.94 2428.61 1146.2C2419.58 1150.47 2412.63 1155.23 2405.08 1161.72ZM575.528 1158.88C575.429 1171.27 574.614 1193.34 575.284 1205.02C591.542 1205.35 610.154 1207.2 624.134 1197.89C628.748 1193.37 629.681 1189.53 629.806 1183.23C630.265 1160.07 611.599 1158.42 593.92 1158.52C587.788 1158.57 581.657 1158.69 575.528 1158.88ZM1612.78 1214.2L1639.25 1214.24L1656.16 1214.23C1652.96 1207.29 1636.39 1170.11 1632.6 1166.59C1626.03 1179.32 1619.26 1199.86 1612.78 1214.2ZM1732.84 783.223C1729.24 785.892 1725.31 788.651 1721.96 791.595L1727.24 791.293C1728.41 792.678 1728.37 792.555 1728.64 794.345C1729.32 793.936 1732.23 791.443 1733.03 790.788C1738.78 786.261 1750.77 773.478 1755.63 767.958C1748.9 771.331 1737.9 777.735 1732.84 783.223ZM1169.14 1213.07L1210.45 1213.26C1203.03 1198.28 1197.49 1182.09 1188.91 1167.56L1187.63 1167.76C1185.5 1171.01 1185.35 1171.6 1184.37 1175.38C1181.73 1182.28 1177.48 1193.99 1174.25 1200.2C1173.99 1201.94 1170.07 1210.86 1169.14 1213.07ZM2048.6 737.236C2045.04 744.079 2030.64 773.296 2030.89 779.598C2035.51 778.225 2055.31 746.35 2058.84 740.041C2055.33 742.444 2052.86 746.124 2049.13 747.727C2047.57 744.867 2048.43 741.032 2048.6 737.236ZM689.864 1205.63C706.354 1205.69 721.36 1207.65 735.393 1198.71C743.468 1189.34 748.185 1176.96 737.255 1167.51C724.705 1156.66 705.849 1158.36 690.515 1159.22L689.864 1205.63Z"/><path fill="#0C446F" d="M344.466 947.08C370.084 975.875 393.081 1011.01 417.905 1040.98C427.269 1052.29 437.079 1068.09 447.604 1077.99C454.992 1075.11 542.973 861.117 556.112 835.488C557.16 833.444 558.814 830.156 560.831 829.049C564.891 826.821 628.629 827.18 634.672 829.08C638.144 830.172 655.784 873.838 658.927 880.218C659.982 884.9 682.308 933.959 685.194 940.597L733.145 1049.87C739.346 1063.73 746.737 1084.21 754.794 1095.97C731.661 1096.9 698.52 1096.54 675.273 1095.96C668.622 1083.23 658.603 1058.46 652.712 1044.57C644.211 1043.2 623.783 1044.08 612.527 1044.06C602.3 1044.04 549.172 1042.99 542.471 1045.34C534.461 1051 526.332 1089.3 520.447 1093.17C512.937 1098.11 474.106 1096.13 464.123 1096.13L372.78 1096.43C363.881 1087.93 354.513 1074.3 346.601 1064.56C330.29 1044.46 313.278 1020.28 295.93 1001.43C286.188 1009.78 275.707 1020.64 266.466 1029.78C266.711 1051.98 267.091 1074.18 267.606 1096.38C247.246 1097.52 212.474 1096.82 191.586 1096.48C191.096 1067.81 190.089 836.723 193.576 828.395C217.801 828.34 242.716 828.005 266.881 828.507C267.531 864.895 267.299 902.262 267.456 938.715C280.263 924.492 294.369 910.419 307.484 896.155C327.091 874.831 349.125 848.017 370.244 828.52C397.035 827.78 426.62 828.382 453.633 828.359C418.543 867.198 380.754 909.588 344.466 947.08ZM563.019 987.494C573.781 987.638 584.545 987.686 595.308 987.636C606.795 987.608 618.772 987.762 630.212 987.526C626.765 976.696 603.031 912.602 596.166 908.331C590.826 917.073 566.23 977.046 563.019 987.494Z"/><path fill="#3B8DA2" d="M1721.96 791.595L1727.24 791.293C1728.41 792.678 1728.37 792.555 1728.64 794.345C1685.26 836.855 1641.74 869.266 1592.26 903.717C1595.53 914.274 1603 928.477 1607.61 938.942C1630.9 991.85 1653.55 1044.22 1678.92 1096.21C1655.17 1097.08 1621.3 1097.06 1597.5 1096.26C1590.92 1077.88 1583.84 1061.8 1575.68 1044.05C1561.84 1044.08 1471.4 1042.89 1464.63 1045.93C1457.92 1055.11 1448.04 1084.09 1442.2 1096.61C1419.06 1096.66 1388.17 1097.69 1365.69 1096.65C1370.39 1080.81 1399.1 1023.94 1400.14 1013.6C1387.06 1017.9 1352.01 1037.23 1343.58 1038.39C1343.79 1047.03 1344.15 1056.13 1344.17 1064.72C1317.28 1090.16 1263.55 1102.09 1226.84 1101.04C1210.97 1100.67 1195.22 1098.15 1180.03 1093.55C1158.31 1086.23 1139.98 1076.17 1123.31 1060.26C1123.89 1059.18 1124.62 1058.17 1125.92 1057.79C1153.33 1049.82 1182.88 1044.15 1209.64 1034.27C1223.04 1032.35 1259.43 1019.46 1274.3 1014.42C1274.17 999.204 1273.21 969.879 1274.48 955.665C1290.14 954.757 1326.01 954.771 1341.88 955.534C1342.09 966.306 1342.03 979.669 1342.91 990.206C1360.62 984.63 1412.31 965.644 1427.36 956.976C1440.77 928.362 1452.67 897.214 1466 868.353C1471.76 855.883 1477.21 841.008 1483.73 829.113C1490.6 826.228 1539.6 828.831 1550.48 827.867C1552.35 827.899 1558.07 828.743 1559.16 829.883C1567.7 838.795 1575.79 872.821 1583.09 879.981C1591.38 874.54 1600.19 868.894 1608.76 863.908C1647.52 841.368 1684.39 816.03 1721.96 791.595ZM1486.25 987.71L1552.86 987.545C1548.97 973.428 1541.27 955.35 1535.35 941.792C1526.41 943.097 1501.74 963.45 1496.68 964.239L1486.25 987.71Z"/><path fill="#0C446F" d="M1535.35 941.792C1537.79 935.125 1583.5 912.2 1592.26 903.717C1595.53 914.274 1603 928.477 1607.61 938.942C1630.9 991.85 1653.55 1044.22 1678.92 1096.21C1655.17 1097.08 1621.3 1097.06 1597.5 1096.26C1590.92 1077.88 1583.84 1061.8 1575.68 1044.05C1561.84 1044.08 1471.4 1042.89 1464.63 1045.93C1457.92 1055.11 1448.04 1084.09 1442.2 1096.61C1419.06 1096.66 1388.17 1097.69 1365.69 1096.65C1370.39 1080.81 1399.1 1023.94 1400.14 1013.6L1400.76 1013.56C1406.86 1007.85 1486.61 968.023 1496.68 964.239L1486.25 987.71L1552.86 987.545C1548.97 973.428 1541.27 955.35 1535.35 941.792Z"/><path fill="#0C446F" d="M1427.36 956.976C1440.77 928.362 1452.67 897.214 1466 868.353C1471.76 855.883 1477.21 841.008 1483.73 829.113C1490.6 826.228 1539.6 828.831 1550.48 827.867C1552.35 827.899 1558.07 828.743 1559.16 829.883C1567.7 838.795 1575.79 872.821 1583.09 879.981C1574 882.271 1530.98 911.118 1524.24 909.822L1520.86 906.486C1517.99 908.473 1516.74 912.77 1515.36 916.266C1488.16 929.956 1455.62 946.487 1427.36 956.976Z"/><path fill="#0C446F" d="M1180.03 1093.55C1188.42 1091.88 1204.8 1086.54 1213.73 1083.87C1242.91 1075.25 1271.79 1065.64 1300.31 1055.04C1308.87 1051.83 1337.14 1039.52 1343.58 1038.39C1343.79 1047.03 1344.15 1056.13 1344.17 1064.72C1317.28 1090.16 1263.55 1102.09 1226.84 1101.04C1210.97 1100.67 1195.22 1098.15 1180.03 1093.55Z"/><path fill="#0C446F" d="M1274.48 955.665C1290.14 954.757 1326.01 954.771 1341.88 955.534C1342.09 966.306 1342.03 979.669 1342.91 990.206C1338.6 994.104 1284.74 1011.05 1274.52 1015.27C1274.66 996.533 1275.3 974.158 1274.48 955.665Z"/><path fill="#0C446F" d="M961.969 828.342C983.096 827.349 1013.23 828.381 1035.14 828.503C1036.42 915.663 1036.02 1008.85 1035.41 1096.27C1020.46 1097.4 988.882 1096.83 973.24 1096.35C968.124 1091.15 958.568 1078.6 953.513 1072.45L912.263 1021.95C894.176 999.748 874.294 979.14 857.359 955.928C856.678 1002.68 856.496 1049.44 856.813 1096.2C833.476 1097.11 804.553 1096.31 780.767 1096.33C782.415 1031.35 780.308 963.983 781.602 898.81C781.817 887.978 780.59 835.82 782.215 828.493C803.065 828.324 823.917 828.3 844.768 828.423C885.229 874.267 921.622 922.739 960.934 968.436C963.554 927.766 961.871 870.564 961.969 828.342Z"/><path fill="#0C446F" d="M2017.14 828.244C2029.97 827.268 2069.45 828.046 2082.64 828.511C2086.01 838.738 2093.6 854.315 2098.15 864.569C2105.68 881.919 2113.13 899.31 2120.47 916.742L2196.85 1096.37C2189.43 1096.39 2132.55 1097.85 2127.24 1094.65C2119.68 1090.1 2112.25 1054.01 2104.98 1046.45C2101.36 1042.68 2084.48 1044.04 2079.5 1044.15L1993.87 1044.23C1988.31 1055.52 1976.53 1084.43 1972.74 1096.24C1964.55 1096.84 1904.24 1097.45 1900.97 1094.93C1902.67 1086.58 1917.65 1056.45 1922.26 1046.14C1941.89 1002.45 1961 958.514 1979.57 914.358C1988.17 894.025 1997.76 872.939 2004.79 851.944C2005.87 848.731 2006.14 837.788 2006.34 833.902C2009.18 832.123 2014.03 829.837 2017.14 828.244ZM2014.37 987.655L2050.74 987.676L2075.31 987.657C2072.15 974.933 2049 915.35 2040.95 906.87C2035.32 912.489 2027.32 940.045 2023.89 948.849C2019.34 960.549 2018.46 974.898 2014.37 987.655Z"/><path fill="#3B8DA2" d="M2288.41 555.361C2285.54 548.794 2272.4 520.451 2272.83 515.521C2274.86 514.606 2275.71 514.387 2278.1 514.335C2318.26 513.472 2363.52 526.5 2398.12 546.568C2407.77 552.166 2416.37 559.746 2424.39 567.012C2450.88 548.657 2489.13 541.804 2520.64 538.796C2513.85 553.72 2502.63 571.344 2495.12 588.069C2459.34 667.747 2466.38 732.141 2488.93 813.664C2491.48 821.861 2493.45 831.206 2496.84 839.072C2510.07 869.698 2524.77 906.282 2500.66 936.209C2482.62 958.591 2429.71 990.98 2401.34 967.69C2389.15 957.688 2383.89 930.839 2372.02 918.913C2336.08 879.293 2278.92 853.28 2274.81 793.065C2272.64 763.399 2280.63 741.207 2299.65 718.564L2303.97 718.976C2305.99 722.587 2304.27 723.231 2304.71 728.245C2283.59 785.742 2284.38 815.475 2333.78 861.588C2351.45 878.084 2375.39 890.859 2387.27 912.743C2397.94 931.93 2397.62 966.979 2430.31 958.128C2448.02 953.333 2412.68 904.196 2424.73 894.931C2436.57 897.398 2439.81 930.081 2455.34 941.287C2481.41 943.427 2490.84 927.029 2492.7 903.04C2494.69 877.299 2475.71 850.176 2469.43 825.825C2447.85 752.897 2448.09 646.379 2468.95 572.875C2450.94 581.152 2445.99 586.523 2434.17 601.587C2432.12 604.197 2428.21 609.152 2425.59 610.904C2420.58 608.917 2408.68 594.89 2403.32 589.778C2389.01 576.134 2338.54 546.79 2320.65 556.099C2319.94 561.432 2329.88 575.238 2333.18 580.764C2311.15 582.688 2286.39 585.182 2264.91 590.762C2190.74 610.034 2129.49 653.401 2080.65 711.444C2072.98 720.665 2065.71 730.205 2058.84 740.041C2055.33 742.444 2052.86 746.124 2049.13 747.727C2047.57 744.867 2048.43 741.032 2048.6 737.236C2050.37 735.157 2061.19 712.747 2063.86 708.183C2077.15 685.724 2092.53 664.568 2109.79 644.995C2157.12 592.332 2217.13 559.302 2288.41 555.361Z"/><path fill="#0C446F" d="M1704.82 828.341C1725.99 827.029 1757.99 828.011 1780.11 828.149C1779.63 896.984 1780.86 966.181 1780.76 1035.09L1891.87 1035.22C1891.58 1055.23 1894.1 1075.98 1893.37 1095.94C1876.8 1097.12 1848.34 1096.32 1831.13 1096.34L1705.52 1096.28C1705.17 1031.06 1705.19 965.836 1705.58 900.618C1705.62 886.123 1705.42 871.629 1704.97 857.142C1704.77 849.985 1703.98 834.409 1704.82 828.341Z"/><path fill="#0C446F" d="M1123.31 1060.26C1113.02 1053.95 1098.05 1028.45 1093.93 1017.46C1086.77 998.388 1081.79 975.6 1082.9 955.134C1089.09 841.645 1206.52 796.85 1301.7 835.606C1323.38 844.434 1335.86 854.841 1351.08 872.358C1339.81 878.978 1307.73 912.447 1300.74 914.313C1299.18 913.995 1298.73 913.933 1297.57 912.777C1288.21 903.581 1277.12 896.338 1264.93 891.472C1244.67 883.489 1224.17 882.527 1204.04 891.527C1185.28 899.713 1170.6 915.08 1163.27 934.185C1155.37 954.987 1157.97 978.054 1166.93 998.103C1174.44 1014.91 1192.75 1027.85 1209.64 1034.27C1182.88 1044.15 1153.33 1049.82 1125.92 1057.79C1124.62 1058.17 1123.89 1059.18 1123.31 1060.26Z"/><path fill="#3B8DA2" d="M2004.56 573.313C2011.64 572.015 2023.7 573.508 2027.64 579.981C2037.68 596.476 2011.15 618.777 2000.05 628.762C1986.43 641.017 1970.95 653.619 1956.31 664.486C1955.75 675.204 1953.24 692.132 1952.03 703.79C1947.61 746.118 1948.19 775.203 1931.9 815.027C1925 820.103 1915.88 824.925 1908.18 828.671C1908.22 798.746 1903.4 769.125 1903.66 737.502C1906.3 735.249 1908.95 732.884 1911.57 730.593C1911.37 725.034 1911.71 714.795 1908.26 710.898C1902.84 713.291 1873.2 732.284 1866.27 736.5C1842.28 751.252 1813.94 766.61 1787.1 752.342C1779.36 748.233 1741.18 723.693 1738.84 717.039C1741.94 708.984 1759.13 708.291 1766.44 709.007C1782.97 710.625 1799 712.158 1815.63 712.334C1819.58 709.708 1823.84 706.449 1827.61 703.475C1866.18 673.321 1905.44 643.884 1941.43 610.648C1961.17 592.412 1977.26 577.286 2004.56 573.313Z"/><path fill="#3B8DA2" d="M2497.74 1069.41C2512.5 1068.61 2526.44 1070.62 2539.04 1078.75C2553.22 1088.06 2563.13 1102.61 2566.61 1119.21C2572.17 1144.98 2565.62 1166.05 2552.7 1188.67C2536.85 1216.44 2538.81 1257.92 2535.35 1289.39C2533.59 1305.41 2534.35 1319.03 2530.55 1334.99C2528.23 1344.84 2524.18 1354.19 2518.58 1362.62C2505.79 1381.86 2482.67 1394.42 2459.62 1393.82C2424.23 1392.89 2399.07 1446.68 2364.29 1422.27C2336.56 1402.81 2352.53 1361.35 2358.3 1335.02C2359.44 1329.82 2360.13 1321.02 2363.14 1316.83C2370.23 1312.46 2401.64 1310.22 2411.69 1309.14C2401.77 1324.16 2389.67 1328.48 2373.14 1333.73C2371.84 1343 2371.88 1349.4 2369.72 1359.1C2367.94 1384.12 2363.22 1425.57 2401.82 1399.58C2421.94 1386.03 2431.78 1375.75 2457.1 1370.95C2515.98 1359.82 2505.53 1326.78 2505.33 1281.23C2505.22 1271.03 2505.71 1260.84 2506.8 1250.7C2508.15 1237.33 2509.88 1222.94 2514.05 1209.97C2523.16 1181.33 2543.75 1150.74 2534.05 1119.58C2529.86 1106.13 2520.34 1098.37 2506.02 1098.9C2481.99 1099.81 2460.24 1109.98 2437.37 1116.33C2407.97 1124.5 2383.26 1127.87 2354.97 1113.84C2375.41 1112.57 2400.88 1109.67 2419.14 1100.66C2451.56 1084.68 2459.71 1073.02 2497.74 1069.41Z"/><path fill="#3B8DA2" d="M2268.72 730.839C2269.9 735.569 2248.19 794.856 2245.16 807.314C2239.63 830.548 2237.8 854.51 2239.75 878.314C2244.15 934.996 2265.07 968.569 2289.52 1018.29C2308.75 1057.42 2323.5 1143.55 2286.57 1175.46C2283.72 1170.4 2288.78 1152.53 2288.21 1145.63C2286.78 1128.4 2284.59 1108.24 2280.97 1091.46C2262.71 1006.79 2208.95 954.56 2218.53 861.73C2222.41 824.201 2227.8 799.635 2245.91 764.858C2252.97 751.299 2256.35 741.549 2268.72 730.839Z"/><path fill="#0C446F" d="M2044.16 1219.88C2033.75 1244.67 2007.1 1258.47 1980.85 1252.65C1954.6 1246.84 1936.26 1223.08 1937.29 1196.22C1938.32 1169.35 1958.42 1147.07 1985.03 1143.28C2011.65 1139.49 2037.17 1155.28 2045.65 1180.79C2049.91 1193.57 2049.37 1207.46 2044.16 1219.88ZM2028.51 1182.68C2025.23 1176.44 2024.1 1171.45 2018.33 1167.06C1981.32 1138.89 1938.02 1178.81 1958.92 1217.9C1973.35 1244.91 2011.1 1246.92 2027.56 1218.57C2032.6 1206.55 2031.2 1194.75 2028.51 1182.68Z"/><path fill="#0A3D65" d="M2045.65 1180.79C2049.91 1193.57 2049.37 1207.46 2044.16 1219.88L2043.94 1211.02L2043.18 1211.59C2044.01 1212.62 2043.85 1212.07 2043.84 1213.19L2041.68 1213.14C2035.15 1218.97 2035.04 1217.67 2027.56 1218.57C2032.6 1206.55 2031.2 1194.75 2028.51 1182.68C2032.75 1184.66 2034.22 1184.61 2038.75 1184.79L2040.14 1184.84C2042.64 1186.69 2043.41 1190.13 2044.54 1193.18L2044.34 1192.04L2045.24 1191.31C2045.31 1187.8 2045.45 1184.3 2045.65 1180.79Z"/><path fill="#3B8DA2" d="M2405.08 1161.72L2410.92 1160.65L2412.03 1161.99C2411.36 1166.58 2406.52 1171.99 2404.22 1179.17C2392.68 1195.08 2381.22 1216.19 2372.29 1233.78C2364.46 1249.22 2358.58 1266.21 2348.23 1280.44C2331.81 1303.01 2306.82 1310.75 2279.97 1305.01C2269.25 1302.72 2253.36 1297.19 2243.05 1297.06C2226.23 1297.48 2210.12 1303.1 2193.42 1305.83C2174.05 1308.99 2154.78 1303.06 2153.23 1280.11C2151.69 1257.22 2163.83 1230.62 2178.16 1213.25C2185.39 1204.98 2194.94 1196.5 2206.46 1195.74C2216.24 1195.09 2227.6 1201.7 2235.09 1207.7C2236.92 1209.17 2236.63 1209.67 2236.57 1211.62C2228.13 1217.62 2211.62 1210.23 2199.61 1219.2C2185.65 1229.59 2176.22 1248.27 2172.88 1265.03C2169.79 1280.52 2178.13 1283.56 2191.1 1281.94C2200.29 1280.8 2208.99 1278.79 2217.9 1277.58C2224 1276.81 2230.16 1276.5 2236.32 1276.68C2251.76 1277.17 2263.85 1281.05 2278.76 1283.36C2302.42 1287.04 2323.93 1274.19 2335.17 1253.58C2341.38 1242.21 2347.1 1225.79 2354.31 1215.15C2367.79 1195.22 2385.94 1176.26 2405.08 1161.72Z"/><path fill="#0C446F" d="M1712.5 1144.41C1737.51 1144.82 1773.24 1137.57 1791.13 1161.03C1799.31 1172.24 1799.85 1186.39 1792.65 1198.19C1785.82 1208.01 1783.41 1209.4 1773.4 1215.78C1781.76 1228.89 1788.52 1238.82 1797.67 1251.28C1791.09 1251.78 1786.77 1252 1780.2 1251.81C1773.28 1242.38 1762.58 1226.31 1755.62 1218.03C1750.4 1217.96 1728.55 1216.86 1725.15 1219.3C1726.09 1222.3 1725.75 1247.59 1725.74 1251.92C1720.83 1252.19 1714.79 1252.08 1709.78 1252.11C1709.82 1228.45 1709.44 1172.32 1710.37 1146.6C1711.08 1145.87 1711.79 1145.14 1712.5 1144.41ZM1725.16 1203.85C1731.52 1208.47 1766.64 1205.06 1773.29 1197.13C1779.07 1190.24 1778.35 1184.25 1778.47 1176.29L1776.33 1170.67C1766 1155.48 1741.34 1154.97 1725.11 1158.71C1726.31 1170.48 1725.39 1191.32 1725.16 1203.85Z"/><path fill="#FFFEFE" fill-opacity="0.0078431377" d="M1725.11 1158.71C1741.34 1154.97 1766 1155.48 1776.33 1170.67L1778.47 1176.29C1778.35 1184.25 1779.07 1190.24 1773.29 1197.13C1766.64 1205.06 1731.52 1208.47 1725.16 1203.85C1725.39 1191.32 1726.31 1170.48 1725.11 1158.71Z"/><path fill="#0C446F" d="M1712.5 1144.41C1737.51 1144.82 1773.24 1137.57 1791.13 1161.03C1784.44 1174.2 1784.64 1166.22 1776.33 1170.67C1766 1155.48 1741.34 1154.97 1725.11 1158.71C1724.34 1158.95 1723.23 1159.56 1722.47 1159.94C1722.41 1163.26 1722.38 1165.09 1721.9 1168.35C1718.74 1170.1 1720.4 1169.76 1716.74 1169.32C1710.98 1164.83 1714.31 1152.49 1712.5 1144.41Z"/><path fill="#0A3D65" d="M1709.78 1252.11C1709.82 1228.45 1709.44 1172.32 1710.37 1146.6C1711.08 1145.87 1711.79 1145.14 1712.5 1144.41C1714.31 1152.49 1710.98 1164.83 1716.74 1169.32C1720.4 1169.76 1718.74 1170.1 1721.9 1168.35C1722.38 1165.09 1722.41 1163.26 1722.47 1159.94C1723.23 1159.56 1724.34 1158.95 1725.11 1158.71C1726.31 1170.48 1725.39 1191.32 1725.16 1203.85L1722.62 1203.34C1720.12 1196.09 1723.94 1185.44 1721.67 1181.2C1717.7 1180.77 1719.18 1180.39 1715.89 1182.23C1711.03 1189.57 1714.04 1205.21 1713.23 1214.02C1712.98 1216.75 1712.72 1226.55 1713.4 1228.52C1716.85 1230.02 1718.53 1229.64 1721.53 1227.36C1722.42 1224.22 1722.33 1223.79 1722.29 1220.47C1723.93 1219.13 1722.96 1219.44 1725.15 1219.3C1726.09 1222.3 1725.75 1247.59 1725.74 1251.92C1720.83 1252.19 1714.79 1252.08 1709.78 1252.11Z"/><path fill="#0A3D65" d="M1776.33 1170.67C1784.64 1166.22 1784.44 1174.2 1791.13 1161.03C1799.31 1172.24 1799.85 1186.39 1792.65 1198.19C1792.76 1193.7 1794.01 1186.63 1789.32 1184.54C1786.36 1185.94 1785.5 1186.59 1782.32 1186.86C1777.53 1184.24 1781.2 1180.16 1778.47 1176.29L1776.33 1170.67Z"/><path fill="#0C446F" d="M1320.32 1145.41C1332.52 1144.43 1364.71 1144.01 1376 1146.41C1414.27 1154.55 1418.36 1194.94 1384.39 1215.32C1387.33 1223.05 1393.07 1230.61 1397.89 1237.41L1409.3 1252.02C1399.45 1252.48 1392.92 1254.49 1386.31 1245.97C1379.12 1236.4 1374.49 1229.2 1368.4 1218.96L1335.87 1220.7C1335.86 1228.16 1337.9 1245.92 1334.96 1251.4C1330.45 1252.24 1325.99 1252.37 1321.79 1250.4C1319.18 1245.59 1320.16 1157.8 1320.32 1145.41ZM1336.31 1206.52C1349.78 1206.36 1372.62 1207.89 1382.69 1199.25C1388.39 1193.26 1389.17 1190.02 1391.55 1182.25C1381.67 1154.44 1360.99 1157.81 1335.99 1158.21C1335.97 1174.31 1336.07 1190.42 1336.31 1206.52Z"/><path fill="#0A3D65" d="M1386.31 1245.97C1390.01 1246.6 1392.04 1246.18 1395.3 1244.69C1398.12 1241.01 1397.29 1242.68 1397.89 1237.41L1409.3 1252.02C1399.45 1252.48 1392.92 1254.49 1386.31 1245.97Z"/><path fill="#0C446F" d="M674.806 1145.01C706.175 1142.36 770.645 1140.56 759.835 1190.21C757.161 1202.49 747.479 1209.33 737.341 1215.45C741.276 1220.77 758.978 1245.23 760.47 1250.3C756.349 1251.75 752.192 1251.33 747.75 1251.29C740.114 1248.4 727.386 1225.93 722.417 1218.15C712.171 1218.57 700.753 1218.45 690.414 1218.57C690.116 1228.73 690.469 1240.72 690.502 1251.04C685.402 1251.21 679.703 1251.1 674.549 1251.11C675.058 1216.11 673.711 1179.62 674.806 1145.01ZM689.864 1205.63C706.354 1205.69 721.36 1207.65 735.393 1198.71C743.468 1189.34 748.185 1176.96 737.255 1167.51C724.705 1156.66 705.849 1158.36 690.515 1159.22L689.864 1205.63Z"/><path fill="#0C446F" d="M558.997 1144.76C574.897 1143.94 617.844 1143.14 629.721 1151.37C661.032 1173.07 648.595 1208.67 613.488 1217.67C605.416 1219.38 584.757 1219.08 575.539 1219.15C575.706 1229.72 575.518 1240.65 575.463 1251.25C570.314 1251.42 564.797 1251.35 559.613 1251.37C559.633 1218.05 557.916 1177.19 558.997 1144.76ZM575.284 1205.02C591.542 1205.35 610.154 1207.2 624.134 1197.89C628.748 1193.37 629.681 1189.53 629.806 1183.23C630.265 1160.07 611.599 1158.42 593.92 1158.52C587.788 1158.57 581.657 1158.69 575.528 1158.88C575.429 1171.27 574.614 1193.34 575.284 1205.02Z"/><path fill="#0C446F" d="M1625.4 1144.04C1629.98 1143.62 1635.78 1143.7 1640.5 1143.65C1642.74 1147.52 1645.05 1152.24 1646.86 1156.35C1661.02 1188.45 1677.24 1219.47 1692.5 1251.06C1669.15 1252.48 1672.08 1247.62 1663.41 1227.62L1651.88 1227.3C1637.56 1227.02 1622.78 1227.15 1608.42 1227.1C1605.95 1232.82 1600.83 1246.2 1597.53 1250.21C1593.52 1251.48 1588.48 1251.82 1584.53 1250.16C1582.36 1242.58 1619.86 1158.1 1625.4 1144.04ZM1612.78 1214.2L1639.25 1214.24L1656.16 1214.23C1652.96 1207.29 1636.39 1170.11 1632.6 1166.59C1626.03 1179.32 1619.26 1199.86 1612.78 1214.2Z"/><path fill="#0C446F" d="M1180.6 1145.42C1194.44 1144.8 1199.45 1144.33 1203.87 1159.04C1207.44 1170.92 1245.49 1243.95 1245.47 1250.42C1241.65 1252.7 1232.44 1252.04 1227.86 1251.91C1224.26 1243.87 1220.75 1235.78 1217.32 1227.66C1207.07 1227.52 1167.93 1225.98 1161.99 1229.23C1161.54 1230.35 1161.02 1231.54 1160.6 1232.66C1156.92 1232.78 1154.51 1232.44 1151.2 1230.97C1148.32 1226.74 1149.1 1225.28 1149.29 1219.69C1153.18 1209.12 1156.67 1199.5 1161.17 1189.16C1165.4 1180.1 1169.46 1170.96 1173.33 1161.74C1175.5 1156.75 1178.17 1150.13 1180.6 1145.42ZM1174.25 1200.2C1173.99 1201.94 1170.07 1210.86 1169.14 1213.07L1210.45 1213.26C1203.03 1198.28 1197.49 1182.09 1188.91 1167.56L1187.63 1167.76C1185.5 1171.01 1185.35 1171.6 1184.37 1175.38C1181.73 1182.28 1177.48 1193.99 1174.25 1200.2Z"/><path fill="#0A3D65" d="M1173.33 1161.74C1173.25 1166.14 1172.68 1170.06 1174.62 1173.85C1178.08 1176.09 1180.02 1176.25 1184.37 1175.38C1181.73 1182.28 1177.48 1193.99 1174.25 1200.2C1172.63 1185.18 1169.47 1193.48 1161.17 1189.16C1165.4 1180.1 1169.46 1170.96 1173.33 1161.74Z"/><path fill="#0C446F" d="M791.883 1145.28C816.171 1145.1 840.459 1145.13 864.746 1145.35C864.764 1149.76 864.555 1154.54 864.447 1158.98L808.029 1159.03L807.995 1192.64C824.177 1193.08 841.727 1192.64 858.005 1192.55L857.987 1206.35C842.951 1206.98 823.593 1206.41 807.993 1206.67C807.863 1217.12 808.02 1227.88 808.046 1238.36C822.825 1239.27 852.417 1237.1 864.25 1239.22C868.289 1242.3 868.357 1246.57 865.505 1250.54C859.027 1252.18 801.321 1251.5 791.444 1251.28C789.618 1234.17 790.336 1209.1 790.409 1191.55C790.455 1180.24 790.511 1156.03 791.883 1145.28Z"/><path fill="#0C446F" d="M1024.96 1144.27C1041.5 1141.59 1055.65 1145.58 1070.04 1153.28C1068.66 1157.62 1067.91 1161.21 1065.14 1164.78C1060.45 1166.82 1043.18 1156.37 1034.26 1158.07C1028.16 1159.23 1020.31 1157.29 1014.74 1163.81C1012.9 1165.45 1009.65 1171.92 1010.44 1174.58C1016.7 1195.52 1053.41 1188.74 1067.04 1202.89C1077.54 1213.79 1077.14 1230.56 1068.18 1239.71C1058.85 1249.25 1046.16 1252.29 1033.64 1252.72C1024.21 1252.84 996.9 1251.06 994.165 1238.74C993.156 1234.2 997.966 1228.87 1000.64 1225.41C1014.76 1238.94 1037.82 1244.96 1054.57 1231.63C1057.82 1229.04 1058.04 1227.59 1058.39 1223.87C1051.29 1204.57 999.358 1206.98 993.266 1181.7C988.602 1162.35 1007.74 1148 1024.96 1144.27Z"/><path fill="#0C446F" d="M514.846 1145.58C522.826 1144.88 527.65 1144.96 535.552 1145.23C523.523 1160.89 509.316 1181.23 498.508 1197.73C511.465 1215.69 524.662 1233.47 538.095 1251.08C529.158 1251.8 525.207 1251.91 516.199 1251.52C511.006 1244.01 493.407 1215.6 487.234 1214.12C480.852 1215.67 462.453 1243.75 456.884 1251.34C450.024 1252.18 446.166 1252.1 439.191 1251.96C453.083 1237.48 467.155 1208.28 477.541 1199.02C471.916 1191.33 464.695 1181.95 459.594 1174.1C460.154 1170.49 460.082 1168.16 462.494 1165.51C467.137 1164.18 467.242 1165.42 471.345 1164.99L472.775 1164.82C476.996 1170.43 482.705 1178.49 487.18 1183.59C496.597 1171.08 505.125 1157.75 514.846 1145.58Z"/><path fill="#0C446F" d="M347.544 1144.35C370.326 1145.44 396.358 1144.79 419.455 1144.81L419.322 1158.49C399.819 1158.82 379.604 1158.25 360.363 1158.77L360.449 1190.76C377.907 1190.99 395.858 1190.63 413.138 1190.99L412.97 1204.4C402.037 1204.48 370.009 1205.14 360.066 1203.89C360.931 1211.37 361.278 1231.41 359.986 1238.5C354.347 1233.33 359.119 1232.5 356.186 1227.3C344.226 1226.23 349.364 1243.83 347.308 1251.75C344.473 1248.63 344.835 1245.05 344.853 1240.93C344.993 1209.52 344.66 1177.97 345.83 1146.6C346.401 1145.85 346.973 1145.1 347.544 1144.35Z"/><path fill="#0A3D65" d="M347.308 1251.75C344.473 1248.63 344.835 1245.05 344.853 1240.93C344.993 1209.52 344.66 1177.97 345.83 1146.6C346.401 1145.85 346.973 1145.1 347.544 1144.35C351.111 1158.57 344.271 1204.94 352.109 1212.05C355.789 1211.62 354.397 1212.43 356.627 1209.9L357.497 1205.12C358.729 1204.38 358.728 1204.2 360.066 1203.89C360.931 1211.37 361.278 1231.41 359.986 1238.5C354.347 1233.33 359.119 1232.5 356.186 1227.3C344.226 1226.23 349.364 1243.83 347.308 1251.75Z"/><path fill="#0C446F" d="M1825.02 1165.01C1825.22 1169.16 1824.86 1170.77 1827.53 1173.86C1830.76 1175.68 1833.09 1175.5 1836.9 1175.46C1834.71 1182.31 1833.48 1185.85 1833.56 1193.23C1834.23 1217.45 1847.28 1240.14 1874.17 1239.22C1882.78 1238.93 1888.37 1236.56 1896.41 1233.51C1896.42 1222.35 1896.75 1209.45 1896.31 1198.43C1901.69 1198.49 1908.04 1198.4 1913.32 1198.75C1913.28 1205.68 1914.36 1238.4 1909.8 1241.72C1887.38 1258.07 1852.8 1259.06 1833.12 1238.02C1826.14 1230.56 1821.27 1221.38 1819.03 1211.41C1814.32 1198.56 1818.12 1176.85 1825.02 1165.01Z"/><path fill="#0A3D65" d="M1825.02 1165.01C1825.22 1169.16 1824.86 1170.77 1827.53 1173.86C1830.76 1175.68 1833.09 1175.5 1836.9 1175.46C1834.71 1182.31 1833.48 1185.85 1833.56 1193.23C1832.68 1195.56 1832.8 1197.27 1832.84 1199.7C1829.21 1198.49 1823.63 1190.62 1819.67 1196.47C1819.58 1201.69 1819.41 1206.21 1819.03 1211.41C1814.32 1198.56 1818.12 1176.85 1825.02 1165.01Z"/><path fill="#0A3D65" d="M955.739 1224.96C955.173 1196.61 891.417 1214.32 890.747 1177.12C890.298 1152.17 909.375 1145.79 930.74 1143.73C938.715 1142.96 964.788 1147.82 967.779 1155C966.831 1158.32 963.672 1163.14 960.827 1164.92C948.473 1164.67 927.493 1150.62 913.165 1163.59C908.401 1167.91 905.445 1178.36 912.167 1182.66C932.224 1195.51 986.67 1193.23 970.433 1232.23C969.132 1226.98 971.183 1223.78 966.264 1219.89C961.548 1220.09 959.506 1222 955.739 1224.96Z"/><path fill="#3B8DA2" d="M1821.54 622.306C1830.38 620.72 1889.87 628.805 1897.29 631.695C1895.16 634.43 1870.22 653.998 1865.6 657.701C1861.87 660.675 1858.64 662.617 1854.6 665.125C1841.55 662.631 1804.63 649.232 1794.24 641.815C1803.68 631.846 1808.06 625.978 1821.54 622.306Z"/><path fill="#0C446F" d="M1572.84 1234.96C1526.13 1281.41 1452.96 1233.74 1483.83 1167.53C1488.87 1168.72 1492.53 1169.41 1495.39 1173.74C1495.87 1176.66 1495.76 1178.12 1495.7 1181.1C1495.39 1184.25 1493.81 1189.53 1493.31 1194.45C1492.08 1205.67 1495.51 1216.9 1502.8 1225.51C1508.97 1233.02 1517.95 1237.66 1527.64 1238.35C1540.73 1239.34 1548.2 1234.76 1557.6 1226.58C1563.34 1229.39 1567.36 1231.65 1572.84 1234.96Z"/><path fill="#0C446F" d="M1266.3 1145.31C1271.66 1145.12 1277.28 1145.33 1282.66 1145.45C1282.97 1159.72 1282.96 1174.01 1282.64 1188.29C1282.63 1197.16 1283.68 1246.99 1280.68 1251.03C1276.43 1252.35 1274.87 1252.01 1270.48 1251.78C1265.1 1248.69 1266.61 1244.51 1266.63 1238.5C1265.54 1209.2 1266.06 1174.84 1266.3 1145.31Z"/><path fill="#0A3D65" d="M1266.63 1238.5C1268.01 1213.16 1264.87 1176.51 1267.34 1153.71L1268.56 1154.2C1269.69 1175.83 1269.5 1197.28 1269.61 1218.92C1269.64 1224.32 1269.38 1230.05 1270.41 1235.33C1287.54 1242.67 1276.72 1195.19 1282.64 1188.29C1282.63 1197.16 1283.68 1246.99 1280.68 1251.03C1276.43 1252.35 1274.87 1252.01 1270.48 1251.78C1265.1 1248.69 1266.61 1244.51 1266.63 1238.5Z"/><path fill="#3B8DA2" d="M2396 684.554L2413.59 697.251C2414.8 705.58 2421.96 755.167 2420.21 759.523C2417.43 762.194 2418.77 761.533 2415.09 762.524C2399.91 758.269 2392.6 706.648 2385.5 691.18C2389.27 686.499 2390.15 685.79 2396 684.554Z"/><path fill="#0C446F" d="M1825.02 1165.01C1827.33 1160.53 1834.61 1153.57 1839 1150.86C1862.84 1136.16 1894.75 1142.07 1915.7 1159.16C1911.52 1162.41 1907.14 1165.71 1903.05 1169.06C1881.73 1156.54 1851.2 1148.1 1836.9 1175.46C1833.09 1175.5 1830.76 1175.68 1827.53 1173.86C1824.86 1170.77 1825.22 1169.16 1825.02 1165.01Z"/><path fill="#0C446F" d="M955.739 1224.96C959.506 1222 961.548 1220.09 966.264 1219.89C971.183 1223.78 969.132 1226.98 970.433 1232.23C965.747 1261.46 881.696 1258.34 893.095 1229.03C902.511 1225.71 943.104 1257.19 955.739 1224.96Z"/><path fill="#0C446F" d="M347.308 1251.75C349.364 1243.83 344.226 1226.23 356.186 1227.3C359.119 1232.5 354.347 1233.33 359.986 1238.5C380.275 1238.31 402.302 1238.48 422.487 1237.73C422.353 1241.93 422.692 1246.48 420.828 1250.05C416.011 1252.8 358.246 1250.95 347.308 1251.75Z"/><path fill="#0C446F" d="M1498.95 1152.23C1526.32 1136.94 1551.33 1139.3 1574.42 1160.12C1571.19 1163.47 1567.74 1167.32 1564.14 1170.19C1546.62 1156.74 1533 1152.96 1511.73 1161.7C1506.52 1159.35 1501.61 1157.44 1498.95 1152.23Z"/><path fill="#0A3D65" d="M444.065 1151.04C442.809 1147.49 442.518 1148.37 443.308 1145.32C447.626 1142.78 452.819 1144.47 458.189 1145.25C461.325 1149.25 470.293 1160.54 472.775 1164.82L471.345 1164.99C467.242 1165.42 467.137 1164.18 462.494 1165.51C460.082 1168.16 460.154 1170.49 459.594 1174.1C454.767 1168.13 447.941 1157.59 444.065 1151.04Z"/><path fill="#0C446F" d="M444.065 1151.04C442.809 1147.49 442.518 1148.37 443.308 1145.32C447.626 1142.78 452.819 1144.47 458.189 1145.25C457.442 1150.08 458.302 1149.08 455.537 1152.27C452.041 1153.46 447.901 1151.93 444.065 1151.04Z"/><path fill="#0A3D65" d="M1139.28 1242.93C1143.01 1235.74 1146.22 1227.26 1149.29 1219.69C1149.1 1225.28 1148.32 1226.74 1151.2 1230.97C1154.51 1232.44 1156.92 1232.78 1160.6 1232.66L1153.77 1251.5C1148.98 1251.75 1140.43 1252.99 1136.98 1250.04L1137.19 1248.84L1139.28 1242.93Z"/><path fill="#0C446F" d="M1139.28 1242.93C1143.26 1243.16 1144.11 1242.91 1147.3 1244.98L1148.4 1247.08C1145.85 1251.27 1141.48 1250.31 1137.19 1248.84L1139.28 1242.93Z"/><path fill="#0A3D65" d="M1483.83 1167.53C1487.5 1160.72 1492.37 1156.11 1498.95 1152.23C1501.61 1157.44 1506.52 1159.35 1511.73 1161.7C1502.7 1167.7 1500.4 1171.51 1495.7 1181.1C1495.76 1178.12 1495.87 1176.66 1495.39 1173.74C1492.53 1169.41 1488.87 1168.72 1483.83 1167.53Z"/><path fill="#458393" fill-opacity="0.87843138" d="M2048.6 737.236C2048.43 741.032 2047.57 744.867 2049.13 747.727C2052.86 746.124 2055.33 742.444 2058.84 740.041C2055.31 746.35 2035.51 778.225 2030.89 779.598C2030.64 773.296 2045.04 744.079 2048.6 737.236Z"/><path fill="#458393" fill-opacity="0.95686275" d="M2299.65 718.564C2304.54 712.525 2309.15 707.741 2315.6 703.374L2317.32 703.321C2317.19 708.344 2307.75 722.99 2304.71 728.245C2304.27 723.231 2305.99 722.587 2303.97 718.976L2299.65 718.564Z"/><path fill="#458393" fill-opacity="0.8392157" d="M2405.08 1161.72C2412.63 1155.23 2419.58 1150.47 2428.61 1146.2C2423.27 1152.94 2408.1 1175.1 2404.22 1179.17C2406.52 1171.99 2411.36 1166.58 2412.03 1161.99L2410.92 1160.65L2405.08 1161.72Z"/><path fill="#458393" fill-opacity="0.96862745" d="M2385.5 691.18C2383.16 684.506 2380.06 680.787 2377.87 672.356C2384.75 675.992 2390.1 679.534 2396 684.554C2390.15 685.79 2389.27 686.499 2385.5 691.18Z"/><path fill="#458393" fill-opacity="0.67843139" d="M1732.84 783.223C1737.9 777.735 1748.9 771.331 1755.63 767.958C1750.77 773.478 1738.78 786.261 1733.03 790.788C1734.63 787.908 1735.9 786.882 1735.51 784.141L1732.84 783.223Z"/><path fill="#458393" fill-opacity="0.87843138" d="M1732.84 783.223L1735.51 784.141C1735.9 786.882 1734.63 787.908 1733.03 790.788C1732.23 791.443 1729.32 793.936 1728.64 794.345C1728.37 792.555 1728.41 792.678 1727.24 791.293L1721.96 791.595C1725.31 788.651 1729.24 785.892 1732.84 783.223Z"/></svg>