<?xml version="1.0" encoding="utf-8" ?><svg xmlns="http://www.w3.org/2000/svg" xmlns:xlink="http://www.w3.org/1999/xlink" width="2688" height="1568" viewBox="0 0 2688 1568"><path fill="#8B8B8E" d="M1369.45 651.453L1373.82 651.352C1361.83 656.42 1336.28 659.106 1322.47 662.063C1095.05 710.729 773.797 832.529 806.058 1118.54C796.307 1119.39 777.034 1118.76 766.67 1118.77L689.427 1118.87L427.75 1119.15C423.845 1119.29 422.795 1119.32 418.973 1118.61L418.248 1117.46C419.682 1109.24 423.713 1100.86 426.961 1093.18C442.031 1057.6 461.224 1025.31 485.51 995.248C671.918 764.51 1087.1 681.444 1369.45 651.453Z"/><path fill="#8B8B8E" d="M1346.53 727.323L1349.69 727.32C1350.07 730.469 1328.38 742.168 1324.19 744.711C1254.85 787.474 1170.82 843.409 1135.27 919.45C1091.43 1013.21 1192.08 1075.34 1266.66 1100.79C1283.92 1106.69 1304.57 1111.83 1320.88 1118.72L1322.07 1119.22C1299.27 1119.8 1274.21 1119.21 1251.16 1119.17L1104.02 1118.68C1051.99 1118.4 997.144 1119.8 945.507 1118.69C927.829 1096.17 913.111 1068.31 906.929 1040.44C893.097 978.081 920.01 926.901 965.619 886.059C1066.59 795.638 1216.3 753.647 1346.53 727.323Z"/><path fill="#0D3F6A" d="M693.95 1149.08C712.636 1149.1 731.322 1149.26 750.005 1149.56C754.655 1159.89 763.577 1183.59 767.126 1194.46C768.665 1197.62 770.104 1202.22 771.409 1205.61C781.928 1232.95 791.521 1260.66 801.601 1288.16L817.59 1331.65C820.151 1338.51 825.087 1348.89 826.064 1355.56C822.418 1358.42 780.384 1357.47 773.481 1357.46C768.913 1341.89 762.96 1327 757.45 1311.77L684.432 1312.35C679.636 1325.46 673.418 1342.88 671.015 1356.49C659.998 1357.38 639.789 1356.92 628.283 1356.94C605.423 1356.98 581.254 1357.57 558.52 1356.84C553.31 1348.96 546.738 1340.59 541.237 1332.67L492.09 1261.16C490.205 1287.61 490.792 1330.33 490.713 1357.07C476.038 1357.38 456.555 1357.44 442.077 1356.69C441.659 1346.44 441.073 1312.61 441.531 1303.79C442.408 1286.88 439.14 1154.09 442.801 1149.32C457.649 1148.87 475.499 1149.33 490.318 1149.62C490.571 1180.89 490.507 1211.12 492.587 1242.38C495.345 1238.71 497.844 1234.49 500.279 1230.56C517.47 1202.79 538.145 1178.11 554.511 1149.73C563.314 1149.39 606.067 1148.36 612.265 1150.55C611.186 1154.11 607.24 1157.64 604.757 1161.17C594.081 1176.15 583.111 1190.92 571.854 1205.46C560.854 1219.62 549.541 1232.66 541.282 1248.61L541.636 1249.24C553.537 1270.02 570.573 1290.81 584.981 1310.18C595.738 1324.64 606.428 1339.43 617.831 1353.32C626.71 1335.26 630.195 1315.24 637.604 1297.26C657.628 1248.65 674.019 1197.56 693.95 1149.08ZM726.945 1210.18C724.989 1204.06 723.567 1198.98 720.475 1193.29C718.074 1200.49 716.306 1205.87 714.565 1213.31C711.486 1227.43 696.366 1260.91 695.972 1272.59L697.091 1273.68C701.907 1274.45 742.528 1274.52 744.772 1273.02C744.394 1264.44 730.019 1221.91 726.945 1210.18Z"/><path fill="#FFFEFE" fill-opacity="0.06666667" d="M720.475 1193.29C723.567 1198.98 724.989 1204.06 726.945 1210.18C721.533 1207.48 726.907 1208.88 721.22 1206.12C717.238 1209.16 717.436 1210.83 714.565 1213.31C716.306 1205.87 718.074 1200.49 720.475 1193.29Z"/><path fill="#0D3F6A" d="M851.74 1149.24C867.178 1148.62 888.573 1149.45 904.431 1149.63C912.51 1158.35 926.597 1182.14 933.81 1192.96C949.581 1216.62 963.81 1240.89 981.036 1263.7C986.609 1271.08 988.51 1277.6 996.35 1285.47C997.151 1281.89 996.39 1254.31 996.35 1249.07L995.769 1149.71C1009.28 1149.36 1029.81 1149.05 1043.01 1150.1C1043.13 1152.43 1043.22 1154.76 1043.27 1157.09C1043.99 1190.63 1042.69 1226.54 1042.94 1260.59L1043.24 1322.46C1043.24 1329.19 1044.64 1353.34 1040.97 1357.19C1025.38 1356.9 1009.72 1357.51 994.123 1356.76C981.831 1341.65 962.381 1308.33 950.333 1291.02C933.55 1266.91 914.925 1241.09 899.321 1216.53C896.995 1258.34 898.205 1314.53 898.869 1356.98C882.744 1357.16 866.619 1357.21 850.494 1357.14C848.713 1301.35 851.257 1209.51 850.542 1150.96C850.942 1150.39 851.341 1149.82 851.74 1149.24Z"/><path fill="#0D3F6A" d="M1362.12 1148.95C1380.02 1148.51 1401.03 1148.66 1418.95 1149.08C1444.44 1213.28 1465.84 1280.01 1490.56 1344.58C1491.89 1348.04 1494.21 1351.7 1494.33 1355.29C1489.11 1358.7 1454.24 1356.24 1446.18 1356.99C1436.21 1357.92 1431.13 1320.6 1424.42 1313.7C1422.69 1311.92 1422.32 1312.42 1419.25 1312.22L1352.76 1312.18C1349.78 1324.28 1341.74 1342.69 1337.79 1356.45C1329.61 1357.05 1292.67 1357.78 1286.3 1355.71L1285.73 1353.96C1288.09 1344.41 1293.83 1333.09 1297.05 1323.37C1314.38 1271 1337.49 1220.9 1354.6 1168.43C1356.18 1163.57 1359.41 1152.75 1362.12 1148.95ZM1362.21 1274L1391.1 1274.2L1414.21 1274.23C1411.21 1264.25 1393.63 1199.15 1388.32 1195.5C1380.12 1215.46 1369.75 1251.67 1362.21 1274Z"/><path fill="#0D3F6A" d="M1193.95 1145.48C1214.95 1144.79 1236.28 1149.4 1256.49 1154.46C1257.23 1163.83 1256.51 1188.47 1256.14 1198.1C1231.21 1188.18 1205.34 1180.23 1178.31 1187.38C1161.3 1191.75 1146.84 1202.93 1138.33 1218.3C1121.18 1248.72 1126.07 1293.12 1158.56 1312.47C1176.4 1323.08 1197.62 1320.93 1217.05 1315.55C1217.44 1303.18 1216.95 1289.06 1216.63 1276.68L1175.72 1276.6L1175.6 1238.66C1195.85 1237.83 1220.19 1238.39 1240.75 1238.31C1249.04 1238.24 1257.32 1238.27 1265.6 1238.41C1266.3 1268.52 1262.42 1313.76 1266.82 1342.29C1215.92 1364.23 1158.34 1372.93 1110.69 1335.49C1067.62 1301.66 1065.64 1228.43 1099.46 1187.41C1124.78 1156.71 1156.22 1149.34 1193.95 1145.48Z"/><path fill="#0D3F6A" d="M1620.55 299.149C1627.87 286.786 1655.87 245.051 1671.36 250.35C1672.15 253.184 1669.79 266.274 1669.31 270.095C1664.48 308.01 1666.97 346.748 1669.96 384.724C1671.06 398.664 1675.56 411.546 1677.21 425.347C1678.18 434.429 1672.52 443.904 1670.64 452.572C1673.25 496.81 1696.09 536.482 1700.98 579.705C1701.36 583.112 1700.73 591.573 1698.99 594.836C1673.1 628.413 1640.48 660.736 1602.15 622.126C1598.22 605.116 1604.05 598.494 1603.81 585.646C1603.71 580.192 1566.34 536.298 1561.73 534.8C1538.54 527.274 1525.87 523.83 1510.41 502.796C1508.97 500.838 1508.91 500.097 1506.78 500.49C1505.02 507.58 1516.86 528.4 1521.15 535.71C1546.12 578.277 1595.9 608.578 1588.94 664.431C1588.82 665.401 1588.14 666.594 1587.69 667.433L1586.43 667.525C1576.91 641.094 1549.41 602.092 1531.38 579.018C1503.14 542.89 1469.15 518.15 1492.21 466.243C1498.04 453.102 1509.95 439.19 1520.44 429.159L1525.53 429.374C1527.63 432.304 1526.6 434.711 1526.33 439.161C1504.04 484.18 1528.18 519.636 1577.84 509.811C1593.24 506.764 1596.48 506.905 1605.32 520.043L1605.96 525.669L1604.75 526.707L1598.19 525.116L1591.21 520.382C1585.6 522.63 1574.4 526.05 1579.17 534.643C1587.53 549.697 1610.04 557.064 1615.35 574.158C1619.95 589.69 1598.08 615.257 1616.89 619.509C1620.19 620.255 1624.34 621.018 1627.62 621.926C1634.84 629.308 1642.77 621.942 1648.82 620.687C1663.18 626.763 1683.76 597.762 1690.85 587.437C1691.16 569.713 1681.22 553.633 1677.03 536.223C1671.44 513.007 1664.05 490.039 1659.22 466.605C1657.91 460.236 1656.78 454.502 1654.18 448.494C1656.74 446.108 1658.92 443.904 1660.65 440.811C1663.11 436.308 1664.29 431.213 1664.04 426.086C1663.85 422.24 1659.95 401.72 1659.05 396.851C1656.22 381.703 1655.61 364.877 1654.15 350.906C1653.13 341.139 1653.81 293.177 1652.47 288.716C1646.04 289.714 1629.43 317.69 1625.5 324.215C1598.75 317.838 1548.78 313.094 1520.08 312.672C1523.67 320.588 1527.03 328.604 1530.16 336.711C1463.89 349.057 1383.52 383.251 1330.38 424.421L1327.25 423.403L1326.93 421.51C1328.96 418.126 1329.42 417.107 1329.79 413.178C1368.11 364.38 1421.45 341.149 1478.72 322.787C1472.24 317.315 1461.33 308.669 1456.46 302.409C1508.94 285.741 1567.92 280.322 1620.55 299.149Z"/><path fill="#0D3F6A" d="M1771.46 1149.51L1787 1149.2C1812.53 1217.75 1836.58 1288.47 1862.94 1356.57C1846.16 1356.86 1826.14 1357.03 1809.48 1356.45C1804.72 1341.53 1799.82 1326.67 1794.76 1311.85L1742.75 1311.91C1735.13 1311.78 1727.24 1311.92 1719.59 1311.96C1715.77 1325.5 1710.6 1344.07 1705.41 1356.85C1697.65 1357.11 1659.97 1357.48 1654.47 1355.92C1656.88 1345.81 1666.58 1320.83 1670.68 1309.56L1710.65 1200.92C1716.57 1185.04 1725.38 1165.79 1729.8 1149.95C1741.51 1149.13 1759.29 1149.59 1771.46 1149.51ZM1730.07 1274.22L1757.5 1274.11C1765.75 1274.08 1775.76 1274.3 1783.86 1273.94C1776.5 1251 1768.09 1228.46 1761.63 1205.22C1760.47 1201.04 1759.18 1196.83 1757.63 1192.78C1747.23 1216.83 1740.11 1247.98 1730.07 1274.22Z"/><path fill="#0D3F6A" d="M1453.55 641.849C1442.82 602.785 1418.72 557.378 1387.72 530.773C1357.76 505.054 1317.91 491.048 1281.6 476.376C1244.94 461.309 1208.04 446.811 1170.93 432.888C1119.74 413.932 1071.5 399.426 1023.16 370.571C958.38 331.907 892.452 281.491 852.719 216.039C849.683 209.063 841.622 197.745 839.897 190.597C837.44 180.414 832.307 171.112 829.689 161.491L830.899 161.507C833.877 165.501 856.531 189.306 860.908 193.875C958.948 296.234 1089.8 369.101 1219.93 422.674C1269.06 442.898 1320.67 454.431 1364.82 485.201C1421.11 524.433 1451.73 570.467 1463.95 637.541C1463.3 647.153 1463.87 656.733 1463.25 665.676C1460.8 656.705 1459.59 648.963 1453.55 641.849Z"/><path fill="#010202" d="M1540.13 969.467C1632.98 966.417 1725.72 978.189 1814.86 1004.34C1827.92 1008.14 1852.7 1014.96 1863.7 1021.08C1805.1 1017.32 1745.01 1011.68 1686.87 1008.5C1642.12 1006.16 1597.31 1005.23 1552.5 1005.7C1474.74 1005.66 1397.27 1015.18 1321.84 1034.04C1299.46 1039.77 1280.4 1047.67 1259.54 1053.26C1267.04 1045.96 1283.11 1035.97 1292.33 1030.54C1365.41 987.546 1456.76 974.397 1540.13 969.467Z"/><path fill="#0D3F6A" d="M820.512 296.322C825.481 297.705 863.612 329.972 871.553 335.679C931.132 378.494 993.3 420.283 1063.01 444.731C1086.96 453.133 1112.9 458.168 1137.13 466.04C1190.56 482.973 1244.3 499.847 1294.55 524.989C1311.27 533.337 1332.24 544.391 1346.64 556.015C1343.1 555.796 1314.84 546.409 1309.77 544.831C1285.69 537.301 1261.5 530.141 1237.2 523.352C1193.18 511.121 1148.99 499.473 1104.66 488.411C1076.58 481.304 1043.86 473.982 1016.79 464.971C993.604 457.397 971.361 447.196 950.495 434.566C905.105 407.473 866.34 370.585 837.028 326.595C832.127 319.376 822.503 304.531 820.512 296.322Z"/><path fill="#0D3F6A" d="M1521.94 1149.44C1537.41 1149.39 1552.89 1149.45 1568.36 1149.63C1569.47 1205.55 1569.55 1261.47 1568.6 1317.39C1593.54 1318.34 1622.48 1317.83 1647.79 1318.02C1648.11 1324.72 1649.16 1352.83 1646.57 1356.9C1604.77 1357.03 1561.69 1357.61 1519.98 1357.03C1518.84 1341.59 1519.48 1153.95 1520.58 1151.03C1520.83 1150.38 1521.48 1149.97 1521.94 1149.44Z"/><path fill="#0D3F6A" d="M892.751 470.253C893.472 466.936 892.666 468.132 894.571 466.006L902.079 466.384C957.1 494.914 1035.81 520.825 1098.08 531.382C1162.98 542.384 1274.86 547.839 1332.49 578.449C1282.2 568.661 1234.13 564.268 1183.85 562.395C1094.09 559.05 1008.53 562.384 933.397 504.586C920.421 494.604 903.82 482.762 892.751 470.253Z"/><path fill="#0D3F6A" d="M1696.53 686.442C1721.09 685.869 1739.21 693.704 1741.54 721.476C1743.21 741.444 1726.31 761.531 1716.35 778.08C1702.82 800.572 1695.28 823.337 1693.52 849.673C1692.29 866.519 1688.21 887.342 1676.34 900.357C1660.56 917.66 1633.98 915.66 1613.28 922.499C1599.66 926.675 1577.06 937.868 1564 937.933C1559.41 937.948 1555.03 935.996 1551.97 932.573C1538.3 917.496 1546.77 877.842 1562.38 865.202C1574.4 855.477 1586.7 858.617 1601.4 859.506C1586.28 865.735 1575.85 866.025 1568.02 882.554C1564.11 891.807 1556.62 917.608 1564.82 925.334C1567.75 925.892 1583.65 918.284 1588.19 916.393C1597.41 912.625 1606.72 909.082 1616.12 905.768C1633.48 899.682 1648.63 897.734 1665.79 892.188C1669.77 890.902 1671.94 887.779 1674.36 884.482C1678.81 851.814 1675.18 828.475 1686.36 795.04C1692.56 772.229 1724.55 747.249 1725.6 724.351C1726.94 695.341 1676.17 705.05 1660.75 706.666C1640.74 708.762 1621.38 711.006 1602.12 711.359C1627.27 700.531 1669.29 689.202 1696.53 686.442Z"/><path fill="#0D3F6A" d="M1604.57 757.705L1608.42 758.378C1608.96 760.635 1608.79 761.712 1608.7 763.983C1590.4 789.272 1573.32 814.989 1553.43 838.845C1519.53 879.508 1497.53 850.264 1455.27 852.967C1434.71 854.782 1415.27 862.904 1394.75 864.818C1384.76 865.75 1358.21 863.245 1359.29 848.897C1361.01 825.879 1379.96 799.432 1394.77 782.226C1401.01 774.976 1411.4 769.976 1420.93 770.378C1436.24 771.001 1446.18 776.005 1456.65 786.439C1443.01 782.145 1427.24 776.734 1413.25 783.289C1396.93 790.935 1385.09 823.619 1379.84 840.142C1398.25 852.84 1414.01 842.254 1433.66 839.924C1455.05 837.388 1479.43 838.634 1500.47 843.277C1524 849.086 1533.87 838.569 1547.76 821.634C1565.43 800.089 1581.67 774.142 1604.57 757.705Z"/><path fill="#010202" d="M967.403 1395.24C989.743 1394.44 1001.09 1418.7 975.978 1429.75C985.841 1437.24 988.343 1439.35 995.374 1449.69C1002.64 1436.3 1005.7 1431.17 1004.9 1416.11C1004.76 1413.32 1005.37 1413.35 1006.83 1412.11C1028.16 1417.47 1003.75 1448.38 1003.02 1456.34C1002.83 1458.35 1003.5 1460.34 1004.87 1461.83C1008.17 1465.37 1013.69 1466.05 1018.21 1466.11C1019.67 1465.76 1019.96 1466.04 1021.61 1466.29L1022.61 1467.68C1019.16 1482.74 1000.59 1470.91 993.852 1465.08C948.371 1494.52 919.137 1449.25 958.903 1429.22C942.4 1415.23 948.277 1401.2 967.403 1395.24ZM965.732 1435.89C943.497 1447.48 947.784 1467.32 973.412 1466.03C999.315 1458.26 977.08 1438.77 965.732 1435.89ZM974.325 1423.47C988.141 1414.05 982.262 1402.99 967.143 1404.02C953.85 1413.2 960.02 1425.81 974.325 1423.47Z"/><path fill="#010202" d="M461.294 1396.96C477.574 1395.64 510.326 1393.96 507.107 1419.15C506.312 1425.37 501.547 1428.89 497 1432.52C508.927 1440.52 516.135 1447.61 509.417 1462.78C495.407 1477.18 479.871 1474.63 461.164 1474.37C461.014 1449.34 460.37 1421.76 461.294 1396.96ZM469.909 1439C469.63 1447.03 468.039 1457.75 472.56 1464.08C478.866 1468.67 490.9 1464.78 497.216 1461.42C514.625 1442.31 482.548 1438.51 469.909 1439ZM492.475 1425.89C507.18 1408.71 483.077 1405.26 470.52 1406.01C470.19 1413.98 468.597 1422.34 472.926 1428.66C478.918 1432.71 486.619 1428.92 492.475 1425.89Z"/><path fill="#010202" d="M1616.83 1391.84C1619.98 1392.03 1622.04 1391.71 1624.3 1393.78C1627.72 1400.53 1625.99 1415.72 1626.26 1425.11C1661.11 1401.93 1682.3 1441.82 1660.79 1467.51C1642.88 1484.03 1643.17 1468.84 1626.66 1471.82C1622.02 1472.66 1623.22 1474.87 1617.98 1471.75C1615.01 1464.43 1615.86 1401.16 1616.83 1391.84ZM1647.22 1465.8C1666.72 1455.58 1663.67 1424.92 1637.01 1427.2C1631.18 1430.56 1627.38 1433.8 1625.4 1440.75C1623.93 1445.81 1624.6 1451.24 1627.24 1455.79C1631.58 1463.26 1638.97 1465.89 1647.22 1465.8Z"/><path fill="#010202" d="M1495.71 1396.5C1507.57 1396.13 1521.28 1395.61 1531.15 1403.42C1541.48 1411.6 1541.57 1425.77 1532.6 1435.14C1523.28 1444.86 1512.86 1445.6 1500.2 1446.38L1499.18 1446.95C1495.39 1453.07 1499.86 1464.13 1497.99 1472.36C1495.68 1475.39 1496.76 1474.86 1493.61 1475.9C1488.26 1473.33 1487.22 1464.5 1488.14 1459.49C1490.24 1447.94 1485.95 1407.36 1488.81 1398.77C1491.84 1396.15 1490.91 1396.97 1495.71 1396.5ZM1522.15 1431.42C1541.4 1411.17 1514.11 1405.64 1498.53 1405.65C1498.24 1413.97 1496.2 1430.4 1500.89 1436.39C1506.98 1440.16 1516.94 1435.21 1522.15 1431.42Z"/><path fill="#010202" d="M1292.3 1418.32C1296.61 1417.82 1303.38 1417.41 1307.51 1418.64C1313 1420.27 1317.53 1424.17 1319.96 1429.35C1324.18 1438.21 1323.89 1461.47 1321.14 1471.27C1321.11 1472.52 1317.67 1474.64 1316.77 1474.13C1299.89 1464.43 1300.4 1483.99 1281.47 1471.4C1255.64 1442.66 1310.91 1443.73 1311.82 1431.82C1304.6 1416.52 1283.15 1435.98 1279.9 1424.78C1282.39 1418.97 1286.51 1419.38 1292.3 1418.32ZM1294.12 1468.04C1301.84 1465.88 1311.63 1461.33 1312.43 1452.22C1310.7 1447.33 1307.9 1447.2 1303.14 1447.3C1295.44 1448.8 1284.6 1450.73 1285.27 1460.8C1287.38 1464.56 1290.05 1466.57 1294.12 1468.04Z"/><path fill="#010202" d="M1178.54 1418.28C1218.13 1412.49 1206.97 1446.28 1207.14 1471.47C1207.2 1480.74 1194.5 1470.01 1195.66 1469.91C1182.52 1471.03 1183.28 1481.42 1168.82 1472.4C1165.36 1469.22 1160.8 1462.15 1161.42 1457.49C1163.63 1440.94 1187.58 1443.5 1196.94 1435.18C1197.63 1433.64 1198.5 1432.63 1197.94 1431.57C1190.63 1417.83 1177.36 1432.73 1168.84 1428.19C1167.32 1421.71 1173.69 1420.06 1178.54 1418.28ZM1178.42 1466.59C1189.64 1467.53 1201.9 1459.66 1196.02 1448.61C1194.3 1447.87 1193.88 1447.54 1192.09 1447.21C1184.36 1448.66 1170.98 1450.22 1171.86 1460.35C1174.01 1463.98 1174.8 1464.32 1178.42 1466.59Z"/><path fill="#010202" d="M769.5 1417.29C790.246 1418.61 793.217 1430.32 792.473 1448.58C784.18 1449.22 760.341 1446.71 755.73 1450.85C754.019 1456.95 757.281 1461.3 762.768 1464.22C771.151 1468.67 778.409 1466.36 786.746 1463.42C789.099 1464.26 788.046 1463.62 789.84 1465.66L789.679 1467.81C782.913 1477.22 761.946 1476.16 753.293 1469.82C740.003 1460.08 740.22 1439.44 749.768 1427.17C755.408 1419.92 760.99 1418.5 769.5 1417.29ZM774.25 1441.11C779.735 1440.71 778.363 1441.5 782.219 1438.99C785.45 1429.92 774.135 1425.47 766.413 1425.91C762.191 1427.71 756.633 1430.9 754.336 1435.01C755.099 1443.14 768.152 1441.26 774.25 1441.11Z"/><path fill="#010202" d="M539.103 1417.18C569.866 1412.42 566.786 1445.48 566.638 1466.81C566.61 1470.78 565.689 1471.94 562.848 1474.24C558.912 1474.01 559.945 1473.89 556.165 1471.13C542.919 1470.91 541.953 1481.49 525.735 1470.63C523.042 1467.51 521.022 1463.03 521.211 1458.98C521.987 1442.33 546.173 1443.47 554.328 1434.38C555.474 1430.54 555.402 1432.16 554.241 1428.22C549.161 1424.57 535.773 1428.28 527.418 1426.92L526.855 1424.22C530.487 1420.9 534.531 1418.83 539.103 1417.18ZM543.481 1466.51C550.041 1463.37 558.6 1458.44 556.08 1449.84C552.042 1446.03 549.749 1446.94 544.394 1447.36C537.203 1450.19 529.034 1453.9 531.962 1463.27C535.578 1466.86 538.542 1466.96 543.481 1466.51Z"/><path fill="#010202" d="M1338.41 1419C1339.69 1419.02 1344.35 1419.05 1345.28 1419.71C1353.92 1425.82 1340.92 1465.01 1355.45 1467.57C1385.81 1472.92 1366.34 1426.65 1378.62 1418.23C1381.67 1418.56 1381.65 1418.83 1384.03 1420.66C1385.52 1424 1385.05 1427.47 1384.96 1431.24C1384.96 1439.6 1386.48 1468.81 1382.31 1473.83C1378.29 1474.19 1377.85 1472.27 1375.67 1471.45C1367.21 1470.08 1362.02 1478.27 1352.03 1475.69C1333.98 1471.03 1334.47 1433.88 1338.41 1419Z"/><path fill="#010202" d="M811.571 1417.74C818.304 1418.38 819.505 1422.57 823.489 1421.15C833.724 1417.49 841.814 1414.41 850.047 1423.08C857.869 1431.31 859.938 1470.35 849.382 1473.94C841.658 1469.51 845.856 1447.26 845.036 1437.96C839.586 1425.48 832.867 1421.51 821.71 1431.68C809.678 1442.64 824.868 1465.22 815.729 1474.13C811.07 1474.45 807.261 1467.51 807.559 1464.23C808.563 1453.18 804.586 1426.06 811.571 1417.74Z"/><path fill="#010202" d="M1549.51 1418.85C1553.66 1418.5 1554.54 1418.2 1558.44 1419.29C1564.89 1426.26 1553.65 1460.86 1567.52 1467.13C1573.9 1470.02 1584.18 1462.96 1587.02 1457.81C1591.76 1449.2 1582.86 1421.82 1593.08 1418.93C1598.59 1420.65 1598.31 1421.51 1598.62 1426.75C1598.53 1435.94 1599.98 1464.73 1596.93 1471.36C1591.27 1476.47 1588.25 1470 1586.51 1470.66C1545.71 1486.31 1549.2 1455.09 1549.51 1418.85Z"/><path fill="#010202" d="M661.332 1433.44C661.105 1442.08 663.59 1468.81 656.985 1473.2C653.304 1473.54 654.944 1473.92 651.846 1472.24C650.118 1462.75 651.762 1438.24 651.482 1427.58C651.34 1422.19 652.059 1421.34 655.14 1418.52C659.906 1417.84 660.278 1422.43 663.266 1421.52C675.173 1417.91 684.651 1410.52 692.274 1426.31L691.993 1428.43C694.318 1429.36 693.485 1429.07 696.147 1429.09C696.688 1432.43 696.757 1434.67 696.9 1438.07C695.665 1449.85 697.534 1460.25 696.096 1471.41C693.925 1474.38 695.298 1473.36 691.841 1474.57C681.982 1469.08 691.563 1433.41 678.454 1424.86C672.547 1421 664.238 1429.74 661.332 1433.44Z"/><path fill="#010202" d="M1057.19 1397.13C1070.04 1395.91 1098.26 1396.64 1112.07 1397.56C1114.06 1397.69 1114.27 1398.8 1114.99 1400.12C1114.93 1401.85 1115.29 1403.86 1114.19 1404.7C1110.36 1407.63 1097.42 1406.67 1092.33 1406.62L1092.25 1450.5C1092.34 1457.09 1093.04 1467.02 1091 1472.86C1080.45 1479.6 1081.51 1460.96 1081.51 1455.06C1081.52 1438.73 1081.77 1422.38 1082.07 1406.06C1073.98 1405.58 1066.83 1407.58 1059.82 1404.39C1056.98 1401.08 1057.87 1402.16 1057.19 1397.13Z"/><path fill="#010202" d="M1396.3 1419.51C1399.92 1418.93 1400.96 1418.84 1404.62 1418.98C1411.97 1422.32 1412.53 1431.38 1418.22 1439.62L1418.92 1440.62C1424.53 1434.05 1433.42 1413.31 1443.5 1420.35C1437.53 1428.85 1431.32 1437.95 1426.07 1446.88C1432.14 1455.41 1438.21 1463.8 1443.88 1472.6C1431.26 1477.39 1425.83 1464.16 1419.69 1454.95C1413.87 1461.26 1411.68 1466.66 1406.16 1473.19C1402.93 1474.69 1401.44 1474.19 1397.73 1473.88L1396.9 1472.8C1397.77 1466.59 1409.85 1452.53 1414.17 1446.96C1410.76 1442.3 1396.85 1423.51 1396.3 1419.51Z"/><path fill="#010202" d="M1242.58 1461.28C1246.79 1451.37 1256.43 1421.82 1264.25 1417.64C1267.79 1417.98 1266.27 1417.28 1268.82 1420.08C1268.91 1423.19 1267.2 1426.7 1266.03 1429.71C1261.87 1440.81 1257.53 1452.18 1252.44 1462.9C1249.92 1468.21 1246.89 1473.19 1240.53 1472.7C1236.34 1470.17 1234.73 1466.96 1232.99 1462.52C1227.57 1448.74 1221.57 1435.07 1216.96 1421C1217.35 1420.09 1217.74 1419.18 1218.13 1418.27C1220.39 1418.25 1221.83 1418.44 1224.04 1418.7C1231.07 1423.32 1239.36 1451.84 1242.58 1461.28Z"/><path fill="#010202" d="M1810.77 1417.22C1817.24 1416.93 1822.73 1418.37 1826.83 1423.81L1826.49 1425.79C1816.47 1432.33 1815.68 1420.85 1802.14 1427.86C1799.74 1429.1 1800.22 1428.8 1799.54 1431.26C1802.73 1439.5 1816.7 1442.82 1822.62 1448.61C1841.36 1466.95 1819.21 1474.53 1803.22 1475.17C1797.53 1474.92 1788.37 1471.29 1788.3 1464.91C1794.85 1460.34 1815.87 1477.11 1819.17 1460.63C1817.37 1456.05 1811.4 1452.2 1807.01 1450.44C1784.34 1441.36 1782.45 1422.26 1810.77 1417.22Z"/><path fill="#010202" d="M591.078 1403.47L593.613 1404.64C596.325 1407.75 597.392 1412.62 598.699 1416.72C603.451 1418.47 606.05 1418.84 608.593 1422.94L607.916 1424.99C604.351 1427.36 600.836 1426.9 596.405 1427.01C596.033 1435.84 594.721 1452.93 596.262 1461.53C597.271 1467.15 606.449 1465 611.35 1467.51C612.471 1470.77 612.387 1469.38 610.778 1473.21C571.751 1484.46 591.552 1438.92 583.573 1427.57C580.814 1426.63 578.64 1426.32 576.981 1424.04C576.97 1420.15 576.374 1421.79 578.455 1418.86C592.366 1413.13 580.961 1411.61 591.078 1403.47Z"/><path fill="#010202" d="M878.439 1402.54C880.367 1402.8 881.508 1403.06 883.376 1403.48C886.323 1407.69 885.447 1411.95 885.374 1417.43C890.855 1418.08 894.663 1417.57 897.715 1422.62L896.71 1424.73C893.279 1427.3 889.577 1426.96 885.116 1427.24C884.972 1436.66 884.256 1450.1 885.338 1459.29C886.19 1466.53 895.674 1465.11 900.526 1468.22C901.087 1471.35 900.927 1470.34 899.185 1473.83C864.048 1479.51 878.583 1448.56 874.629 1429.06C870.526 1425.75 869.994 1429.12 864.306 1426.47L863.47 1424C865.452 1415.68 870.743 1420.13 875.469 1415.3C875.804 1414.96 875.384 1407.47 878.439 1402.54Z"/><path fill="#010202" d="M1763.39 1417.34C1768.73 1417.06 1779.51 1417.21 1781.21 1423.38C1774.79 1434.6 1747.01 1418.66 1746.53 1440.66C1746.03 1463.29 1754.66 1471.58 1776.59 1463.93C1777.02 1463.97 1777.46 1464.02 1777.89 1464.06C1779.09 1468.27 1779.2 1467.95 1777.64 1471.02C1739.95 1494.54 1712.96 1425.07 1763.39 1417.34Z"/><path fill="#010202" d="M1683.94 1393.06L1684.7 1393.03C1688.43 1392.89 1690.48 1392.49 1692.99 1394.84C1693.98 1403.92 1694.12 1467.37 1692.36 1474.61C1688.7 1474.2 1688.25 1474.26 1684.98 1472.75C1684.45 1471.96 1683.92 1471.17 1683.39 1470.39C1682.81 1455.66 1681.82 1404.45 1683.94 1393.06Z"/><path fill="#010202" d="M1149.7 1416.97C1152.38 1417.14 1153.51 1417.66 1156.01 1418.5C1158.17 1420.68 1158.05 1421.04 1158.58 1424.23C1155.32 1430.68 1144.79 1426.28 1139.65 1430.16C1132.06 1435.88 1139.75 1460.44 1136.21 1469.95C1134.69 1474.05 1133.51 1473.75 1129.78 1475.9C1122.36 1470.77 1126.65 1430.35 1126.5 1420.35C1126.48 1418.56 1128.09 1418.3 1129.58 1417.46C1133.18 1418.21 1133.62 1419.39 1136.66 1421.99C1139.46 1422.29 1146.67 1418.4 1149.7 1416.97Z"/><defs><linearGradient id="gradient_0" gradientUnits="userSpaceOnUse" x1="699.69507" y1="1447.6333" x2="726.55548" y2="1442.578"><stop offset="0" stop-color="#010202" stop-opacity="0.96078432"/><stop offset="1" stop-color="#010202"/></linearGradient></defs><path fill="url(#gradient_0)" d="M692.274 1426.31C695.855 1425.86 701.114 1421.26 705.228 1419.27C733.782 1405.45 729.649 1441.63 730.839 1458.56C731.223 1464.02 732.049 1471.43 725.51 1473.15C710.643 1468.96 729.057 1431.58 712.858 1425.53C704.033 1422.23 698.443 1430.41 696.9 1438.07C696.757 1434.67 696.688 1432.43 696.147 1429.09C693.485 1429.07 694.318 1429.36 691.993 1428.43L692.274 1426.31Z"/><path fill="#0D3F6A" d="M1593.74 431.661C1602.1 432.44 1613.29 434.491 1621.36 434.398C1623.81 435.661 1625.77 435.963 1626.22 438.386C1627.51 445.326 1627.77 460.561 1626.28 467.231C1623.01 466.42 1622.36 466.177 1619.3 464.744C1610.63 453.603 1602.14 443.061 1593.74 431.661Z"/><path fill="#010202" d="M1713.07 1418.04C1714.6 1418.01 1720.74 1417.95 1720.99 1419.83C1722.64 1432.47 1724.7 1463.31 1721.71 1474.71C1717.27 1474.62 1715.89 1474.8 1712.98 1472.1C1711.85 1465.18 1710.97 1422.65 1713.07 1418.04Z"/><path fill="#010202" d="M624.763 1416.74C626.38 1416.9 632.336 1417.48 632.54 1419.14C633.99 1431 635.428 1463.54 632.027 1473.65C628.83 1473.44 627.211 1473.66 624.58 1472.04C623.034 1464.64 623.399 1429.14 623.299 1419C623.787 1418.24 624.275 1417.49 624.763 1416.74Z"/><path fill="#0D3F6A" fill-opacity="0.95686275" d="M1627.62 621.926C1631.83 622.098 1634.6 622.616 1638.45 620.968L1639.01 619.015C1635.68 611.637 1623.98 607.286 1624.29 598.891C1626.73 595.805 1628.38 595.485 1631.7 596.784C1637.14 606.88 1641.59 611.969 1648.82 620.687C1642.77 621.942 1634.84 629.308 1627.62 621.926Z"/><path fill="#010202" fill-opacity="0.96470588" d="M542.519 1390.8C551.137 1391.21 554.309 1395.77 557.4 1404.16C557.934 1405.61 557.429 1405.69 556.581 1406.92C550.424 1407.57 547.929 1403.07 543.787 1399.2C538.334 1403.26 538.764 1405.81 531.788 1409.73L530.461 1409.32C531.748 1402.11 536.482 1394.91 542.519 1390.8Z"/><path fill="#0D3F6A" fill-opacity="0.87843138" d="M1621.36 434.398C1625.34 434.796 1627.72 434.238 1630.03 436.51C1630.77 446.598 1629.8 456.607 1630.5 466.578C1631.01 473.754 1637.67 481.703 1638.04 489.092C1634.57 488.753 1621.61 468.645 1619.3 464.744C1622.36 466.177 1623.01 466.42 1626.28 467.231C1627.77 460.561 1627.51 445.326 1626.22 438.386C1625.77 435.963 1623.81 435.661 1621.36 434.398Z"/><path fill="#0D3F6A" fill-opacity="0.86666667" d="M1463.95 637.541C1465.67 646.447 1469.46 675.926 1466.1 683.506L1464.61 683.662C1462.66 680.853 1454.05 645.801 1453.55 641.849C1459.59 648.963 1460.8 656.705 1463.25 665.676C1463.87 656.733 1463.3 647.153 1463.95 637.541Z"/><path fill="#0D3F6A" fill-opacity="0.98823529" d="M1672.19 577.02C1676.3 576.536 1678.05 576.157 1680.2 579.91C1679.9 585.373 1677.54 587.836 1673.81 591.811C1669.51 592.529 1668.23 593.068 1666.07 589.126C1666.25 584.397 1668.8 580.206 1672.19 577.02Z"/><path fill="#0D3F6A" fill-opacity="0.9137255" d="M1605.32 520.043C1613.88 529.318 1617.02 535.415 1622.9 546.357C1616.36 541.219 1603.39 531.256 1598.19 525.116L1604.75 526.707L1605.96 525.669L1605.32 520.043Z"/><defs><linearGradient id="gradient_1" gradientUnits="userSpaceOnUse" x1="629.41846" y1="1401.6375" x2="625.29547" y2="1396.8778"><stop offset="0" stop-color="#010202" stop-opacity="0.96470588"/><stop offset="1" stop-color="#010202"/></linearGradient></defs><path fill="url(#gradient_1)" d="M624.422 1394.34C627.506 1392.45 631.535 1393.4 633.462 1396.46C635.389 1399.52 634.496 1403.56 631.459 1405.52C629.461 1406.81 626.923 1406.93 624.814 1405.83C622.705 1404.73 621.351 1402.58 621.27 1400.2C621.189 1397.82 622.393 1395.58 624.422 1394.34Z"/><path fill="#010202" fill-opacity="0.98823529" d="M1713.82 1394.4C1715.81 1393.38 1718.18 1393.51 1720.04 1394.74C1721.89 1395.98 1722.94 1398.12 1722.76 1400.34C1722.58 1402.56 1721.22 1404.51 1719.19 1405.44C1716.16 1406.83 1712.57 1405.54 1711.12 1402.54C1709.66 1399.54 1710.86 1395.93 1713.82 1394.4Z"/><path fill="#0D3F6A" fill-opacity="0.92941177" d="M877.914 453.177C885.384 456.277 895.254 462.089 902.079 466.384L894.571 466.006C892.666 468.132 893.472 466.936 892.751 470.253C887.466 466.063 881.788 458.629 877.914 453.177Z"/><path fill="#0D3F6A" fill-opacity="0.9254902" d="M1520.44 429.159C1526.15 423.957 1530.73 420.098 1537.78 416.669C1533.88 424.123 1530.06 431.621 1526.33 439.161C1526.6 434.711 1527.63 432.304 1525.53 429.374L1520.44 429.159Z"/><path fill="#0D3F6A" fill-opacity="0.85490197" d="M1330.38 424.421C1327.32 426.908 1321.22 432.404 1317.65 432.799L1317.36 431.329C1319.95 424.673 1325.12 418.545 1329.79 413.178C1329.42 417.107 1328.96 418.126 1326.93 421.51L1327.25 423.403L1330.38 424.421Z"/><path fill="#0D3F6A" fill-opacity="0.84705883" d="M1604.57 757.705C1610.07 752.909 1613.53 750.812 1620.46 748.143C1617.81 751.978 1611.81 761.266 1608.7 763.983C1608.79 761.712 1608.96 760.635 1608.42 758.378L1604.57 757.705Z"/></svg>