<?xml version="1.0" encoding="utf-8" ?><svg xmlns="http://www.w3.org/2000/svg" xmlns:xlink="http://www.w3.org/1999/xlink" width="2562" height="1664" viewBox="0 0 2562 1664"><path fill="#165098" d="M519.431 296.321C519.608 291.975 518.849 289.051 518.634 284.563C522.106 288.444 525.334 291.214 530.612 291.931C562.471 323.597 598.232 351.546 634.037 378.563C766.442 478.471 916.746 556.789 1070.17 619.124C1225.41 682.195 1392.02 720.008 1541.82 796.516C1570.04 810.927 1599.9 833.153 1621.35 856.442C1654.38 893.826 1667.97 945.439 1677.91 993.171C1679.34 1000.06 1684.41 1028.32 1685.86 1031.92C1685.48 1039.26 1685.5 1044.35 1685.81 1051.7C1682.88 1045.24 1681.69 1042.67 1677.69 1036.91C1654.65 970.79 1609.77 888.644 1553.29 845.555C1509.22 811.928 1445.08 794.285 1392.39 776.945L1273.99 738.13C1183.58 709.553 1093.53 679.862 1003.85 649.065C973.703 638.528 943.762 628.435 914.268 616.024C874.47 599.341 836.987 578.978 799.293 558.062C707.678 507.226 618.081 447.737 556.286 361.311C541.704 340.917 530.273 318.813 519.431 296.321Z"/><path fill="#165098" d="M1832.4 454.777C1830.29 448.645 1818.38 411.298 1819.64 407.706C1825.18 405.5 1840.89 408.125 1847.28 408.914C1902.26 415.695 1959.95 423.432 2010.4 447.556C2025.6 454.824 2037.53 465.722 2049.97 476.774C2058.48 475.028 2075.95 468.753 2086.19 466.098C2123.27 456.486 2154.9 452.026 2193.09 452.832C2122.08 532.465 2091.64 615.207 2114.26 719.63C2119.27 742.741 2121.37 764.718 2128.91 787.373C2138.41 815.947 2158.18 840.878 2152.53 871.541C2144.48 933.581 2030.49 972.926 1982.81 938.932C1974.37 932.918 1964.98 897.768 1950.55 882.548C1917.88 848.085 1872.06 830.462 1845.17 790.201C1805.39 731.826 1822.41 671.593 1879.28 633.082C1881.26 638.223 1880.92 639.894 1880.59 645.221C1863.64 672.253 1843.07 706.878 1850.89 739.94C1862.05 787.094 1906.67 813.638 1942.05 841.7C1961.87 857.417 1979.68 879.476 1989.41 903.051C1992.14 909.669 1992.45 914.985 1995.99 921.353C2007.9 929.342 2041.96 939.164 2035.99 912.697C2032.49 897.226 2019.13 876.168 2021.86 859.779C2022.62 855.201 2031.9 854.928 2034.71 857.737C2051.19 872.828 2048.45 914.271 2078.69 912.505C2089.9 911.85 2103.59 902.454 2110.39 893.413C2119.81 881.033 2123.79 865.364 2121.44 849.992C2118.75 833.24 2100.82 809.029 2094.99 787.231C2075.32 713.643 2075.04 641.225 2088.76 566.558C2092.43 546.624 2099.66 512.414 2108.09 494.437C2085.13 502.511 2065.45 512.393 2051.11 533.224C2042.25 525.229 2034.65 516.788 2025.13 509.443C1984.13 477.82 1937.09 459.53 1885.06 460.54C1891.12 469.212 1897.78 482.441 1902.68 492.121C1866.74 491.86 1833.13 492.259 1797.63 498.843C1690.67 518.681 1592.18 570.722 1514.99 646.736C1506.75 654.929 1498.7 663.299 1490.83 671.839C1486.94 671.53 1487.24 672.182 1484.74 670.182C1484.02 666.815 1484.27 664.335 1484.38 660.937C1494.4 641.112 1513.84 616.78 1528.47 599.955C1591.21 527.833 1675.87 478.825 1769.79 460.67C1789.14 456.928 1812.54 456.021 1832.4 454.777Z"/><path fill="#165098" d="M1458.08 882.493C1356.99 854.662 1255.09 829.814 1152.53 807.979C1076.37 792.114 999.345 779.685 924.124 761.515C762.119 722.383 601.788 648.33 504.843 507.026C501.039 501.48 489.822 488.288 489.593 482.288C491.885 482.741 582.419 543.233 595.508 551.505C671.186 598.72 750.422 639.978 832.498 674.907C883.894 696.523 936.817 714.312 990.834 728.128C1101.64 757.11 1224.75 777.478 1332.44 816.446C1375.22 832.087 1416.63 851.242 1456.24 873.715C1456.8 876.328 1457.7 879.945 1458.08 882.493Z"/><path fill="#165098" d="M988.144 958.459C996.372 957.989 1005.23 957.781 1013.46 957.949C1062.86 958.956 1112.56 956.994 1161.92 958.019C1157.73 968.199 1153.37 978.305 1148.82 988.331C1135.29 989.206 1118.82 988.851 1105.1 988.879C1077.71 989.16 1050.32 988.975 1022.93 988.324C985.795 987.757 945.537 988.232 916.749 1016.05C902.648 1028.62 881.558 1068.37 898.778 1084.81C913.702 1099.05 953.245 1098.15 973.115 1098.2C992.722 1098.25 1012.63 1098.5 1031.91 1097.86C1035.55 1085.28 1040.63 1072.22 1045.19 1059.86C1035.44 1059.46 958.855 1060.45 955.75 1057.75C955.031 1052.81 958.039 1050.3 959.812 1045.85C961.449 1041.74 961.868 1036.83 963.603 1032.81C964.15 1031.52 964.984 1030.37 966.041 1029.45C969.444 1026.43 974.105 1027.23 978.75 1027.37C1028.59 1027.22 1085.37 1025.97 1134.68 1027.51C1118.74 1057.19 1104.81 1099.08 1090.41 1130.48C1058.52 1132.92 1023.07 1130.16 990.779 1130.94C962.895 1131.62 934.016 1130.55 906.095 1129.54C878.936 1128.56 847.284 1124.56 826.293 1105.73C795.932 1077.64 820.896 1030.21 844.456 1006.56C881.865 969.01 937.169 959.642 988.144 958.459Z"/><path fill="#165098" d="M2070.43 1066.05C2088.98 1058.59 2129.35 1056.47 2148.34 1063.13C2168.27 1066.77 2186.17 1079.64 2197.54 1096.2C2209.26 1113.22 2213.64 1134.23 2209.71 1154.52C2206.6 1170.24 2197.03 1190.37 2186.31 1202.19C2171.05 1219.03 2170.48 1231.35 2166.03 1252.83C2161.1 1276.81 2156.59 1300.88 2152.51 1325.02C2145.67 1364.29 2143.37 1388.62 2108.46 1412.71C2077.04 1436.69 2040.57 1426.92 2006.17 1435.97C1973.05 1445.8 1956.39 1475.14 1917.94 1466.9C1889.03 1460.7 1873.67 1432.53 1883 1405.14C1889.69 1385.52 1896.33 1352.77 1904.94 1335.12C1919.84 1330.13 1962.43 1331.48 1979.94 1331.44C1961.57 1348.72 1947.44 1351.81 1923.29 1356.24C1919.06 1374.79 1903.25 1413.83 1914.6 1430.28C1932.68 1456.48 1970.26 1419.62 1990.96 1412.53C2030.66 1398.92 2098.01 1405.77 2105.9 1350.94C2107.26 1341.46 2105.7 1327.42 2105.44 1317.54C2105.15 1301.65 2106.91 1285.79 2110.67 1270.35C2114.61 1253.92 2120.34 1237.97 2127.73 1222.78C2140.65 1196.64 2158.83 1175.62 2162.97 1145.51C2167.15 1115.19 2156.22 1099.87 2125.02 1097C2098.17 1094.54 2074.74 1104.4 2049.1 1110.6C2017.52 1118.76 1959.86 1124.44 1929.33 1113.27C1917.84 1110.1 1914.78 1107.85 1904.5 1101.22C1926.08 1100.79 1950.18 1100.21 1971.48 1097C1987.37 1093.35 2003.6 1089.65 2019.08 1084.5C2034.23 1079.47 2055.26 1068.8 2070.43 1066.05Z"/><path fill="#164A8A" d="M1904.5 1101.22C1926.08 1100.79 1950.18 1100.21 1971.48 1097C1962.34 1107.74 1934.58 1100.44 1924.97 1107.63C1926.14 1110.01 1927.9 1110.7 1929.33 1113.27C1917.84 1110.1 1914.78 1107.85 1904.5 1101.22Z"/><path fill="#164A8A" d="M2070.43 1066.05C2088.98 1058.59 2129.35 1056.47 2148.34 1063.13C2134.08 1063.6 2121.66 1063.62 2107.27 1064.73C2099.31 1065.35 2076.76 1066.88 2070.43 1066.05Z"/><path fill="#165098" d="M593.663 1039.33C612.422 1027.61 742.694 961.451 758.504 958.505C772.278 955.938 788.582 957.871 802.687 958.019C816.578 958.059 830.469 957.862 844.354 957.428C806.124 978.695 761.89 998.022 722.82 1018.32C707.545 1026.26 691.389 1032.9 676.255 1041.43C683.715 1051.86 721.551 1083.93 733.24 1094.24C746.499 1106.18 760.128 1118.19 772.908 1130.61C743.745 1131.52 712.257 1130.98 682.924 1131.01C675.368 1125.43 665.661 1115.85 658.569 1109.25L620.204 1073.44C612.512 1066.18 600.999 1054.65 592.32 1049.56L590.974 1049.95C586.477 1057.44 580.551 1072.37 576.884 1080.97C569.781 1097.33 562.879 1113.78 556.18 1130.32C532.421 1130.12 508.471 1130.95 484.809 1130.46C487.234 1125.9 489.952 1119.74 491.846 1114.9C512.448 1062.23 535.66 1010.41 556.231 957.754C571.838 957.343 588.995 957.571 604.707 957.497L626.862 957.518C617.103 983.905 604.771 1013.51 593.663 1039.33Z"/><path fill="#165098" d="M615.497 741.348C616.534 737.946 615.518 739.018 617.976 737.485C621.007 737.999 623.092 738.21 626.161 738.453C782.978 809.841 924.351 837.714 1094.65 857.251L1241.2 873.142C1284.17 878.204 1328.02 883.797 1369.78 895.146C1377.47 897.237 1396.72 902.532 1403.79 905.679C1406.53 910.562 1408.38 913.27 1412.52 917.031C1335.44 904.93 1257.74 897.162 1179.8 893.765C1051.09 888.801 911.689 899.206 790.564 848.077C741.365 827.31 653.686 777.815 615.497 741.348Z"/><path fill="#165098" d="M1807.72 1178.55C1809.62 1169.08 1813.5 1157.1 1813.93 1147.31C1816.05 1098.98 1802.34 1043.94 1783.51 999.776C1776.87 984.176 1767.81 968.158 1760.74 952.875C1744.98 918.782 1736.63 881.732 1736.26 844.173C1736.06 780.758 1760.78 713.847 1805.71 668.703C1811.55 670.379 1810.36 672.951 1813.73 674.095C1803.43 690.779 1791.15 724.374 1784.03 743.04C1760.89 803.768 1767.09 872.089 1797.42 929.137C1804.63 942.69 1813.33 956.46 1820.71 970.253C1834.68 996.25 1844.26 1024.37 1849.07 1053.49C1857.36 1106.22 1849.99 1143.91 1807.72 1178.55Z"/><path fill="#165098" d="M1992.79 1153.57C1996.17 1153.4 1998.03 1153.34 2001.34 1152.7L2002.63 1153.83L2002.57 1158.5C1977.51 1180.21 1956.48 1207.4 1937.48 1234.31C1923.96 1253.47 1903.77 1286.09 1886.55 1300.26C1875.61 1309.1 1862.97 1315.59 1849.41 1319.31C1807.92 1330.41 1774.34 1310.81 1732.32 1309.22C1704.05 1308.15 1636.34 1327.98 1618.42 1302.53C1593.94 1267.76 1635.08 1218.71 1661.26 1197.56C1687.62 1176.26 1727.55 1183.26 1746.34 1210.51C1727.01 1215.39 1706.75 1206.84 1688.38 1212.94C1670.45 1218.89 1655.92 1238.72 1647.94 1254.96C1645.14 1260.65 1640.71 1270.44 1643.31 1276.71C1644.57 1279.75 1647.75 1281.42 1650.67 1282.5C1662.16 1286.73 1717.46 1280.61 1735.75 1281.49C1763.24 1282.81 1789.4 1294.23 1817.06 1291.72C1865.87 1287.28 1878.59 1242.65 1908.01 1212.11C1932.28 1187.37 1961.06 1167.5 1992.79 1153.57Z"/><path fill="#165098" d="M1219.97 957.266L1290.41 957.716C1276.43 991.217 1251.96 1042.01 1244.25 1077.32C1238.37 1104.24 1299.5 1100.24 1317.78 1100.22C1342.42 1100.12 1367.06 1100.15 1391.7 1100.3C1387.41 1109.43 1383.88 1116.62 1378.93 1125.43C1377.34 1132.46 1367.02 1131.22 1361.07 1131.01C1336.68 1130.15 1313.21 1130.16 1288.75 1130.54C1257.64 1131.02 1222.97 1130.27 1193.99 1117.81C1186.98 1115.5 1172.19 1101.95 1171.65 1093.51C1169.3 1057 1198.2 1015.32 1209.4 981.101C1212.03 973.086 1216.91 963.12 1219.97 957.266Z"/><path fill="#165098" d="M1403.38 1100.22C1423.31 1099 1453.52 1099.95 1474.07 1099.98L1609.37 1100.25L1729.75 1100.01C1746.31 1100.04 1770.54 1099.38 1786.6 1100.58C1786.66 1109.01 1787.08 1120.8 1786.2 1128.92C1770.63 1129.94 1749.75 1129.49 1733.74 1129.56L1635.11 1129.63C1558.64 1129.56 1479.66 1130.53 1403.38 1129.2C1403.18 1119.75 1403.36 1109.73 1403.38 1100.22Z"/><path fill="#165098" d="M1422.42 1354.89C1440.66 1350.79 1458.73 1362.36 1462.66 1380.63C1466.58 1398.91 1454.85 1416.88 1436.54 1420.63C1418.47 1424.34 1400.79 1412.8 1396.91 1394.76C1393.04 1376.72 1404.42 1358.93 1422.42 1354.89ZM1433.42 1411.23C1446.45 1409.26 1455.55 1397.27 1453.94 1384.18C1452.34 1371.09 1440.6 1361.66 1427.48 1362.9C1418.66 1363.74 1410.98 1369.3 1407.44 1377.43C1403.91 1385.55 1405.06 1394.96 1410.46 1401.99C1415.86 1409.02 1424.65 1412.55 1433.42 1411.23Z"/><path fill="#165098" d="M688.624 1355.74C701.529 1354.9 724.855 1352.4 736.326 1360.15C742.293 1364.18 743.146 1376.96 737.81 1381.89C736.133 1383.43 735.457 1384.59 734.584 1386.69C738.479 1388.32 741.574 1389.73 743.148 1393.92C755.094 1425.7 707.086 1418.83 690.883 1419.64C685.927 1416.39 688.354 1364.54 688.624 1355.74ZM698.111 1382.96L699.298 1384.29C706.88 1383.03 724.053 1385.86 728.751 1380.28C744.885 1361.14 705.718 1363.59 698.181 1363.68L698.111 1382.96ZM732.707 1408.65C750.135 1387.85 707.402 1391.26 698.381 1391.47C698.084 1398.78 698.028 1404.65 698.258 1411.95C709.813 1412.31 722.138 1413.58 732.707 1408.65Z"/><path fill="#164A8A" d="M688.624 1355.74C701.529 1354.9 724.855 1352.4 736.326 1360.15C742.293 1364.18 743.146 1376.96 737.81 1381.89C736.133 1383.43 735.457 1384.59 734.584 1386.69L733.125 1387.22C722.943 1384.35 705.376 1386.94 699.298 1384.29C706.88 1383.03 724.053 1385.86 728.751 1380.28C744.885 1361.14 705.718 1363.59 698.181 1363.68L698.111 1382.96L695.613 1382.2C694.332 1374.99 695.168 1369.86 693.504 1361.39L692.885 1361.7C690.458 1380.22 693.096 1407.42 690.883 1419.64C685.927 1416.39 688.354 1364.54 688.624 1355.74Z"/><path fill="#165098" d="M1979.85 596.12C1995.3 606.053 2011.35 617.176 2026.52 627.557C2026.46 644.099 2030.21 663.783 2030.27 680.772C2030.29 687.895 2032.77 697.59 2031.75 704.457C2025.68 704.719 2018.64 704.481 2012.5 704.422C2011.4 701.571 2006.99 688.232 2006.38 685.694C2003.43 673.523 1977.52 603.28 1979.85 596.12Z"/><path fill="#164A8A" d="M841.502 1355.94C857.511 1353.32 889.012 1350.72 894.047 1371.8C897.701 1387.11 885.217 1390.85 880.302 1398.91L881.64 1399.75L881.524 1405.64C879.277 1407.42 878.759 1406.84 875.248 1407.1L869.419 1400.59L853.025 1400.39C853.145 1406.21 854.209 1412.77 851.479 1417.37C848.95 1419.49 847.224 1419.33 843.779 1419.79C843.354 1419.39 841.518 1417.28 841.5 1416.98C840.661 1402.57 841.086 1368.46 841.502 1355.94ZM852.657 1391.21C857.602 1393.41 866.598 1392.57 872.109 1392.22C878.686 1389 883.133 1386.1 883.392 1378.01C883.922 1361.44 865.097 1363.47 853.154 1363.59C853.183 1372.7 853.42 1382.16 852.657 1391.21Z"/><path fill="#165098" d="M843.779 1419.79C844.975 1410.59 841.91 1375.14 846.928 1370.76C851.708 1376.25 847.898 1385.35 850.635 1391.17L852.657 1391.21C857.602 1393.41 866.598 1392.57 872.109 1392.22L878.325 1392.48C880.886 1395.59 878.936 1394.81 880.302 1398.91L881.64 1399.75L881.524 1405.64C879.277 1407.42 878.759 1406.84 875.248 1407.1L869.419 1400.59L853.025 1400.39C853.145 1406.21 854.209 1412.77 851.479 1417.37C848.95 1419.49 847.224 1419.33 843.779 1419.79Z"/><path fill="#165098" d="M919.989 1170.29C930.188 1161.72 938.803 1159.15 948.763 1169.61C954.881 1180.33 949.812 1187.03 941.207 1194.22C944.442 1197.71 947.731 1201.15 951.073 1204.54C954.074 1199.64 956.573 1194.4 963.282 1197.92C966.133 1204.97 961.643 1207.35 956.601 1211.32C959.442 1215.1 964.805 1221 965.48 1225.04C961.472 1232.64 953.214 1226.04 949.249 1222.22C932.975 1226.8 923.618 1239.02 910.503 1216.22C910.606 1207.76 911.018 1205.78 914.004 1198.29C917.132 1196.01 920.262 1193.47 923.312 1191.06C916.765 1183.65 914.554 1178.94 919.989 1170.29ZM941.164 1213.25C940.528 1210.16 932.677 1203.5 930.084 1201.43C927.575 1202.73 925.656 1206.26 923.838 1208.84C923.169 1223.57 933.799 1218.17 941.164 1213.25Z"/><path fill="#164A8A" d="M910.503 1216.22C914.643 1216.97 915.896 1217.98 919.227 1215.35C919.913 1212.71 919.985 1212.15 921.205 1209.62L923.838 1208.84C923.169 1223.57 933.799 1218.17 941.164 1213.25C940.557 1216.32 939.399 1219.02 940.584 1221.31C943.251 1221.43 946.93 1221.3 949.249 1222.22C932.975 1226.8 923.618 1239.02 910.503 1216.22Z"/><path fill="#164A8A" d="M919.989 1170.29C930.188 1161.72 938.803 1159.15 948.763 1169.61C944.361 1169.37 943.298 1168.54 940.135 1170.6C936.812 1177.46 942.216 1184.16 931.856 1183.99C924.441 1178.24 932.903 1169 919.989 1170.29Z"/><path fill="#165098" d="M1430.94 1214.97C1418.98 1232.26 1411 1228.34 1395.07 1226.03C1391.7 1225.54 1390.6 1227.8 1386.55 1225.63C1383.41 1214.93 1382.74 1170.92 1386.37 1160.88C1389.53 1159.68 1394.29 1159.65 1396.8 1162.02C1398.99 1168.23 1397.95 1179.45 1397.72 1186.59C1412.44 1180.36 1423.27 1184.74 1430.94 1198.44C1431.55 1205.59 1431.61 1207.85 1430.94 1214.97ZM1410.52 1217.34C1414.59 1216.26 1417.71 1212.97 1418.57 1208.85C1419.43 1204.72 1417.9 1200.46 1414.6 1197.83C1411.29 1195.21 1406.8 1194.67 1402.97 1196.44C1397.72 1198.87 1395.2 1204.91 1397.16 1210.35C1399.13 1215.79 1404.93 1218.83 1410.52 1217.34Z"/><path fill="#165098" d="M1144.72 1160.96C1149.12 1160.75 1152.44 1160.06 1155.96 1162.27C1157.56 1166.86 1156.12 1218.07 1155.14 1225.66C1151.77 1227.05 1132.4 1227.88 1127.32 1229.35C1126.35 1229.64 1122.04 1228.33 1120.71 1227.91C1107.52 1216.84 1107.07 1194.16 1123.31 1184.84C1129.01 1181.57 1138.03 1186.3 1144.01 1188.79C1143.88 1182.74 1143.16 1165.94 1144.72 1160.96ZM1133.45 1218.67C1147.85 1211.34 1150.15 1197.03 1132.19 1195.14C1116.92 1199.39 1120.84 1219.94 1133.45 1218.67Z"/><path fill="#165098" d="M732.353 1186.83C744.628 1181.32 754.305 1184.35 760.455 1196.6L761.883 1202.26C762.395 1207.69 762.443 1208.88 761.862 1214.39C754.795 1230.23 743.992 1233.59 730.33 1223.4C730.071 1229.34 731.1 1235.57 730.438 1241.3C729.794 1246.87 722.391 1248.63 718.069 1245.45C716.147 1232.59 717.245 1199.5 717.438 1184.96C723.7 1185.15 726.326 1185.04 732.353 1186.83ZM751.471 1208.12L751.269 1207.13C748.562 1194.4 743.774 1192.35 731.424 1196.13C725.413 1223.93 746.526 1224.88 751.471 1208.12Z"/><path fill="#164A8A" d="M732.353 1186.83C744.628 1181.32 754.305 1184.35 760.455 1196.6C757.358 1196.32 755.104 1195.67 752.569 1197.25C751.386 1202.05 753.95 1204.24 751.471 1208.12L751.269 1207.13C748.562 1194.4 743.774 1192.35 731.424 1196.13C731.799 1191.68 731.876 1193.3 729.565 1188.86L732.353 1186.83Z"/><path fill="#165098" d="M1120.29 1355.16C1123.93 1354.79 1128.88 1353.78 1130.87 1357.15C1135.04 1364.25 1157.28 1412.4 1157.06 1417.39C1154.12 1419.81 1155.09 1419.75 1151.9 1420.05C1142.69 1414.69 1148.98 1404.6 1132.25 1404.39L1109.49 1404.44C1106.95 1409.9 1104.65 1417.86 1098.67 1419.51C1095.26 1418.79 1095.93 1419.48 1094.2 1417.31C1096.24 1405.85 1113.55 1364.9 1120.29 1355.16ZM1112.48 1395.79L1126.5 1396.03C1129.97 1395.99 1134.13 1396.58 1136.65 1395.04C1135.26 1389.2 1129.75 1375.94 1126.85 1370.58L1124.9 1369.48C1120.14 1377.96 1116.41 1386.89 1112.48 1395.79Z"/><path fill="#165098" d="M1284.26 1355C1286.59 1355.04 1288.76 1355.21 1291.08 1355.37C1296.59 1358.54 1316.15 1406.48 1323.42 1417.07C1321.72 1420.12 1319.95 1420.87 1316.66 1420.54C1311.86 1417.13 1309.1 1410.29 1305.4 1405.58C1303.38 1403.01 1300.67 1403.77 1297.25 1403.73L1272.47 1403.81C1269.44 1409.29 1268.33 1414.93 1263.89 1419.11C1260.83 1420.04 1262.28 1420.12 1259.38 1418.97C1254.71 1410.05 1279.32 1365.34 1284.26 1355ZM1274.4 1395.99L1289.8 1396.01C1293.38 1395.97 1298.08 1396.53 1300.78 1395.01C1300.09 1390.03 1292.01 1371.35 1287.72 1369.35C1283.8 1377.03 1278.46 1389.05 1274.4 1395.99Z"/><path fill="#165098" d="M1293.78 1197.78C1308.32 1180.77 1310.1 1179.95 1324.98 1187.83C1326.77 1188.78 1333.27 1181.29 1340.96 1185.41L1341.66 1186.67C1335.22 1197.88 1347.46 1223.13 1336.77 1227.97C1332.79 1227.53 1331.8 1226.82 1328.07 1225.11C1315.52 1227.65 1302.66 1232.77 1294.72 1217.51L1294.25 1216.07C1293.52 1209.13 1293.61 1204.81 1293.78 1197.78ZM1320.93 1216.89C1323.22 1215.56 1326.97 1214.08 1327.52 1211.33C1329.87 1199.5 1324.82 1193.4 1313.21 1194.29C1303.87 1203.06 1304.91 1223.55 1320.93 1216.89Z"/><path fill="#165098" d="M1043.55 1190.22C1043.48 1183.55 1042.97 1172.23 1044.2 1166.06C1047.34 1163.62 1052.79 1162.82 1055.46 1166.12C1056.54 1176.8 1058.5 1217.66 1055.69 1226.19C1053.74 1228.22 1048.05 1227.74 1045.6 1226.38C1042.69 1222.92 1043.8 1205.77 1043.85 1200.29C1034.94 1200.37 1024.28 1200.21 1015.52 1200.64C1015.59 1206.45 1016.28 1221.05 1014.36 1225.6L1012.26 1226.97L1007.3 1227.51C1004.74 1225.24 1003.47 1224.46 1003.55 1220.1C1003.82 1205.95 1002.37 1179.2 1004.6 1166.11C1010.23 1161.45 1016.29 1165.19 1016.25 1172.24C1016.22 1178.18 1015.66 1184.13 1015.78 1190.07L1043.55 1190.22Z"/><path fill="#165098" d="M1198.41 1205.62C1205.24 1180.33 1229.53 1175.86 1245.27 1195.06C1248.29 1202.66 1248.28 1204.46 1247.75 1213.08C1237.52 1237.9 1217.41 1231.45 1201.68 1217.01L1198.41 1205.62ZM1226.18 1218.59C1239.56 1207.57 1235.96 1195.82 1218.45 1195.04C1207.6 1203.32 1211.52 1219.4 1226.18 1218.59Z"/><path fill="#165098" d="M571.159 1191.24C580.754 1181.72 585.351 1180.45 596.917 1187.26C600.876 1186.19 604.177 1184.81 608.025 1185.76C612.252 1189.68 612.001 1223.54 608.728 1227.51C605.093 1228.14 603.953 1227.57 600.565 1225.15C600.042 1224.77 599.525 1224.39 599.014 1224C590.938 1226.89 588.721 1230.83 578.637 1227.67C566.008 1223.71 563.248 1212.04 566.791 1200.51C567.964 1197.12 569.511 1194.41 571.159 1191.24ZM585.856 1217.81C589.287 1217.48 593.357 1217.62 595.606 1214.56C599.306 1209.52 600.641 1199.72 595.399 1195.18C593.785 1194.68 592.424 1194.17 590.756 1193.91C576.341 1198.05 571.63 1211.95 585.856 1217.81Z"/><path fill="#165098" d="M1065.69 1398.55C1065.83 1388.32 1065.38 1378.21 1065.35 1368.01C1065.33 1362.2 1066.06 1355.62 1072.65 1354.65L1075.17 1355.69C1076.82 1361.41 1076.23 1408.44 1076.48 1418.08L1073.53 1419.03C1063.61 1417.98 1038.89 1382.18 1030.96 1372.39C1030.83 1384.55 1031.71 1402.94 1030 1414.77C1029.75 1416.52 1027.26 1417.51 1025.87 1418.16C1017.29 1415.17 1020.6 1358.55 1023.98 1356.33C1036.44 1357.63 1057.49 1395.76 1065.69 1398.55Z"/><path fill="#164A8A" d="M1065.69 1398.55C1065.83 1388.32 1065.38 1378.21 1065.35 1368.01C1065.33 1362.2 1066.06 1355.62 1072.65 1354.65L1075.17 1355.69C1076.82 1361.41 1076.23 1408.44 1076.48 1418.08C1071.52 1411.64 1076.34 1381.03 1071.38 1375.75C1065.98 1378.81 1071.89 1396.52 1067.81 1400.93L1065.69 1398.55Z"/><path fill="#165098" d="M790.227 1183.43C801.641 1183.68 809.772 1188.85 814.121 1199.7C815.311 1206.4 814.916 1208.22 813.534 1215.04C803.251 1231.73 779.483 1236.77 769.875 1216.27C767.676 1210.28 768.009 1205.59 768.136 1199.34L770.157 1195.02C775.514 1186.72 781.174 1185.23 790.227 1183.43ZM799.886 1196.38C790.292 1193.76 783.944 1192.98 779.609 1203.61C780.316 1208.6 781.691 1213.93 786.475 1216.55C788.82 1217.81 791.593 1218.02 794.103 1217.13C803.495 1213.71 803.076 1204.01 799.886 1196.38Z"/><path fill="#164A8A" d="M770.157 1195.02C775.514 1186.72 781.174 1185.23 790.227 1183.43C787.442 1187.1 787.109 1186.31 786.936 1190.08C791.47 1194.08 798.468 1189 799.886 1196.38C790.292 1193.76 783.944 1192.98 779.609 1203.61C779.742 1200.35 780.311 1197.17 778.727 1194.43C775.898 1193.17 773.261 1194.26 770.157 1195.02Z"/><path fill="#165098" d="M855.264 1184.58C859.472 1183.31 859.075 1184.16 861.301 1181.33C860.395 1177.26 859.52 1175.39 861.544 1172.07C864.874 1171.14 869.593 1170.53 872.588 1172.58C872.599 1176.47 872.365 1178.26 871.782 1182.11C874.6 1185.04 877.921 1187.75 878.951 1191.48C877.619 1193.62 878.523 1192.97 876.556 1194.07C873.242 1197.08 872.877 1196.92 872.669 1202.36C872.373 1210.12 872.689 1218.18 872.917 1225.96C869.958 1227.27 865.488 1227.86 862.442 1226.51C854.808 1218.56 867.151 1201.39 855.259 1195.42C841.979 1196.07 844.616 1196.14 833.382 1201C833.982 1205.91 834.34 1210.72 834.611 1215.6C835.297 1227.94 830.28 1227.88 820.724 1227.5C821.532 1216.99 820.983 1198.91 820.992 1187.84L824.329 1184.56C829.628 1184.51 837.454 1187.51 838.157 1187.43C847.621 1186.43 841.885 1181.21 855.264 1184.58Z"/><path fill="#164A8A" d="M824.329 1184.56C824.063 1192.9 822.751 1208.2 826.719 1215.32L828.197 1215.38C832.054 1210.37 832.054 1208.97 832.13 1202.58L833.382 1201C833.982 1205.91 834.34 1210.72 834.611 1215.6C835.297 1227.94 830.28 1227.88 820.724 1227.5C821.532 1216.99 820.983 1198.91 820.992 1187.84L824.329 1184.56Z"/><path fill="#165098" d="M776.106 1404.13C776.494 1404.93 776.499 1405.01 777.122 1405.84C779.873 1409.52 783.985 1411.93 788.534 1412.53C794.272 1413.33 797.685 1411.2 802.217 1408.17C816.338 1398.75 801.151 1365 812.11 1356.68C816.095 1355.98 814.749 1355.64 817.935 1357.23C822.983 1367.69 821.113 1404.2 810.702 1412.64C798.422 1422.58 780.532 1424.8 769.873 1411.39C758.937 1397.63 762.252 1377.6 761.798 1361.25C761.765 1357.89 762.614 1357.02 765.015 1355.26C768.912 1355.03 769.245 1355.38 772.95 1357.01C772.938 1367.84 771.276 1396.04 776.106 1404.13Z"/><path fill="#165098" d="M924.815 1388.79C931.949 1381.7 953.22 1359.66 960.315 1355.5C963.902 1355.37 964.039 1354.76 966.54 1356.3C966.596 1362.33 946.721 1380.31 941.7 1385.34C948.904 1392.29 951.697 1395.25 958.132 1403.14C960.452 1407.45 965.197 1410.93 968.315 1417.83C961.728 1424.38 941.393 1398.42 935.236 1392.58C931.738 1395.96 927.636 1399.52 924 1402.81C923.568 1408.27 924.962 1414.19 921.954 1418.37C918.01 1418.36 918.632 1418.97 915.885 1417.14C914.802 1411.01 914.286 1359.39 915.589 1355.28C920.263 1355.34 920.072 1354.59 923.328 1356.72C926.572 1362.76 924.7 1379.96 924.815 1388.79Z"/><path fill="#165098" d="M1524.75 1196.74C1536.04 1183.66 1546.27 1180.19 1562.08 1188.14C1585.73 1213.83 1553.45 1210 1537.72 1210.07C1550.19 1226.25 1555.51 1212.34 1565.12 1215.2C1569.74 1228.45 1540.86 1236.95 1527.82 1217.35C1525.88 1213.19 1525.38 1202.08 1524.75 1196.74Z"/><path fill="#164A8A" d="M1524.75 1196.74C1536.04 1183.66 1546.27 1180.19 1562.08 1188.14C1557.07 1188.2 1557.49 1187.36 1554.34 1189.79C1551.65 1195.12 1557.98 1201.56 1548.69 1202.87C1533.13 1205.08 1529.32 1194.47 1527.82 1217.35C1525.88 1213.19 1525.38 1202.08 1524.75 1196.74Z"/><path fill="#165098" d="M1349.84 1355.5C1351.86 1355.26 1353.89 1355.08 1355.92 1354.97C1362.21 1354.64 1378.15 1355.91 1378.36 1364.08C1371.36 1370.18 1351.95 1356.7 1344.02 1368.59C1340.32 1387.11 1379.47 1382.34 1383.57 1398.07C1387.21 1412 1373.45 1417.42 1362.55 1420.1C1354.04 1420.63 1342 1419.26 1335.2 1413.82C1333.88 1410.9 1333.99 1412.41 1335.2 1409.14C1341.86 1405.1 1354.48 1412.75 1362.29 1412.13C1368.61 1411.63 1373.4 1407.06 1372.51 1400.63C1363.97 1389.08 1323.87 1390.43 1336.46 1365.42C1339.66 1359.07 1343.56 1357.74 1349.84 1355.5Z"/><path fill="#164A8A" d="M623.708 1227.49C619.29 1222.88 620.119 1192.6 622.265 1186.14C623.436 1185.27 625.779 1183.51 627.273 1184.46C648.869 1198.14 644.838 1170.08 665.992 1194.48C666.109 1200.88 667.304 1222 664.579 1226.72L662.352 1228.2C660.166 1227.67 657.242 1227.56 654.946 1227.37C647.461 1219.85 656.714 1200.32 647.006 1194.63C641.315 1194.98 638.699 1198.32 634.772 1202.27C634.968 1207.23 635.902 1221.94 634.493 1226.2L631.837 1226.95L623.708 1227.49Z"/><path fill="#165098" d="M623.708 1227.49C625.534 1219.46 621.312 1206.92 627.028 1202.76L629.136 1202.96C633.038 1207.9 631.942 1220.32 631.837 1226.95L623.708 1227.49Z"/><path fill="#165098" d="M654.946 1227.37C655.336 1222.11 654.016 1215.45 658.782 1212.26C664.495 1215.95 661.522 1222.54 662.352 1228.2C660.166 1227.67 657.242 1227.56 654.946 1227.37Z"/><path fill="#165098" d="M1085.95 1212.42C1087.99 1205.38 1090.5 1193.43 1094.76 1187.47C1097.13 1184.14 1105.49 1184.11 1109.05 1186.05C1109.97 1188.91 1108.01 1191.11 1106.27 1193.51C1098.4 1204.42 1092.03 1239.39 1082.67 1247.3C1078.48 1247.32 1075.97 1247.65 1072.97 1245.13C1072.3 1241.6 1073.99 1238.56 1075.33 1235.04C1076.71 1231.6 1078.13 1228.18 1079.6 1224.78C1073.31 1209.81 1068.37 1199.88 1060.1 1186L1077.58 1185.68C1079.82 1194.63 1082.35 1203.92 1085.95 1212.42Z"/><path fill="#165098" d="M1468.47 1210.95C1468.88 1201.32 1465.94 1189.99 1470.1 1185.25C1473.14 1184.3 1483.12 1183.09 1483.32 1187.96C1483.92 1203.05 1482.66 1227.02 1463.59 1229.96C1454.18 1231.42 1445.11 1224.87 1440.16 1217.45C1437.23 1208.59 1439.59 1198.81 1435.94 1186.57C1465.15 1176.55 1441.86 1208.67 1455.32 1217.47C1457.67 1219 1460.77 1218.48 1463.32 1217.51C1465.99 1214.85 1466.48 1214.17 1468.47 1210.95Z"/><path fill="#165098" d="M488.442 1164.13C498.791 1164.43 525.391 1161.91 531.973 1167.09C534.116 1171.08 533.292 1173.28 530.143 1175.82C526.034 1175.47 522.956 1174.69 519.417 1176.5C512.889 1186.63 524.463 1221.61 513.866 1227.84C509.441 1227.81 503.157 1225.17 503.292 1220.04C503.683 1205.22 503.921 1190.59 503.891 1175.75L490.722 1176.42C487.323 1173.68 488.356 1168.27 488.442 1164.13Z"/><path fill="#164A8A" d="M488.442 1164.13C498.791 1164.43 525.391 1161.91 531.973 1167.09C534.116 1171.08 533.292 1173.28 530.143 1175.82C529.647 1173.15 529.472 1169.61 527.92 1167.9L526.64 1168C520.25 1168.44 495.455 1167.25 492.503 1167.97C491.004 1171.33 491.096 1172.68 490.722 1176.42C487.323 1173.68 488.356 1168.27 488.442 1164.13Z"/><path fill="#164A8A" d="M1206.17 1355.37C1217.7 1355.22 1230.28 1354.64 1241.74 1355.16C1245.67 1355.34 1247.27 1356.74 1249.5 1359.66L1249.2 1361.36C1243.34 1365.55 1222.87 1364.13 1214.69 1364.08L1214.58 1386.18C1222.42 1386.27 1242.16 1384.6 1248.06 1387.95C1242.4 1396.65 1224.59 1393.7 1214.51 1393.64C1214.3 1400.76 1216.79 1414.63 1210.19 1418.21C1206.47 1417.69 1207.52 1418.35 1204.96 1416.16C1203.67 1410.31 1204.18 1360.73 1206.17 1355.37Z"/><path fill="#165098" d="M1510.62 1184.39C1514.64 1184.3 1516.9 1184.26 1520.87 1184.72C1523.67 1186.44 1523.81 1186.98 1525.68 1189.82C1526.35 1198.39 1508.84 1196.54 1505.88 1202.33C1503.51 1206.97 1508.84 1221.92 1504.75 1227.44C1500.96 1227.64 1496.55 1227.51 1492.7 1227.49C1492.41 1219.61 1490.9 1191.31 1495.13 1185.98C1498.19 1184.55 1504.04 1186.07 1507.73 1186.67L1510.62 1184.39Z"/><path fill="#165098" d="M1190.8 1182.78C1201.75 1184.05 1199.69 1194.27 1192.16 1197.2C1189.83 1198.11 1182.64 1199.16 1179.77 1199.71C1180.32 1207.93 1182.25 1218.12 1178.2 1224.9C1174.36 1227.33 1174.36 1226.61 1169.52 1226.86L1167.84 1225.31C1165.87 1220.5 1166.93 1198.22 1167.07 1191.81C1167.15 1188.01 1167.47 1186.91 1169.88 1184.77C1175.75 1183.16 1178.85 1185.77 1184.38 1188.69C1187.39 1187.29 1187.83 1186.35 1190.05 1183.68L1190.8 1182.78Z"/><path fill="#165098" d="M550.534 1199.15C538.172 1205.73 551.414 1217.8 543.997 1226.24C540.484 1227.18 540.658 1227.23 537.118 1226.63C530.735 1221.92 532.09 1189.62 534.917 1185.24C544.219 1181.73 543.588 1190.96 547.168 1188.19C553.546 1183.26 553.579 1183.08 561.424 1183.46C563.449 1186.89 564.674 1188.03 564.219 1191.72C560.896 1196.88 556.985 1196.6 551.273 1197.58L550.534 1199.15Z"/><path fill="#165098" d="M987.911 1354.55C991.041 1355.08 993.852 1355.15 996.101 1357.3C997.125 1362.49 997.225 1410.59 996.271 1417.22C992.963 1419.98 989.567 1419.25 986.108 1417.06C986.717 1405.93 984.069 1359.77 987.911 1354.55Z"/><path fill="#165098" d="M1253.35 1197.68C1260.43 1184.58 1285.26 1174.51 1290.87 1193.06C1287.76 1200.81 1274.14 1190.24 1266.07 1201.93C1260.59 1208.61 1265.72 1210.36 1261.49 1214.86C1258.07 1214.96 1259.1 1214.9 1255.67 1212.99C1251.84 1208.62 1252.75 1203.01 1253.35 1197.68Z"/><path fill="#165098" d="M696.978 1213.95C659.091 1200.96 672.207 1176.24 702.138 1186.26C703.775 1186.81 706.233 1190.57 706.464 1192.84C701.56 1195.61 693.406 1191.36 687.614 1194.14C685.903 1201.13 696.078 1203.54 701.236 1205.56C702.36 1210 702.98 1209.4 701.607 1212.81C699.221 1213.72 699.367 1213.96 696.978 1213.95Z"/><path fill="#165098" d="M1362.37 1199.1C1361.86 1206.82 1363.71 1222.73 1360.31 1227.19C1341.71 1231.51 1350.2 1201.05 1351.87 1191.41C1351.01 1189.25 1350.42 1188.28 1350.5 1185.92L1351.77 1184.9C1356.3 1184.52 1357.24 1184.3 1361.61 1185.1C1364.2 1187.9 1363.38 1187.17 1363.95 1191.82C1362.77 1194.78 1362.77 1195.89 1362.37 1199.1Z"/><path fill="#164A8A" d="M1255.67 1212.99C1259.1 1214.9 1258.07 1214.96 1261.49 1214.86C1265.72 1210.36 1260.59 1208.61 1266.07 1201.93C1267.01 1226.71 1282.27 1214.03 1294.25 1216.07L1294.72 1217.51C1286.38 1235.8 1263.18 1232.45 1255.15 1215.06L1255.67 1212.99Z"/><path fill="#164A8A" d="M701.236 1205.56C735.907 1222.99 663.192 1243.06 676.309 1217.15C683.801 1213.57 692.241 1224.85 697.058 1217.5L696.978 1213.95C699.367 1213.96 699.221 1213.72 701.607 1212.81C702.98 1209.4 702.36 1210 701.236 1205.56Z"/><path fill="#164A8A" fill-opacity="0.83137256" d="M1685.86 1031.92C1687.83 1042.49 1695.43 1074.52 1692.32 1082.77C1691.48 1075.51 1688.29 1072.41 1686.58 1065.06C1684.39 1055.67 1679.78 1046.33 1677.69 1036.91C1681.69 1042.67 1682.88 1045.24 1685.81 1051.7C1685.5 1044.35 1685.48 1039.26 1685.86 1031.92Z"/><path fill="#FBFEFF" fill-opacity="0.011764706" d="M986.108 1417.06L982.999 1416.17C984.286 1406.19 982.227 1370.19 982.857 1356.1C984.556 1354.25 984.58 1354.86 987.911 1354.55C984.069 1359.77 986.717 1405.93 986.108 1417.06Z"/><path fill="#165098" fill-opacity="0.98039216" d="M1484.38 660.937C1484.27 664.335 1484.02 666.815 1484.74 670.182C1487.24 672.182 1486.94 671.53 1490.83 671.839L1477.06 688.29C1474.14 688.635 1472.8 688.202 1469.96 687.655C1471.78 682.993 1481.58 665.877 1484.38 660.937Z"/><path fill="#164A8A" d="M1363.95 1191.82C1366.41 1189.45 1366.79 1188.8 1367.98 1185.59C1373.27 1182.67 1377.04 1184.42 1380.91 1188.62C1381.94 1192.31 1382.1 1190.58 1380.53 1193.99C1374.8 1198.73 1370.31 1195.45 1362.37 1199.1C1362.77 1195.89 1362.77 1194.78 1363.95 1191.82Z"/><path fill="#164A8A" fill-opacity="0.95686275" d="M1403.79 905.679C1410.66 908.082 1433.57 915.4 1437.89 919.297C1434.49 920.937 1416.97 918.082 1412.52 917.031C1408.38 913.27 1406.53 910.562 1403.79 905.679Z"/><path fill="#164A8A" fill-opacity="0.95294118" d="M1805.71 668.703C1810.07 663.28 1817.96 652.433 1823.86 649.764L1824.86 650.712C1824.11 655.234 1816.37 670.377 1813.73 674.095C1810.36 672.951 1811.55 670.379 1805.71 668.703Z"/><path fill="#FBFEFF" fill-opacity="0.011764706" d="M814.121 1199.7L817.445 1201.35C821.006 1196.94 815.367 1192.82 820.992 1187.84C820.983 1198.91 821.532 1216.99 820.724 1227.5C818.665 1226.56 819.624 1227.13 818.106 1225.01C817.793 1219.36 818.692 1217.39 813.534 1215.04C814.916 1208.22 815.311 1206.4 814.121 1199.7Z"/><path fill="#164A8A" d="M881.64 1399.75C886.002 1405.29 892.339 1411.7 892.378 1418.54L891.827 1419.49C885.199 1420.5 878.818 1411.93 875.248 1407.1C878.759 1406.84 879.277 1407.42 881.524 1405.64L881.64 1399.75Z"/><path fill="#FBFEFF" fill-opacity="0.019607844" d="M1430.94 1198.44L1433.86 1200.21C1436.78 1196.84 1432.25 1191.58 1435.94 1186.57C1439.59 1198.81 1437.23 1208.59 1440.16 1217.45C1438.06 1216.47 1436.47 1214.75 1434.69 1213.31L1430.94 1214.97C1431.61 1207.85 1431.55 1205.59 1430.94 1198.44Z"/><path fill="#164A8A" fill-opacity="0.90980393" d="M519.431 296.321C516.375 290.171 510.357 279.107 509.605 272.824L510.781 272.18C516.227 275.419 525.854 286.666 530.612 291.931C525.334 291.214 522.106 288.444 518.634 284.563C518.849 289.051 519.608 291.975 519.431 296.321Z"/><path fill="#FBFEFF" fill-opacity="0.011764706" d="M772.95 1357.01L776.437 1357.11C776.995 1359.13 776.357 1399.84 776.106 1404.13C771.276 1396.04 772.938 1367.84 772.95 1357.01Z"/><path fill="#164A8A" fill-opacity="0.94509804" d="M1992.79 1153.57C2001.78 1148.71 2011.27 1144.82 2021.08 1141.98L2002.57 1158.5L2002.63 1153.83L2001.34 1152.7C1998.03 1153.34 1996.17 1153.4 1992.79 1153.57Z"/><path fill="#164A8A" fill-opacity="0.82745099" d="M1477.06 688.29C1474.93 691.96 1466.71 703.411 1462.79 705.391L1462.16 703.89C1462.68 699.147 1466.88 690.79 1469.96 687.655C1472.8 688.202 1474.14 688.635 1477.06 688.29Z"/><path fill="#FBFEFF" fill-opacity="0.011764706" d="M876.556 1194.07C876.42 1202.17 876.903 1218.05 876.053 1224.78C874.452 1226.23 875.382 1225.66 872.917 1225.96C872.689 1218.18 872.373 1210.12 872.669 1202.36C872.877 1196.92 873.242 1197.08 876.556 1194.07Z"/><path fill="#164A8A" fill-opacity="0.91764706" d="M1879.28 633.082C1885.97 628.595 1889.63 626.397 1896.84 622.827C1891.48 630.33 1886.06 637.795 1880.59 645.221C1880.92 639.894 1881.26 638.223 1879.28 633.082Z"/><path fill="#164A8A" fill-opacity="0.86666667" d="M615.497 741.348C610.403 737.229 605.349 730.814 601.663 725.399C609.789 729.913 618.086 733.756 626.161 738.453C623.092 738.21 621.007 737.999 617.976 737.485C615.518 739.018 616.534 737.946 615.497 741.348Z"/><path fill="#FBFEFF" fill-opacity="0.070588239" d="M1245.27 1195.06C1247.98 1196.4 1250.47 1198.09 1253.35 1197.68C1252.75 1203.01 1251.84 1208.62 1255.67 1212.99L1255.15 1215.06L1252.73 1214.2L1250.58 1209.39L1249.43 1212.67L1247.75 1213.08C1248.28 1204.46 1248.29 1202.66 1245.27 1195.06Z"/><path fill="#164A8A" fill-opacity="0.94509804" d="M1456.24 873.715C1465.01 878.85 1470.25 882.297 1478.61 888.225C1472.69 886.769 1463.73 884.662 1458.08 882.493C1457.7 879.945 1456.8 876.328 1456.24 873.715Z"/><path fill="#FBFEFF" fill-opacity="0.043137256" d="M561.424 1183.46C565.517 1185.65 565.898 1186.4 568.554 1190.27L571.159 1191.24C569.511 1194.41 567.964 1197.12 566.791 1200.51L564.13 1198C559.501 1197.35 555.136 1198.37 550.534 1199.15L551.273 1197.58C556.985 1196.6 560.896 1196.88 564.219 1191.72C564.674 1188.03 563.449 1186.89 561.424 1183.46Z"/><path fill="#FBFEFF" fill-opacity="0.035294119" d="M761.883 1202.26L763.77 1202.38C765.155 1201.23 766.593 1200.27 768.136 1199.34C768.009 1205.59 767.676 1210.28 769.875 1216.27C767.856 1214.78 766.651 1213.28 764.427 1211.61L761.862 1214.39C762.443 1208.88 762.395 1207.69 761.883 1202.26Z"/></svg>