<?xml version="1.0" encoding="utf-8" ?><svg xmlns="http://www.w3.org/2000/svg" xmlns:xlink="http://www.w3.org/1999/xlink" width="2624" height="1618" viewBox="0 0 2624 1618"><path fill="#3B2610" d="M556.209 563.472C551.019 570.524 531.896 565.834 523.48 566.718C515.414 567.564 506.006 568.126 498.018 567.528C492.555 567.12 486.326 564.783 487.469 558.233C487.382 542.066 487.47 525.938 487.468 509.787L487.296 423.358C487.347 411.313 485.691 333.689 488.475 319.505C489.386 314.864 520.384 316.085 527.346 315.918C530.012 315.854 549.916 316.016 555.835 316.085C557.885 341.492 556.21 393.096 555.95 419.926C561.85 410.583 578.096 394.036 586.35 384.83C606.538 362.316 626.866 337.784 648.184 316.518C667.963 314.883 703.302 315.772 723.489 316.517C715.622 327.358 699.938 343.894 690.675 354.207L627.245 424.48C642.894 447.222 659.397 468.931 675.472 491.311C693.943 517.028 711.887 542.116 731.632 566.924L652.206 567.503C645.119 559.896 637.091 547.998 630.755 539.585C615.795 519.721 598.942 494.776 582.386 476.434C575.859 482.045 565.651 493.225 559.513 499.814C556.276 502.881 555.288 503.517 555.509 508.96C556.128 524.23 554.579 549.062 556.209 563.472Z"/><path fill="#3B2610" d="M849.381 310.383C900.539 313.576 927.417 315.287 965.846 355.733C961.092 360.428 927.128 395.752 923.647 394.113C912.027 388.642 900.333 378.616 887.421 373.761C849.913 359.656 811.976 377.303 798.137 414.811C791.276 433.825 792.13 454.768 800.515 473.16C808.373 490.354 822.811 503.669 840.583 510.113C859.301 516.709 882.502 512.925 899.946 504.405C899.804 492.142 897.077 444.454 902.022 437.302C907.424 434.89 936.279 435.92 944.751 435.736C948.707 435.574 961.469 434.071 961.579 440.149C961.849 455.031 961.595 464.581 960.871 480.383C960.092 497.382 965.16 524.423 957.545 540.434C942.086 557.157 898.672 569.12 876.361 571.661C840.193 575.11 802.8 567.141 774.134 544.12C720.482 501.033 709.396 413.597 752.528 359.508C777.048 328.76 810.795 314.441 849.381 310.383Z"/><path fill="#3B2610" d="M2326.34 344.363C2365.14 346.147 2403.69 350.629 2439.45 367.178C2450.48 372.28 2463.61 387.882 2475.67 390.823C2478.24 391.451 2488.47 387.122 2491.48 385.531C2513.64 373.853 2537.43 371.974 2561.82 368.918C2559.27 374.484 2550.38 387.25 2546.76 392.796C2541.27 401.238 2536.25 409.978 2531.73 418.975C2500.94 480.463 2491.38 550.418 2504.54 617.913C2509.11 641.356 2521.63 667.201 2518.9 690.995C2514.57 728.685 2460.73 759.307 2425.62 755.886C2399.9 752.911 2401.26 717.432 2386.69 703.615C2348.73 667.6 2306.28 641.454 2316.78 580.932C2320.67 558.503 2340.19 533.166 2359.15 520.201L2360.44 519.325C2346.78 542.037 2332.84 564.336 2331.93 591.91C2330.3 641.751 2377.25 659.375 2402.23 695.25C2411.23 707.79 2412.63 724.923 2421.87 736.878C2425.2 741.189 2439.41 739.984 2443.04 735.921C2445.42 729.51 2436.62 702.594 2434.98 692.525L2437.19 689.463C2453.44 685.536 2453.64 706.768 2456.58 718.313C2463.93 725.193 2470.81 728.906 2480.49 722.164C2521.62 693.624 2487.16 647.497 2481.79 607.669C2471.94 534.503 2492.84 477.112 2507.51 406.471L2506.74 405.382C2493.28 402.735 2474.84 430.231 2467.81 432.373C2461.43 427.96 2458.91 422.47 2453.77 417.453C2426.27 390.587 2399.51 383.379 2363.11 381.771C2370.04 392.072 2371.8 395.992 2375.7 407.844C2285.35 409.58 2206.64 452.46 2144.17 516.535C2127.05 534.085 2113.26 554.556 2097.92 573.485C2096.86 574.797 2096.28 574.733 2095.02 576.767L2094.16 576.444C2096.87 563.875 2123.38 521.272 2131.5 510.179C2170.12 457.415 2221.87 412.256 2285.34 392.88C2303.2 387.43 2316.73 385.347 2334.93 382.367C2333.21 372.533 2324.92 351.15 2324.63 346.154L2326.34 344.363Z"/><path fill="#8C5117" d="M1388.43 654.242C1429.85 653.755 1484.67 649.217 1522.52 666.88C1560.77 684.735 1566.92 741.549 1537.53 770.208C1533.73 773.917 1524.4 780.882 1522.15 784.968C1522.97 797.875 1557.03 839.934 1556.03 844.726C1551.38 846.065 1542.48 845.457 1537.25 845.342C1530.33 845.211 1509.39 846.145 1504.7 844.723C1494.63 841.674 1474.8 803.35 1469.03 793.369C1460.39 792.693 1447.11 793.058 1438.11 793.061C1438.11 809.995 1438.33 826.928 1438.76 843.856C1424.31 844.388 1399.29 844.283 1385.07 843.431C1384.71 838.168 1384.24 810.184 1384.54 805.869C1385.59 790.755 1384.83 658.908 1388.43 654.242ZM1439.9 750.375C1460.53 751.061 1475.96 753.788 1493.92 742.878C1507.76 727.317 1504.12 701.758 1481.38 697.847C1469.77 695.851 1452.23 696.166 1440.05 696.757L1439.9 750.375Z"/><path fill="#8C5117" d="M1856.56 660.323C1866.19 660.238 1876.88 660.729 1887.36 660.336C1946.69 658.105 2033.24 658.73 2022.88 742.559C2020.21 764.185 2005.56 778.491 1987.45 790.609C1999.13 811.891 2011.87 832.577 2025.62 852.588L2005.25 852.456C1993.33 852.541 1981.42 852.427 1969.5 852.113C1962.35 839.627 1942.88 810.72 1934.56 799.417L1905.46 799.54L1904.58 850.999C1887.21 851.048 1869.85 850.976 1852.48 850.783C1852.56 832.248 1853.67 665.162 1856.56 660.323ZM1906.52 757.659C1924.44 758.559 1944.52 761.3 1959.75 751.1C1965.81 745.008 1969.51 738.901 1969.63 730.012C1970.07 698.645 1928.59 702.091 1908.68 702.456C1904.38 707.938 1906.49 747.725 1906.52 757.659Z"/><path fill="#8C5117" d="M1190.17 651.776L1240.96 651.226C1290.4 650.914 1355.15 652.986 1358.43 720.341C1359.9 750.573 1345.54 767.035 1320.93 782.191C1334.54 802.053 1346.42 822.494 1360.49 842.328C1347.38 842.873 1316.05 843.314 1303.56 842.087C1293.62 825.914 1282.24 806.713 1271.08 791.581C1260.41 790.843 1251.75 790.855 1241.03 790.957C1241.35 806.626 1242.15 825.567 1241.18 841.004C1231.65 841.029 1195.71 841.675 1188.22 840.054C1189.42 833.864 1188.93 798.731 1188.96 790.488C1189 752.258 1189.28 714.029 1189.79 675.802L1190.17 651.776ZM1242.73 748.019C1260.28 748.71 1276.95 751.108 1292.72 742.649C1299.21 737.779 1303.53 733.181 1304.36 724.615C1307.7 690.149 1269 692.87 1246.54 693.499L1243.87 694.438C1241.98 699.901 1242.71 739.63 1242.73 748.019Z"/><path fill="#3B2610" d="M1007.61 316.422C1017.73 315.402 1061.45 314.716 1069.22 318.373C1073.04 325.603 1072.1 485.486 1072.9 507.889C1094.99 513.691 1175.66 505.106 1189.91 513.831C1192.71 518.305 1190.72 526.173 1189.59 531.33C1186.71 544.397 1194.63 555.699 1186.79 567.29L1056.69 567.337C1042.41 567.33 1022.9 567.7 1008.21 566.762C1007.15 565.975 1006.26 565.312 1005.54 564.774C1001.97 555.75 1004.88 390.607 1003.97 366.485C1003.63 357.566 1003.08 337.46 1002.57 327.451C1002.4 324.03 1004.43 319.183 1007.61 316.422Z"/><path fill="#8C5117" d="M1038.39 649.28C1046.42 649.298 1084.95 648.396 1090.86 651.519C1093.11 652.706 1105.32 684.683 1107.62 690.493C1123.36 730.176 1142.56 768.78 1158.7 808.299C1160.57 812.881 1171.64 835.787 1172.19 838.506C1168.46 841.21 1156.79 839.856 1151.96 840.117C1105.03 842.657 1119.72 837.065 1101.13 802.975L1092.25 802.616C1071.67 802.474 1045.56 801.772 1024.98 803.013C1020.46 803.286 1012.28 828.614 1007.27 836.599L1006.65 837.574C989.593 837.362 971.923 837.377 954.924 836.609C961.959 818.28 1031.73 655.625 1038.39 649.28ZM1037.88 761.631L1064.25 762.097L1086.84 762.17C1083.6 754.139 1066.56 708.64 1062.36 706.234L1037.88 761.631Z"/><path fill="#8C5117" d="M2054.94 663.424C2102.49 663.37 2154.03 663.343 2201.64 664.64C2201.12 678.616 2200.75 692.596 2200.53 706.579L2105.44 706.028L2105.78 737.509C2132.72 738.425 2161.8 736.966 2188.35 738.49C2188.52 751.926 2188.6 765.363 2188.6 778.801C2164.91 779.806 2131.63 778.181 2106.73 777.996C2103.61 785.007 2104.32 804.048 2104.25 812.349C2136.87 813.938 2170.37 812.955 2203.13 814.117C2202.19 827.541 2202.01 842.035 2201.6 855.56C2194.67 856.019 2186.31 855.96 2179.3 855.75C2137.3 854.488 2093.99 856.058 2052.14 853.718C2048.54 795.186 2053.75 732.999 2052.98 674.146C2052.94 670.752 2052.43 665.566 2054.94 663.424Z"/><path fill="#8C5117" d="M1675.66 658.196C1723.73 659.375 1774.03 657.114 1821.93 659.122L1821.86 700.083C1790.93 701.026 1758.67 699.937 1727.42 700.489L1727.07 731.397C1754.16 732.811 1783.46 731.483 1810.47 733.677C1810.42 746.182 1809.7 759.682 1809.46 772.377C1782.66 773.974 1751.22 770.918 1724.84 773.123L1724.59 806.315C1754.37 808.851 1792.99 806.561 1824.4 808.084C1824.6 821.812 1824.51 835.543 1824.14 849.268C1806.18 850.124 1781.92 849.117 1763.46 848.852C1732.61 848.433 1701.75 848.201 1670.89 848.155C1670.3 831.351 1672.21 804.567 1672.7 786.847L1675.66 658.196Z"/><path fill="#8C5117" d="M870.496 643.418C891.01 641.881 917.815 649.447 934.071 661.964C939.171 665.89 952.092 674.745 953.073 681.181C946.2 690.258 931.802 702.829 922.165 709.325C920.888 710.187 908.458 698.633 906.408 697.231C886.02 683.282 853.587 686.446 836.721 704.831C817.276 725.036 820.066 766.526 841.883 783.339C866.932 802.642 899.5 797.577 920.059 773.814C926.543 777.466 929.036 779.962 934.623 785.024C941.605 791.262 948.674 797.401 955.829 803.439C916.328 847.626 854.338 852.265 806.939 817.057C766.672 787.148 761.299 720.336 791.83 681.757C812.807 655.251 838.121 647.157 870.496 643.418Z"/><path fill="#3B2610" d="M2481.6 834.394C2500.54 833.385 2518.2 834.954 2531.02 850.927C2539.9 861.985 2544.16 875.879 2542.37 890.022C2537.76 917.251 2519.2 936.056 2508.21 961.719C2491.54 1000.62 2499.95 1053.81 2464.42 1081.58C2444.47 1097.17 2421.3 1093.62 2399 1102.1C2386.16 1106.99 2378.57 1117.21 2366.1 1121.39C2360.56 1123.29 2354.66 1123.86 2348.87 1123.06C2330.37 1120.35 2323.63 1103.28 2327.75 1086.57C2330.51 1075.41 2334.48 1063.99 2337.79 1053.01C2341.67 1040.12 2351.04 1030.14 2365.34 1030.44C2369.53 1030.49 2381.57 1031.28 2383.78 1034.88C2380.91 1037.97 2364.79 1041.8 2358.67 1046.01C2349.59 1052.26 2349.36 1059.17 2346.88 1069.73C2344.07 1080.01 2338.99 1108.13 2358.3 1103.42C2369.93 1100.58 2382.17 1090.92 2394.5 1085.44C2415.54 1076.08 2444.69 1078.26 2459.07 1058.04C2472.13 1037.73 2468.19 1006.44 2474.29 982.65C2477.14 971.936 2480.98 961.515 2485.78 951.523C2496.68 928.777 2516.11 901.784 2511.04 875.669C2504.99 844.517 2459.22 866.221 2441 871.336C2412.86 879.237 2382.2 885.955 2355.17 871.642C2378.32 870.601 2401.09 865.453 2422.43 856.439C2446.83 846.017 2453.7 839.433 2481.6 834.394Z"/><path fill="#8C5117" d="M1584.08 657.012C1596.31 656.268 1625.67 656.77 1637.73 657.667L1637.5 755.425C1637.26 785.411 1636.42 814.639 1636.68 844.761C1630.98 848.717 1592.01 847.027 1583.06 846.45C1581.75 784.21 1583.35 719.408 1584.08 657.012Z"/><path fill="#8C5117" d="M324.799 912.098C330.414 911.434 336.106 912.204 341.343 914.336C383.991 931.462 409.698 1029.34 358.339 1049.5C301.128 1051.79 267.954 930.439 324.799 912.098ZM358.22 1028.76C361.854 1025.47 372.581 1012.94 367.343 1007.97C360.236 1001.95 347.944 994.857 346.9 984.57C345.339 969.189 361.026 952.677 347.55 938.675C343.509 934.476 334.351 932.787 328.733 933.116C290.943 951.599 327.456 1046.59 358.22 1028.76Z"/><path fill="#3B2610" d="M2307.47 551.757L2308.18 552.287C2309.76 555.843 2304.92 563.954 2303.46 568.195C2293.58 596.862 2284.8 623.773 2279.2 653.508C2266.08 723.111 2314.55 773.515 2319.42 839.935C2321.47 866.478 2316.22 895.676 2297.89 916.353L2296.75 916.245C2297.05 916.772 2295.55 859.9 2294.43 852.131C2286.23 795.322 2252.95 745.78 2254.65 687.799C2255.85 646.884 2277.82 580.893 2307.47 551.757Z"/><path fill="#3B2610" d="M2411.92 902.975L2412.58 903.728C2412.45 904.302 2385.61 933.31 2382.21 937.851C2366.3 959.126 2353.76 982.87 2337.35 1003.62C2307.99 1040.76 2274.94 1022.27 2236.17 1019.79C2214.02 1018.88 2203.33 1032.01 2177.04 1023.13L2171.88 1018.05C2160.69 985.892 2183.32 952.646 2211.18 937.71C2229.89 932.042 2239.33 935.608 2250.01 951.996C2235.14 949.632 2232.07 948.045 2214.98 953.067C2200.21 957.406 2174.06 993.823 2193.74 1004C2199.25 1006.84 2231.93 1000.02 2242.8 1001.15C2258.66 1002.8 2277.31 1007.86 2293.23 1005.74C2316.61 1002.67 2329.49 977.851 2342.68 960.404C2349.37 951.646 2356.64 943.351 2364.44 935.58C2378.63 921.63 2394.44 912.114 2411.92 902.975Z"/><path fill="#8C5117" d="M72.2561 878.952C101.512 878.804 110.305 926.034 111.584 948.467C112.216 959.563 108.135 970.073 100.176 977.964C99.2517 978 98.3267 977.99 97.404 977.932C63.167 976.084 47.6868 899.282 72.2561 878.952ZM93.9312 962.101C104.537 951.585 91.6302 944.076 87.9361 935.129C83.0278 923.241 97.6028 893.503 75.0354 893.94C63.3324 911.572 70.9623 957.234 93.9312 962.101Z"/><path fill="#3B2610" d="M1409.86 902.264C1420.94 900.941 1446.25 900.012 1448.61 915.457C1449.81 923.323 1445.68 927.463 1441.64 933.445C1442.3 938.45 1445.65 944.982 1447.8 949.768C1460.39 921.005 1476.2 866.495 1492.21 934.013C1494.52 939.17 1500.24 948.817 1494.01 952.46C1487.62 952.328 1484.3 945.262 1482.37 940.26L1464.49 940.048C1463.16 943.383 1461.02 947.567 1459.45 950.892C1452.74 950.869 1438.92 951.923 1434.23 947.849C1432.12 941.861 1429.92 936.028 1422.04 936.649C1418.05 940.233 1422.12 945.854 1415.3 950.393C1412.03 950.68 1412.2 950.732 1409.2 949.415C1408.09 946.276 1408.5 906.382 1409.86 902.264ZM1433.5 925.238C1438.18 914.119 1430.34 911.821 1420.84 911.662C1420.37 916.339 1419.38 921.053 1420.9 925.323C1424.86 928.921 1428.84 927.09 1433.5 925.238Z"/><path fill="#8C5117" d="M1690.59 599.338C1699.45 598.034 1730.64 598.751 1740.95 598.778C1747.53 604.109 1773.24 636.125 1775.88 643.011L1738.98 643.471C1734.31 640.061 1691.78 601.873 1690.59 599.338Z"/><path fill="#3B2610" d="M1142.69 898.118C1156.31 898.051 1197.82 897.036 1176.33 922.199C1177.62 930.526 1187.21 929.72 1177.98 942.057C1170.84 946.874 1146.43 949.912 1140.5 943.795C1139.45 937.985 1141.43 903.143 1142.69 898.118ZM1167.99 936.361C1169.96 932.501 1169.87 933.972 1169.39 930.136C1166.84 927.043 1165.2 926.63 1161.08 926.206C1158.06 925.881 1155.02 925.742 1151.98 925.79C1151.23 929.228 1150.44 931.249 1151.36 934.564C1155.45 939.061 1162.41 937.657 1167.99 936.361Z"/><path fill="#3B2610" d="M1610.88 904.193C1622.4 904.525 1649.78 903.479 1649.46 921.72C1649.33 929.165 1646.14 931.907 1641.06 936.741C1640.8 943.074 1646.38 943.852 1646.57 950.315C1644.11 953.389 1644.49 952.522 1640.22 954.145C1632.16 949.843 1630.65 939.994 1623.19 940.095C1618.22 944.355 1622.11 952.202 1614.63 954.052C1612.33 953.356 1611.48 953.401 1609.98 951.584C1609.12 945.266 1608.15 908.562 1610.88 904.193ZM1634.04 928.23C1635.64 924.258 1636.07 923.849 1635.37 919.824C1632.27 914.454 1627.47 914.114 1621.61 913.515C1621.35 918.422 1620.53 923.975 1622.18 928.394C1626.42 931.957 1629.2 930.09 1634.04 928.23Z"/><path fill="#3B2610" d="M1882.42 956.818C1862.69 961.506 1872.62 949.117 1857.66 943.149C1850.55 944.358 1856.57 952.85 1850.28 957.738C1847.48 957.732 1846.53 956.819 1844.15 955.359C1842.39 950.916 1840.85 915.636 1843.58 910.751C1845.17 907.891 1859.94 908.864 1864.08 909.031C1871.14 909.316 1875.81 912.612 1880.3 918.365C1881.64 924.12 1883.24 929.471 1880.25 934.831C1869.65 942.623 1877.54 947.706 1882.42 956.818ZM1867.5 933.353C1875.97 922.149 1864.15 918.54 1854.82 917.828C1854.43 922.591 1853.37 928.076 1855.13 932.243C1859.34 935.625 1862.47 934.22 1867.5 933.353Z"/><path fill="#3B2610" d="M2421.3 493.825C2427.14 494.264 2435.98 498.624 2440.43 502.556C2455.65 516.033 2451.69 532.9 2451.35 550.936C2451.22 558.296 2451.64 565.484 2452.1 572.752C2430.81 575.98 2428.35 518.852 2424.06 505.443C2422.97 502.059 2421.99 497.362 2421.3 493.825Z"/><path fill="#3B2610" d="M1095.67 923.62C1099.09 916.136 1103.19 900.413 1108.77 897.458C1118.97 895.887 1123.65 909.914 1127.03 917.509C1130.6 925.543 1135.16 934.763 1137.3 943.201L1136.82 945.091C1129.01 948.685 1123.87 942.264 1120.94 935.905C1113.35 935.729 1105.72 934.412 1099.89 938.905C1098.07 943.038 1098.85 943.072 1095.71 945.103C1092.72 945.287 1090.43 945.382 1087.44 945.345C1087.33 940.928 1093.87 931.602 1095.67 923.62Z"/><path fill="#3B2610" d="M1756.16 945.766C1753.19 951.888 1748.31 959.432 1740.47 953.162C1740.6 952.717 1740.83 951.847 1741.12 951.398C1748.8 939.492 1751.83 918.219 1762.6 908.896C1771.9 900.844 1780.79 929.488 1783.47 935.176C1785.4 940.613 1787.92 945.978 1790.29 951.255L1791.04 953.485L1789.58 955.186C1778.51 958.265 1780.75 952.771 1775.3 946.424C1770.75 944.991 1761.34 945.658 1756.16 945.766Z"/><path fill="#3B2610" d="M1978.23 946.055C1982.81 936.502 1989.19 914.122 1994.73 910.72C2003.48 909.796 2007.48 918.602 2009.95 925.723C2013.52 936.01 2019.55 947.586 2022.1 957.975C2018.97 960.761 2011.56 959.446 2009.79 955.266C2009.01 953.418 2008.01 951.6 2007.19 949.721C2001.44 949.453 1995.36 949.067 1989.65 949.057C1983.47 958.976 1984.04 959.961 1972.19 959.297C1972.82 957.143 1976.96 948.797 1978.23 946.055Z"/><path fill="#3B2610" d="M1378.38 900.266C1384.11 900.437 1405.49 902.238 1398.45 912.645C1390.71 915.112 1375.8 908.506 1371.22 915.616C1366.21 923.381 1372.57 943.942 1385.18 939.845C1389.93 938.304 1388.56 931.76 1391.62 926.953C1395.57 924.621 1396.55 925.339 1401.49 925.166C1401.57 928.188 1402 936.347 1401.16 938.906C1391.31 968.891 1347.47 941.016 1358.92 916.538C1362.88 908.065 1370.03 903.491 1378.38 900.266Z"/><path fill="#3B2610" d="M1568.48 904.278C1576.6 903.698 1593.46 902.543 1600.21 906.207C1602.37 909.245 1601.81 907.57 1601.73 911.477C1594.59 916.748 1583.08 910.285 1578.34 915.608C1579.81 928.316 1592.2 920.961 1599.3 926.998C1599.33 930.568 1599.77 928.962 1598 932.008C1594.6 933.429 1584.05 932.547 1578.95 932.715C1578.89 936.459 1578.58 938.651 1579.81 942.21C1587.55 946.105 1597.97 939.14 1603.17 946.04C1601.6 956.857 1577.15 952.783 1567.57 952.799C1566.86 943.873 1566.02 911.524 1568.48 904.278Z"/><path fill="#3B2610" d="M1887.79 910.96C1895.39 908.882 1914.73 908.052 1921.88 911.269C1923.43 913.859 1922.9 912.426 1922.9 915.899C1917.7 922.374 1907.88 915.929 1901.44 919.806C1899.38 923.013 1899.06 922.441 1898.88 925.725C1905.11 931.167 1916.07 925.398 1919.83 931.495C1919.15 934.777 1918.59 935.05 1916.23 937.65C1908.55 940.71 1901.35 934.796 1898.12 941.789C1899.71 952.946 1919.45 945.951 1926.34 951.535C1921.78 960.928 1892.83 960.016 1886.81 955.12C1889.51 947.32 1888.42 920.183 1887.79 910.96Z"/><path fill="#3B2610" d="M1229.77 898.421C1237.07 898.398 1261.95 895.249 1262.02 905.18C1254.33 913.196 1244.87 903.99 1240.07 910.971C1240.62 926.068 1253.27 912.221 1258.14 920.893C1258 936.585 1243.99 921.092 1238.19 933.721C1242.64 942.091 1256.47 933.185 1261.32 940.74L1260.52 944.161C1256 948.63 1235.39 948.586 1230.31 945.445C1226.73 937.608 1228.15 913.538 1227.58 903.917C1227.41 900.956 1228.09 900.082 1229.77 898.421Z"/><path fill="#3B2610" d="M1790.37 926.617C1795.29 919.632 1800.48 909.751 1809.6 908.624C1818.33 907.545 1830.19 906.986 1834.3 916.166C1832.45 920.849 1819.6 919.123 1814.81 919.091C1790.09 918.924 1802.92 953.583 1820.27 947.166C1826.18 944.981 1821.63 937.924 1825.65 932.898C1829.11 931.769 1829.78 932.146 1833.52 932.796C1836.05 936.107 1835.17 944.037 1834.67 948.3C1833.48 958.532 1820.4 958.868 1812.96 957.095C1803.76 954.906 1799.6 952.456 1794.54 944.811L1793.76 943.652C1793.61 943.417 1793.46 943.182 1793.31 942.947C1790.53 936.271 1790.56 933.631 1790.37 926.617Z"/><path fill="#3B2610" d="M1057.72 898.201C1064.18 896.465 1085.99 893.936 1086.23 903.248C1081.55 910.602 1069.77 903.241 1062.05 908.267C1062.71 911.612 1080.26 919.696 1085.81 923.628L1086.98 924.465C1086.25 932.866 1087.18 934.432 1082.07 941.566C1071.33 950.177 1045.85 945.069 1048.44 935.241C1056.31 931.184 1068.14 937.308 1073.08 934.943L1073.55 932.863C1069.17 919.991 1033.44 919.702 1057.72 898.201Z"/><path fill="#3B2610" d="M1943.75 958.476L1943.01 958.04L1941.8 957.301C1934.7 953.089 1930.13 949.295 1927.47 940.799C1925.6 934.696 1926.31 928.09 1929.45 922.532C1938.24 907.011 1966.94 906.1 1969.05 918.617C1965.39 923.49 1956.49 921.074 1950.28 920.82C1929.12 919.955 1938.55 954.195 1955.47 949.968C1961.2 948.538 1959.77 940.013 1961.76 935.908C1962.64 934.078 1965.62 933.573 1967.42 932.931C1972.57 938.662 1974.9 949.163 1967.21 954.049C1959.11 959.19 1952.81 959.25 1943.75 958.476Z"/><path fill="#3B2610" d="M2078.46 911.347C2079.91 911.367 2081.36 911.425 2082.81 911.521C2087.22 911.832 2096.78 913.619 2096.32 919.324C2090.62 926.006 2080.76 918.976 2074.86 923.42L2074.61 925.672C2081.18 933.533 2099.29 935.323 2100.42 948.692C2097.79 957.868 2085.75 961.059 2077.33 961.19C2071.14 960.896 2062.07 958.085 2060.42 951.329L2061.82 949.648C2070.14 947.011 2068.76 949.246 2076.35 952.009C2079.75 953.246 2084.1 951.227 2085.11 947.393C2080.81 937.286 2052.98 937.037 2063.39 920.342C2067.53 913.701 2071.31 912.94 2078.46 911.347Z"/><path fill="#3B2610" d="M1495.4 903.283C1518.11 902.803 1509.75 929.765 1519.59 931.791C1523.88 927.319 1531.29 895.946 1542.44 904.205C1542.75 908.325 1539.95 914.145 1538.34 918.309C1534.96 926.96 1528.89 947.135 1521.38 950.812C1519.42 950.679 1518.79 951.007 1517.35 949.827C1511.41 944.949 1495.34 909.97 1494.25 904.995L1495.4 903.283Z"/><path fill="#3B2610" d="M2021.79 910.836C2030.29 910.767 2055.75 908.931 2060.62 914.853C2060.38 918.102 2060.92 916.658 2058.76 919.271C2054.83 921.26 2050.18 921.162 2045.66 921.508C2045.56 930.184 2045.82 939.527 2045.93 948.249C2045.92 950.66 2045.93 953.07 2045.96 955.48C2043.58 959.856 2040.52 961.502 2036.1 958.387C2031.91 951.107 2033.59 930.775 2033.71 921.379C2029.86 920.913 2026.69 920.758 2023.07 919.387C2020.93 916.111 2021.7 915.295 2021.79 910.836Z"/><path fill="#3B2610" d="M1188.2 898.644C1191.73 898.515 1196.17 897.998 1198.87 900.066C1200.02 906.708 1199.61 928.41 1199.71 936.603C1207.81 936.867 1214.59 934.475 1221.09 938.29C1223.36 942.046 1222.66 942.032 1222.79 946.718C1211.06 946.873 1199.32 946.871 1187.59 946.714C1187.13 932.445 1187.97 913.288 1188.2 898.644Z"/><path fill="#3B2610" d="M1305.1 897.938C1309.65 897.511 1311.96 896.721 1315.43 899.886C1316.97 907.513 1315.06 950.162 1314.77 960.112C1311.02 960.375 1308.37 960.996 1305.07 959.391C1302.07 955.39 1304.13 905.846 1305.1 897.938Z"/><path fill="#3B2610" d="M1694.02 902.942L1699.56 904.065C1703.73 907.747 1702.89 963.363 1699.56 967.686C1695.53 967.124 1694.45 967.635 1691.57 965.333C1689.85 952.15 1691.85 930.175 1691.19 916.318C1690.94 911.081 1690.57 906.348 1694.02 902.942Z"/><path fill="#3B2610" d="M1548.13 903.401L1559.53 903.746C1559.48 911.803 1560.28 948.148 1557.26 952.675C1553.15 952.671 1549.75 953.043 1546.78 950.274C1544.56 942.685 1545.57 910.878 1548.13 903.401Z"/><path fill="#FEFEFE" fill-opacity="0.011764706" d="M1188.22 840.054L1185.97 838.317C1184.67 828.765 1185.43 794.802 1185.44 783.776L1185.66 722.445C1185.74 713.406 1185.74 682.088 1189.79 675.802C1189.28 714.029 1189 752.258 1188.96 790.488C1188.93 798.731 1189.42 833.864 1188.22 840.054Z"/><path fill="#6F6F6F" fill-opacity="0.015686275" d="M1880.3 918.365L1883.65 919.803C1887 917.579 1882.61 917.731 1885.47 911.723L1887.79 910.96C1888.42 920.183 1889.51 947.32 1886.81 955.12L1886.01 954.959C1884.83 955.834 1883.81 956.316 1882.42 956.818C1877.54 947.706 1869.65 942.623 1880.25 934.831C1883.24 929.471 1881.64 924.12 1880.3 918.365Z"/><path fill="#FEFEFE" fill-opacity="0.011764706" d="M556.209 563.472C554.579 549.062 556.128 524.23 555.509 508.96C555.288 503.517 556.276 502.881 559.513 499.814C559.061 512.299 561.793 556.822 556.209 563.472Z"/><path fill="#FEFEFE" fill-opacity="0.11372549" d="M1967.42 932.931C1970.75 933.619 1970.56 933.641 1973.13 935.979C1975.77 941.257 1972.02 941.938 1974.93 947.159C1975.79 946.852 1977.42 946.19 1978.23 946.055C1976.96 948.797 1972.82 957.143 1972.19 959.297L1971.36 956.061C1965.91 954.243 1957.37 964.335 1943.75 958.476C1952.81 959.25 1959.11 959.19 1967.21 954.049C1974.9 949.163 1972.57 938.662 1967.42 932.931Z"/><path fill="#FEFEFE" fill-opacity="0.098039217" d="M1086.98 924.465C1089.84 925.168 1089.6 925.332 1090.68 928.332L1092.65 927.309L1091.46 926.697L1091.6 926.299L1093.72 926.272L1094.46 925.178C1095.33 923.899 1094.93 924.342 1095.67 923.62C1093.87 931.602 1087.33 940.928 1087.44 945.345C1082.21 943.135 1088.6 943.455 1082.07 941.566C1087.18 934.432 1086.25 932.866 1086.98 924.465Z"/><path fill="#FEFEFE" fill-opacity="0.023529412" d="M1783.47 935.176C1791.21 931.06 1783.45 932.477 1790.37 926.617C1790.56 933.631 1790.53 936.271 1793.31 942.947L1790.78 944.08C1789.92 946.718 1790.19 948.499 1790.29 951.255C1787.92 945.978 1785.4 940.613 1783.47 935.176Z"/><path fill="#8C5117" d="M105.72 550.729C99.0867 545.164 88.7315 537.231 88.0669 527.745C87.8118 524.104 89.212 521.098 91.6397 518.453C111.449 496.875 210.383 481.758 241.249 481.643C270.863 481.532 301.364 490.624 330.209 496.637C351.849 501.149 375.013 504.558 395.893 511.827C400.849 513.552 404.842 515.775 409.053 518.872C412.829 527.138 412.807 528.129 412.509 537.282C406.974 545.971 404.614 548.4 396.318 554.545C397.07 583.165 402.039 611.285 405.395 638.923C407.246 654.171 417.646 716.418 441.543 702C449.857 696.984 454.615 666.855 481.824 693.468C506.016 717.129 535.802 717.815 567.444 720.711C572.595 720.821 598.21 725.524 601.352 724.076C667.583 693.564 638.961 794.855 653.673 817.991C675.313 852.021 693.392 844.066 706.142 895.575L707.459 895.598C721.399 895.757 737.715 893.28 751.651 892.126C797.239 888.351 841.504 881.964 886.082 871.819C888.814 871.197 901.037 870.002 902.641 872.92C912.517 890.904 907.03 904.828 920.749 922.76C941.498 949.881 962.816 979.124 986.931 1003.33C1005.37 1021.84 1022.42 1038.7 1040.16 1058.02C1015.03 1060.92 1002.38 1056.26 981.128 1057.21C986.742 1060.02 1002.31 1066.14 1004.23 1071.01C1002.4 1073.81 997.852 1075.54 994.826 1075.88C974.299 1078.18 962.503 1068.85 941.323 1076.47C947.364 1081.86 957.333 1086.52 964.63 1092.71C943.406 1098.51 936.496 1094.47 915.03 1093.35C907.998 1092.98 898.574 1094.82 891.672 1096.24C900.232 1100.47 909.161 1104.94 917.11 1110.25C886.448 1120.28 873.465 1105.52 843.639 1117.68C848.028 1120.51 863.126 1129.4 864.727 1132.7C856.701 1142.37 820.496 1129.87 808.56 1135.15L808.026 1136.73C812.928 1145.45 821.834 1143.13 821.745 1151.37C817.284 1157.79 802.314 1162.33 794.712 1163.82C785.358 1165.64 776.844 1165.33 767.351 1163.39C740.121 1157.82 718.923 1149.74 690.957 1143.74C660.486 1137.19 612.474 1138.46 585.685 1123.03C572.191 1115.26 555.516 1085.28 553.971 1070.34C550.031 1046.1 558.35 1013.59 536.268 997.469C527.832 991.312 519.207 990.717 509.3 988.941C503.401 983.698 500.749 981.073 496.486 974.299C493.669 967.186 485.758 950.373 481.581 944.276L480.904 944.574C481.929 950.085 484.31 962.851 486.665 967.598C499.674 1026.11 477.602 1083.85 413.696 1095.06C402.207 1097.08 390.493 1095.41 379.066 1093.86C392.27 1087.8 402.768 1082.97 411.968 1071.08C429.629 1048.24 431.397 1010.01 427.188 982.391C421.446 944.712 398.915 899.748 367.633 877.335C353.661 867.324 337.676 860.588 320.047 863.68C284.268 869.955 270.628 905.083 265.504 937.071C264.477 943.483 264.987 959.221 262.419 962.882C255.021 964.919 223.708 957.537 216.189 954.258L215.193 953.813C211.464 947.888 204.794 931.223 202.005 924.278C198.98 917.186 196.104 909.719 191.014 903.888L189.681 903.902C188.681 908.007 189.546 911.524 191.648 915.116C193.306 932.799 197.646 944.425 193.874 963.115C185.433 1004.94 155.02 1019.73 115.495 1011.86C132 988.89 136.937 965.221 132.509 936.69C128.401 910.214 109.779 866.181 88.0096 849.721C82.2439 845.471 73.0747 842.181 65.9937 844.072C37.7567 851.611 38.3062 891.893 42.6142 913.712C11.137 901.098 9.69323 894.665 1.62893 863.048L0 862.246L0 837.054C1.74285 834.272 1.63402 834.221 2.87946 831.455C9.19125 817.435 32.9572 820.417 37.8559 803.522C45.9168 775.721 26.6012 734.156 36.7802 708.666C54.7932 697.947 80.3136 693.787 100.62 688.881C106.903 687.364 118.588 685.603 124.023 683.137C123.544 670.916 118.169 637.559 115.956 623.93C112.344 601.687 109.792 572.028 105.72 550.729ZM220.427 508.985C220.811 532.03 236.045 675.587 243.643 685.836C245.985 688.995 249.376 691.067 253.289 691.556C271.388 693.819 284.765 678.239 300.989 673.718C315.857 669.575 382.677 676.52 389.226 671.77C391.926 660.73 376.121 552.053 373.062 533.677C356.647 529.051 336.681 525.017 319.937 521.244C298.902 516.504 276.816 511.357 255.697 507.292C256.37 513.728 257.13 520.155 257.976 526.571C257.512 532.513 257.926 555.379 256.7 557.707C252.805 552.789 253.759 547.042 248.515 540.792C248.764 534.776 243.727 513.36 239.941 508.588C238.362 506.598 223.855 508.6 220.427 508.985ZM568.249 974.279C570.523 1006.71 566.375 1065.07 580.347 1091.94C595.475 1121.04 678.891 1121.72 709.651 1129.84C732.445 1135.86 756.946 1144.74 778.62 1149.66C760.474 1123.9 729.583 1092.03 708.638 1068.15C687.581 1044.01 666.33 1020.05 644.888 996.251C633.253 983.124 602.731 945.224 587.817 939.087C578.469 939.549 575.904 950.991 574.45 958.779C579.09 967.586 592.464 983.846 599.932 990.548C600.037 995.221 599.959 995.775 597.86 999.942L598.483 1005.45C588.898 995.752 578.233 983.034 568.249 974.279ZM144.509 675.426C152.054 677.143 155.266 678.162 162.459 681.028C174.419 686.78 200.027 701.841 212.719 689.912C214.19 688.529 213.812 674.361 213.263 669.514C207.394 617.735 199.858 565.675 191.831 514.175C191.524 513.802 191.217 513.428 190.91 513.055C176.979 516.387 137.903 525.013 128.579 533.82C123.345 546.037 139.011 660.128 144.509 675.426ZM951.917 1036.21C962.021 1036.18 977.235 1036.59 986.937 1035.85C976.877 1020.56 900.332 923.027 889.176 916.428C864.289 944.425 836.048 984.332 871.021 1016.53C891.595 1035.48 925.509 1035.95 951.917 1036.21ZM492.853 877.728C486.658 880.785 479.847 872.534 472.591 870.872C471.833 873.878 482.21 886.66 484.733 889.172C500.19 908.904 515.209 932.697 529.481 953.46C536.041 963.003 542.958 972.119 549.267 981.778C549.72 973.865 549.746 970.592 552.007 962.834C556.117 948.731 568.484 932.393 568.413 917.872C567.3 909.598 560.972 901.183 557.313 894.064C545.399 870.879 532.846 847.639 515.062 828.371C506.788 819.407 497.854 809.632 488.591 801.761C466.947 783.37 443.376 766.875 420.054 750.686C405.211 740.383 390.799 729.484 375.651 719.636C367.878 714.702 348.399 697.321 340.135 697.806L338.7 699.61C338.338 708.756 344.454 739.657 350.489 746.048C394.023 792.145 452.023 829.154 492.853 877.728ZM584.685 745.324C578.564 746.042 566.064 745.565 566.888 753.327C570.145 758.161 582.641 766.318 588.08 770.191L597.952 776.888C599.345 764.883 604.386 741.373 584.685 745.324ZM512.145 769.643C517.797 795.489 526.546 827.477 560.558 816.043C561.089 804.148 524.249 770.51 512.145 769.643ZM144.732 779.431C157.855 795.015 214.421 793.576 232.737 787.937L233.603 785.053C228.147 776.22 158.185 778.272 144.732 779.431ZM613.874 928.345C617.79 933.866 620.474 938.075 626.668 941.272C639.898 941.48 659.712 938.332 673.257 936.469L752.157 925.192C788.099 920.175 824.916 916.745 860.624 910.244C872.605 908.063 878.296 905.614 884.412 894.694L884.221 893.167C880.786 892.398 877.688 893.17 874.147 893.675C822.233 900.805 770.269 907.567 718.26 913.963C695.001 916.647 671.765 919.516 648.552 922.571C639.21 923.839 622.302 925.82 613.874 928.345Z"/><path fill="#7F5326" fill-opacity="0.94117647" d="M599.932 990.548C617.113 1011.32 641.622 1040.33 656.846 1061.98C645.563 1055.66 609.442 1016.88 598.483 1005.45L597.86 999.942C599.959 995.775 600.037 995.221 599.932 990.548Z"/><path fill="#8C5117" fill-opacity="0.89019608" d="M257.976 526.571C259.823 538.623 264.12 590.608 263.148 600.616C258.191 582.509 251.482 559.314 248.515 540.792C253.759 547.042 252.805 552.789 256.7 557.707C257.926 555.379 257.512 532.513 257.976 526.571Z"/><path fill="#FEFEFE" fill-opacity="0.047058824" d="M484.733 889.172C482.21 886.66 471.833 873.878 472.591 870.872C479.847 872.534 486.658 880.785 492.853 877.728L493.255 879.83C490.896 882.035 489.294 880.848 485.988 883.901C485.278 886.156 485.005 886.781 484.733 889.172Z"/><path fill="#FEFEFE" fill-opacity="0.082352944" d="M486.665 967.598C484.31 962.851 481.929 950.085 480.904 944.574L481.581 944.276C485.758 950.373 493.669 967.186 496.486 974.299C492.633 971.915 490.287 970.394 486.665 967.598Z"/><path fill="#FEFEFE" fill-opacity="0.039215688" d="M191.648 915.116C189.546 911.524 188.681 908.007 189.681 903.902L191.014 903.888C196.104 909.719 198.98 917.186 202.005 924.278C195.631 921.677 194.145 921.335 191.648 915.116Z"/></svg>