<?xml version="1.0" encoding="utf-8" ?><svg xmlns="http://www.w3.org/2000/svg" xmlns:xlink="http://www.w3.org/1999/xlink" width="2786" height="1536" viewBox="0 0 2786 1536"><path fill="#8C8C91" d="M538.725 901.582C548.183 904.977 574.744 920.746 585.46 926.291C613.777 940.867 643.126 953.345 673.269 963.626C844.367 1021.83 1019.26 1021.54 1190.91 967.367C1251.54 948.23 1306.85 923.751 1368.62 906.989C1531.55 862.778 1743.08 858.937 1892.66 946.274C1897.13 951.703 1902.94 953.684 1907.86 958.226C1904.55 959.235 1899.82 957.724 1895.3 957.391C1875.67 951.016 1856.06 944.145 1835.82 939.826C1666.85 903.777 1478.55 928.014 1319.56 991.699C1391.39 1020.47 1481.37 1026.54 1554.62 1003.03C1668.35 966.518 1794.72 944.662 1899.83 1020.81C1888.62 1017.67 1875.97 1011.93 1864.64 1008.05C1789.08 982.151 1704.11 991.49 1628.39 1011.84C1603.62 1018.5 1580.62 1028.7 1555.24 1034.18C1490.71 1048.1 1421.89 1047.52 1358.69 1027.43C1334.08 1019.65 1318.13 1009.99 1295.59 1000.21C1267.58 1007.76 1231.62 1022.93 1201.36 1032.21C1122.38 1056.38 1039.98 1067.41 957.425 1064.86C836.724 1060.9 719.207 1025.16 616.744 961.242C594.554 947.548 556.699 920.726 538.725 901.582Z"/><path fill="#186291" d="M1814.03 530.415C1849.64 528.721 1906.6 538.822 1923.37 573.909C1935.81 599.95 1932.42 637.377 1912.57 659.138C1903.32 669.28 1891.48 674.633 1879.47 680.474C1921.12 718.424 1937.3 781.314 1967.39 827.928C1978.73 845.493 1991.26 866.848 2012.54 873.807C2017.97 875.583 2030.66 871.213 2033.79 876.48L2032.89 879.374C2027.25 885.32 2009.26 889.067 2000.94 890.528C1968.47 896.231 1938.72 891.845 1919.14 863.002C1898.1 832.013 1882.77 799.407 1866.66 765.848C1853.17 737.735 1835.86 710.597 1825.33 681.352C1824.97 680.366 1826.87 678.084 1827.86 678.502C1838.23 676.217 1851.35 675.314 1857.83 665.458C1874.96 639.391 1878.97 574.683 1852.49 554.81C1837.62 546.693 1813.24 542.15 1812.65 566.409C1811 634.317 1814.47 702.142 1812.79 770.035C1812.42 785.042 1813.98 802.084 1812.52 816.733L1812.37 818.164C1798.79 838.902 1759.03 837.46 1749.88 817.005C1746.12 808.597 1747.52 764.915 1747.62 753.938C1747.95 712 1747.95 670.06 1747.6 628.122C1747.6 615.859 1749.88 567.102 1746.17 559.024C1727.66 540.649 1669.17 568.373 1669.46 594.424C1669.51 598.842 1666.97 605.566 1670.64 609.098C1680.89 618.965 1700.42 604.617 1711.3 605.663C1715.89 606.105 1720.97 615.894 1722.7 618.756C1722.21 638.621 1709.87 654.421 1689.33 655.61C1678.79 656.228 1668.45 652.592 1660.61 645.517C1639.61 626.45 1645.87 586.03 1663.65 568.049C1697.85 533.465 1768.27 532.53 1814.03 530.415Z"/><path fill="#186291" d="M2038.03 165.763C2095.06 167.432 2156.9 174.635 2206.55 205.663C2218.51 213.145 2225.62 220.476 2236.06 229.491C2275.91 209.626 2305.16 198.74 2350.24 198.449C2335.85 224.566 2320.81 250.582 2310.65 278.92C2279.8 365.183 2293.45 459.725 2316.94 546.083C2325.58 575.268 2346.18 598.208 2345.15 630.243C2343.31 687.124 2276.89 733.155 2222.93 721.687C2200.28 716.876 2195 686.01 2185.46 669.183C2175.21 651.103 2162.69 639.91 2146.11 627.937C2110.21 600.367 2074.66 567.679 2063.58 521.895C2060.06 507.262 2054.99 483.878 2063.3 470.637C2066.17 471.084 2067.88 472.602 2068.68 472.614C2080.79 472.791 2075.63 485.433 2078.79 488.657C2081.82 511.117 2085.15 530.407 2097.75 549.855C2125.76 593.09 2177.5 612.445 2200.04 660.418C2206.48 674.106 2208.99 691.075 2220.02 701.442C2228.5 709.401 2255.45 706.341 2252.29 691.026C2250.75 683.574 2247.15 675.598 2245.13 668.08C2245.22 662.809 2244.69 658.413 2247.99 654.357C2251.47 652.181 2251.97 652.16 2256.08 652.477C2259.13 658.806 2260.85 670.334 2265.32 675.307C2292.49 705.482 2324.39 654.015 2320.84 628.267C2317.16 601.585 2305.72 584.968 2296.38 562.111C2291.9 550.877 2288.42 539.274 2285.97 527.435C2271.79 462.01 2270.08 390.188 2275.35 323.585C2277.45 297.03 2282.1 270.777 2283.68 243.896C2260.1 251.054 2252.41 263.026 2239.35 282.491C2210.5 251.409 2171.43 221.602 2128.16 216.318C2115.53 214.774 2104.41 214.878 2091.7 215.176C2097.95 226.033 2103.55 235.953 2109.21 247.11C2087.64 250.588 2067.79 250.086 2044.5 255.466C1931.26 281.617 1847.92 347.822 1785.15 442.22C1778.76 443.135 1779.45 443.17 1773.22 441.237C1810.89 354.179 1878.24 271.583 1968.28 236.011C1981.56 230.903 1995.12 226.54 2008.89 222.942C2016.77 220.87 2050.04 216.51 2053.04 213.119C2050.21 198.166 2042.11 180.548 2038.03 165.763Z"/><path fill="#186291" d="M540.331 823.469C526.069 833.536 506.802 837.88 490.874 828.086C486.742 825.545 481.645 818.247 481.453 813.311C480.829 797.264 481.125 780.894 481.1 764.771L481.391 623.797C481.269 602.323 481.872 579.56 478.989 558.279C477.517 548.594 466.335 546.709 457.969 548.879C435.583 554.688 396.099 573.369 401.762 602.421C404.38 615.85 408.616 617.242 420.331 611.958C428.194 608.412 440.049 603.113 448.011 608.894C456.689 614.716 454.032 633.981 448.508 640.985C436.302 656.462 408.981 659.979 393.815 647.271C371.756 628.788 375.248 593.768 392.391 573.274C414.643 546.661 448.937 535.016 482.447 531.426C499.918 529.555 523.08 529.36 537.623 540.774C548.012 548.927 544.062 572.756 544.802 584.605C545.252 606.262 543.906 628.62 545.769 650.195C561.378 627.284 585.834 595.942 603.14 574.545C607.247 574.358 609.19 573.91 612.939 575.588C615.74 578.519 615.85 579.735 615.787 583.949L615.77 584.625C609.021 592.97 603.267 600.03 597.001 608.771C605.326 634.53 618.644 659.416 629.943 684.005C650.391 728.503 693.761 832.789 730.538 862.613C736.417 867.381 747.839 875.227 755.811 874.786C760.208 874.543 764.618 873.211 769.051 872.834C772.307 872.557 773.868 872.933 776.302 874.951L776.467 877.222C767.558 888.388 728.28 894.422 713.503 892.843C626.424 883.542 602.777 770.054 568.45 706.19C563.44 696.871 559.192 680.072 553.716 673.651C541.508 674.078 544.547 706.488 544.638 714.759L545.059 771.576C545.22 787.018 547.496 809.826 540.331 823.469Z"/><path fill="#186291" d="M871.09 530.478C902.871 530.292 949.414 537.207 955.384 575.602C958.129 593.257 948.055 610.987 929.602 612.599C902.551 614.961 912.518 562.087 893.112 550.858C888.436 547.346 880.52 546.459 874.647 548.022C801.008 567.632 788.689 679.697 801.7 741.689C813.651 798.631 842.419 820.685 898.256 808.43C899.354 778.685 896.858 743.554 897.673 712.41L896.942 711.674C883.727 698.608 872.953 710.981 864.471 702.35C862.568 698.276 863.288 694.044 863.492 689.397C892.616 688.974 922.143 690.486 951.331 689.915C961.175 689.723 971.808 689.819 981.602 690.361C981.837 694.939 981.73 700.479 981.762 705.142C973.052 705.649 961.99 705.344 952.79 705.648C952.728 741.516 952.902 777.384 953.312 813.25C953.089 831.182 952.776 845.606 947.551 863.08C931.857 915.559 870.522 935.82 820.853 931.358C804.313 929.873 790.92 925.272 780.45 912.153L780.562 900.022C793.203 876.789 801.551 900.145 810.911 909.295C828.625 926.062 860.753 918.813 876.505 902.884C896.711 882.452 897.695 855.786 898.102 829.042C873.449 832.743 860.034 836.477 834.018 832.428C718.066 814.385 704.882 652.628 769.963 576.901C796.619 545.884 831.679 533.597 871.09 530.478Z"/><path fill="#186291" d="M1459.18 532.123C1462.49 531.78 1471.49 534.869 1469.35 538.572C1464.65 547.037 1456.19 555.82 1451.63 564.121C1424.54 613.408 1422.5 754.676 1458 796.444C1467.3 807.338 1480.53 814.116 1494.8 815.301C1509.46 816.455 1515.89 813.023 1527.55 805.1C1574.34 773.293 1576.54 556.949 1514.19 554.394C1505.43 554.044 1496.92 557.302 1490.62 563.406C1483.63 570.266 1480.29 580.37 1480.32 589.853C1479.61 608.137 1492.48 614.587 1504.3 625.512C1510.38 630.391 1510.25 640.598 1503.16 643.932C1464.6 662.063 1453.03 605.563 1460.83 580.488C1466.73 561.523 1475.08 552.293 1489.06 544.106C1489.89 543.611 1490.75 543.143 1491.61 542.705C1541.33 517.11 1590.05 553.293 1611.83 598.133C1645.34 667.135 1633.99 769.026 1566.29 813.802C1517.42 846.12 1442.83 838.987 1402.98 795.353C1362.26 749.495 1356.4 675.169 1375.45 618.727C1390.09 575.387 1419.31 550.727 1459.18 532.123Z"/><path fill="#186291" d="M2318.71 837.395C2401.21 828.811 2428.42 908.428 2394.39 973.625C2388.17 985.525 2379.75 993.735 2377.82 1008.08C2373.58 1039.49 2370.4 1070.99 2368.28 1102.6C2366.88 1128.59 2368.74 1149.22 2358.68 1173.89C2344.94 1207.56 2322.81 1222.38 2286.77 1225.62C2274.3 1226.74 2260.06 1228.38 2248.78 1234.73C2229.66 1245.51 2217.52 1267.78 2193.76 1269.52C2169.6 1274.16 2150.48 1250.32 2149.68 1228.2C2149.03 1210.33 2156.11 1147.67 2166.79 1134.97C2176.37 1129.46 2210.9 1128.19 2222.63 1128.32C2209.57 1143.65 2195.82 1147.38 2177.51 1154.35C2175.08 1165.78 2174.18 1176.53 2171.6 1187.72C2170.64 1200.78 2164.11 1239.52 2186.38 1241.93C2207.44 1244.21 2225.75 1218.51 2244.55 1210.08C2267.27 1199.9 2293.78 1197.43 2314.25 1183.05C2345.33 1159.98 2331.1 1110.2 2332.26 1077.28C2334.1 1053.55 2336.55 1030.49 2344.43 1007.37C2356.58 971.69 2392.17 908.986 2353.82 878.068C2348.91 874.108 2337.55 871.108 2331.11 871.353C2306.16 872.301 2284.32 886.7 2260.57 892.912C2235.94 899.53 2210.43 904.754 2184.8 902.287C2177.84 901.616 2161.61 898.424 2157 892.663L2157.34 891.246C2163.67 888.963 2176.18 888.981 2183.27 887.886C2211.74 883.494 2233.56 874.038 2257.96 858.704C2275.39 847.749 2298.2 840.557 2318.71 837.395Z"/><path fill="#186291" d="M1096.71 530.412C1110.12 528.574 1147.38 530.506 1151.89 548.254C1155.02 560.559 1153.58 583.836 1153.5 597.507L1153.4 722.746C1153.42 743.073 1151.99 775.689 1155.58 794.36C1163.17 833.745 1233.1 799.082 1252.43 793.415C1258.83 796.133 1261.54 811.449 1255.69 816.266C1250.9 819.892 1242.01 823.304 1235.84 824.304C1199.75 830.159 1127.35 841.242 1097.57 817.863C1086.7 809.331 1089.24 758.225 1089.3 741.75C1089.84 702.188 1089.85 662.621 1089.34 623.058C1089.33 617.1 1089.42 611.012 1089.28 605.09C1088.49 590.523 1090.48 571.394 1087.42 557.379C1084.33 543.215 1058.99 550.379 1050.62 553.924C1035.88 560.163 1021.63 570.307 1013.02 583.918C1009.18 589.969 1006.2 608.634 1014 613.321C1025.93 618.836 1042.57 603.468 1053.95 607.756C1067.37 612.816 1063.28 633.544 1055.99 642.294C1043.62 658.191 1016.81 658.962 1001.91 646.149C979.364 626.757 985.573 589.925 1003.46 569.927C1027.32 543.247 1062.89 533.509 1096.71 530.412Z"/><path fill="#186291" d="M2033.43 453.034C2038.46 450.447 2039.64 449.108 2045.45 449.837C2038.34 463.57 2032.43 488.713 2028.66 503.151C2013 563.174 2011.02 623.416 2034.73 681.671C2046.97 714.992 2058.31 730.956 2072.37 761.335C2095.99 812.387 2117.52 888.172 2090.9 941.746C2087.95 947.688 2080.94 961.883 2075.35 964.83L2073.69 964.714C2072.27 960.671 2075.93 952.868 2076.37 948.364C2087.98 830.652 1994.06 732.829 1992.19 617.438C1991.42 570.259 2003.71 513.453 2023.9 471.235C2026.89 465.071 2030.07 459.001 2033.43 453.034Z"/><path fill="#186291" d="M2240.01 932.858L2241.24 933.635C2241.16 934.758 2216.27 966.17 2213.36 971.221C2205.06 985.629 2196.36 999.573 2188.47 1014.51C2171.98 1045.74 2159.41 1083.78 2131.62 1106.83C2094.41 1137.61 2059.67 1112.1 2018.35 1112.79C1992.7 1113.22 1965.28 1124.67 1941.12 1123.86C1922.54 1123.24 1908.71 1088.21 1914.1 1072.2C1920.3 1043.05 1939.56 1007.41 1963.31 989.767C1967.38 987.795 1971.82 986.692 1976.35 986.529C1987.09 986.246 2016.56 997.956 2016.43 1008.44C2007.96 1015.71 1981.83 1006.8 1970.4 1014.05C1956.73 1022.73 1944.15 1046.86 1939.39 1062.02C1936.05 1072.65 1935.99 1081.83 1941.21 1091.39C1957.83 1096.33 1969.47 1090.73 1986.55 1088.47C1998.05 1086.95 2005.36 1086.31 2016.99 1086.24C2039.06 1086.11 2064.49 1097.39 2085.65 1093.6C2129.19 1085.82 2141.11 1029.9 2163.06 999.149C2180.59 974.598 2213.29 945.655 2240.01 932.858Z"/><path fill="#505150" fill-opacity="0.98823529" d="M1828.15 1294.54C1849.91 1292.29 1869.44 1307.94 1872 1329.66C1874.55 1351.39 1859.2 1371.14 1837.51 1374.02C1823.2 1375.91 1808.98 1369.96 1800.29 1358.43C1791.6 1346.89 1789.8 1331.58 1795.57 1318.35C1801.34 1305.11 1813.79 1296.01 1828.15 1294.54ZM1833.5 1364.01C1849.9 1363.28 1862.62 1349.42 1861.94 1333.01C1861.27 1316.61 1847.45 1303.84 1831.05 1304.46C1814.56 1305.08 1801.71 1318.98 1802.39 1335.47C1803.07 1351.95 1817.02 1364.75 1833.5 1364.01Z"/><path fill="#505150" d="M914.444 1296.52C934.302 1295.52 961.216 1291.43 974.717 1308.92L974.338 1323.77C972.131 1327.78 969.26 1331.01 966.363 1334.55C977.204 1339.02 985.887 1350.67 976.366 1360.94C962.873 1373.15 932.467 1376.27 914.867 1371.28C911.051 1370.2 911.896 1356.08 911.977 1352.08C912.334 1334.52 911.681 1316.57 912.622 1299C912.622 1299 914.3 1296.71 914.444 1296.52ZM923.922 1364.08C938.16 1364.32 952.213 1366.03 964.753 1359C984.028 1337.72 934.722 1336.84 923.885 1337.82C923.884 1346.35 923.702 1355.62 923.922 1364.08ZM923.861 1329.87C936.264 1329.55 950.566 1330.75 961.208 1325.39C976.261 1302.3 935.912 1304.35 923.835 1305.01L923.861 1329.87Z"/><path fill="#505150" fill-opacity="0.98823529" d="M1103.48 1296.48C1122.99 1296.07 1169.73 1292.81 1162.57 1327.01C1160.69 1335.99 1152.42 1342.34 1144.91 1346.88C1149.19 1351.38 1160.82 1364.88 1163.78 1369.93C1161.93 1371.76 1158.49 1371.8 1155.42 1372.38C1147.85 1365.92 1144.15 1356.21 1132.7 1348.83L1110.54 1348.74C1110.7 1354.77 1112.74 1367.14 1108.11 1370.92C1104.16 1370.87 1104.73 1371.46 1101.87 1369.67C1099.55 1356.34 1102.23 1319.64 1101.15 1304.64C1100.88 1300.84 1101.1 1298.83 1103.48 1296.48ZM1110.94 1340.98C1124.49 1341.11 1133.78 1342.16 1145.58 1334.9C1171.18 1307.01 1130.46 1304.6 1112.02 1304.99C1110.1 1309.71 1110.92 1334.09 1110.94 1340.98Z"/><path fill="#505150" fill-opacity="0.98823529" d="M1445.01 1297.12C1451.51 1297 1455.33 1296.15 1458.43 1303.06C1462.1 1311.24 1490.19 1365.14 1488.68 1370.45C1477.81 1374.25 1473.3 1360.54 1469.64 1352.9L1455.8 1352.73L1430.33 1352.77C1427.37 1359.33 1423.58 1365.49 1419.03 1371.07C1415.61 1372.25 1413.45 1372.26 1411.34 1369.19C1413.15 1362.65 1441.73 1301.09 1445.01 1297.12ZM1434.09 1344.06L1451.75 1344.45L1465.6 1344.47C1462.78 1337.93 1454.33 1315.68 1448.88 1312.59C1443.39 1321.87 1438.59 1334 1434.09 1344.06Z"/><path fill="#505150" fill-opacity="0.98823529" d="M1654.65 1296.64C1657.75 1296.84 1658.64 1297.16 1661.67 1298.02C1667.36 1303.28 1695.14 1362 1695.56 1369.61L1693.44 1371.3C1684.18 1372.92 1680.37 1359.69 1677.16 1352.51L1657.75 1352.23C1651.15 1352.2 1644.55 1352.26 1637.96 1352.41L1637.55 1353.32C1634.59 1359.89 1631.41 1368.78 1624.7 1371.33C1621.17 1370.91 1622.56 1371.64 1620.18 1369.58C1619.81 1361.61 1647.55 1304.27 1654.65 1296.64ZM1641.45 1344.15L1660.5 1344.23C1664.89 1344.26 1669.79 1344.73 1673.74 1343.18C1673.52 1339.41 1661.07 1315.64 1658.06 1311.91L1656.51 1311.29C1650.11 1323.02 1645.9 1331.36 1641.45 1344.15Z"/><path fill="#505150" fill-opacity="0.98039216" d="M1325.02 1296.45C1326.73 1296.77 1330.16 1297.45 1331.31 1298.72C1347.67 1316.6 1363.85 1335.71 1378.53 1354.9C1378.51 1345.34 1377.07 1302.42 1380.94 1298.05C1384.12 1297.38 1384.29 1297.26 1387.33 1298.11C1388.4 1304.43 1387.71 1329.03 1388.04 1337.21C1388.48 1348.1 1389.78 1360.99 1389.82 1371.44C1368.42 1373.63 1349.17 1325.76 1334.64 1319.74C1330.33 1328.37 1339.85 1367.01 1328.85 1372.18C1321.65 1371.05 1323.2 1357.49 1323.88 1352.32C1325.24 1342.11 1320.68 1302.33 1325.02 1296.45Z"/><path fill="#186291" d="M2184.8 360.469C2194.12 362.082 2211.83 379.756 2223.48 386.627C2223.05 408.478 2233.56 446.341 2231.36 465.477C2227.12 466.241 2224.04 466.997 2220.45 464.624C2215.81 457.796 2185.12 367.719 2184.8 360.469Z"/><path fill="#505150" fill-opacity="0.98039216" d="M1246.71 1296.56C1249.81 1296.47 1250.43 1296.44 1253.45 1297.01L1253.82 1298.44C1242.03 1311.92 1233.7 1319.56 1220.17 1331.65C1226.11 1336.48 1255.06 1364.81 1256.18 1370.99C1241.41 1375.59 1226.99 1349.73 1213.95 1339.95L1200.65 1350.72C1198.24 1357.33 1200.86 1361.97 1198.17 1369.26C1195.75 1371.83 1197.21 1371.14 1193.58 1371.26C1191.62 1369.9 1189.25 1367.41 1189.65 1365.02C1191.34 1354.96 1187.25 1302.82 1190.62 1298.15C1194.9 1296.51 1196.51 1297.36 1199.67 1300.13C1200.86 1305.58 1199.94 1332.46 1199.81 1339.95C1214.5 1324.58 1229.35 1309.02 1246.71 1296.56Z"/><path fill="#186291" d="M628.451 544.723C643.898 528.153 666.918 518.261 689.595 517.438C701.966 516.988 716.473 519.661 716.232 535.074C716.023 543.374 714.003 549.648 704.497 548.997C696.319 548.437 693.663 541.77 687.776 538.903C671.906 531.172 653.514 546.011 642.954 555.497C638.631 555.911 632.672 557.121 629.394 554.705C627.283 551.365 628.067 548.804 628.451 544.723Z"/><path fill="#505150" fill-opacity="0.98823529" d="M1004.8 1295.88C1006.19 1296 1013.27 1296.58 1013.36 1298.26C1014.3 1316.9 1009.34 1337.58 1018.63 1354.6C1026.68 1368.35 1040.14 1365.46 1051.42 1358.56C1067.8 1348.54 1051.61 1303.78 1062.86 1295.57C1071.34 1296.33 1070.93 1302.67 1070.71 1309.25C1070.95 1322.74 1071.97 1348.14 1065.63 1358.69C1053.08 1379.57 1010.4 1377.79 1005.19 1351C1003.36 1341.63 1001.02 1302.48 1004.8 1295.88Z"/><path fill="#505150" d="M1737.12 1296.38C1745.28 1295.27 1764.16 1296.12 1767.12 1305.4C1760.43 1312.35 1731.28 1296.68 1724.94 1313.67C1719.85 1327.33 1744.89 1329.52 1753.72 1332.46C1768.01 1337.22 1778.21 1343.05 1771.02 1360.27C1759.98 1370.18 1758.77 1372.03 1744.31 1373.33C1736.53 1372.68 1713.44 1370.25 1715.46 1358.87C1722.34 1355.81 1738.05 1365.58 1746.34 1364.45C1753.53 1363.48 1762.5 1358.07 1761.73 1350C1753.75 1335.58 1718.46 1340.5 1712.95 1321.15C1708.5 1305.54 1725.62 1298.86 1737.12 1296.38Z"/><path fill="#505150" d="M1554.01 1296.31C1567.33 1296.21 1589.14 1295.38 1601.36 1297.53C1603.84 1299.38 1603.07 1298.19 1603.74 1301.22L1602.43 1302.79C1594.68 1306.16 1572.84 1304.96 1563.21 1304.88L1562.99 1333C1571.76 1332.97 1591.71 1332.3 1599.3 1333.81C1598.67 1337.33 1598.75 1337.59 1596.39 1340.09C1589.66 1343.48 1571.75 1342 1563.13 1341.99C1563.09 1347.23 1563.09 1352.46 1563.14 1357.7C1563.15 1362.75 1563.32 1366.58 1559.66 1370.25C1556.32 1371.5 1554.44 1371.78 1552.12 1368.77C1551.25 1362.1 1552.02 1300.93 1554.01 1296.31Z"/><path fill="#165981" d="M2076.43 433.926C2079.92 427.916 2086.57 419.355 2090.76 413.221C2094.46 422.13 2094.95 419.032 2094.63 429.285C2093.19 433.51 2091.67 437.64 2090.28 441.893C2084.49 457.114 2080.52 472.477 2078.79 488.657C2075.63 485.433 2080.79 472.791 2068.68 472.614C2067.88 472.602 2066.17 471.084 2063.3 470.637C2060.42 462.811 2072.01 440.9 2076.43 433.926Z"/><path fill="#186291" d="M2076.43 433.926C2079.92 427.916 2086.57 419.355 2090.76 413.221C2094.46 422.13 2094.95 419.032 2094.63 429.285C2093.19 433.51 2091.67 437.64 2090.28 441.893C2085.55 442.194 2082.88 446.836 2077.57 444.138C2075.77 440.787 2076.32 437.836 2076.43 433.926Z"/><path fill="#505150" fill-opacity="0.98039216" d="M1278.46 1297.15C1283.07 1296.63 1285.82 1295.94 1289.35 1299.07C1290.96 1310.01 1289.67 1358.21 1289.55 1370.94C1285.27 1371.52 1282.43 1372.44 1279.25 1369.37C1277.48 1355.09 1278.47 1313.37 1278.46 1297.15Z"/><path fill="#165981" d="M603.14 574.545C611.132 564.367 619.147 553.692 628.451 544.723C628.067 548.804 627.283 551.365 629.394 554.705C632.672 557.121 638.631 555.911 642.954 555.497C633.509 564.579 623.803 574.242 615.77 584.625L615.787 583.949C615.85 579.735 615.74 578.519 612.939 575.588C609.19 573.91 607.247 574.358 603.14 574.545Z"/><path fill="#165981" d="M2245.13 668.08C2242.71 660.369 2229.73 630.324 2240.09 626.387C2250.13 627.641 2255.01 643.95 2256.08 652.477C2251.97 652.16 2251.47 652.181 2247.99 654.357C2244.69 658.413 2245.22 662.809 2245.13 668.08Z"/><path fill="#165981" fill-opacity="0.92156863" d="M1773.22 441.237C1779.45 443.17 1778.76 443.135 1785.15 442.22C1781.59 447.874 1761.54 481.161 1757.91 482.662L1757.44 481.546C1762.46 466.653 1766.76 455.779 1773.22 441.237Z"/><path fill="#165981" fill-opacity="0.95294118" d="M2090.76 413.221C2095.6 406.863 2102 398.209 2109.04 394.423L2110.11 395.337C2109.3 402.289 2098.29 421.555 2094.63 429.285C2094.95 419.032 2094.46 422.13 2090.76 413.221Z"/><path fill="#165981" fill-opacity="0.87843138" d="M2033.43 453.034C2035.94 447.741 2045.25 430.791 2050.34 428.733C2052.37 433.338 2047.34 444.624 2045.45 449.837C2039.64 449.108 2038.46 450.447 2033.43 453.034Z"/><path fill="#8C8C91" fill-opacity="0.76862746" d="M1892.66 946.274C1901.21 950.411 1921.26 963.035 1927.59 969.895C1923.23 968.341 1897.62 959.55 1895.3 957.391C1899.82 957.724 1904.55 959.235 1907.86 958.226C1902.94 953.684 1897.13 951.703 1892.66 946.274Z"/></svg>