<?xml version="1.0" encoding="utf-8" ?><svg xmlns="http://www.w3.org/2000/svg" xmlns:xlink="http://www.w3.org/1999/xlink" width="2688" height="1596" viewBox="0 0 2688 1596"><path fill="#2E4979" d="M331.586 562.033C376.917 511.123 429.568 467.239 487.811 431.82C572.262 379.479 663.277 372.051 757.584 403.461C793.243 415.337 825.694 434.459 861.469 445.343C881.547 451.451 903.202 455.599 923.548 460.972C961.813 469.496 1018.62 482.784 1054.06 460.826C1060.61 455.908 1069.88 447.4 1077.4 454.345C1082.11 465.329 1071.1 492.849 1066.87 504.013C1037.81 580.581 950.925 630.585 870.317 624.117C846.83 622.232 823.659 617.828 800.243 610.556C759.88 595.913 717.422 585.3 675.427 576.707C667.634 575.113 659.518 568.41 653.064 567.737L651.334 568.937C650.883 572.489 650.531 573.376 651.477 576.71C659.221 583.849 680.272 583.25 681.235 599.233C681.644 606.039 675.767 619.513 672.123 625.195C666.95 638.181 669.8 641.615 679.689 649.476C680.199 661.462 685.463 677.657 700.785 676.624C711.361 675.912 715.211 666.479 725.463 677.213C739.572 689.717 735.429 697.401 729.92 712.839L730.598 714.023C741.034 732.071 764.747 724.942 760.892 750.512C759.197 761.754 739.277 769.786 747.447 782.963C752.482 790.956 757.043 793.302 761.419 802.079C762.317 812.82 760.984 814.254 756.246 824.104C740.644 829.266 738.221 830.471 732.086 845.959C737.197 860.508 739.155 872.343 721.369 878.221C707.432 882.827 690.625 871.617 682.422 888.861C674.7 906.857 677.448 911.889 654.768 912.29C643.426 898.841 635.156 889.858 619.7 904.681C614.257 909.901 607.937 912.968 600.518 911.322C581.555 908.244 591.706 880.247 572.12 878.504C564.931 877.688 558.305 880.507 551.731 882.95C535.168 876.468 528.815 875.984 517.268 890.303C516.959 897.399 516.983 902.519 511.143 907.418C487.163 927.538 477.264 872.524 452.805 909.182C464.922 912.766 484.697 917.241 497.354 917.734C505.107 924.414 517.323 936.466 505.352 946.371C488.284 960.492 460.137 954.711 440.55 954.983C424.745 955.202 373.519 944.587 362.698 952.387C356.485 963.896 394.115 982.719 403.117 986.916C474.741 1020.31 561.682 1019.78 635.393 993.367C674.275 979.383 706.798 959.2 741.834 937.813C754.812 929.891 782.506 910.635 795.614 906.213C803.672 903.481 812.477 903.983 820.173 907.614C827.547 911.05 829.082 916.987 824.697 924.055C806.322 953.669 777.028 976.317 750.701 998.577C724.636 1020.82 697.665 1039.37 668.954 1057.83C590.717 1108.14 486.363 1123.91 398.744 1090.18C371.117 1079.55 343.214 1067.02 315.196 1057.12C272.446 1042.24 227.229 1031.88 182.596 1024.87C161.286 1021.83 139.019 1020.46 117.975 1025.14C106.691 1027.65 88.5857 1045.76 78.5413 1040.76C62.8688 1032.94 90.9781 976.527 96.7042 966.922C123.687 921.66 170.967 888.476 221.697 875.527C281.661 859.906 327.655 873.439 385.012 891.046C397.412 894.852 412.247 899.831 424.666 902.73L424.036 901.369C420.173 892.917 419.841 882.434 414.262 879.015C402.256 876.156 386.717 889.571 373.121 870.528C365.269 859.53 377.404 846.986 371.896 839.052C364.358 828.192 355.487 836.483 346.07 822.508C343.849 818.716 343.637 816.354 343.359 812.089C338.072 792.469 354.605 798.41 356.724 775.195C344.013 760.819 333.712 751.003 346.675 731.78C352.6 728.776 359.588 727.566 366.115 726.096C369.423 723.32 371.529 720.715 374.34 717.485L376.644 718.597C377.885 713.39 380.173 714.137 380.139 708.408C382.493 710.345 378.856 715.19 382.84 720.069C385.118 719.621 386.387 719.353 387.954 717.454C397.035 706.448 405.406 695.722 418.47 688.739L420.087 689.33C434.811 682.006 442.41 679.415 458.129 676.146C451.395 659.547 444.28 631.23 450.956 613.57C451.429 612.318 451.295 613.16 450.581 611.225C449.728 601.489 455.95 593.414 459.97 584.914C475.48 552.127 496.015 542.29 529.225 531.979L523.722 531.177C517.079 533.885 498.728 541.86 492.315 541.291C489.871 542.218 487.632 543.226 485.055 543.606C477.078 547.245 467.188 544.856 461.076 550.608C460.383 554.253 460.96 555.1 458.785 556.691L455.973 551.796L450.189 552.125C449.66 548.709 449.754 545.431 447.892 543.048C420.461 558.257 394.575 576.236 365.061 586.803C349.581 592.346 319.596 581.771 330.046 564.452L330.48 563.724C330.848 563.16 331.217 562.596 331.586 562.033ZM536.835 840.401C538.025 838.89 538.82 838.199 540.181 836.875C555.805 815.098 560.593 833.423 571.175 842.36C651.343 910.06 751.014 823.652 706.187 732.633C689.142 698.024 665.841 699.789 637.775 683.165L636.54 682.421C625.365 667.464 666.742 617.364 604.884 566.633C580.77 551.132 562.085 543.035 532.85 549.371C511.04 554.133 492.017 567.368 479.97 586.162C473.103 596.98 466.788 613.7 464.757 627.594C462.735 641.433 470.388 669.928 471.133 683.162C471.194 684.246 439.042 698.122 434.489 700.884C423.669 707.45 417.806 710.983 408.458 720.534C375.215 763.825 378.178 816.866 423.121 850.6C425.149 852.114 427.231 853.555 429.362 854.919C466.453 875.365 506.097 868.418 536.835 840.401ZM499.553 511.792C493.867 513.967 474.452 525.066 471.999 530.051C472.498 531.936 472.133 531.638 473.255 532.98C483.417 533.185 489.08 533.107 497.138 525.691C500.461 522.633 503.032 515.456 499.553 511.792ZM691.749 537.889C708.907 538.702 726.057 539.677 743.196 540.816C754.234 541.65 782.532 545.331 791.184 541.41C796.914 533.935 784.693 526.753 779.241 523.512C727.693 492.872 673.997 483.428 614.617 484.48C585.133 484.925 554.313 489.002 527.219 501.324C533.419 506.515 540.257 514.612 548.072 513.158C567.474 509.547 572.81 493.916 594.553 507.702L595.194 508.823C601.305 519.662 601.019 537.17 617.581 531.821C634.383 526.396 642.363 532.636 652.943 544.785C667.436 538.345 675.506 536.557 691.749 537.889ZM442.296 850.024C418.911 840.98 401.394 821.115 395.347 796.782C389.3 772.449 395.48 746.695 411.911 727.756C437.534 698.223 481.224 692.583 513.507 714.641C545.79 736.7 556.414 779.452 538.212 814.056C520.011 848.66 478.763 864.128 442.296 850.024ZM470.886 751.281C432.107 766.121 438.345 807.917 474.745 807.22C514.517 796.034 502.176 749.132 470.886 751.281Z"/><path fill="#2E4979" d="M546.545 556.454C588.485 554.55 624.031 587 625.947 628.939C627.864 670.879 595.425 706.435 553.486 708.364C511.529 710.295 475.954 677.839 474.037 635.881C472.12 593.923 504.586 558.358 546.545 556.454ZM554.937 660.434C564.175 658.102 571.116 654.498 576.29 646.029C580.293 639.421 581.409 631.459 579.376 624.004C575.592 609.604 562.735 603.148 548.642 604.225C532.707 612.848 517.279 624.378 527.205 646.789C531.863 657.306 544.013 660.546 554.937 660.434Z"/><defs><linearGradient id="gradient_0" gradientUnits="userSpaceOnUse" x1="548.6228" y1="695.3327" x2="543.99493" y2="564.89374"><stop offset="0" stop-color="#0D2654"/><stop offset="1" stop-color="#2E569C"/></linearGradient></defs><path fill="url(#gradient_0)" d="M539.537 564.259C541.963 564.095 544.393 563.986 546.825 563.933C582.208 563.353 613.01 593.004 610.753 628.968C610.375 634.991 615.153 643.821 609.467 649.343L606.785 648.366C604.368 650.664 603.504 658.211 599.458 664.132C593.488 672.868 568.774 695.392 559.233 696.96C543.518 698.108 524.014 696.99 510.813 686.214C508.04 683.95 508.612 681.922 508.424 678.452C505.428 675.748 502.996 676.036 498.524 675.182C495.835 673.179 495.811 673.365 494.843 670.252C498.363 661.112 491.77 662.76 486.747 657.137C485.759 656.031 483.514 647.631 483.139 645.675C479.523 626.726 483.806 607.123 494.996 591.409C506.301 575.278 520.496 567.562 539.537 564.259ZM554.937 660.434C564.175 658.102 571.116 654.498 576.29 646.029C580.293 639.421 581.409 631.459 579.376 624.004C575.592 609.604 562.735 603.148 548.642 604.225C532.707 612.848 517.279 624.378 527.205 646.789C531.863 657.306 544.013 660.546 554.937 660.434Z"/><path fill="#2E4979" d="M540.04 588.683C547.837 588.117 553.977 587.756 561.609 590.672C565.013 591.974 571.535 598.121 571.438 601.822C573.7 605.368 574.394 604.827 578.71 606.739C591.203 632.94 586.032 658.488 556.053 667.192C501.366 678.006 492.031 595.219 540.04 588.683ZM554.937 660.434C564.175 658.102 571.116 654.498 576.29 646.029C580.293 639.421 581.409 631.459 579.376 624.004C575.592 609.604 562.735 603.148 548.642 604.225C532.707 612.848 517.279 624.378 527.205 646.789C531.863 657.306 544.013 660.546 554.937 660.434Z"/><path fill="#38598F" d="M624.927 703.565C666.241 699.316 703.189 729.334 707.488 770.643C711.788 811.952 681.814 848.936 640.51 853.285C599.136 857.642 562.075 827.605 557.768 786.226C553.462 744.847 583.543 707.822 624.927 703.565ZM640.515 839.249C676.187 833.142 700.099 799.204 693.847 763.558C687.595 727.912 653.56 704.138 617.94 710.536C582.524 716.896 558.917 750.693 565.133 786.134C571.349 821.575 605.049 845.321 640.515 839.249Z"/><defs><linearGradient id="gradient_1" gradientUnits="userSpaceOnUse" x1="608.12207" y1="713.95789" x2="649.80316" y2="834.72278"><stop offset="0" stop-color="#091E45"/><stop offset="1" stop-color="#18386F"/></linearGradient></defs><path fill="url(#gradient_1)" d="M617.94 710.536C653.56 704.138 687.595 727.912 693.847 763.558C700.099 799.204 676.187 833.142 640.515 839.249C605.049 845.321 571.349 821.575 565.133 786.134C558.917 750.693 582.524 716.896 617.94 710.536ZM637.548 806.921C653.114 805.281 664.478 791.445 663.064 775.856C661.65 760.268 647.981 748.703 632.373 749.891C622.073 750.675 612.994 756.945 608.613 766.3C604.233 775.654 605.23 786.643 611.222 795.057C617.215 803.47 627.275 808.004 637.548 806.921Z"/><path fill="#2E4979" d="M623.362 736.289C632.398 735.32 637.942 735.005 646.389 739.669C664.966 749.936 673.881 776.863 662.819 795.566C656.404 806.413 648.505 809.843 636.823 812.862C617.978 815.858 599.924 805.841 594.596 787.153C591.507 775.934 593.037 763.945 598.846 753.863C604.831 743.616 612.315 739.236 623.362 736.289ZM637.548 806.921C653.114 805.281 664.478 791.445 663.064 775.856C661.65 760.268 647.981 748.703 632.373 749.891C622.073 750.675 612.994 756.945 608.613 766.3C604.233 775.654 605.23 786.643 611.222 795.057C617.215 803.47 627.275 808.004 637.548 806.921Z"/><path fill="#2E4979" d="M411.911 727.756C437.534 698.223 481.224 692.583 513.507 714.641C545.79 736.7 556.414 779.452 538.212 814.056C520.011 848.66 478.763 864.128 442.296 850.024C418.911 840.98 401.394 821.115 395.347 796.782C389.3 772.449 395.48 746.695 411.911 727.756ZM474.745 807.22C514.517 796.034 502.176 749.132 470.886 751.281C432.107 766.121 438.345 807.917 474.745 807.22Z"/><path fill="#0D2651" d="M454.842 710.524C490.452 704.848 523.923 729.108 529.61 764.716C535.297 800.324 511.046 833.803 475.44 839.5C439.819 845.199 406.324 820.937 400.635 785.314C394.945 749.691 419.217 716.203 454.842 710.524ZM474.745 807.22C514.517 796.034 502.176 749.132 470.886 751.281C432.107 766.121 438.345 807.917 474.745 807.22Z"/><path fill="#2E4979" d="M463.746 735.379C497.544 738.097 514.473 773.244 495.65 802.226C489.938 811.022 478.218 813.579 468.236 814.693C446.839 814.667 431.533 800.402 429.499 779.145C428.403 768.078 431.798 757.035 438.921 748.495C445.439 740.761 453.689 736.207 463.746 735.379ZM474.745 807.22C514.517 796.034 502.176 749.132 470.886 751.281C432.107 766.121 438.345 807.917 474.745 807.22Z"/><path fill="#E7E9EA" fill-opacity="0.031372551" d="M429.362 854.919C427.231 853.555 425.149 852.114 423.121 850.6C378.178 816.866 375.215 763.825 408.458 720.534C409.395 726.513 408.277 724.951 411.911 727.756C395.48 746.695 389.3 772.449 395.347 796.782C401.394 821.115 418.911 840.98 442.296 850.024C433.542 850.335 436.577 851.025 429.362 854.919Z"/><defs><linearGradient id="gradient_2" gradientUnits="userSpaceOnUse" x1="578.89368" y1="535.40723" x2="560.75006" y2="413.40134"><stop offset="0" stop-color="#3463A7"/><stop offset="1" stop-color="#6097D2"/></linearGradient></defs><path fill="url(#gradient_2)" d="M331.586 562.033C376.917 511.123 429.568 467.239 487.811 431.82C572.262 379.479 663.277 372.051 757.584 403.461C793.243 415.337 825.694 434.459 861.469 445.343C881.547 451.451 903.202 455.599 923.548 460.972C961.813 469.496 1018.62 482.784 1054.06 460.826C1061.07 459.742 1067.76 455.163 1073.88 451.487C1069.84 455.521 1065.84 459.593 1061.64 463.457C1026.19 484.763 994.46 480.432 954.44 474.77C944.627 475.641 786.772 506.141 782.758 508.482C774.112 505.275 757.32 495.666 746.563 491.344C698.551 472.051 657.598 465.628 606.349 466.834C541.381 470.674 486.951 489.837 431.772 524.066C404.266 541.129 382.002 556.829 352.939 571.648C346.631 571.288 340.594 570.937 334.308 570.311L332.66 572.532L331.672 571.864C330.46 567.843 330.964 566.144 331.586 562.033Z"/><defs><linearGradient id="gradient_3" gradientUnits="userSpaceOnUse" x1="785.94452" y1="506.12943" x2="770.86426" y2="426.58737"><stop offset="0" stop-color="#305A9B"/><stop offset="1" stop-color="#4678C0"/></linearGradient></defs><path fill="url(#gradient_3)" d="M620.831 454.143C638.144 452.91 652.901 454.82 671.051 450.338C678.407 448.522 686.847 451.14 696.478 447.958C707.097 444.449 728.367 448.731 740.46 447.515C762.584 445.194 792.679 439.165 814.357 439.954C823.69 440.294 834.575 450.786 853.084 451.144L854.451 451.165C890.199 460.824 916.686 468.987 954.44 474.77C944.627 475.641 786.772 506.141 782.758 508.482C774.112 505.275 757.32 495.666 746.563 491.344C698.551 472.051 657.598 465.628 606.349 466.834C612.379 460.385 613.502 459.165 620.831 454.143Z"/><path fill="#658BBC" d="M331.586 562.033C376.917 511.123 429.568 467.239 487.811 431.82C572.262 379.479 663.277 372.051 757.584 403.461C793.243 415.337 825.694 434.459 861.469 445.343C881.547 451.451 903.202 455.599 923.548 460.972C961.813 469.496 1018.62 482.784 1054.06 460.826C1061.07 459.742 1067.76 455.163 1073.88 451.487C1069.84 455.521 1065.84 459.593 1061.64 463.457C1026.19 484.763 994.46 480.432 954.44 474.77C916.686 468.987 890.199 460.824 854.451 451.165C792.609 429.592 751.114 402.067 683.762 394.347C674.279 399.319 548.965 415.922 528.042 419.086L525.96 417.579C500.05 428.48 481.887 442.538 459.359 458.333C425.387 482.152 394.301 507.386 364.284 536.1C358.292 541.832 333.282 563.075 334.308 570.311L332.66 572.532L331.672 571.864C330.46 567.843 330.964 566.144 331.586 562.033Z"/><path fill="#7AA2D3" d="M525.96 417.579C576.028 394.415 629.45 389.175 683.762 394.347C674.279 399.319 548.965 415.922 528.042 419.086L525.96 417.579Z"/><defs><linearGradient id="gradient_4" gradientUnits="userSpaceOnUse" x1="874.901" y1="610.70581" x2="852.6228" y2="493.18475"><stop offset="0" stop-color="#0F2C65"/><stop offset="1" stop-color="#305A9B"/></linearGradient></defs><path fill="url(#gradient_4)" d="M954.44 474.77C994.46 480.432 1026.19 484.763 1061.64 463.457C1060.16 478.548 1050 485.766 1056.37 496.703C1037.58 545.809 997.096 573.649 951.062 593.587C867.902 629.605 795.884 593.54 716.003 570.989C702.212 567.005 688.243 563.663 674.142 560.977C669.995 560.214 652.11 558.133 650.365 556.6C652.369 554.715 660.154 547.235 661.897 546.962C678.77 544.316 710.916 545.728 728.376 546.285C736.678 546.55 744.968 547.129 753.227 548.02C764.425 549.239 776.038 552.166 787.304 551.055C799.042 549.899 800.894 545.207 801.211 534.57C801.693 518.348 795.08 516.055 782.758 508.482C786.772 506.141 944.627 475.641 954.44 474.77Z"/><path fill="#153061" d="M529.225 531.979C549.19 528.18 565.865 530.923 584.74 538.488C596.615 545.246 612.108 552.56 620.9 562.985C624.98 567.823 633.882 584.562 637.99 587.898C639.81 586.691 639.138 587.246 640.252 585.082C641.652 586.553 642.28 587.364 643.502 588.994C649.636 591.464 674.627 588.58 669.128 601.071C667.352 601.984 665.59 602.924 663.842 603.89C659.255 606.41 658.257 611.338 656.98 615.428C650.179 637.22 658.887 642.239 670.585 658.112C671.672 659.588 673.525 669.771 674.829 673.182C682.739 679.954 687.141 683.579 697.988 683.513C704.446 683.473 715.869 676.851 719.706 681.987C729.103 694.565 711.53 709.256 724.155 724.175C732.35 733.86 752.097 733.547 752.35 746.124C748.555 754.972 741.212 757.835 735.556 765.319C735.55 772.31 735.577 778.02 736.125 785.023C741.502 791.874 747.657 796.952 749.08 805.374C748.511 807.436 748.147 809.592 745.621 810.515C735.803 814.106 729.693 815.278 720.505 821.125C718.738 827.361 714.028 838.288 716.915 842.374C718.802 845.044 720.047 853.256 719.45 856.682C712.669 866.867 693.269 858.047 680.165 862.65L678.612 860.511C647.501 876.204 618.655 879.549 586.034 864.028C581.123 861.691 573.592 855.967 569.645 855.837C563 858.276 550.218 835.256 546.884 834.613C544.98 836.6 544.272 837.672 541.677 838.658L540.181 836.875C555.805 815.098 560.593 833.423 571.175 842.36C651.343 910.06 751.014 823.652 706.187 732.633C689.142 698.024 665.841 699.789 637.775 683.165L636.54 682.421C625.365 667.464 666.742 617.364 604.884 566.633L605.755 564.447C601.204 554.382 592.509 557.24 591.578 548.806C582.806 543.24 568.295 539.561 557.715 538.01C521.973 532.77 489.369 556.445 470.184 584.601C467.476 588.574 460.854 605.404 459.092 606.602L457.157 606.216C454.819 610.753 456.414 609.306 450.581 611.225C449.728 601.489 455.95 593.414 459.97 584.914C475.48 552.127 496.015 542.29 529.225 531.979Z"/><path fill="#2E4979" d="M637.944 677.237C639.114 677.452 638.437 677.491 639.86 676.553L640.594 670.822C640.901 674.773 640.228 676.023 642.551 678.159L643.956 677.952C657.804 675.972 671.745 686.506 682.833 694.397C726.759 725.658 740.417 789.878 707.599 833.912C699.921 844.213 689.226 852.928 678.612 860.511C647.501 876.204 618.655 879.549 586.034 864.028C581.123 861.691 573.592 855.967 569.645 855.837C563 858.276 550.218 835.256 546.884 834.613C544.98 836.6 544.272 837.672 541.677 838.658L540.181 836.875C555.805 815.098 560.593 833.423 571.175 842.36C651.343 910.06 751.014 823.652 706.187 732.633C689.142 698.024 665.841 699.789 637.775 683.165L636.54 682.421L637.944 677.237Z"/><path fill="#456CA7" d="M637.944 677.237C636.182 672.615 642.055 652.822 643.267 645.805C644.89 636.406 639.319 610.766 641.058 605.218C650.131 625.415 645.569 650.267 640.594 670.822L639.86 676.553C638.437 677.491 639.114 677.452 637.944 677.237Z"/><path fill="#2E4979" d="M450.581 611.225C456.414 609.306 454.819 610.753 457.157 606.216L459.092 606.602C460.854 605.404 467.476 588.574 470.184 584.601C489.369 556.445 521.973 532.77 557.715 538.01C568.295 539.561 582.806 543.24 591.578 548.806C592.509 557.24 601.204 554.382 605.755 564.447L604.884 566.633C580.77 551.132 562.085 543.035 532.85 549.371C511.04 554.133 492.017 567.368 479.97 586.162C473.103 596.98 466.788 613.7 464.757 627.594C462.735 641.433 470.388 669.928 471.133 683.162C471.194 684.246 439.042 698.122 434.489 700.884C423.669 707.45 417.806 710.983 408.458 720.534C375.215 763.825 378.178 816.866 423.121 850.6C425.149 852.114 427.231 853.555 429.362 854.919C466.453 875.365 506.097 868.418 536.835 840.401C537.958 840.96 537.953 841.15 538.894 842.052C538.161 845.902 525.742 855.401 522.302 857.81C501.58 872.155 475.989 877.636 451.209 873.035C425.34 868.484 402.372 853.758 387.442 832.148C372.925 810.742 367.599 784.408 372.657 759.044C378.63 729.03 394.99 706.24 420.087 689.33C434.811 682.006 442.41 679.415 458.129 676.146C451.395 659.547 444.28 631.23 450.956 613.57C451.429 612.318 451.295 613.16 450.581 611.225Z"/><defs><linearGradient id="gradient_5" gradientUnits="userSpaceOnUse" x1="376.94922" y1="717.73389" x2="516.45251" y2="917.47754"><stop offset="0" stop-color="#0A214B"/><stop offset="1" stop-color="#20417E"/></linearGradient></defs><path fill="url(#gradient_5)" d="M376.644 718.597C377.885 713.39 380.173 714.137 380.139 708.408C382.493 710.345 378.856 715.19 382.84 720.069C385.118 719.621 386.387 719.353 387.954 717.454C397.035 706.448 405.406 695.722 418.47 688.739L420.087 689.33C394.99 706.24 378.63 729.03 372.657 759.044C367.599 784.408 372.925 810.742 387.442 832.148C402.372 853.758 425.34 868.484 451.209 873.035C475.989 877.636 501.58 872.155 522.302 857.81C525.742 855.401 538.161 845.902 538.894 842.052C537.953 841.15 537.958 840.96 536.835 840.401C538.025 838.89 538.82 838.199 540.181 836.875L541.677 838.658C544.272 837.672 544.98 836.6 546.884 834.613C550.218 835.256 563 858.276 569.645 855.837C571.936 863.114 582.393 860.874 585.746 875.056C579.563 869.526 573.796 866.94 566.258 863.616C558.039 865.33 554.833 866.62 546.992 869.747C502.664 855.628 507.496 896.258 495.054 900.851C488.263 900.576 481.076 888.315 473.676 883.927C462.154 883.232 455.727 883.866 447.291 892.506C443.3 896.594 438.483 900.668 432.606 898.044C424.327 894.346 424.492 880.831 420.494 873.611C411.958 858.197 393.654 870.409 380.836 866.768C372.137 864.194 378.69 846.323 377.615 839.566C376.985 835.604 375.359 832.737 373.496 829.011L373.591 832.64C372.52 832.557 371.461 832.481 370.619 831.721C364.107 825.841 355.215 824.996 346.07 822.508C343.849 818.716 343.637 816.354 343.359 812.089C338.072 792.469 354.605 798.41 356.724 775.195C344.013 760.819 333.712 751.003 346.675 731.78C352.6 728.776 359.588 727.566 366.115 726.096C369.423 723.32 371.529 720.715 374.34 717.485L376.644 718.597Z"/><path fill="#2E4979" d="M366.115 726.096C369.423 723.32 371.529 720.715 374.34 717.485L376.644 718.597C374.07 725.745 373.231 729.068 365.757 732.118C347.367 739.623 332.238 742.418 357.092 759.598C371.53 796.762 343.02 790.884 344.977 809.102L343.359 812.089C338.072 792.469 354.605 798.41 356.724 775.195C344.013 760.819 333.712 751.003 346.675 731.78C352.6 728.776 359.588 727.566 366.115 726.096Z"/><defs><linearGradient id="gradient_6" gradientUnits="userSpaceOnUse" x1="358.77142" y1="826.1991" x2="362.99756" y2="818.37769"><stop offset="0" stop-color="#0B2450"/><stop offset="1" stop-color="#385383"/></linearGradient></defs><path fill="url(#gradient_6)" d="M344.977 809.102C351.039 817.204 357.576 816.881 367.992 820.001L373.496 829.011L373.591 832.64C372.52 832.557 371.461 832.481 370.619 831.721C364.107 825.841 355.215 824.996 346.07 822.508C343.849 818.716 343.637 816.354 343.359 812.089L344.977 809.102Z"/><defs><linearGradient id="gradient_7" gradientUnits="userSpaceOnUse" x1="625.72046" y1="855.87433" x2="628.44562" y2="900.96741"><stop offset="0" stop-color="#193061"/><stop offset="1" stop-color="#2B57A0"/></linearGradient></defs><path fill="url(#gradient_7)" d="M569.645 855.837C573.592 855.967 581.123 861.691 586.034 864.028C618.655 879.549 647.501 876.204 678.612 860.511L680.165 862.65C677.941 863.976 673.027 866.442 672.55 868.717C670.716 877.468 670.784 895.649 663.751 901.812C653.384 903.706 648.115 891.814 642.337 885.617C631.466 875.92 605.039 890.173 591.005 890.2C590.243 885.628 587.543 879.529 585.746 875.056C582.393 860.874 571.936 863.114 569.645 855.837Z"/><path fill="#456CA7" d="M539.853 523.844C560.877 524.527 559.569 517.04 576.344 508.065C576.951 507.74 581.578 509.69 581.948 510.681C594.371 529.672 584.51 537.345 613.987 541.819C599.167 546.634 595.267 540.002 584.74 538.488C565.865 530.923 549.19 528.18 529.225 531.979L523.722 531.177C531.388 529.53 534.731 529.695 539.853 523.844Z"/><path fill="#658BBC" d="M492.315 541.291C508.663 530.161 503.832 516.421 515.233 509.489C523.387 508.944 525.927 518.117 538.433 523.266L539.853 523.844C534.731 529.695 531.388 529.53 523.722 531.177C517.079 533.885 498.728 541.86 492.315 541.291Z"/><path fill="#38598F" d="M591.005 890.2C605.039 890.173 631.466 875.92 642.337 885.617C634.443 885.065 619.443 884.372 613.169 890.379C608.891 894.473 606.084 899.206 599.246 899.451C594.194 899.632 591.614 894.299 591.005 890.2Z"/><path fill="#456CA7" d="M455.973 551.796C453.726 532.038 473.67 541.718 485.055 543.606C477.078 547.245 467.188 544.856 461.076 550.608C460.383 554.253 460.96 555.1 458.785 556.691L455.973 551.796Z"/><defs><linearGradient id="gradient_8" gradientUnits="userSpaceOnUse" x1="436.76779" y1="909.42993" x2="473.90814" y2="1104.7507"><stop offset="0" stop-color="#15346B"/><stop offset="1" stop-color="#3160AB"/></linearGradient></defs><path fill="url(#gradient_8)" d="M100.353 972.129C114.68 943.744 140.971 916.793 168.653 901.829C263.55 850.53 325.47 883.254 417.649 909.058C441.364 914.906 464.762 920.694 488.867 924.743C491.084 925.115 492.655 926.947 493.993 928.609C498.346 948.891 407.144 938.779 393.499 938.894C376.948 939.033 338.948 928.723 344.482 958.612C345.518 963.84 351.905 972.617 356.468 975.763C432.056 1027.88 532.761 1033.29 618.594 1007.7C670.755 992.155 701.352 969.583 747.423 943.951C765.674 933.611 782.684 914.066 805.073 914.861C808.927 914.97 810.692 912.626 814.171 913.976C815.066 933.933 715.809 1012.13 695.541 1024.5C688.083 1030.17 662.238 1047.99 654.134 1051.51C645.545 1057.49 634.696 1062.87 625.288 1067.64C612.594 1072.88 587.605 1081.32 576.938 1086.57C569.476 1088.39 560.792 1090.81 553.256 1091.55C534.612 1094.64 464.055 1097.83 445.994 1092.7C444.879 1092.27 436.158 1091.39 433.75 1090.9C423.694 1088.9 413.788 1086.2 404.1 1082.84C381.549 1074.79 357.191 1062.16 334.756 1053.9C309.999 1045.44 286.144 1036.49 260.615 1029.95C213.557 1017.88 159.082 1002.47 110.381 1012.92C100.174 1015.11 90.3489 1020.84 81.4959 1025.8C82.9757 1010.04 91.0062 985.102 100.353 972.129Z"/><path fill="#153061" d="M100.353 972.129C114.68 943.744 140.971 916.793 168.653 901.829C263.55 850.53 325.47 883.254 417.649 909.058L422.14 911.911L421.893 913.13C416.915 914.47 414.506 913.829 410.069 914.692L271.582 941.664L156.536 963.617C141.483 966.47 115.814 972.269 101.864 973.885L100.353 972.129Z"/><path fill="#456CA7" d="M576.938 1086.57C576.999 1081.07 577.741 1080.28 574.307 1075.65C581.381 1063.75 613.205 1065.08 625.288 1067.64C612.594 1072.88 587.605 1081.32 576.938 1086.57Z"/><path fill="#456CA7" d="M445.994 1092.7C453.558 1089.17 474.964 1090.98 483.733 1089.99C487.397 1089.58 490.51 1086.32 495.274 1086.49C501.387 1092.14 502.797 1092.23 510.302 1088.07C513.983 1086.03 532.457 1090.69 537.601 1090.8C542.836 1090.92 548.407 1091.04 553.256 1091.55C534.612 1094.64 464.055 1097.83 445.994 1092.7Z"/><path fill="#456CA7" d="M654.134 1051.51C658.74 1039.85 684.247 1025.02 695.541 1024.5C688.083 1030.17 662.238 1047.99 654.134 1051.51Z"/><defs><linearGradient id="gradient_9" gradientUnits="userSpaceOnUse" x1="1076.7279" y1="651.63995" x2="1148.8733" y2="896.64948"><stop offset="0" stop-color="#021437"/><stop offset="1" stop-color="#2C579E"/></linearGradient></defs><path fill="url(#gradient_9)" d="M911.654 901.1L911.93 900.432C923.282 872.253 973.62 663.921 979.952 659.466C989.717 657.394 1083.81 654.721 1083.49 663.128C1082.67 684.043 1072.87 715.293 1067.74 736.72C1065.86 745.17 1061.66 754.455 1061.32 761.769L1062.24 762.381C1068.8 759.689 1091.82 743.799 1098.51 739.325C1127.3 720.115 1155.88 700.585 1184.24 680.74C1190.66 676.258 1213.13 659.079 1219.05 658.62C1255.53 655.794 1293.12 659.241 1329.79 657.287C1335.59 656.978 1344.13 656.158 1348.1 660.835C1347.76 670.572 1315.03 687.955 1306.49 693.773C1288.53 706.012 1270.01 718.227 1251.37 729.427C1229.98 743.27 1180.57 770.672 1163.32 787.033L1163.82 787.959C1170.31 799.582 1195.56 827.295 1205.41 838.322L1255.82 895.514C1262.9 903.555 1281.6 921.003 1280.84 931.025C1276.24 938.937 1187.88 933.123 1173.63 934.914C1155.73 937.165 1147.74 920.403 1137.85 907.779C1124.89 891.23 1111.51 875.006 1097.75 859.12C1094.41 855.212 1080.95 837.174 1076.04 839.017C1061.89 844.323 1037.56 854.101 1032.48 869.964C1024.83 893.862 1024.74 912.263 1011.32 934.929C998.023 935.303 914.932 937.3 909.601 932.479C907.359 930.451 906.771 927.638 906.885 924.731C906.969 922.571 907.446 920.415 907.888 918.304C908.335 913.377 910.394 906.127 911.654 901.1Z"/><path fill="#38598F" d="M911.654 901.1L911.93 900.432C923.282 872.253 973.62 663.921 979.952 659.466C989.717 657.394 1083.81 654.721 1083.49 663.128C1082.67 684.043 1072.87 715.293 1067.74 736.72C1065.86 745.17 1061.66 754.455 1061.32 761.769L1062.24 762.381C1068.8 759.689 1091.82 743.799 1098.51 739.325C1127.3 720.115 1155.88 700.585 1184.24 680.74C1190.66 676.258 1213.13 659.079 1219.05 658.62C1255.53 655.794 1293.12 659.241 1329.79 657.287C1335.59 656.978 1344.13 656.158 1348.1 660.835C1347.76 670.572 1315.03 687.955 1306.49 693.773C1288.53 706.012 1270.01 718.227 1251.37 729.427C1229.98 743.27 1180.57 770.672 1163.32 787.033L1163.82 787.959C1170.31 799.582 1195.56 827.295 1205.41 838.322L1255.82 895.514C1262.9 903.555 1281.6 921.003 1280.84 931.025C1276.24 938.937 1187.88 933.123 1173.63 934.914C1155.73 937.165 1147.74 920.403 1137.85 907.779C1124.89 891.23 1111.51 875.006 1097.75 859.12C1094.41 855.212 1080.95 837.174 1076.04 839.017C1061.89 844.323 1037.56 854.101 1032.48 869.964C1024.83 893.862 1024.74 912.263 1011.32 934.929C998.023 935.303 914.932 937.3 909.601 932.479C907.359 930.451 906.771 927.638 906.885 924.731C906.969 922.571 907.446 920.415 907.888 918.304C908.403 918.422 908.923 918.524 909.435 918.658C920.444 921.552 988.517 922.356 998.968 919.366C1000.98 918.792 1003.61 918.091 1004.94 916.338C1015.32 902.671 1016.68 866.394 1027.63 847.618L1028.32 846.44C1040.78 839.159 1065.32 828.718 1079 822.449C1096.48 840.303 1111.75 863.642 1128.29 880.212C1128.5 880.344 1130.77 881.811 1131.02 881.85C1139.77 883.262 1177.05 878.499 1184.11 876.28L1182.77 873.496C1185.85 871.196 1192.65 870.404 1196.45 870.235C1206.28 878.488 1204.49 872.75 1216.43 873.515L1216.92 875.005L1213.82 877.66L1213.97 878.625C1216.57 878.395 1219.35 878.51 1221.38 877.094L1221.39 873.149C1210.6 862.779 1199.18 847.378 1189.52 835.571C1177.11 820.406 1155.17 800.096 1148.8 781.89C1169.49 759.868 1233.31 724.917 1260.29 706.581C1273.38 697.686 1292.26 686.771 1306.09 677.704C1308.56 676.08 1324.94 669.569 1328.76 667.917C1290.49 667.327 1251.31 667.621 1212.97 667.485C1200.15 675.16 1184.06 686.86 1171.41 695.47L1098.59 745.194C1085.99 753.942 1069.36 765.985 1055.9 773.662C1053.28 775.155 1050.42 774.095 1047.99 773.024C1043.85 764.849 1052.24 746.082 1054.4 737.436C1059.95 715.136 1068.73 692.078 1071.1 669.161C1057.36 667.242 1033.31 667.83 1019.08 668.082C1013.98 671.014 985.18 679.541 979.192 679.941C970.458 711.919 961.472 743.828 952.234 775.664C945.883 797.339 938.199 814.932 938.803 838.046C938.831 839.126 933.477 856.351 932.848 857.607C928.471 866.342 920.324 912.093 914.644 916.51L913.113 915.979C910.639 910.283 913.447 906.93 911.654 901.1Z"/><defs><linearGradient id="gradient_10" gradientUnits="userSpaceOnUse" x1="1186.2723" y1="867.29321" x2="1207.6381" y2="935.42126"><stop offset="0" stop-color="#2D5BA0"/><stop offset="1" stop-color="#558BC6"/></linearGradient></defs><path fill="url(#gradient_10)" d="M1128.29 880.212C1128.5 880.344 1130.77 881.811 1131.02 881.85C1139.77 883.262 1177.05 878.499 1184.11 876.28L1182.77 873.496C1185.85 871.196 1192.65 870.404 1196.45 870.235C1206.28 878.488 1204.49 872.75 1216.43 873.515L1216.92 875.005L1213.82 877.66L1213.97 878.625C1216.57 878.395 1219.35 878.51 1221.38 877.094L1221.39 873.149C1233.32 884.136 1252.82 907.855 1264.19 921.007C1236.34 919.968 1209.4 920.125 1181.53 921.574C1173.4 921.997 1166.9 921.735 1158.88 920.339C1154.33 915.071 1131.06 885.176 1128.29 880.212Z"/><path fill="#0D2651" d="M982.943 667.915C994.989 667.893 1007.03 667.949 1019.08 668.082C1013.98 671.014 985.18 679.541 979.192 679.941L982.943 667.915Z"/><defs><linearGradient id="gradient_11" gradientUnits="userSpaceOnUse" x1="1471.2159" y1="682.17389" x2="1534.4119" y2="852.63776"><stop offset="0" stop-color="#173773"/><stop offset="1" stop-color="#4C83CB"/></linearGradient></defs><path fill="url(#gradient_11)" d="M1475.89 655.029C1546.15 641.14 1637.71 652.552 1697.45 693.921C1703.15 695.631 1710 706.761 1704.29 710.676C1680.72 726.801 1652.39 741.992 1626.73 754.622C1623.75 756.089 1587.26 736.493 1580.83 733.482C1523.63 706.7 1419.36 734.003 1414.67 806.541C1410.78 866.805 1506.3 887.26 1549.71 860.482C1554.44 852.15 1555.98 845.609 1559.27 836.759C1559.91 833.529 1560.59 830.309 1561.33 827.101C1563.87 816.885 1566.6 797.062 1571.93 789.501C1581.61 782.774 1658.89 782.728 1665.45 788.35C1666.21 793.268 1664.56 798.34 1663.43 803.331C1662.58 807.325 1660.92 816.145 1659.78 819.756C1658.6 826.884 1655.24 841.75 1653.49 848.322C1649.03 865.077 1643.94 895.236 1637.73 909.563C1634.03 918.1 1564.07 931.986 1555.36 933.361C1469.51 946.908 1327.93 947.725 1308.26 836.817C1303.17 808.154 1313.03 762.888 1330.33 738.763C1331.97 735.199 1336.8 729.667 1339.38 726.677C1368.63 690.673 1404.94 672.174 1448.93 660.195C1457.98 657.72 1466.64 656.352 1475.89 655.029Z"/><defs><linearGradient id="gradient_12" gradientUnits="userSpaceOnUse" x1="1496.8539" y1="812.315" x2="1513.5541" y2="922.60992"><stop offset="0" stop-color="#4B7EBE"/><stop offset="1" stop-color="#689DD7"/></linearGradient></defs><path fill="url(#gradient_12)" d="M1659.78 819.756C1658.6 826.884 1655.24 841.75 1653.49 848.322C1649.03 865.077 1643.94 895.236 1637.73 909.563C1634.03 918.1 1564.07 931.986 1555.36 933.361C1469.51 946.908 1327.93 947.725 1308.26 836.817C1303.17 808.154 1313.03 762.888 1330.33 738.763C1331.99 741.474 1333.93 744.997 1333.17 748.332C1331.54 755.51 1323.16 766.588 1321.14 772.803C1311.54 802.308 1309.41 835.785 1325.34 863.576C1329.39 870.649 1340.79 886.597 1347.75 889.372C1349.88 888.106 1371.82 886.154 1376.37 885.364C1384.45 883.963 1398.97 884.9 1407.23 886.349C1407.59 886.961 1408.34 888.281 1408.79 888.783C1411.54 891.797 1444.42 881.33 1450.29 880.245C1455.27 879.326 1460.08 879.639 1464.98 878.982C1467.43 878.653 1468.12 878.048 1469.63 876.168C1464.49 876.121 1456.93 873.92 1452.2 871.93L1452.12 870.633C1486.7 879.511 1522.71 882.063 1555.28 864.591C1557.53 856.774 1559.74 844.813 1559.27 836.759C1559.91 833.529 1560.59 830.309 1561.33 827.101C1563.87 816.885 1566.6 797.062 1571.93 789.501C1581.61 782.774 1658.89 782.728 1665.45 788.35C1666.21 793.268 1664.56 798.34 1663.43 803.331C1662.58 807.325 1660.92 816.145 1659.78 819.756Z"/><path fill="#2E4979" d="M1659.78 819.756C1658.6 826.884 1655.24 841.75 1653.49 848.322C1649.03 865.077 1643.94 895.236 1637.73 909.563C1634.03 918.1 1564.07 931.986 1555.36 933.361C1469.51 946.908 1327.93 947.725 1308.26 836.817C1303.17 808.154 1313.03 762.888 1330.33 738.763C1331.99 741.474 1333.93 744.997 1333.17 748.332C1331.54 755.51 1323.16 766.588 1321.14 772.803C1311.54 802.308 1309.41 835.785 1325.34 863.576C1329.39 870.649 1340.79 886.597 1347.75 889.372C1362.51 903.673 1392.24 915.326 1412.17 919.107C1485.12 932.954 1562.46 922.009 1632.36 898.939C1635.84 885.254 1641.37 865.413 1643.77 851.976C1648.09 827.769 1643.77 817.986 1655.56 794.383C1636.96 790.804 1625.5 794.183 1607.42 795.964C1605.65 796.138 1595.27 795.134 1592.94 794.91C1589.45 794.791 1585.87 794.183 1582.98 795.793C1582.24 797.604 1582.28 796.693 1582.83 798.526C1576.92 804.027 1575.81 812.473 1575.55 820.027L1575.5 821.618L1574.54 821.657C1567.71 821.972 1565.46 821.596 1561.33 827.101C1563.87 816.885 1566.6 797.062 1571.93 789.501C1581.61 782.774 1658.89 782.728 1665.45 788.35C1666.21 793.268 1664.56 798.34 1663.43 803.331C1662.58 807.325 1660.92 816.145 1659.78 819.756Z"/><path fill="#456CA7" d="M1582.83 798.526C1582.28 796.693 1582.24 797.604 1582.98 795.793C1585.87 794.183 1589.45 794.791 1592.94 794.91L1596.08 797.145L1595.69 798.483C1592.44 799.67 1586.02 799.399 1582.83 798.526Z"/><path fill="#2E4979" d="M1475.89 655.029C1546.15 641.14 1637.71 652.552 1697.45 693.921C1703.15 695.631 1710 706.761 1704.29 710.676C1680.72 726.801 1652.39 741.992 1626.73 754.622C1623.75 756.089 1587.26 736.493 1580.83 733.482C1523.63 706.7 1419.36 734.003 1414.67 806.541C1410.78 866.805 1506.3 887.26 1549.71 860.482C1554.44 852.15 1555.98 845.609 1559.27 836.759C1559.74 844.813 1557.53 856.774 1555.28 864.591C1522.71 882.063 1486.7 879.511 1452.12 870.633C1448.86 869.255 1445.62 867.827 1442.4 866.349C1421.33 856.475 1405.34 833.463 1405.61 809.877C1406.35 745.353 1481.25 702.874 1539.93 708.746C1548.18 709.572 1556.7 709.786 1564.77 712.267C1585.7 719.89 1607.12 730.584 1627 740.546C1652.38 730.765 1674.27 707.234 1701.63 704.228C1693.89 704.541 1680.47 693.894 1673.09 689.843C1663.68 684.677 1654.29 680.665 1644.8 675.883C1643.14 675.508 1634.9 672.464 1632.87 671.757C1624.62 670.756 1610.16 666.145 1601.15 664.471C1576.2 659.832 1540.92 655.687 1515.79 658.876C1504.2 658.907 1476.1 661.27 1464.96 663.51C1460.7 660.498 1453.95 660.374 1448.93 660.195C1457.98 657.72 1466.64 656.352 1475.89 655.029Z"/><defs><linearGradient id="gradient_13" gradientUnits="userSpaceOnUse" x1="1550.4562" y1="668.02368" x2="1550.6307" y2="653.98297"><stop offset="0" stop-color="#516B99"/><stop offset="1" stop-color="#6782AE"/></linearGradient></defs><path fill="url(#gradient_13)" d="M1475.89 655.029L1477.17 655.132C1488.76 655.969 1510.28 653.135 1523.16 652.781C1563.75 651.56 1604.26 657.147 1643.01 669.311C1639.56 670.242 1636.4 671.175 1632.87 671.757C1624.62 670.756 1610.16 666.145 1601.15 664.471C1576.2 659.832 1540.92 655.687 1515.79 658.876C1504.2 658.907 1476.1 661.27 1464.96 663.51C1460.7 660.498 1453.95 660.374 1448.93 660.195C1457.98 657.72 1466.64 656.352 1475.89 655.029Z"/><path fill="#456CA7" d="M1644.8 675.883C1654.38 672.759 1660.42 676.221 1669.24 680.612C1676.9 684.43 1697.6 696.931 1701.56 703.237L1701.63 704.228C1693.89 704.541 1680.47 693.894 1673.09 689.843C1663.68 684.677 1654.29 680.665 1644.8 675.883Z"/><path fill="#153061" d="M1464.96 663.51C1476.1 661.27 1504.2 658.907 1515.79 658.876C1523.03 659.808 1529.17 659.462 1536.42 659.19C1509.94 666.435 1354.42 728.567 1346.99 728.269C1346.37 728.244 1345.83 727.851 1345.25 727.642L1341.82 730.176C1340.98 727.549 1341.65 728.753 1339.38 726.677C1368.63 690.673 1404.94 672.174 1448.93 660.195C1453.95 660.374 1460.7 660.498 1464.96 663.51Z"/><path fill="#658BBC" d="M1448.93 660.195C1453.95 660.374 1460.7 660.498 1464.96 663.51C1417.02 674.355 1377.86 689.167 1345.25 727.642L1341.82 730.176C1340.98 727.549 1341.65 728.753 1339.38 726.677C1368.63 690.673 1404.94 672.174 1448.93 660.195Z"/><defs><linearGradient id="gradient_14" gradientUnits="userSpaceOnUse" x1="1959.6155" y1="810.15692" x2="1720.5565" y2="783.32227"><stop offset="0" stop-color="#3160A4"/><stop offset="1" stop-color="#5B8CC9"/></linearGradient></defs><path fill="url(#gradient_14)" d="M1760.81 690.128C1762.2 683.863 1765.65 663.665 1770.86 660.459C1777.59 656.314 1863.4 656.591 1872.98 659.657C1874.19 660.043 1875.06 660.619 1876.1 661.328C1877.82 666.825 1858.04 730.095 1854.92 740.567C1849.61 762.08 1843.11 783.962 1837.39 805.419C1836.44 809.005 1831.35 827.757 1830.35 829.625L1830.18 830.768C1828.7 840.454 1822.96 850.454 1823.07 859.102C1825.02 861.352 1824.3 860.642 1827.72 861.5C1857.53 863.563 1884.55 862.145 1914.09 861.426C1930.4 861.029 1976.85 858.46 1992.13 863.102C1994.62 867.612 1986.06 901.313 1983.47 905.619C1981.61 913.927 1979.41 927.486 1972.43 932.464C1963.71 934.247 1705.14 934.313 1699.55 932.937C1696.72 932.241 1695.42 931.092 1693.88 928.709C1694.8 916.356 1712.79 858.189 1716.85 843.716C1730.02 796.837 1742.76 748.256 1757.28 701.868C1758.05 700.069 1760.14 692.392 1760.81 690.128Z"/><path fill="#153061" d="M1761.52 700.739C1762.58 696.276 1763.34 693.708 1764.84 689.375L1765.71 688.958C1768.63 695.839 1761.59 713.257 1761.9 719.947L1761.15 721.54C1766.84 735.234 1759.16 738.416 1752.12 747.623C1750.58 749.642 1753.69 757.277 1750.28 759.873C1747.78 771.476 1740.88 787.076 1737.05 799.081C1734.27 807.786 1730.7 833.223 1728.61 838.927C1723.27 853.512 1708.13 910.34 1701.46 919.399L1703.59 919.196C1709.5 920.421 1728.77 919.965 1735.73 919.941L1797.11 919.751L1909.88 920.043C1922.17 920.039 1962.1 920.384 1971.55 917.916C1982.37 916.247 1975.91 913.106 1983.47 905.619C1981.61 913.927 1979.41 927.486 1972.43 932.464C1963.71 934.247 1705.14 934.313 1699.55 932.937C1696.72 932.241 1695.42 931.092 1693.88 928.709C1694.8 916.356 1712.79 858.189 1716.85 843.716C1730.02 796.837 1742.76 748.256 1757.28 701.868C1757.36 706.449 1757.48 709.682 1756.95 714.293C1758.77 709.811 1760.08 705.35 1761.52 700.739Z"/><path fill="#7AA2D3" d="M1761.52 700.739C1762.58 696.276 1763.34 693.708 1764.84 689.375L1765.71 688.958C1768.63 695.839 1761.59 713.257 1761.9 719.947L1761.15 721.54C1766.84 735.234 1759.16 738.416 1752.12 747.623C1750.58 749.642 1753.69 757.277 1750.28 759.873C1747.78 771.476 1740.88 787.076 1737.05 799.081C1734.27 807.786 1730.7 833.223 1728.61 838.927C1723.27 853.512 1708.13 910.34 1701.46 919.399C1700.65 919.471 1700.65 919.144 1699.63 918.381C1699.88 913.156 1710.33 879.105 1712.3 871.987C1726.98 819.157 1743.58 767.544 1756.95 714.293C1758.77 709.811 1760.08 705.35 1761.52 700.739Z"/><path fill="#456CA7" d="M1761.52 700.739C1762.58 696.276 1763.34 693.708 1764.84 689.375L1765.71 688.958C1768.63 695.839 1761.59 713.257 1761.9 719.947L1761.15 721.54C1766.84 735.234 1759.16 738.416 1752.12 747.623C1750.58 749.642 1753.69 757.277 1750.28 759.873C1745.45 752.464 1762.58 713.69 1761.52 700.739Z"/><path fill="#38598F" d="M1992.13 863.102C1994.62 867.612 1986.06 901.313 1983.47 905.619C1975.91 913.106 1982.37 916.247 1971.55 917.916C1962.1 920.384 1922.17 920.039 1909.88 920.043L1797.11 919.751L1735.73 919.941C1728.77 919.965 1709.5 920.421 1703.59 919.196C1711.41 912.431 1800.43 918.298 1819.26 911.637C1833.09 906.743 1849.12 903.205 1864.02 896.871C1876.57 891.539 1899.11 889.49 1912.83 883.745C1921.13 880.962 1950.37 888.716 1953.89 878.414C1953.04 876.718 1952.59 875.791 1951.52 874.218L1950.74 873.092C1956.52 871.987 1958.72 871.734 1964.01 869.107C1971.21 868.806 1982.24 870.28 1987.35 868.658C1990.15 866.41 1990.23 866.213 1992.13 863.102Z"/><path fill="#2E4979" d="M1992.13 863.102C1994.62 867.612 1986.06 901.313 1983.47 905.619C1975.91 913.106 1982.37 916.247 1971.55 917.916C1973.7 906.729 1982.07 877.985 1987.35 868.658C1990.15 866.41 1990.23 866.213 1992.13 863.102Z"/><path fill="#658BBC" d="M1760.81 690.128C1762.2 683.863 1765.65 663.665 1770.86 660.459C1777.59 656.314 1863.4 656.591 1872.98 659.657C1874.19 660.043 1875.06 660.619 1876.1 661.328C1877.82 666.825 1858.04 730.095 1854.92 740.567C1849.61 762.08 1843.11 783.962 1837.39 805.419C1836.44 809.005 1831.35 827.757 1830.35 829.625L1830.18 830.768C1828.7 840.454 1822.96 850.454 1823.07 859.102C1825.02 861.352 1824.3 860.642 1827.72 861.5C1820.78 864.095 1823.05 865.643 1813.87 865.718C1813.38 860.182 1814.34 857.543 1815.72 852.173C1812.57 850.263 1812.5 850.179 1811.81 847.407C1818.16 838.858 1822.19 817.101 1826.01 806.158C1828.13 800.099 1837.95 772.487 1837.49 768.422L1834.3 768.762C1833.86 765.623 1842.1 747.35 1843.67 742.38C1851.62 717.187 1858.64 691.417 1865.74 666.005L1851.34 666.061C1840.05 666.48 1780.41 667.015 1773.22 664.355C1778.35 670.095 1777.16 677.258 1773.9 684.071L1771.72 685.797L1769.77 685.404C1768.36 682.325 1768.38 681.751 1767.87 678.333C1763.94 678.774 1764.06 685.715 1760.81 690.128Z"/><path fill="#2E4979" d="M1818.1 845.804L1841.71 762.092C1845.78 747.545 1850.31 729.478 1855.2 715.401C1858.19 722.059 1853.35 729.841 1854.92 740.567C1849.61 762.08 1843.11 783.962 1837.39 805.419C1836.44 809.005 1831.35 827.757 1830.35 829.625L1830.18 830.768C1828.7 840.454 1822.96 850.454 1823.07 859.102C1825.02 861.352 1824.3 860.642 1827.72 861.5C1820.78 864.095 1823.05 865.643 1813.87 865.718C1813.38 860.182 1814.34 857.543 1815.72 852.173L1818.1 845.804Z"/><path fill="#153061" d="M1818.1 845.804C1820.01 847.875 1818.93 847.426 1821.24 848.151C1825.9 842.735 1824.46 835.099 1830.35 829.625L1830.18 830.768C1828.7 840.454 1822.96 850.454 1823.07 859.102C1825.02 861.352 1824.3 860.642 1827.72 861.5C1820.78 864.095 1823.05 865.643 1813.87 865.718C1813.38 860.182 1814.34 857.543 1815.72 852.173L1818.1 845.804Z"/><path fill="#153061" d="M1760.81 690.128C1762.2 683.863 1765.65 663.665 1770.86 660.459C1777.59 656.314 1863.4 656.591 1872.98 659.657C1874.19 660.043 1875.06 660.619 1876.1 661.328C1877.82 666.825 1858.04 730.095 1854.92 740.567C1853.35 729.841 1858.19 722.059 1855.2 715.401C1855.45 709.201 1865.99 675.216 1868.97 667.229C1869.58 665.606 1872.41 662.496 1873.67 661.172C1860.73 660.601 1783.69 659.088 1773.58 662.28L1773.22 664.355C1778.35 670.095 1777.16 677.258 1773.9 684.071L1771.72 685.797L1769.77 685.404C1768.36 682.325 1768.38 681.751 1767.87 678.333C1763.94 678.774 1764.06 685.715 1760.81 690.128Z"/><path fill="#38598F" d="M1773.22 664.355C1780.41 667.015 1840.05 666.48 1851.34 666.061L1855.7 667.405C1852.02 671.752 1843.79 669.009 1849.81 682.188C1850.15 682.918 1850.49 683.645 1850.83 684.369L1840.77 685.983C1835.49 686.881 1823.84 692.296 1820.34 697.251L1820.34 698.764C1820.32 700.654 1820.21 701.559 1819.95 703.413C1813.96 709.04 1791.06 714.232 1782.36 714.376C1771.95 714.548 1767.91 709.73 1761.9 719.947C1761.59 713.257 1768.63 695.839 1765.71 688.958L1764.84 689.375C1763.34 693.708 1762.58 696.276 1761.52 700.739C1760.08 705.35 1758.77 709.811 1756.95 714.293C1757.48 709.682 1757.36 706.449 1757.28 701.868C1758.05 700.069 1760.14 692.392 1760.81 690.128C1764.06 685.715 1763.94 678.774 1767.87 678.333C1768.38 681.751 1768.36 682.325 1769.77 685.404L1771.72 685.797L1773.9 684.071C1777.16 677.258 1778.35 670.095 1773.22 664.355Z"/><path fill="#456CA7" d="M1827.72 861.5C1857.53 863.563 1884.55 862.145 1914.09 861.426C1930.4 861.029 1976.85 858.46 1992.13 863.102C1990.23 866.213 1990.15 866.41 1987.35 868.658C1982.24 870.28 1971.21 868.806 1964.01 869.107C1950.31 870.576 1818.7 871.044 1814.69 869.34L1813.87 865.718C1823.05 865.643 1820.78 864.095 1827.72 861.5Z"/><path fill="#153061" d="M2140.3 466.897C2120.26 435.709 2140.06 439.356 2166.38 438.057C2212.58 435.777 2245.94 447.402 2283.68 473.102C2299.13 465.217 2362.5 440.597 2375.32 453.278C2378.45 464.237 2352.98 480.5 2346.98 489.295C2325.57 520.701 2318.51 565.752 2327.81 602.532C2336.21 634.913 2372.25 666.399 2354.67 698.747C2346.75 713.326 2330.01 727.795 2314.02 731.628C2297.83 735.512 2272.15 738.91 2256.93 730.593C2243.31 723.148 2236.14 704.286 2225.34 696.216C2192.19 671.442 2161.33 673.948 2147.67 626.5C2149.24 616.986 2147.24 610.7 2149.78 598.936C2149.85 595.033 2158.71 577.757 2160.88 573.387C2169.11 570.382 2173.91 556.491 2190.3 551.799C2193.18 550.069 2193.09 550.235 2196.55 550.339C2199.96 552.339 2198.76 550.997 2200.5 554.296C2200.85 566.489 2149.46 600.267 2191.44 638.164C2211.97 656.706 2235.21 662.849 2254.24 682.028C2260.13 687.954 2269.24 708.774 2276.29 711.287C2283.36 705.354 2267.61 688.583 2271.51 679.032C2294.89 668.489 2306 710.033 2321.36 700.54C2340.64 688.624 2309.13 642.843 2304.42 627.225C2292.54 589.474 2290.03 557.955 2298.43 519.531C2299.44 514.973 2301.51 505.704 2301.71 501.476L2300.5 499.924C2294.07 499.273 2281.84 509.391 2276.56 513.362C2262.98 503.911 2213.43 476.108 2198.09 482.592L2198.64 487.333C2199.75 496.169 2196.24 499.845 2187.34 500.146C2176.73 500.504 2165.92 500.087 2155.34 500.828C2115.12 503.635 2076.08 515.578 2041.17 535.75C2006.32 555.998 1976.94 583.37 1947.19 610.016C1944.63 612.304 1941.69 613.163 1938.36 612.832C1928.38 600.906 1978.78 543.798 1988.1 534.335C1995.42 526.909 2007.31 517.311 2015.82 511.051C2042.97 490.904 2074.37 477.251 2107.62 471.143C2119.09 469.097 2129.25 468.511 2140.3 466.897Z"/><defs><linearGradient id="gradient_15" gradientUnits="userSpaceOnUse" x1="2144.8398" y1="445.02768" x2="2171.3567" y2="598.32745"><stop offset="0" stop-color="#22478B"/><stop offset="1" stop-color="#436DAD"/></linearGradient></defs><path fill="url(#gradient_15)" d="M2141.68 443.972C2179.76 442.36 2216.77 443.021 2251.98 459.544C2263.83 465.103 2271.65 473.355 2284.59 478.719C2295.97 473.986 2306 467.531 2316.99 463.369C2332.1 457.645 2351.05 457.389 2367.32 454.496C2360.85 462.459 2345.19 476.396 2342.08 480.537C2332.02 493.926 2319.95 533.815 2319.06 550.105C2319.73 551.431 2319.49 551.602 2320.4 552.027C2314.12 559.311 2324.13 577.914 2305.85 576.851C2305.95 561.412 2305.73 550.3 2307.37 534.887C2308.49 524.277 2315.21 496.371 2314.33 487.938C2313.71 485.771 2314.21 486.732 2312.49 485.221C2299.68 485.408 2287.17 505.572 2280.66 503.1C2281.35 501.057 2281.36 501.802 2281.18 499.803C2265.72 484.694 2204.7 460.189 2185.67 467.352L2185.04 469.251C2182.44 474.991 2188.25 484.19 2192.2 488.247C2123.35 485.165 2076.63 499.253 2019.83 538.754C2004.3 549.557 1989.18 561.612 1974.85 574.046C1965.15 582.459 1957 593.58 1947.23 601.843C1947.01 602.1 1945.11 603.442 1944.77 603.688L1944.1 602.542C1945.76 590.825 1970.73 558.709 1979.03 549.159C2023.65 497.828 2075.16 474.572 2141.43 468.713C2144.87 468.281 2147.47 468.46 2149.75 466.109C2153.66 458.705 2146.58 449.518 2141.68 443.972Z"/><path fill="#7AA2D3" d="M2141.43 468.713L2148.29 469.039L2148.46 469.726C2133.13 472.095 2119.2 473.081 2103.69 476.168C2037.26 489.382 1976.46 540.802 1947.23 601.843C1947.01 602.1 1945.11 603.442 1944.77 603.688L1944.1 602.542C1945.76 590.825 1970.73 558.709 1979.03 549.159C2023.65 497.828 2075.16 474.572 2141.43 468.713Z"/><path fill="#7AA2D3" d="M2316.43 628.179C2323.65 634.265 2329.57 635.478 2333.49 625.023C2337.75 632.358 2342.71 641.055 2347.03 648.011C2382.25 704.69 2317.55 735.155 2269.17 723.127C2257.2 720.152 2251.52 711.705 2246.27 701.79C2251.63 699.721 2255.41 698.084 2261.07 697.033C2264.22 703.357 2266.61 707.68 2270.33 713.683C2305.9 718.823 2276.83 689.325 2280.68 680.796C2292.1 680.278 2298.9 698.129 2314.38 704.03L2315.76 704.547C2358.95 696.333 2325.83 652.875 2316.92 629.505L2316.43 628.179Z"/><path fill="#456CA7" d="M2190.3 551.799C2193.26 551.887 2195.3 551.383 2197.22 552.952C2196.48 556.601 2193.56 560.268 2191.37 563.312C2178.52 581.147 2169.43 590.921 2172.6 613.723C2174.4 618.496 2175.86 622.593 2178.23 627.13L2177.13 629.894L2176.28 631.56C2172.31 632.369 2167.57 633.431 2163.58 632.444C2149.19 609.485 2160.97 581.459 2179.05 564.754C2182.37 561.688 2189.15 557.159 2191.15 554.196L2190.32 553.233L2190.3 551.799Z"/><path fill="#658BBC" d="M2177.13 629.894C2173 625.779 2171.06 620.488 2170.95 614.704L2172.6 613.723C2174.4 618.496 2175.86 622.593 2178.23 627.13L2177.13 629.894Z"/><path fill="#658BBC" d="M2320.4 552.027C2321.41 559.537 2321 567.171 2321.28 574.73C2321.93 592.113 2326.51 609.143 2333.49 625.023C2329.57 635.478 2323.65 634.265 2316.43 628.179C2310.56 619.458 2305.23 594.207 2304.2 583.348L2305.85 576.851C2324.13 577.914 2314.12 559.311 2320.4 552.027Z"/><path fill="#658BBC" d="M2178.23 627.13C2189.73 642.482 2197.92 646.969 2213.9 657.236C2211.35 663.867 2207.19 664.659 2200.54 667.642C2184.31 659.065 2168.92 649.411 2160.25 632.756L2163.58 632.444C2167.57 633.431 2172.31 632.369 2176.28 631.56L2177.13 629.894L2178.23 627.13Z"/><path fill="#658BBC" d="M2234.67 669.796C2247.61 679.242 2254.02 682.573 2261.07 697.033C2255.41 698.084 2251.63 699.721 2246.27 701.79C2238.73 690.747 2234.12 687.995 2223.22 680.674C2227.45 677.033 2225.37 673.518 2234.67 669.796Z"/><path fill="#7AA2D3" d="M2200.54 667.642C2207.19 664.659 2211.35 663.867 2213.9 657.236C2221.46 661.494 2227.42 664.934 2234.67 669.796C2225.37 673.518 2227.45 677.033 2223.22 680.674C2216.64 677.363 2207.12 671.476 2200.54 667.642Z"/><path fill="#7AA2D3" d="M2190.32 553.233L2191.15 554.196C2189.15 557.159 2182.37 561.688 2179.05 564.754C2160.97 581.459 2149.19 609.485 2163.58 632.444L2160.25 632.756C2159.63 631.587 2159.25 630.87 2158.76 629.63C2153.41 615.798 2153.8 600.405 2159.85 586.862C2165.19 575.048 2177.76 558.042 2190.32 553.233Z"/><path fill="#7AA2D3" d="M2314.33 487.938C2315.21 496.371 2308.49 524.277 2307.37 534.887C2305.73 550.3 2305.95 561.412 2305.85 576.851L2304.2 583.348C2302.14 556.291 2304.42 513.317 2314.33 487.938Z"/><path fill="#658BBC" d="M2192.2 488.247C2188.25 484.19 2182.44 474.991 2185.04 469.251C2187.92 474.545 2191.69 480.892 2193.37 486.533L2192.2 488.247Z"/><defs><linearGradient id="gradient_16" gradientUnits="userSpaceOnUse" x1="2377.5039" y1="939.96521" x2="2328.9312" y2="784.70874"><stop offset="0" stop-color="#153471"/><stop offset="1" stop-color="#598BC8"/></linearGradient></defs><path fill="url(#gradient_16)" d="M2270.4 829.505L2270.19 827.711C2261.04 824.13 2222.99 832.223 2217.16 820.964C2218.53 812.746 2227.6 810.355 2234.84 809.343C2277.14 803.423 2320.53 766.903 2364.48 776.465C2379.05 779.503 2391.81 788.206 2399.96 800.657C2407.93 813.062 2408.53 825.469 2403.75 839.096C2397.31 853.541 2394.18 855.602 2384 867.788C2384.46 890.57 2385.83 915.585 2381.06 937.794C2380.26 940.124 2377.93 947.419 2376.87 949.132C2356.64 992.678 2329.37 987.346 2289.91 994.075C2280.49 995.68 2267.6 1008.83 2253.49 1012.18C2238.79 1015.47 2223.82 1011.15 2215.62 997.954C2212.71 995.231 2211.78 992.393 2210.71 988.579C2206.74 974.029 2208.74 958.495 2216.26 945.426C2226.81 926.956 2251.97 913.883 2274.81 922.243C2277.84 923.35 2278.19 927.45 2278.66 930.33C2277.46 933.035 2276.11 935.898 2275.17 938.684C2265.45 954.701 2261.61 945.11 2248.84 951.428C2242.03 964.465 2244.63 966.478 2241.9 976.928C2243.04 978.404 2243.89 979.3 2245.14 980.654C2254.38 983.018 2273.97 970.445 2283.2 966.526C2295.34 961.369 2319.39 962.622 2327.5 953.433C2343 935.88 2331.24 903.692 2338.39 882.764C2343.68 865.888 2359.96 850.967 2359.74 832.629C2359.56 818.548 2345.22 812.414 2333.26 814.351C2325.7 815.575 2296.09 820.19 2291.93 825.101C2287.81 825.531 2271.92 829.607 2270.4 829.505ZM2381.26 918.015C2382.14 910.471 2384.53 872.633 2379.62 868.446C2379.44 884.844 2380.35 900.662 2380.23 917.547L2381.26 918.015Z"/><defs><linearGradient id="gradient_17" gradientUnits="userSpaceOnUse" x1="2299.801" y1="998.51678" x2="2289.2871" y2="922.92645"><stop offset="0" stop-color="#122653"/><stop offset="1" stop-color="#20437F"/></linearGradient></defs><path fill="url(#gradient_17)" d="M2215.62 997.954C2212.71 995.231 2211.78 992.393 2210.71 988.579C2206.74 974.029 2208.74 958.495 2216.26 945.426C2226.81 926.956 2251.97 913.883 2274.81 922.243C2277.84 923.35 2278.19 927.45 2278.66 930.33C2277.46 933.035 2276.11 935.898 2275.17 938.684C2265.45 954.701 2261.61 945.11 2248.84 951.428C2242.03 964.465 2244.63 966.478 2241.9 976.928C2239.64 974.011 2242.12 968.183 2239.94 964.582C2236.29 971.336 2237.27 986.663 2245.68 988.406C2262.09 991.804 2282.39 972.305 2297.86 968.563C2320.76 963.024 2337.23 967.68 2348.38 943.223L2349.5 945.116C2356.69 944.88 2369.22 943.76 2375.85 940.072C2378.55 938.569 2377.67 938.639 2381.06 937.794C2380.26 940.124 2377.93 947.419 2376.87 949.132C2356.64 992.678 2329.37 987.346 2289.91 994.075C2280.49 995.68 2267.6 1008.83 2253.49 1012.18C2238.79 1015.47 2223.82 1011.15 2215.62 997.954Z"/><path fill="#2E4979" d="M2215.62 997.954C2212.71 995.231 2211.78 992.393 2210.71 988.579C2206.74 974.029 2208.74 958.495 2216.26 945.426C2226.81 926.956 2251.97 913.883 2274.81 922.243C2277.84 923.35 2278.19 927.45 2278.66 930.33C2258.96 920.632 2235.79 928.581 2226.25 948.367C2221.74 957.701 2220.7 967.62 2219.58 977.803C2218.37 977.506 2217.43 977.237 2216.25 976.862C2212.43 983.996 2219.82 993.59 2223.62 999.467C2220.55 1000.03 2219.24 998.465 2215.62 997.954Z"/><path fill="#2E4979" d="M2245.63 1008.45C2267.5 1003.65 2268.78 995.322 2287.83 988.676C2310.42 982.121 2327.74 984.834 2349.65 974.583C2362.33 968.652 2373.18 947.175 2375.42 946.371L2376.87 949.132C2356.64 992.678 2329.37 987.346 2289.91 994.075C2280.49 995.68 2267.6 1008.83 2253.49 1012.18C2248.69 1011.77 2243.65 1011.13 2238.84 1010.6C2235.73 1008.72 2235.44 1008.54 2232.97 1005.94L2233.39 1004.88C2238 1005.01 2241.31 1006.73 2245.63 1008.45Z"/><path fill="#2E4979" d="M2248.84 951.428L2246.9 950.322C2248.67 942.771 2260.53 943.621 2266.2 941.471C2267.21 941.087 2271.57 936.278 2272.59 935.172L2274.25 935.588L2275.17 938.684C2265.45 954.701 2261.61 945.11 2248.84 951.428Z"/><path fill="#2E4979" d="M2270.4 829.505L2270.19 827.711C2261.04 824.13 2222.99 832.223 2217.16 820.964C2218.53 812.746 2227.6 810.355 2234.84 809.343C2277.14 803.423 2320.53 766.903 2364.48 776.465C2379.05 779.503 2391.81 788.206 2399.96 800.657C2407.93 813.062 2408.53 825.469 2403.75 839.096C2402.93 830.444 2405.96 822.912 2402.39 814.336L2401.99 814.885C2400.49 814.66 2399.07 809.537 2398.16 807.82C2369.75 754.424 2308.13 792.978 2270.36 806.283C2279.32 813.973 2280.41 811.589 2288.97 815.246C2325.21 809.94 2353.84 780.879 2376.49 829.376C2370.39 854.749 2356 862.084 2349.32 884.55C2343.94 902.637 2352.23 922.503 2348.38 943.223C2337.23 967.68 2320.76 963.024 2297.86 968.563C2282.39 972.305 2262.09 991.804 2245.68 988.406C2237.27 986.663 2236.29 971.336 2239.94 964.582C2242.12 968.183 2239.64 974.011 2241.9 976.928C2243.04 978.404 2243.89 979.3 2245.14 980.654C2254.38 983.018 2273.97 970.445 2283.2 966.526C2295.34 961.369 2319.39 962.622 2327.5 953.433C2343 935.88 2331.24 903.692 2338.39 882.764C2343.68 865.888 2359.96 850.967 2359.74 832.629C2359.56 818.548 2345.22 812.414 2333.26 814.351C2325.7 815.575 2296.09 820.19 2291.93 825.101C2287.81 825.531 2271.92 829.607 2270.4 829.505Z"/><path fill="#7AA2D3" d="M2229.67 817.055C2227.97 816.943 2228.71 817.261 2227.45 816.089C2231.31 813.266 2260.23 807.365 2267.94 804.194C2308.04 787.682 2382.77 750.358 2402.39 814.336L2401.99 814.885C2400.49 814.66 2399.07 809.537 2398.16 807.82C2369.75 754.424 2308.13 792.978 2270.36 806.283C2255.98 810.813 2244.46 813.92 2229.67 817.055Z"/><path fill="#658BBC" d="M2229.67 817.055C2244.46 813.92 2255.98 810.813 2270.36 806.283C2279.32 813.973 2280.41 811.589 2288.97 815.246C2275.13 816.635 2243.14 818.772 2229.67 817.055Z"/><path fill="#658BBC" fill-opacity="0.98823529" d="M2379.62 868.446C2384.53 872.633 2382.14 910.471 2381.26 918.015L2380.23 917.547C2380.35 900.662 2379.44 884.844 2379.62 868.446Z"/><path fill="#153061" d="M2270.4 829.505C2271.92 829.607 2287.81 825.531 2291.93 825.101C2283.22 851.025 2273.15 854.176 2257.13 874.613C2242.2 893.282 2230.35 921.452 2207.83 932.248C2181.54 944.741 2148.8 932.803 2121.53 933.057C2102.44 933.421 2060.59 950.227 2049.59 924.887C2039.1 900.71 2058.84 867.376 2083.03 857.575C2101.75 849.992 2122 849.166 2134.43 869.272C2135.81 871.492 2134.7 873.739 2133.8 875.883C2128.37 881.722 2079.98 879.358 2080.6 897.521C2080.69 899.968 2082.17 902.447 2083.82 904.183C2089.31 909.954 2161.31 909.638 2172.2 908.468C2185.3 907.059 2194.54 900.043 2202.53 889.93C2208.64 882.212 2213.99 873.814 2220.53 866.462C2233.12 852.307 2253.57 838.286 2270.4 829.505Z"/><path fill="#38598F" d="M2081.1 909.761C2085.6 909.353 2094.48 910.536 2099.57 910.595C2123.93 910.99 2148.51 911.525 2172.84 910.828C2209.42 909.779 2216.32 873.197 2241.28 854.787C2248.48 849.472 2280.36 828.354 2287.33 829.233L2287.84 830.999C2281.71 841.241 2261.1 867.14 2249.57 870.168C2248.75 870.379 2247.92 870.576 2247.09 870.759C2249.21 880.588 2240.31 885.492 2236.58 893.237C2227.85 911.383 2218.47 924.161 2197.35 927.421C2174.89 931.458 2152.27 925.062 2129.77 924.077C2118.15 923.568 2108.22 927.19 2097.01 928.66C2079.61 930.941 2062.38 936.238 2056.44 915.285C2056.87 907.8 2057.15 903.326 2058.55 896.024C2064.43 900.055 2066.56 901.063 2073.17 903.915C2074.46 899.631 2074.7 898.476 2077.11 894.756C2076.49 902.374 2074.64 904.813 2081.1 909.761Z"/><path fill="#456CA7" d="M2235.05 864.12C2247.07 852.041 2272.57 838.703 2287.84 830.999C2281.71 841.241 2261.1 867.14 2249.57 870.168C2248.75 870.379 2247.92 870.576 2247.09 870.759C2241.61 869.464 2239.14 867.519 2235.05 864.12Z"/><path fill="#7AA2D3" d="M2081.1 909.761C2085.6 909.353 2094.48 910.536 2099.57 910.595C2123.93 910.99 2148.51 911.525 2172.84 910.828C2209.42 909.779 2216.32 873.197 2241.28 854.787C2248.48 849.472 2280.36 828.354 2287.33 829.233L2287.84 830.999C2272.57 838.703 2247.07 852.041 2235.05 864.12C2206.18 893.182 2206.05 916.402 2155.2 913.93C2134.6 912.928 2111.94 913.124 2091.21 913.365C2088.37 913.398 2084.75 912.249 2082.09 911.28L2081.1 909.761Z"/><path fill="#456CA7" d="M2056.44 915.285C2045.29 870.144 2115.63 831.805 2131.5 871.196L2131.38 872.841C2127.68 873.752 2122.29 872.781 2118.2 872.685C2096.65 872.178 2089.08 878.197 2077.11 894.756C2074.7 898.476 2074.46 899.631 2073.17 903.915C2066.56 901.063 2064.43 900.055 2058.55 896.024C2057.15 903.326 2056.87 907.8 2056.44 915.285Z"/><path fill="#7AA2D3" d="M2056.44 915.285C2045.29 870.144 2115.63 831.805 2131.5 871.196L2126.54 866.579C2120.43 860.791 2112.26 857.673 2103.85 857.915C2082.14 858.497 2066.21 877.385 2058.55 896.024C2057.15 903.326 2056.87 907.8 2056.44 915.285Z"/><path fill="#2E4979" d="M2147.67 626.5C2146.38 619.438 2147.01 610.916 2145.49 605.968L2144.35 605.942C2089.03 713.469 2238.99 753.377 2176.76 855.713C2173.98 860.273 2169.71 864.15 2164.31 865.125L2162.6 863.696C2157.89 852.26 2161.28 837.334 2160.61 825.069C2159.65 807.403 2156.37 792.304 2147.53 777.035C2123.01 734.666 2092.74 714.504 2100.8 659.55C2105.69 626.22 2116.72 601.288 2143.16 578.689C2148.36 574.16 2154.01 572.461 2160.88 573.387C2158.71 577.757 2149.85 595.033 2149.78 598.936C2147.24 610.7 2149.24 616.986 2147.67 626.5Z"/><path fill="#7AA2D3" d="M2149.78 598.936C2147.64 591.753 2154.29 576.187 2160.88 573.387C2158.71 577.757 2149.85 595.033 2149.78 598.936Z"/><path fill="#658BBC" d="M2129.06 662.858C2134.66 704.462 2148.59 712.809 2169.66 745.981C2162.66 756.148 2157.61 748.183 2153.73 758.086C2153.3 759.174 2153.21 759.154 2152.45 760.264C2151.79 759.517 2149.96 758.617 2149.05 757.841C2131.88 743.056 2113.46 713.579 2110.61 690.975C2109.77 684.332 2113.13 683.267 2111.7 674.158L2111.5 672.988C2114.56 669.236 2111.65 669.421 2116.23 666.602L2118.76 667.336L2118.06 667.292C2120.39 668.794 2120.23 668.71 2122.95 669.231C2126.79 667.464 2126.85 666.745 2129.06 662.858Z"/><path fill="#658BBC" d="M2169.66 745.981C2177.5 759.722 2182.17 769.238 2185.92 784.924C2190.5 803.33 2191.22 825.407 2179.92 841.719C2178.21 844.183 2173.28 850.355 2170.61 851.384C2172.43 824.929 2172.97 804.291 2161.41 780.094C2157.9 773.101 2155.08 767.692 2152.45 760.264C2153.21 759.154 2153.3 759.174 2153.73 758.086C2157.61 748.183 2162.66 756.148 2169.66 745.981Z"/><path fill="#7AA2D3" d="M2169.66 745.981C2177.5 759.722 2182.17 769.238 2185.92 784.924L2185.47 792.152C2184.96 790.876 2184.6 789.592 2184.27 788.263C2179.77 785.379 2166.4 778.76 2161.41 780.094C2157.9 773.101 2155.08 767.692 2152.45 760.264C2153.21 759.154 2153.3 759.174 2153.73 758.086C2157.61 748.183 2162.66 756.148 2169.66 745.981Z"/><defs><linearGradient id="gradient_18" gradientUnits="userSpaceOnUse" x1="2145.3367" y1="633.73657" x2="2120.7625" y2="618.33826"><stop offset="0" stop-color="#577BB1"/><stop offset="1" stop-color="#365D9C"/></linearGradient></defs><path fill="url(#gradient_18)" d="M2111.5 672.988C2105.77 644.827 2127.32 594.764 2151.46 578.702C2134.86 610.856 2127.66 624.16 2129.06 662.858C2126.85 666.745 2126.79 667.464 2122.95 669.231C2120.23 668.71 2120.39 668.794 2118.06 667.292L2118.76 667.336L2116.23 666.602C2111.65 669.421 2114.56 669.236 2111.5 672.988Z"/><path fill="#153061" d="M523.722 531.177L529.225 531.979C496.015 542.29 475.48 552.127 459.97 584.914C455.95 593.414 449.728 601.489 450.581 611.225C451.295 613.16 451.429 612.318 450.956 613.57C444.28 631.23 451.395 659.547 458.129 676.146C442.41 679.415 434.811 682.006 420.087 689.33L418.47 688.739C405.406 695.722 397.035 706.448 387.954 717.454C386.387 719.353 385.118 719.621 382.84 720.069C378.856 715.19 382.493 710.345 380.139 708.408C380.173 714.137 377.885 713.39 376.644 718.597L374.34 717.485C376.132 707.155 372.023 701.924 366.959 693.482C370.33 687.485 372.095 685.538 376.68 680.289C380.287 676.083 381.89 675.473 386.723 672.838C403.839 674.24 407.354 682.598 422.326 668.071L423.351 654.218C425.649 651.536 429.358 647.365 430.868 644.569C442.786 622.5 425.254 622.693 419.781 607.343C417.503 600.956 425.046 591.148 428.841 585.491C455.182 577.987 455.154 578.386 450.189 552.125L455.973 551.796L458.785 556.691C460.96 555.1 460.383 554.253 461.076 550.608C467.188 544.856 477.078 547.245 485.055 543.606C487.632 543.226 489.871 542.218 492.315 541.291C498.728 541.86 517.079 533.885 523.722 531.177Z"/><path fill="#38598F" d="M523.722 531.177L529.225 531.979C496.015 542.29 475.48 552.127 459.97 584.914C455.95 593.414 449.728 601.489 450.581 611.225C448.625 598.92 454.284 599.108 454.31 592.275C444.131 596.159 434.968 589.639 428.895 595.485C427.326 598.875 427.246 599.341 427.105 603.08C432.978 605.922 434.355 605.697 436.404 611.45C440.541 623.063 440.15 630.438 439.749 642.337C435.29 647.321 432.407 649.96 427.344 654.389C426.16 660.765 425.214 668.678 423.862 674.648C416.49 679.196 409.099 683.766 400.794 686.465C396.282 683.397 390.457 679.1 384.427 680.126C383.144 680.344 380.225 682.199 377.68 682.905C376.777 681.357 376.835 681.924 376.68 680.289C380.287 676.083 381.89 675.473 386.723 672.838C403.839 674.24 407.354 682.598 422.326 668.071L423.351 654.218C425.649 651.536 429.358 647.365 430.868 644.569C442.786 622.5 425.254 622.693 419.781 607.343C417.503 600.956 425.046 591.148 428.841 585.491C455.182 577.987 455.154 578.386 450.189 552.125L455.973 551.796L458.785 556.691C460.96 555.1 460.383 554.253 461.076 550.608C467.188 544.856 477.078 547.245 485.055 543.606C487.632 543.226 489.871 542.218 492.315 541.291C498.728 541.86 517.079 533.885 523.722 531.177Z"/><path fill="#153061" d="M2070.17 1109.43C2072.47 1113.61 2077.78 1124.61 2081.18 1127.03C2095.12 1127.3 2104.78 1071.37 2122.92 1080.75C2125.13 1085.34 2123.83 1097.35 2123.99 1103.58C2124.24 1113.32 2126.11 1122.56 2126.47 1131.89C2121.3 1132.02 2115.57 1132.4 2110.48 1131.71L2110 1130.11C2113.3 1124.52 2113.48 1123.52 2112.98 1117.06C2087.37 1117.61 2099.96 1123.15 2096.3 1130.99C2091.11 1133.12 2077.92 1133.06 2072.24 1131.28C2064.95 1128.99 2060.74 1115.86 2057.51 1108.61C2056.06 1114.64 2055.16 1127.26 2052.26 1130.94C2048.2 1132.91 2042.79 1132.09 2038.03 1131.9C2042.6 1122 2046.63 1104.46 2049.5 1093.35C2049.8 1092.2 2048.38 1087.31 2047.93 1085.88L2047.46 1084.4C2049 1081.64 2050.44 1081.8 2053.91 1080.34C2064.09 1080.08 2078.62 1079.7 2084.31 1089.86C2089.15 1098.5 2076.82 1106.67 2070.17 1109.43ZM2066.07 1104.7C2076.25 1097.49 2077.85 1086.84 2063.36 1085.82C2061.55 1091.18 2058.44 1099.65 2059.51 1105.08C2062.25 1106.58 2061.89 1105.87 2066.07 1104.7Z"/><path fill="#153061" d="M2014.52 1080.31C2051.53 1078.18 2039.56 1125.81 2013.63 1132.87C1988.71 1133.13 1985.3 1117.53 1994.27 1096.63C1997.71 1088.63 2006.22 1082.8 2014.52 1080.31ZM2010.92 1129.34C2019.53 1120.85 2037.77 1089.93 2016.85 1085.97C2004.8 1093.07 1993.74 1123.74 2010.92 1129.34Z"/><path fill="#153061" d="M1865.6 1081.62C1903.7 1074.02 1897.16 1118.51 1871.98 1132.32C1838.92 1137.07 1840.23 1110.75 1853.67 1090C1856.62 1085.43 1860.82 1083.81 1865.6 1081.62ZM1866.76 1127.37C1873.7 1118.81 1894.28 1085.75 1869.24 1086.81C1861.86 1095.14 1845.16 1131.1 1866.76 1127.37Z"/><path fill="#153061" d="M1563.49 1080.22C1592.15 1078.86 1590.64 1103.75 1578.83 1122.11C1574.3 1129.15 1569.22 1131.36 1561.16 1132.59C1551.74 1133.19 1548.92 1131.62 1541.91 1126.27L1537.84 1114.49C1541.73 1099.42 1548.62 1086.15 1563.49 1080.22ZM1561.02 1127.55C1570.47 1119.24 1585.81 1088.59 1566.95 1084.64C1555.36 1093.42 1539.75 1127.57 1561.02 1127.55Z"/><path fill="#153061" d="M742.105 1081.7C762.882 1075.46 795.677 1085.79 780.596 1113.62C778.113 1118.2 773.613 1123.53 770.31 1127.66C761.608 1131.3 757.566 1131.89 748.202 1133.16C743.857 1133.03 739.478 1133.24 735.429 1131.86C735.8 1127.28 741.949 1104.76 743.504 1099.17C746.285 1090.87 748.92 1087.94 742.105 1081.7ZM750.114 1125.02L751.654 1126.7C765.9 1129.91 781.201 1095.71 765.981 1086.96C762.705 1085.07 763.762 1085.2 760.062 1085.65L758.275 1088.15C756.528 1092.84 753.794 1099.14 753.487 1103.93C751.143 1113.08 751.192 1115.99 750.114 1125.02Z"/><path fill="#0D2651" d="M748.202 1133.16C743.857 1133.03 739.478 1133.24 735.429 1131.86C735.8 1127.28 741.949 1104.76 743.504 1099.17C748.925 1106.26 747.473 1102.39 753.487 1103.93C751.143 1113.08 751.192 1115.99 750.114 1125.02C750.642 1128.5 749.67 1129.76 748.202 1133.16Z"/><path fill="#2E4979" d="M742.105 1081.7C746.508 1082.32 753.854 1081.32 756.64 1082.79C758.954 1086.12 757.351 1084.95 758.275 1088.15C756.528 1092.84 753.794 1099.14 753.487 1103.93C747.473 1102.39 748.925 1106.26 743.504 1099.17C746.285 1090.87 748.92 1087.94 742.105 1081.7Z"/><path fill="#153061" d="M2230.59 1080.11C2238.43 1080.62 2242.46 1083.33 2248.85 1087.4C2256.84 1105.86 2245.68 1127.65 2226.53 1132.76C2192.99 1133.19 2198.08 1092.74 2230.59 1080.11ZM2226.02 1126.68C2234.67 1118.99 2250.61 1087.15 2229.11 1086.88C2215.83 1096.94 2206.94 1132.28 2226.02 1126.68Z"/><path fill="#153061" d="M2240.65 563.159C2237.45 557.68 2232.25 549.846 2236.98 543.831C2249.74 536.743 2269.36 555.53 2276.81 564.304C2276.73 571.973 2276.59 576.585 2275.6 584.14C2280.48 587.367 2283.79 590.415 2283.52 596.318C2278.98 603.874 2269.95 602.314 2262.75 599.965C2242.17 593.244 2247.38 574.608 2240.65 563.159Z"/><path fill="#658BBC" d="M2245.53 542.277C2254.33 547.217 2271.88 556.105 2274.57 566.332C2275.93 571.487 2273.4 577.826 2275.6 584.14C2276.51 586.973 2279.3 592.506 2280.66 595.429C2267.25 590.882 2263.72 588.379 2253.61 578.338C2253.24 570.563 2250.14 547.748 2245.53 542.277Z"/><path fill="#7AA2D3" d="M2253.61 578.338C2251.51 576.112 2250.33 562.769 2248.2 557.787C2247.2 555.436 2243.88 546.66 2243.62 544.314L2245.53 542.277C2250.14 547.748 2253.24 570.563 2253.61 578.338Z"/><path fill="#153061" d="M1004.25 1080.68C1012.6 1080.63 1033.56 1079.15 1039.61 1082.73L1040.2 1084.3C1037.93 1087.52 1035.84 1090.96 1033.63 1094.27L1032.28 1094.48C1029.51 1091.01 1025.07 1084.37 1020.82 1083.65C1016.42 1086.9 1015.88 1096.82 1014.23 1102.55C1019.89 1104.81 1023.58 1101.25 1028.63 1098.49L1029.01 1099.93C1024.52 1103.95 1026.15 1105.34 1023.84 1110.31C1020.37 1112 1020.44 1111.85 1016.07 1110.35C1015.56 1110.17 1015.06 1109.99 1014.55 1109.81C1010.69 1111.81 1007.87 1123.23 1009.12 1126.94C1023.32 1132.45 1030.98 1109.2 1046.24 1126.98C1047.65 1128.63 1057.16 1128.59 1060.08 1125.5C1062.54 1115.14 1048.38 1108 1044.84 1100.08C1045.24 1096.72 1045.35 1092.76 1047.57 1090.39C1051.12 1090.55 1049.96 1090.45 1053.29 1093.71L1054.64 1091.4C1058.54 1104.98 1075.98 1110.31 1070.23 1123.95C1066.98 1131.65 1046.74 1135.18 1039.51 1131.74C1037.16 1130.67 1034.76 1125.35 1033.65 1122.98C1030.91 1124.11 1029.68 1131.03 1022.97 1132.04C1013.26 1133.49 1003.8 1131.63 993.961 1131.59L992.408 1130.51L993.328 1129.65C996.727 1126.45 996.993 1126.6 997.791 1122.61C1001.17 1105.74 1007.17 1098.28 1004.25 1080.68Z"/><path fill="#153061" d="M1902.71 1081.36C1912.59 1081.09 1930.83 1079.34 1939.14 1085.03C1948.17 1091.22 1931.23 1105.05 1927.03 1109.34C1927.53 1116.04 1936.09 1123.62 1937.2 1130.55C1934.94 1133.56 1936.33 1132.53 1932.96 1133.9C1925.84 1133.79 1921.95 1129.56 1920.04 1123.23C1919.29 1122.38 1917.21 1115.69 1916.4 1113.82C1913.83 1111.86 1915.21 1112.21 1912.17 1112.55C1907.27 1124.21 1911.37 1123.37 1910.25 1131.2C1907.54 1133.09 1896.31 1131.95 1893.1 1130.99L1892.3 1129.42C1898.65 1120.73 1901.98 1100.98 1905.43 1090.08C1906.32 1087.26 1903.99 1085.31 1902.33 1083.39L1902.71 1081.36ZM1920.54 1105.18C1926.89 1100.45 1930.26 1093.74 1924.55 1086.98L1919.9 1084.75C1916.45 1088.96 1912.43 1100.6 1915.2 1105.68C1917.74 1106.22 1918.07 1105.89 1920.54 1105.18Z"/><path fill="#153061" d="M928.721 1080.38C934.673 1080.58 942.454 1079.72 948.207 1080.91C972.378 1085.88 973.954 1096.3 951.63 1107.52C953.429 1113.38 960.031 1127.63 959.085 1131.52C953.456 1133.94 948.807 1132.01 945.563 1127.34C945.049 1122.29 943.548 1117.73 942.153 1112.86L940.819 1112.19C930.367 1116.07 936.898 1124.44 934.381 1130.71C930.917 1131.81 920.315 1133.24 918.379 1129.54L922.338 1125.96C925.125 1118.64 925.698 1110.66 927.157 1102.96C928.749 1094.57 931.024 1090.1 927.354 1081.99L928.721 1080.38ZM948.538 1102.81C962.861 1094.37 953.694 1086.62 939.71 1087.34L939.189 1089.97L941.964 1092.72C939.979 1096.46 938.803 1098.35 937.781 1102.55C940.17 1106.52 944.647 1104.01 948.538 1102.81Z"/><path fill="#153061" d="M1262.19 1081.36C1290.93 1078.17 1278.61 1102.95 1290.02 1111.18L1291.55 1109.86C1294.2 1103.11 1295.1 1090.87 1294.66 1083.59L1294.58 1082.39C1298.19 1080.17 1301.03 1079.57 1305.02 1081.17C1305.33 1081.88 1305.65 1082.59 1305.96 1083.3C1300.83 1096.58 1294.3 1117.54 1290.59 1130.68C1278.18 1140.41 1279.9 1106.91 1271 1100.95C1265.92 1106.55 1267.81 1126.76 1264.79 1131.41C1260.8 1132.76 1259.55 1132.45 1255.33 1132.22C1254.32 1131 1253.64 1130.29 1254.42 1128.57C1260.64 1114.76 1264.07 1099.34 1262.24 1084.22C1261.92 1081.6 1261.2 1084.55 1262.19 1081.36Z"/><path fill="#153061" d="M1955.32 1081.49C1965.89 1080.34 2000.55 1078.16 1984.98 1102.92C1981.09 1109.1 1968.98 1109.83 1961.7 1109.91C1960.01 1114.44 1959.27 1117.03 1958.11 1121.71C1956.84 1125.82 1957.65 1128.07 1955.37 1131.4C1951.34 1133.38 1942.74 1132.52 1937.46 1132.58C1955.58 1117.16 1948.6 1086.07 1955.32 1081.49ZM1972.42 1103.82C1974.8 1098.33 1976.64 1095.88 1974.56 1090.33C1971.58 1086.88 1969.91 1086.33 1965.29 1085.75C1962 1090.02 1961.51 1099.56 1964.44 1104.37C1967.61 1105.48 1968.76 1105.11 1972.42 1103.82Z"/><path fill="#0D2651" d="M1456.49 1081.37C1480.07 1078.79 1511.09 1086.94 1478.9 1109.57C1473.84 1109.84 1468.97 1110.74 1463.97 1111.54C1462.43 1114.91 1461.5 1116.55 1459.52 1119.69C1459.6 1122.53 1459.81 1127.36 1458.65 1129.9C1456.8 1133.98 1447.33 1133.24 1444.24 1131.18C1443.65 1124.56 1463.55 1095.97 1454.53 1085.58C1454.42 1082.69 1454.09 1084.14 1456.49 1081.37ZM1474.83 1103.28C1483.72 1094.92 1480.23 1087.93 1468.88 1086.2C1468.1 1091.07 1465.64 1100.46 1466.66 1104.27C1469.62 1105.48 1471.9 1104.71 1474.83 1103.28Z"/><path fill="#E7E9EA" fill-opacity="0.050980393" d="M672.123 625.195C675.767 619.513 681.644 606.039 681.235 599.233C680.272 583.25 659.221 583.849 651.477 576.71C650.531 573.376 650.883 572.489 651.334 568.937L653.064 567.737C659.518 568.41 667.634 575.113 675.427 576.707C717.422 585.3 759.88 595.913 800.243 610.556C786.975 618.377 702.292 582.867 679.278 586.839L678.718 587.667C682.616 596.519 686.053 600.29 681.746 610.119C678.603 617.292 678.644 620.503 672.123 625.195Z"/><path fill="#153061" d="M1210.34 1081.79C1214.92 1081.29 1224.88 1079.85 1228.76 1081.77C1228.18 1085.99 1224.8 1085.99 1223.91 1089.2C1220.68 1100.83 1217.59 1113.07 1215.94 1125.02C1215.81 1125.99 1217.33 1129.06 1217.59 1130.65C1213.28 1133.14 1210.1 1133.06 1205.16 1132.32C1197.87 1125.5 1214 1107.62 1210.03 1098.55L1208.14 1098.26C1203.78 1102.57 1199.5 1121.77 1190.12 1123.76C1189.55 1123.88 1184.83 1123.44 1183.92 1123.36C1183.92 1113.83 1184.19 1109.65 1181.03 1100.71L1182.66 1101.62C1185.8 1099.14 1184.64 1099.28 1187.79 1099.45L1189.91 1101.21C1190.54 1104.9 1189.86 1104.99 1192.04 1106.54C1197.8 1103.15 1206.4 1088.02 1210.34 1081.79Z"/><path fill="#153061" d="M1406.53 1080.24C1413.61 1079.81 1421.89 1078.64 1426.63 1084.71C1426.58 1088.71 1427.12 1086.93 1425.04 1090.26C1421.56 1091.3 1423.25 1091.28 1419.77 1090.41C1399.42 1067.34 1380.72 1140.82 1406.56 1125.98C1412.1 1117.93 1402.33 1111.25 1410.08 1108.33C1414.05 1108.11 1418.53 1107.44 1422.11 1108.78C1423.55 1112.59 1421.45 1118.43 1420.66 1122.6C1418.41 1132.65 1409.69 1133.31 1401.27 1133.06C1375.26 1132.29 1378.95 1103 1392.14 1089.37C1397.04 1084.3 1400.16 1082.85 1406.53 1080.24Z"/><path fill="#153061" d="M1341.12 1085.99L1339.28 1082.7C1341.25 1078.78 1349.51 1079.51 1352.53 1081.18C1357.79 1088.47 1359.05 1109.93 1363.75 1112.18C1364.73 1108.47 1365.25 1105.81 1365.88 1102.03L1366.12 1101.25C1372.23 1081.88 1360.77 1080.15 1385.43 1080.98C1370.41 1096.19 1375.56 1102.51 1371.96 1117.04C1370.71 1122.88 1369.86 1131.96 1362.95 1133.15C1356.22 1129.88 1351.05 1111.51 1347.49 1103.79L1345 1103.24L1344.2 1102.25C1344.53 1099.63 1342.55 1087.85 1341.12 1085.99Z"/><path fill="#0D2651" d="M1365.88 1102.03L1366.12 1101.25C1372.23 1081.88 1360.77 1080.15 1385.43 1080.98C1370.41 1096.19 1375.56 1102.51 1371.96 1117.04L1370.88 1117.54L1369.69 1116.57C1368.88 1111.8 1370.11 1105.65 1370.68 1100.63C1370.05 1103.84 1370.1 1104.44 1368.4 1107.13C1366.51 1106.04 1366.76 1104.85 1365.88 1102.03Z"/><path fill="#153061" d="M2263.74 1100.33L2263.82 1098.99C2264.38 1089.41 2260.45 1087.03 2262.61 1081.91C2267.51 1078.76 2274.12 1080.26 2276.21 1085.58C2280.18 1095.69 2279.12 1102.29 2285.23 1112.03C2287.46 1105.37 2291.26 1094.39 2291.43 1087.44L2289.11 1083.97C2291.2 1079.57 2299.46 1080.56 2303.47 1081.76L2304.34 1082.74C2296.35 1095.78 2291.19 1110.56 2292.98 1126.08C2293.46 1130.2 2294.09 1131.13 2290.43 1131.72C2287.63 1132.19 2284.77 1131.95 2282.09 1131.03C2279.36 1124.85 2275.39 1109.86 2270.43 1107.26L2268.8 1107.87L2267 1112.36C2266.77 1107.82 2268.17 1103.45 2269.09 1098.8C2266.95 1101.37 2267.58 1101.49 2265 1102.08L2263.74 1100.33Z"/><path fill="#153061" d="M1098.08 1109.79C1101.29 1107.66 1103.89 1105.89 1106.98 1103.54C1110.65 1091.18 1098.7 1079.92 1126.04 1080.94L1125.41 1083.15C1120.93 1084.1 1122 1083.17 1119.78 1086.13C1114.41 1092.46 1116.89 1094.75 1119.69 1102.14C1119.98 1102.91 1119.66 1105.15 1119.9 1106.22C1121.84 1110.25 1123.01 1113.79 1126.49 1116.42L1128.32 1116.19C1130.25 1112.61 1130.25 1109.57 1130.73 1105.5C1135.55 1104.26 1140.68 1104.84 1145.74 1105.05C1137.86 1109.8 1125.81 1120.68 1139.18 1127.42C1137.36 1133.98 1129.83 1133.93 1125.16 1130.73L1123.92 1128.19C1122.81 1128.03 1119.14 1127.72 1118.41 1127.23L1118.55 1126.56C1118.99 1124.35 1119.18 1123.93 1118.8 1121.65C1115.81 1117.73 1112.43 1111.83 1108.78 1109.45C1100.88 1113.59 1107.06 1126.21 1101.73 1132.77C1089.06 1127.75 1093.74 1119.61 1098.08 1109.79Z"/><path fill="#153061" d="M1766.62 1080.3C1774.48 1080.17 1781.34 1078.84 1785.39 1086.13L1784.5 1088.87C1776.89 1090.25 1769.02 1083.11 1763.6 1089.93C1762.31 1101.02 1797.44 1123.69 1763.01 1132.86C1756.75 1133.22 1746.67 1134.74 1743.36 1128.5C1743.82 1125.22 1743.68 1124.69 1745.67 1122.24C1752.42 1121.55 1753.66 1127.74 1760.53 1127.82C1779.07 1116.51 1727.34 1094.23 1766.62 1080.3Z"/><path fill="#2E4979" d="M1523.95 1110C1525.94 1116.89 1532.78 1124.88 1530.51 1130.79C1515.76 1138.97 1516.51 1116.89 1510.55 1110.91C1504.84 1110.52 1504.28 1121.7 1503.69 1126.11C1503.42 1128.16 1505.17 1129.02 1506.62 1130.29C1504.04 1132.64 1495.19 1131.99 1492.07 1130.69C1490.57 1125.64 1501.82 1098.37 1501.44 1083.65L1501.41 1082.91C1504.78 1079.78 1510.59 1080.58 1515.32 1080.67L1513.19 1085.63C1512.48 1090.97 1508.41 1105.24 1508.86 1106.96C1514.99 1107.35 1516.27 1106.93 1521.51 1110.15L1523.95 1110Z"/><path fill="#153061" d="M1656.09 1115.22C1659.34 1104.21 1673.73 1070.29 1697.1 1081.93C1699.01 1082.88 1698.9 1087.07 1703.83 1089.75C1704.48 1092.96 1704.39 1091.8 1702.75 1095.33C1700.68 1093.53 1698.57 1091.78 1696.44 1090.06C1690.06 1085.01 1681.64 1085.49 1677.76 1092.36C1673.87 1099.26 1661.16 1129.81 1679.29 1126.68C1684.13 1125.84 1688.51 1122.12 1693.02 1120.86L1694.34 1123.03C1693.51 1132.75 1686.01 1133.43 1678.06 1132.93C1664.05 1132.04 1660.41 1128.27 1656.09 1115.22Z"/><path fill="#153061" d="M799.958 1120.57C802.672 1124.4 802.758 1125.85 807.251 1127.65C818.956 1126.61 823.926 1095.35 823.275 1086.02L820.101 1083.36L820.326 1081.88C824.171 1080.42 832.674 1080.9 836.665 1081.84L837.294 1083.31C835.848 1085.65 832.931 1088.58 832.472 1090.09C828.397 1103.48 829.709 1113.82 823.286 1126.92C804.787 1141.13 779.945 1128.86 791.75 1106.41C796.427 1105.41 795.463 1104.87 799.125 1106.38C801.146 1110.05 798.915 1114.92 799.958 1120.57Z"/><path fill="#153061" fill-opacity="0.98431373" d="M843.488 1123.04C844.758 1124.65 847.312 1128.63 849.455 1128.26C878.121 1123.38 831.663 1100.28 841.175 1088.64C847.869 1080.44 870.031 1075.95 874.05 1085.13C873.053 1087.67 871.485 1088.6 869.376 1090.36C862.485 1091.66 863.049 1085.39 856.762 1084.44C853.605 1085.37 853.444 1085.93 851.22 1088.59C850.775 1102.87 875.837 1102.84 865.405 1127.63C854.555 1133.6 848.883 1133.45 836.676 1131.13C840.059 1130.88 840.657 1130.94 843.77 1129.77C844.916 1126.54 844.372 1127.02 843.488 1123.04Z"/><path fill="#153061" d="M911.327 1084.62C905.695 1090.04 897.013 1119.86 898.362 1126.84C900.31 1128.04 900.72 1128.14 902.255 1129.89C899.532 1133 885.483 1132.74 882.256 1130.02C887.992 1125.4 898.73 1091.35 892.131 1086.29C889.121 1087.17 885.068 1093.25 881.624 1096.54L880.118 1096.41C879.955 1092.21 878.831 1086.95 880.552 1083.56C886.211 1079.36 902.834 1081.06 910.905 1081.19L912.092 1083.79L911.327 1084.62Z"/><path fill="#153061" d="M2332.39 1105.91C2311.58 1076.21 2355.63 1079.16 2360.4 1083.25C2361.24 1085.82 2360.5 1087.49 2359.86 1090.16L2358.25 1092.01C2349.55 1092.35 2346.78 1083.31 2340.08 1088.01C2332.2 1104.1 2373.65 1113.83 2346.65 1130.36C2346.1 1128.96 2345.47 1126.43 2345.4 1124.92C2345.08 1117.24 2337.99 1110.9 2332.39 1105.91Z"/><path fill="#153061" d="M2184.53 1080.47C2189.41 1080.47 2197.33 1079.82 2201.39 1081.43L2201.68 1082.86L2197.84 1086.01C2195.67 1091.42 2191.46 1121.61 2192.35 1128.83C2192.59 1130.84 2193.32 1127.33 2192.01 1130.87L2189.12 1131.97L2173.01 1131.88C2178.41 1124.03 2187.12 1093.44 2182.81 1085.41L2178.1 1084.01L2177.82 1082.58C2179.68 1080.91 2181.96 1080.9 2184.53 1080.47Z"/><path fill="#153061" fill-opacity="0.95686275" d="M2400.49 1083.63C2400.42 1086.99 2399.7 1088.89 2401.47 1090.87C2407.68 1092.98 2405.6 1105.44 2405.49 1111.48C2393.55 1111.46 2400.56 1110.99 2390.92 1116.36C2388.43 1119.39 2385.73 1121.95 2384.98 1125.66C2387.48 1129.69 2391.33 1130.13 2396.3 1131.9C2388.9 1131.92 2352.91 1137.28 2360.5 1122.48C2368.48 1118.05 2368.82 1123.61 2376.37 1123.1C2384.47 1116.66 2392.29 1094.22 2400.49 1083.63Z"/><path fill="#153061" d="M1328.89 1080.47C1331.53 1081.06 1330.53 1080.4 1332.19 1082.12C1325.13 1096.03 1320.19 1109.38 1318.01 1124.96C1319.66 1126.61 1321.29 1127.65 1323.19 1128.99L1323.18 1130.53C1319.87 1132.52 1313.96 1131.92 1309.75 1131.92C1307.4 1131.98 1307.54 1132.03 1305.37 1131.16C1303.36 1123.71 1315.03 1098.16 1315.29 1088.9C1315.39 1085.44 1314.42 1085.33 1312.02 1083.05L1312.46 1081.89C1316.6 1080.31 1324.16 1080.57 1328.89 1080.47Z"/><path fill="#153061" d="M692.561 1083.85L690.629 1082.98C692.078 1079.03 699.983 1079.35 702.787 1080.65C711.023 1084.48 715.286 1101.5 718.305 1109.61L718.071 1110.84L720.795 1114.13C722.1 1113.93 721.562 1114.14 722.458 1113.64L722.875 1123.2C721.98 1125.4 722.718 1127.8 721.449 1130.97C718.624 1132.25 718.506 1132.02 715.502 1131.72C708.596 1126.8 708.328 1108.36 703.132 1101.26L701.871 1101.07L699.926 1106.04C700.106 1102.96 700.124 1103.07 699.301 1100.1C695.922 1097.99 701.415 1087.69 692.561 1083.85Z"/><path fill="#153061" d="M976.083 1081.49C982.568 1080.98 987.88 1080.2 994.178 1082.09C994.616 1084.78 981.456 1116.8 982.722 1126.49C984.82 1127.65 985.377 1127.81 987.094 1129.53L986.823 1131.82C981.479 1131.93 971.991 1132.39 967.283 1130.67L966.943 1129.49C971.949 1126.01 979.531 1092.06 979.565 1085.69C978.304 1084.76 977.006 1083.96 975.638 1083.19L976.083 1081.49Z"/><path fill="#153061" d="M667.794 1080.39C672.68 1080.21 680.711 1079.25 684.436 1082.05C679.421 1096.2 675.079 1111.14 672.252 1126.05C671.358 1130.76 673.656 1127.8 673.266 1131.68C668.796 1132.05 660.806 1132.53 656.685 1131.44L656.575 1129.88L660.284 1126.52C664.182 1115.4 666.405 1101.66 668.858 1090.08C669.452 1087.27 666.178 1085.61 667.794 1080.39Z"/><path fill="#153061" d="M2400.49 1083.63C2403.2 1080.94 2403.57 1080.67 2407.34 1080.17C2418.09 1084.36 2413.18 1104.02 2414.41 1113.49C2414.88 1117.16 2417.68 1126.51 2417.22 1129.15C2412.67 1132.93 2403.45 1133.53 2397.97 1131.75L2397.3 1130.77L2398.3 1130.1C2404.04 1126.19 2406.52 1124.15 2403.5 1117.2C2398.79 1115.86 2395.57 1116.68 2390.92 1116.36C2400.56 1110.99 2393.55 1111.46 2405.49 1111.48C2405.6 1105.44 2407.68 1092.98 2401.47 1090.87C2399.7 1088.89 2400.42 1086.99 2400.49 1083.63Z"/><path fill="#0D2651" d="M1809.57 1092.81C1815.59 1092.76 1816.14 1092.19 1819.62 1097.47C1816.72 1100.25 1816.41 1102.18 1815.06 1105.96C1814.95 1106.34 1814.85 1106.72 1814.74 1107.1C1809.66 1138.41 1831.5 1120.08 1839.46 1121.54C1846.7 1135.75 1786.99 1146.73 1806.67 1098.62C1807.18 1097.87 1809.06 1093.85 1809.57 1092.81Z"/><path fill="#2E4979" d="M1809.57 1092.81C1815.59 1092.76 1816.14 1092.19 1819.62 1097.47C1816.72 1100.25 1816.41 1102.18 1815.06 1105.96C1812.18 1107.56 1811.65 1107.81 1808.63 1106.8C1806.51 1103.76 1806.84 1102.52 1806.67 1098.62C1807.18 1097.87 1809.06 1093.85 1809.57 1092.81Z"/><path fill="#153061" d="M1236.29 1081.48C1242.89 1081.11 1250.23 1081.37 1256.89 1081.46C1246.06 1091.93 1247.15 1106.37 1243.03 1120.09C1240.35 1129 1243.13 1126.58 1243.46 1131.78C1239.21 1132.12 1228.3 1133.49 1225.52 1130.19C1227 1129.3 1230.76 1127.21 1231.04 1125.58C1232.9 1114.49 1241.61 1091.59 1236.29 1081.48Z"/><path fill="#0D2651" d="M1621.42 1107.77C1621.96 1101.75 1624.83 1090.09 1624.71 1087.12C1623.31 1086.1 1619.77 1083.86 1619.21 1082.61C1622.22 1080.76 1657.23 1079.98 1660.85 1082.4C1662.12 1086.03 1660.48 1087.55 1657.89 1090.05C1648.22 1092.08 1644.83 1079.01 1636.64 1087.3C1634.77 1089.19 1634.39 1097.33 1633.38 1101.05C1637.26 1104.19 1643.27 1099.53 1648.43 1101.3C1649.23 1105.33 1649.56 1103.92 1647.83 1107.02C1642.34 1110.02 1640.97 1109.51 1634.79 1108.47C1630.52 1106.5 1632.6 1103.98 1627.79 1101.44C1624.46 1102.63 1623.5 1104.79 1621.42 1107.77Z"/><path fill="#0D2651" d="M2137.55 1080.47C2146.62 1080.37 2166.95 1079.64 2175.08 1080.64C2177.15 1083.36 2175.49 1098 2165.59 1087.87L2164.01 1087.89C2159.43 1094.52 2156.99 1107.13 2154.96 1115.29C2154.92 1111.65 2155.04 1110.26 2154.16 1106.78C2151.1 1104.42 2152.14 1105.15 2147.36 1105.14C2147.93 1098.55 2151.46 1093.35 2151.24 1087.18L2150.04 1086.28C2145.79 1087.34 2145.93 1087.81 2143.91 1091.8C2140.07 1093.06 2141.95 1092.97 2138.03 1092.11C2135.57 1088.13 2136.71 1085.49 2137.55 1080.47Z"/><path fill="#0D2651" d="M1703.83 1089.75C1704.34 1086.12 1703.96 1084.24 1706.05 1081.82C1713.31 1080.71 1742.14 1079.4 1748.46 1082.02C1749.31 1085.93 1749.87 1092.55 1748.15 1096.29C1744 1097.01 1740.23 1089.91 1734.46 1088.69C1728.96 1090.61 1728.45 1096.92 1727.6 1102.28C1725.83 1096.21 1725.16 1097.15 1719.57 1097.03L1717.96 1092.41C1718.19 1091.34 1717.98 1090.14 1717.91 1088.97C1713.44 1085.03 1706.45 1092.25 1702.75 1095.33C1704.39 1091.8 1704.48 1092.96 1703.83 1089.75Z"/><path fill="#2E4979" d="M1621.42 1107.77C1623.5 1104.79 1624.46 1102.63 1627.79 1101.44C1632.6 1103.98 1630.52 1106.5 1634.79 1108.47C1628.17 1112.09 1631.43 1116.67 1629.19 1123C1628.67 1126.67 1628.28 1125.1 1629.77 1127.99C1637.29 1131.11 1642.97 1120.18 1649.54 1123.23C1652.02 1134.8 1626.19 1134.29 1619.31 1132.08C1613.69 1130.28 1617.09 1123.49 1618.98 1119.96C1619.76 1116.05 1619.31 1110.96 1621.42 1107.77Z"/><path fill="#153061" d="M1618.98 1119.96C1619.1 1123.93 1618.69 1126.05 1621.16 1129.04L1622.59 1129.06C1625.31 1125.74 1625.88 1124.59 1627.83 1120.73L1628.71 1120.88L1629.19 1123C1628.67 1126.67 1628.28 1125.1 1629.77 1127.99C1637.29 1131.11 1642.97 1120.18 1649.54 1123.23C1652.02 1134.8 1626.19 1134.29 1619.31 1132.08C1613.69 1130.28 1617.09 1123.49 1618.98 1119.96Z"/><path fill="#153061" d="M1717.96 1092.41L1719.57 1097.03C1725.16 1097.15 1725.83 1096.21 1727.6 1102.28C1726.83 1110.59 1724.84 1117.68 1724.9 1126.05C1726.44 1127.8 1727.1 1128.23 1727.76 1130.46C1724.26 1133.72 1708.06 1133.47 1704.36 1130.47C1712.94 1123.96 1714.29 1123.87 1715.03 1112.78C1715.43 1106.73 1716.6 1098.38 1717.96 1092.41Z"/><path fill="#2E4979" d="M1596.94 1102.75C1600.8 1100.48 1599.57 1100.47 1603.44 1100.58C1605.7 1102.87 1605.63 1103.25 1606.46 1106.51C1606.61 1115.54 1596.44 1156.04 1580.44 1144.7L1580.88 1142.91C1586.56 1139.86 1588.38 1139.33 1590.55 1132.86C1593.83 1123.14 1595.24 1112.85 1596.94 1102.75Z"/><path fill="#153061" fill-opacity="0.98823529" d="M692.561 1083.85C701.415 1087.69 695.922 1097.99 699.301 1100.1C700.124 1103.07 700.106 1102.96 699.926 1106.04C699.025 1111.27 695.669 1122.07 694.075 1127.45L696.072 1129.99L695.408 1131.52C692.052 1132.1 685.157 1132.63 682.149 1130.97C689.748 1122.69 695.371 1096.48 692.864 1085.19L692.561 1083.85Z"/><path fill="#0D2651" d="M791.75 1106.41C792.85 1102.71 793.784 1099.26 794.551 1095.46C795.379 1091.35 792.882 1084.31 797.173 1081.92C799.998 1080.35 810.07 1080.36 812.877 1081.71C813.284 1085.79 811.272 1085.25 809.239 1087.76C804.626 1093.45 801.322 1113.37 799.958 1120.57C798.915 1114.92 801.146 1110.05 799.125 1106.38C795.463 1104.87 796.427 1105.41 791.75 1106.41Z"/><path fill="#2E4979" fill-opacity="0.98823529" d="M1515.32 1080.67C1523.19 1081.64 1536.81 1083.12 1537.57 1092.96C1534.37 1101.05 1522.99 1106.13 1523.95 1110L1521.51 1110.15C1516.27 1106.93 1514.99 1107.35 1508.86 1106.96C1517.28 1105.35 1523.96 1101.6 1525.89 1092.73C1524.27 1085.74 1519.64 1085.66 1513.19 1085.63L1515.32 1080.67Z"/><path fill="#0D2651" fill-opacity="0.98431373" d="M1341.12 1085.99C1342.55 1087.85 1344.53 1099.63 1344.2 1102.25L1345 1103.24C1344.35 1111.01 1340.87 1118.28 1340.19 1125.99C1340.12 1126.83 1341.9 1126.98 1341.92 1130.88C1338.8 1132.9 1330.58 1133.07 1327.91 1129.96C1338.82 1107.6 1335.85 1109.4 1341.12 1085.99Z"/><path fill="#153061" fill-opacity="0.95294118" d="M718.305 1109.61L720.504 1109.47C724.625 1100.36 723.463 1093.32 722.777 1083.73C722.624 1081.59 721.934 1081.5 723.77 1081.09C729.28 1079.86 738.641 1080.8 744.179 1081.19L733.62 1085.85C728.843 1097.99 727.209 1112.26 722.875 1123.2L722.458 1113.64C721.562 1114.14 722.1 1113.93 720.795 1114.13L718.071 1110.84L718.305 1109.61Z"/><path fill="#0D2651" d="M1173.59 1100.14C1174.06 1095.26 1172.87 1086.35 1175.95 1082.92C1178.9 1079.63 1184.37 1079.89 1188.12 1082.07C1191.55 1086.83 1189.48 1094 1189.91 1101.21L1187.79 1099.45C1184.64 1099.28 1185.8 1099.14 1182.66 1101.62L1181.03 1100.71L1179.21 1100.65C1176.78 1100.92 1175.94 1100.61 1173.59 1100.14Z"/><path fill="#0D2651" d="M1809.57 1092.81C1813.03 1088.26 1815.12 1085.63 1820.61 1083.1C1827.43 1079.97 1842.91 1076.98 1845.89 1086.47C1843.13 1097 1833.98 1087.28 1828.48 1087.69C1823.62 1089.69 1822.23 1092.87 1819.62 1097.47C1816.14 1092.19 1815.59 1092.76 1809.57 1092.81Z"/><path fill="#153061" fill-opacity="0.90980393" d="M1101.73 1132.77C1107.06 1126.21 1100.88 1113.59 1108.78 1109.45C1112.43 1111.83 1115.81 1117.73 1118.8 1121.65C1119.18 1123.93 1118.99 1124.35 1118.55 1126.56L1118.41 1127.23C1119.14 1127.72 1122.81 1128.03 1123.92 1128.19L1125.16 1130.73C1119.12 1128.15 1111.86 1133.51 1101.73 1132.77Z"/><path fill="#2E4979" d="M2147.36 1105.14C2152.14 1105.15 2151.1 1104.42 2154.16 1106.78C2155.04 1110.26 2154.92 1111.65 2154.96 1115.29C2155.33 1119.39 2153.14 1127.31 2152.11 1131.55C2148.14 1131.92 2144.04 1133.21 2141.46 1130.01C2141.34 1127.64 2146.27 1110.58 2147.36 1105.14Z"/><path fill="#0D2651" d="M1598.81 1080.78C1603.35 1080.76 1609.63 1080.28 1613.57 1081.89C1614.41 1084.1 1614.14 1085.57 1612.7 1087.91C1608.27 1095.05 1608.57 1098.9 1606.46 1106.51C1605.63 1103.25 1605.7 1102.87 1603.44 1100.58C1599.57 1100.47 1600.8 1100.48 1596.94 1102.75C1598.6 1095.49 1598.8 1088.21 1598.81 1080.78Z"/><path fill="#153061" fill-opacity="0.96078432" d="M2332.39 1105.91C2337.99 1110.9 2345.08 1117.24 2345.4 1124.92C2345.47 1126.43 2346.1 1128.96 2346.65 1130.36C2339.29 1132.99 2323.34 1136.29 2318.15 1128.9C2317.97 1125.4 2318.22 1125.22 2319.91 1121.99C2322.05 1121.41 2323.83 1120.39 2325.94 1120.89C2330.44 1126.43 2335.76 1132.07 2342.3 1125.22C2343.87 1117.59 2334.96 1114.25 2332.39 1105.91Z"/><path fill="#153061" fill-opacity="0.96862745" d="M2263.74 1100.33L2265 1102.08C2267.58 1101.49 2266.95 1101.37 2269.09 1098.8C2268.17 1103.45 2266.77 1107.82 2267 1112.36C2264.7 1119.07 2260.99 1123.86 2265.51 1129.44L2265.07 1131.27C2261.14 1132.6 2253.27 1133.93 2250.5 1130.13C2253.96 1125.6 2254.57 1128.45 2256.38 1122.38C2258.41 1115.58 2261.57 1108.58 2263.39 1101.7L2263.74 1100.33Z"/><path fill="#0D2651" d="M1044.84 1100.08C1040.14 1076.19 1071.9 1076.51 1076.66 1086.34C1076.5 1090.08 1077.02 1088.88 1075.18 1091.85C1067.53 1091.52 1061.2 1079.1 1054.64 1091.4L1053.29 1093.71C1049.96 1090.45 1051.12 1090.55 1047.57 1090.39C1045.35 1092.76 1045.24 1096.72 1044.84 1100.08Z"/><path fill="#153061" fill-opacity="0.95686275" d="M1167.5 1126.88C1169.55 1117.35 1170.75 1109.6 1173.59 1100.14C1175.94 1100.61 1176.78 1100.92 1179.21 1100.65C1177.98 1107.94 1175.59 1113.46 1175.74 1120.54C1174.91 1123.5 1174.57 1126.09 1173.99 1129.07C1171.53 1132.01 1171.37 1132.04 1167.74 1133.53C1164.32 1133.34 1165.65 1134 1163.39 1131.99L1163.47 1129.91L1167.5 1126.88Z"/><path fill="#0D2651" fill-opacity="0.86274511" d="M1119.9 1106.22C1119.66 1105.15 1119.98 1102.91 1119.69 1102.14C1116.89 1094.75 1114.41 1092.46 1119.78 1086.13C1120.2 1089.52 1119.6 1089.64 1121.5 1091.4L1122.97 1090.42C1122.5 1089.33 1122.16 1088.58 1121.66 1087.54C1125.68 1084.59 1129.29 1088.81 1131.2 1092.36L1134.26 1093.01C1130.77 1096.72 1120.75 1104.51 1119.9 1106.22Z"/><path fill="#E7E9EA" fill-opacity="0.13725491" d="M1179.21 1100.65L1181.03 1100.71C1184.19 1109.65 1183.92 1113.83 1183.92 1123.36L1181.96 1121.42C1181.17 1117.78 1180.87 1116.9 1179.32 1113.51L1178.2 1113.89L1175.74 1120.54C1175.59 1113.46 1177.98 1107.94 1179.21 1100.65Z"/><path fill="#153061" fill-opacity="0.97254902" d="M910.905 1081.19C915.575 1081.16 919.665 1080.28 923.088 1082.36C923.361 1086.92 920.336 1091.33 915.721 1092.06C911.539 1088.07 917.061 1089.51 911.327 1084.62L912.092 1083.79L910.905 1081.19Z"/><path fill="#0D2651" fill-opacity="0.96078432" d="M1126.04 1080.94C1129.78 1081.41 1130.23 1081.51 1132.9 1084.15C1134.76 1087.91 1134.68 1088.8 1134.26 1093.01L1131.2 1092.36C1129.29 1088.81 1125.68 1084.59 1121.66 1087.54C1122.16 1088.58 1122.5 1089.33 1122.97 1090.42L1121.5 1091.4C1119.6 1089.64 1120.2 1089.52 1119.78 1086.13C1122 1083.17 1120.93 1084.1 1125.41 1083.15L1126.04 1080.94Z"/><path fill="#153061" d="M836.676 1131.13C834.216 1128.94 834.917 1130.28 834.514 1127C836.225 1123.05 835.158 1124.42 838.542 1121.8C842.23 1121.74 840.675 1121.2 843.488 1123.04C844.372 1127.02 844.916 1126.54 843.77 1129.77C840.657 1130.94 840.059 1130.88 836.676 1131.13Z"/></svg>