<?xml version="1.0" encoding="utf-8" ?><svg xmlns="http://www.w3.org/2000/svg" xmlns:xlink="http://www.w3.org/1999/xlink" width="2352" height="1792" viewBox="0 0 2352 1792"><path fill="#4B100A" d="M580.745 1003.24C636.099 1004.29 691.364 1002.65 746.048 1003.53C685.204 1053.43 625.033 1104.14 565.551 1155.65C544.003 1174.18 507.404 1202.34 489.218 1220.69C497.909 1237.35 509.237 1254.09 519.593 1269.84L561.54 1333.36C593.288 1381.43 622.342 1428.92 656.377 1475.74C648.855 1476.2 640.385 1476.08 632.823 1475.95C588.172 1475.18 542.97 1477.24 498.391 1476.01C460.259 1420.49 421.956 1359.99 382.924 1305.85C381.204 1307.1 374.782 1312.33 373.53 1313.8C364.002 1324.98 322.59 1353.41 317.596 1363.31L295.341 1476.19L155.485 1475.98C156.979 1467.68 159.68 1458.06 161.493 1449.51L178.426 1368.94C203.051 1247 228.795 1125.28 255.655 1003.81C299.717 1002.65 348.744 1004.34 393.627 1004.07C380.042 1067.52 366.776 1131.04 353.831 1194.62C379.684 1174.95 403.43 1153.72 427.882 1132.43C461.961 1102.46 496.469 1072.98 531.396 1044C547.225 1030.77 564.582 1015.55 580.745 1003.24Z"/><path fill="#4B100A" d="M1000.37 993.543C1013.16 993.119 1025.96 993.242 1038.74 993.912C1114.86 997.873 1177.05 1024.1 1228.45 1081.26C1221.87 1086.98 1212.47 1093.27 1205.41 1098.87C1180.32 1118.74 1152.03 1137.13 1127.79 1157.72C1112.05 1141.05 1092.47 1125.47 1071.24 1117.15C974.344 1079.19 860.614 1127.71 839.429 1233.75C819.82 1331.9 889.145 1380.54 979.723 1373.83C998.29 1372.45 1013.37 1367.51 1030.75 1361.75C1041.78 1322.64 1050.44 1270.38 1059.01 1229.72L1156.15 1229.86L1183.41 1229.91C1173.77 1274.36 1164.39 1318.88 1155.28 1363.44C1151.11 1383.41 1146.53 1408.59 1141.39 1428.01C1093.1 1466.47 1020.33 1482.19 960.372 1485.33C833.669 1491.83 696.014 1427.5 694.61 1282.78C692.864 1102.75 830.951 1000.23 1000.37 993.543Z"/><path fill="#4B100A" d="M1322.26 1003.22C1368.61 1003.88 1414.96 1004.19 1461.31 1004.14C1434.51 1124.18 1410.19 1248.62 1385.52 1369.28C1464.26 1369.86 1542.99 1370.02 1621.73 1369.78L1607.81 1437.37C1605.66 1448.19 1603.29 1461.58 1600.34 1472.36C1599.6 1475.05 1598.15 1475.04 1596.05 1475.71L1221.05 1476.31C1222.36 1466.06 1230.07 1434.76 1232.67 1422.08L1264.52 1271.5L1302.15 1090.81C1306.9 1068.73 1315.68 1023.04 1322.26 1003.22Z"/><path fill="#F99F2B" d="M1828.31 616.718C1840.13 616.006 1861.76 618.596 1873.88 619.396C1917.23 622.253 1990.48 636.673 2015.65 675.404C2055.24 655.941 2084.86 646.816 2129.27 645.66C2087.88 708.309 2068.01 769.568 2073.21 845.599C2074.68 867.114 2080.54 888.108 2084.58 909.123C2091 942.583 2099.66 973.135 2115.4 1003.57C2124.68 1021.55 2123.97 1041.21 2116.53 1060.17C2101.2 1099.28 2041.5 1129.62 2001.17 1115.72C1987.45 1110.94 1981.37 1090.8 1974.86 1078.52C1970.74 1070.7 1965.8 1063.35 1960.14 1056.56C1952.02 1046.99 1940.35 1037.48 1930.3 1029.81C1897.71 1004.94 1871.28 985.312 1856.16 944.965C1845.71 917.068 1847.39 895.46 1859.58 868.228C1865.05 855.989 1886.79 826.079 1898.46 821.935C1898 826.32 1892.19 836.894 1889.98 841.458C1880.2 861.652 1868.45 892.269 1870.04 914.633C1874.42 976.131 1938.44 1001.83 1972.78 1043.4C1985.74 1059.09 1990.05 1082.54 2003.09 1096.65C2006.77 1099.82 2014.61 1103.54 2019.49 1102.41C2033.23 1099.23 2031.62 1088.27 2029.77 1077.95C2027.79 1071.6 2009.9 1029.6 2024.13 1030.6C2035.1 1037.66 2038.07 1061.98 2046.11 1071.93C2071.16 1102.97 2099.59 1058.59 2096.79 1032.19C2093.47 1000.87 2075.06 979.31 2067.25 950.495C2043.75 863.741 2050.7 773.206 2065.02 685.622C2043.96 695.475 2036.16 706.908 2022.21 724.805C1973.58 681.314 1953.52 662.778 1882.48 664.065C1886.67 669.882 1896.35 684.062 1899.14 690.065C1896.45 692.902 1883.1 693.057 1878.46 693.435C1762.17 702.905 1655.14 771.396 1589.87 866.795C1581.61 878.878 1573.07 893.383 1563.73 904.66L1562.73 905.858C1571.36 871.983 1601.89 817.452 1623.54 789.772C1685.65 710.357 1747.29 675.292 1845.39 661.65C1840.92 647.099 1833.62 631.527 1828.31 616.718Z"/><path fill="#F99F2B" d="M1939.56 1267.7C1963.18 1262.8 1982.36 1263.35 2006.61 1254.98C2043.86 1242.12 2062.97 1218.5 2104.81 1219.3C2140.58 1219.98 2157.24 1248.48 2164.77 1280.4C2169.39 1299.96 2161.76 1324.38 2154.04 1342.17C2151.75 1347.27 2145.13 1360.48 2144.5 1365.15C2141.37 1388.34 2138.95 1419.39 2138.9 1442.8C2138.82 1474.09 2147.48 1506.59 2127.9 1535.27C2115.5 1553.43 2098.49 1564.58 2077.04 1568.16C2062.25 1570.63 2041.2 1571.46 2028.31 1578.07C2007.97 1588.5 1997.31 1611.64 1970.34 1608.39C1963.02 1607.56 1956.04 1604.87 1950.05 1600.58C1941.16 1594.11 1936.1 1584.19 1934.64 1573.63C1931.86 1553.44 1944.22 1503.93 1951.38 1484.8C1967 1483.65 1991.78 1479.72 2005.47 1479.32C1993.05 1498.01 1980.91 1496.87 1961.67 1505.09C1960.18 1522.79 1950.66 1563.9 1962.59 1577.3C1979.26 1596.03 1999.3 1571.08 2011.36 1560.38C2038.89 1538.68 2086.25 1550.07 2101.62 1513.34C2103.94 1487.68 2098.69 1465.29 2097.49 1439.82C2096.9 1412.93 2100.2 1378.78 2112.81 1354.92C2123.44 1334.81 2132.04 1324.37 2132.1 1300.47C2132.14 1284.76 2141.85 1276.24 2130.48 1261.08C2118.11 1253.18 2111.3 1251.73 2096.44 1255.53C2055.03 1266.13 1982.64 1295.09 1942.51 1269.7C1941.51 1269.06 1940.53 1268.4 1939.56 1267.7Z"/><path fill="#FBE4C3" d="M2130.48 1261.08L2132.55 1260.62C2138.61 1264.83 2144.07 1275.89 2145.03 1282.87C2148.1 1305.02 2140.69 1330.71 2127.69 1348.71C2122.38 1356.07 2116.09 1361.91 2112.66 1370.41C2104.43 1390.75 2103.39 1412.19 2103.16 1433.44C2102.96 1451.85 2114.61 1501.01 2102.31 1514.52L2101.62 1513.34C2103.94 1487.68 2098.69 1465.29 2097.49 1439.82C2096.9 1412.93 2100.2 1378.78 2112.81 1354.92C2123.44 1334.81 2132.04 1324.37 2132.1 1300.47C2132.14 1284.76 2141.85 1276.24 2130.48 1261.08Z"/><path fill="#F99F2B" d="M1135.85 298.881C1144.39 302.952 1214.93 400.631 1230.75 418.727C1231.21 411.514 1229.58 397.493 1232.7 391.914L1234.82 391.488C1239.32 393.672 1254.33 407.092 1259.01 411.013C1259.29 439.011 1259.36 467.012 1259.23 495.012C1249.48 484.547 1240.59 472.641 1230.91 462.098C1197.35 425.552 1168.48 382.443 1133.1 347.912C1109.46 362.639 1082.93 377.3 1058.65 391.382C1054.11 393.747 1048.98 396.812 1044.53 399.486C996.958 428.113 949.044 455.958 900.61 483.112C892.045 487.914 881.445 495.105 872.568 498.465C872.589 486.801 872.488 475.137 872.265 463.475C897.057 444.938 943.258 418.35 971.217 401.122L1135.85 298.881Z"/><path fill="#F99F2B" d="M1135.98 398.941C1148.34 402.096 1239.66 525.639 1259.19 545.717C1259.36 554.415 1259.35 563.115 1259.17 571.813C1243.88 557.685 1226.29 538.317 1211.86 523.015C1186.19 495.335 1159.83 468.287 1132.83 441.896C1108.01 457.206 1064.75 477.301 1037.32 491.683C1003.65 509.435 969.863 526.972 935.969 544.293C915.116 554.95 891.58 566.324 871.531 577.94C872.253 564.923 872.595 557.267 872.025 544.465C958.442 494.577 1048.54 447.262 1135.98 398.941Z"/><path fill="#F99F2B" d="M1843.66 851.812C1845.24 856.278 1836.75 875.268 1834.97 880.343C1822.22 916.606 1811.52 958.985 1812.26 997.517C1813.02 1027.66 1819.01 1057.43 1829.98 1085.52C1838.35 1106.47 1849.17 1125.03 1859.62 1145.12C1880.64 1185.57 1896.47 1230.71 1891.56 1276.95C1889.51 1296.3 1880.95 1324.41 1864.93 1336.93C1864.01 1326.99 1867.25 1318.3 1867.27 1308.81C1867.3 1285.37 1862.3 1263.13 1856.71 1240.73C1846.88 1200.28 1826.93 1163.99 1810.18 1126.44C1779.92 1058.58 1777.99 984.657 1805.2 915.501C1812.81 896.158 1827.22 864.202 1843.66 851.812Z"/><path fill="#F99F2B" d="M1136.2 491.993C1146.76 494.242 1247.1 609.224 1258.5 624.455C1258.57 632.371 1258.45 638.674 1257.94 646.568C1244.08 635.455 1222.86 613.997 1209.49 601.13L1135.52 530.518C1125.21 534.086 1109.51 541.755 1099.25 546.409L1037.74 574.357L872.59 649.953C872.195 640.616 872.24 631.048 872.172 621.688C879.955 616.398 893.864 609.213 902.388 605.238C980.488 568.823 1057.78 527.421 1136.2 491.993Z"/><path fill="#F99F2B" d="M1771.97 1352.67C1783.02 1354.57 1805.55 1362.51 1811.14 1372.68C1807.62 1382.12 1779.44 1369.48 1764.41 1380.53C1748.78 1391.36 1741.12 1411.99 1735.84 1429.48C1733.94 1435.77 1732.46 1446.99 1741.89 1447.77C1765.27 1449.7 1788.92 1441.75 1812.68 1442.68C1832.76 1443.47 1851.36 1451.85 1871.49 1449.58C1915.7 1446.17 1922.01 1403.66 1945.14 1371.34C1961.78 1347.96 1982.83 1328.06 2007.11 1312.77C2008.43 1320.54 2010.64 1317.06 2011.71 1322.31C1997.07 1341.43 1983.78 1361.55 1971.93 1382.52C1952.32 1417.22 1940.57 1460.16 1900.46 1472.89C1866.2 1483.77 1852.4 1469.98 1817.88 1467.61C1796.2 1464.86 1745.9 1485.48 1727.75 1474.66C1690.34 1452.36 1724.05 1390.46 1745.64 1368.78C1754.16 1360.23 1759.73 1356.68 1771.97 1352.67Z"/><path fill="#F99F2B" d="M1133.28 652.875C1133.69 652.831 1134.09 652.742 1134.5 652.743C1144.04 652.783 1246.84 760.478 1259.1 772.986C1258.66 779.403 1258.53 786.434 1258.28 792.91C1217.13 758.756 1176.34 724.162 1135.93 689.136C1105.54 699.214 1066.89 716.027 1036.75 728.394C983.996 749.99 925.504 775.765 872.675 795.361C871.951 788.471 871.944 778.115 871.718 770.957C889.124 761.247 922.672 748.292 942.076 739.24C1004.65 710.047 1071.43 683.315 1133.28 652.875Z"/><path fill="#F99F2B" d="M1134.84 584.053C1145.55 588.132 1249.72 688.141 1258.93 701.833C1259.18 708.156 1258.88 713.746 1258.58 720.07C1243.89 709.685 1222.8 691.06 1208.65 679.268L1135.6 618.793C1102.05 632.495 1067.44 644.399 1033.64 658.151C981.804 678.956 924.734 703.241 872.667 722.367C872.639 714.272 872.474 706.177 872.171 698.087C894.281 686.616 931.596 671.744 955.04 661.708C1015.33 635.897 1074.88 610.78 1134.84 584.053Z"/><path fill="#F99F2B" d="M1134.87 747.796C1149.08 752.365 1243.03 835.091 1258.78 849.794C1258.75 854.966 1258.33 860.161 1258 865.327C1219.99 840.269 1171.01 805.936 1134.96 777.83C1099.34 791.285 1063.43 803.945 1027.25 815.801C979.839 831.547 932.758 848.593 885.444 864.663C880.917 866.201 876.765 867.527 872.131 868.709C871.299 862.476 871.222 854.874 870.99 848.468C887.227 840.561 912.909 831.54 930.381 824.882C975.004 807.913 1019.72 791.197 1064.54 774.738C1085.45 766.95 1115.44 756.796 1134.87 747.796Z"/><path fill="#4B100A" d="M171.41 1571.68C237.611 1573.14 307.24 1572.27 373.56 1572.37L741.807 1572.38L852.753 1571.97C862.52 1571.9 918.497 1570.49 923.482 1572.96C925.403 1576.38 924.675 1579.43 924.412 1583.5C918.945 1584.95 871.212 1584.31 863.056 1584.29L723.428 1584.25L357.781 1584.46L238.12 1584.37C218.33 1584.38 198.197 1584.56 178.385 1584.36C174.242 1584.32 173.458 1584.04 171.367 1581.59C170.381 1577.45 170.859 1576.02 171.41 1571.68Z"/><path fill="#F99F2B" d="M1133.21 854.236C1133.59 854.192 1133.97 854.119 1134.35 854.105C1143.27 853.77 1247.99 918.628 1258.42 928.997C1259.51 933.197 1259.57 933.757 1259.09 938.063L1257.99 938.871C1244 936.61 1152.38 884.686 1135.04 876.83L1025.64 904.126C974.529 916.305 923.678 930.398 872.37 942.414C871.836 937.57 871.752 931.47 871.554 926.487C880.487 922.288 928.207 910.208 940.324 906.797C1004 888.874 1069.85 873.338 1133.21 854.236Z"/><path fill="#F99F2B" d="M1434.6 555.94L1436.29 555.847C1442.75 558.25 1484.68 619.255 1494.24 629.605C1495.09 622.601 1495.04 616.179 1495.1 609.155C1501.3 616.573 1503.87 619.301 1511.42 625.265C1510.85 642.46 1511.84 658.848 1511.36 675.729C1501.77 665.425 1491.75 654.791 1482.89 643.878C1467.07 624.394 1452.74 604.793 1435.35 586.62C1420.9 593.81 1404.59 603.922 1390.49 612.201C1353 634.094 1315.35 655.71 1277.55 677.048C1277.18 670.064 1277.25 662.108 1277.15 655.043C1290.38 644.007 1310.73 634.306 1325.3 624.541C1360.84 600.724 1399.19 579.802 1434.6 555.94Z"/><path fill="#F99F2B" d="M1435.97 616.733C1436.45 616.784 1436.93 616.814 1437.41 616.886C1445.98 618.166 1501.07 692.57 1510.81 704.811C1511.16 710.653 1511.37 716.614 1511.64 722.471C1488.16 700.29 1456.66 666.642 1436.06 642.588C1421.35 649.154 1397.6 662.757 1381.67 670.674C1346.61 688.009 1311.68 706.737 1276.8 724.634L1277.51 704.812C1288.2 696.759 1316.63 680.967 1329.28 673.877C1364.65 654.477 1400.22 635.428 1435.97 616.733Z"/><path fill="#F99F2B" d="M1434.92 672.92C1442.34 673.266 1466.29 701.819 1472.57 708.843C1485.22 722.98 1497.97 737.023 1510.83 750.971L1510.87 765.739C1483.56 743.469 1461.09 720.349 1435.14 697.668C1416.05 705.338 1396.31 714.558 1377.46 723.001C1344.68 738.273 1310.56 753.213 1277.52 768.149C1277.1 762.099 1277.39 756.783 1277.62 750.737C1286.42 744.379 1311.87 732.281 1322.82 726.786C1359.83 708.1 1397.21 690.141 1434.92 672.92Z"/><path fill="#F99F2B" d="M1438.37 727.05C1442.33 729.161 1445.38 732.894 1448.56 736.043C1469.07 756.361 1489.6 777.427 1511.24 796.537C1511.26 801.171 1511.69 804.968 1509.99 809.214C1506.1 809.796 1444.03 756.178 1435.43 749.919C1414.43 758.058 1393.53 766.438 1372.72 775.057L1313.6 798.633C1303.49 802.641 1289.44 808.74 1279.48 811.47L1278.15 810.69C1276.2 806.014 1276.52 802.279 1276.39 797.191C1292.12 788.739 1327.2 774.7 1345.48 766.869C1373.49 754.87 1410.72 736.53 1438.37 727.05Z"/><path fill="#F99F2B" d="M1435.09 770.087C1443.18 769.452 1496.1 827.483 1505.46 836.143C1509.72 840.086 1512.96 846.663 1510.09 852.404C1503.3 852.108 1444.15 798.82 1435.34 790.888C1415.55 799.399 1395.7 807.751 1375.78 815.942C1342.82 829.029 1310.09 842.707 1277.62 856.969C1277.43 851.895 1277.17 846.824 1276.84 841.758C1290.66 833.202 1321.72 819.956 1337.39 813.036L1435.09 770.087Z"/><path fill="#4B100A" d="M1169.44 1548.35C1174.66 1548.24 1181.14 1551.99 1182.17 1551.66C1197.32 1546.93 1212.06 1545.72 1224.66 1558.42C1242.17 1576.05 1223.42 1610.4 1201 1614.1C1195.93 1614.94 1193.11 1614.88 1188.02 1614.59C1179.44 1612.64 1176.05 1610.18 1169.05 1605.34C1167.11 1616.28 1165.33 1624.76 1161.82 1635.27C1157.83 1635.64 1153.29 1635.7 1149.24 1635.85C1151.37 1622.92 1162.47 1554.08 1169.44 1548.35ZM1199.73 1600.89C1226.63 1587.21 1219.76 1556.45 1191.91 1561.25C1184.24 1564.32 1178.65 1567.3 1174.97 1575.4C1172.67 1580.35 1172.47 1586.02 1174.41 1591.11C1178.71 1602.18 1189.54 1603.49 1199.73 1600.89Z"/><path fill="#4B100A" d="M953.752 1528.29C978.327 1527.2 1042.85 1524.44 1014.31 1570.91C1007.74 1581.59 991.901 1585.7 980.147 1587.01L955.698 1587.04C954.764 1594.11 954.333 1601.45 952.46 1608.34C950.834 1614.33 942.33 1614.53 938.154 1611.73C936.377 1605.28 950.811 1538.27 953.752 1528.29ZM958.232 1575.3C970.422 1575.68 981.051 1576.92 992.782 1573C997.809 1569.98 1003.91 1566.04 1005.32 1559.97C1010.61 1537.16 980.107 1540.11 967.094 1540.43C964.182 1545.24 960.144 1568.07 958.232 1575.3Z"/><path fill="#F99F2B" d="M1436.04 826.998C1437.3 827.461 1438.35 827.863 1439.5 828.555C1448.74 834.086 1510.04 883.86 1510.73 889.958C1511.03 892.597 1510.93 896.322 1509.27 898.329C1499.69 894.809 1448.76 855.046 1435.61 845.825L1372.5 867.739C1360.99 871.504 1283.07 899.952 1278.01 899.274C1275.23 895.412 1275.74 888.196 1280.84 886.318C1294.31 881.361 1307.55 875.848 1320.87 870.512C1358.93 855.162 1397.33 840.654 1436.04 826.998Z"/><path fill="#4B100A" d="M1105.9 1549.18C1114.09 1548.19 1122.05 1548.25 1129.64 1551.96C1136.58 1555.3 1141.86 1561.32 1144.25 1568.64C1148.28 1581.41 1141.99 1596.64 1132.28 1605.23C1127.01 1609.89 1122.15 1611.33 1115.67 1613.4C1065.5 1620 1055.97 1559.93 1105.9 1549.18ZM1111.61 1601.69C1138.11 1593.74 1139.64 1557.73 1108.29 1560.04C1078.92 1570.92 1078.63 1602.26 1111.61 1601.69Z"/><path fill="#4B100A" d="M1274.26 1548.38C1294.05 1547.14 1316.46 1561.39 1306.78 1582.23C1298.02 1591.01 1261.52 1579.8 1253.9 1588.73C1253.51 1594.28 1259.25 1599.03 1264.06 1600.79C1274.75 1604.7 1282.4 1602.5 1292.14 1598.02C1295.44 1597.97 1297.64 1598.95 1299.41 1601.57C1299.44 1609.23 1285.58 1613.51 1279.48 1614.66C1269.63 1616.57 1259.43 1614.32 1251.3 1608.44C1236.57 1597.67 1236.2 1576.38 1246.53 1562.14C1253.36 1552.73 1263.34 1550.13 1274.26 1548.38ZM1281.25 1575.79C1285.65 1575.92 1289.79 1576.7 1293.16 1574.34C1295.15 1571.03 1294.74 1572.76 1294.58 1568.99C1289.07 1559.13 1280.73 1559.19 1271.06 1560.18C1265.47 1562.27 1256.5 1566.4 1255.62 1573.03C1259.37 1577.82 1275.1 1575.89 1281.25 1575.79Z"/><path fill="#4B100A" d="M1489.07 1549.15C1517.77 1546.7 1526.62 1557.67 1524.93 1585.13C1516.61 1584.69 1476.97 1583.12 1472.48 1588.2C1472 1606.94 1498.75 1602.12 1509.78 1597.7L1512.54 1596.57C1515.71 1597.68 1514.57 1596.69 1516.14 1599.6C1515.58 1617.11 1484.6 1616.79 1472.55 1610.61C1465.65 1607.1 1460.5 1600.9 1458.3 1593.48C1451.65 1571.5 1469 1554.38 1489.07 1549.15ZM1497.5 1575.72C1504.16 1575.84 1511.87 1577.7 1512.66 1569.34C1508.14 1560.34 1498.13 1559.29 1489.2 1560.18C1482.99 1562.43 1475.5 1565.62 1473.88 1572.67C1476.77 1578.46 1491.28 1575.82 1497.5 1575.72Z"/><path fill="#F99F2B" d="M1436.49 891.709C1452.82 899.188 1474.05 912.269 1489.17 921.93C1495.91 925.641 1506.97 930.832 1509.86 937.55L1509.11 939.385C1502.59 941.556 1487.08 932.643 1481 928.841C1465.95 921.508 1451.15 913.67 1436.62 905.341C1390.82 915.434 1344.33 928.823 1298.74 940.107C1291.51 941.894 1283.58 945.194 1276.62 941.098C1275.45 938.795 1275.4 939.827 1275.89 937.89C1277.16 936.324 1279.09 934.219 1281.11 933.732C1294 930.627 1306.69 927.152 1319.45 923.515C1358.31 912.352 1397.33 901.749 1436.49 891.709Z"/><path fill="#F99F2B" d="M1968.79 792C1974.48 793.061 2001.58 812.75 2008.1 817.241C2009.81 836.283 2015.92 870.966 2016.5 887.442C2009.89 888.574 2003.19 889.255 1999.79 882.128C1994.69 871.413 1991.09 859.808 1987.33 848.552C1981.01 829.748 1974.83 810.897 1968.79 792Z"/><path fill="#4B100A" d="M1538.97 1577.01C1531.94 1567.84 1536.97 1558.07 1546.64 1553.71C1561.88 1546.85 1575.73 1547.49 1591.28 1552.7C1589.6 1557.06 1587.45 1560.13 1584.99 1564.07C1571.65 1558.48 1558.86 1554.02 1549.38 1568.29C1549.57 1568.51 1549.75 1568.72 1549.94 1568.93C1557.13 1576.24 1589.82 1578.45 1588.85 1594.08C1587.52 1615.52 1542.93 1620.39 1530.34 1607.83C1528.29 1605.79 1530.54 1599.37 1533.25 1599.18C1540.63 1595.14 1576.56 1611.34 1572.32 1593.34C1565.03 1583.87 1551.43 1588.96 1538.97 1577.01Z"/><path fill="#4B100A" d="M1387.13 1533.95C1392.08 1533.69 1395.95 1532.78 1399.7 1535.76C1401.03 1539.38 1399.63 1543.67 1398.84 1547.68C1406.01 1547.97 1413.33 1546.88 1417.11 1553.95L1416.04 1556.23C1409.14 1561.5 1405.59 1560.16 1396.47 1559.81C1394.97 1570.2 1388.08 1590.5 1390.93 1598.65C1398.61 1606.49 1405.57 1597.95 1411.26 1605.08C1405.32 1623.7 1384.15 1616.14 1375.51 1602.55C1374.79 1584.3 1380.26 1577.27 1380.63 1561.48C1378.54 1557.54 1378.08 1561.69 1373.31 1557.39C1372.57 1553.52 1373.02 1552.85 1374.1 1548.89C1376.89 1546.77 1379.51 1547.33 1383.52 1547.12C1385.41 1544.74 1385.97 1538.24 1387.13 1533.95Z"/><path fill="#4B100A" d="M1363.96 1547.22C1365.4 1547.71 1365.14 1547.8 1366.37 1549C1364.86 1552.75 1365.55 1553.97 1365.02 1557.78C1364.98 1558.1 1364.93 1558.41 1364.89 1558.73C1355.69 1562.03 1350.14 1562.99 1342.66 1568.78L1341.62 1569.6C1337.92 1577.24 1331.12 1604.57 1329.41 1613.39C1324.9 1613.54 1320.24 1613.37 1315.72 1613.28C1315.88 1607.58 1327.65 1555.01 1330.07 1549.49C1335.53 1543.86 1340.57 1550.15 1344.23 1553.09C1348.41 1552.79 1357.75 1548.69 1363.96 1547.22Z"/><path fill="#4B100A" d="M1040.46 1547.02C1046.74 1548.34 1044.73 1547.71 1049.85 1552.18C1057.64 1553.89 1063.7 1545.14 1071.06 1549.92C1073.23 1553.94 1072.74 1551.85 1072.6 1556.41C1069.47 1560.61 1063.64 1560.71 1058.72 1563.2C1054.31 1565.43 1051.94 1567.2 1048.2 1570.23C1045.39 1576.72 1043.22 1585.27 1041.25 1592.2C1039.83 1599.82 1039.72 1609.2 1034 1613.29C1029.85 1613.37 1028.62 1613.63 1024.77 1612.38C1023.97 1610.57 1024.12 1607.47 1024.59 1605.53C1028.79 1587.99 1030.94 1569.42 1035.74 1552.25C1036.36 1550.03 1038.77 1548.27 1040.46 1547.02Z"/><path fill="#4B100A" d="M1437.78 1548.15C1442.1 1547.95 1445.1 1547.38 1448.26 1550.03C1449.04 1560.65 1439.04 1598.24 1436.8 1611.14C1436.48 1612.99 1434.6 1613.23 1433.07 1613.77C1428.82 1613.81 1424.4 1613.57 1420.14 1613.42C1423.2 1602.53 1425.97 1591.93 1428.55 1580.96C1430.27 1573.62 1433.21 1552.59 1437.78 1548.15Z"/><path fill="#4B100A" d="M1444.59 1521.06C1447.79 1520.79 1450.88 1522.28 1452.66 1524.95C1454.44 1527.63 1454.61 1531.06 1453.12 1533.9C1451.63 1536.75 1448.71 1538.55 1445.5 1538.61C1440.75 1538.7 1436.8 1535.01 1436.55 1530.27C1436.31 1525.53 1439.87 1521.46 1444.59 1521.06Z"/><path fill="#F99F2B" fill-opacity="0.96862745" d="M2007.11 1312.77C2014.91 1308.26 2019.79 1305.68 2028.02 1302.08C2023.6 1308.06 2016.83 1316.68 2011.71 1322.31C2010.64 1317.06 2008.43 1320.54 2007.11 1312.77Z"/></svg>