<?xml version="1.0" encoding="utf-8" ?><svg xmlns="http://www.w3.org/2000/svg" xmlns:xlink="http://www.w3.org/1999/xlink" width="2384" height="1760" viewBox="0 0 2384 1760"><path fill="#1E4897" d="M636.979 844.5L767.489 844.778C760.678 851.886 746.036 862.561 737.734 869.117C724.026 880.004 710.497 891.113 697.152 902.441C626.118 962.327 554.53 1021.55 482.395 1080.11C490.352 1089.22 499.503 1103.51 506.47 1113.82L539.097 1161.85C582.647 1225.84 624.576 1289.72 669.06 1353.17C653.312 1354.78 622.863 1353.83 606.137 1353.8L492.61 1353.5C486.817 1344.62 478.515 1334.04 472.237 1325.02C453.741 1298.16 435.06 1271.43 416.197 1244.83C401.926 1224.47 381.074 1191.36 366.515 1172.99C351.383 1183.66 307.434 1217.06 296.312 1232.3C292.858 1237.04 286.344 1272.13 284.361 1280.75C282.276 1301.07 272.782 1331.84 269.337 1353.76C245.442 1355.02 210.883 1352.73 185.999 1353.38C173.082 1353.72 123.599 1353.93 114.822 1352.09C113.89 1345.81 137.535 1245.3 140.482 1231.63L191.484 995.886C202.202 945.914 212.344 894.931 224.03 845.207C240.255 844.356 261.514 844.903 278.039 844.863L379.088 844.736C368.552 891.068 358.401 937.488 348.637 983.989C345.722 997.549 336.493 1035.86 335.623 1047.21L337.24 1047.89C344.448 1044.95 402.694 993.849 412.49 985.573L513.5 901.366C535.859 882.759 559.287 862.546 582.081 844.788C598.243 844.03 620.394 844.553 636.979 844.5Z"/><path fill="#1E4897" d="M1030.46 835.485C1069.97 834.364 1103.88 834.619 1142.81 842.004C1192.72 851.472 1239.85 869.562 1277.74 904.304C1285.8 911.692 1295.83 921.086 1301.98 930.015C1275.15 946.027 1246.52 970.778 1220.51 988.648C1212.08 994.44 1197.83 1006.35 1189.02 1010.2C1184.37 1007.62 1176.77 998.824 1172.42 994.896C1094.55 923.435 930.859 949.512 886.425 1048.25C818.403 1199.39 945.817 1276.47 1081.84 1231.06C1087.29 1204.41 1092.17 1178.68 1098.32 1152.01C1102.03 1135.89 1109.96 1104.19 1110.72 1088.66C1136.56 1087.01 1175.47 1088.3 1202.25 1088.36C1217.72 1088.28 1235.73 1087.77 1251.01 1088.52C1249.68 1096.55 1247.95 1104.55 1246.32 1112.53C1233.2 1176.72 1220.08 1240.61 1205.14 1304.39C1150.61 1337.33 1099.74 1356.04 1035.79 1362.44C951.775 1370.84 853.349 1357.61 786.033 1302.88C743.536 1268.22 716.417 1218.2 710.558 1163.68C703.535 1092.26 728.648 1006.84 775.182 952.179C841.402 874.393 932.162 844.591 1030.46 835.485Z"/><path fill="#1E4897" d="M1402.66 844.899C1450.53 843.97 1510.63 844.27 1558.64 845.326C1556.01 860.592 1551.01 879.31 1547.81 895.235C1538.24 944.811 1528.08 994.272 1517.33 1043.61L1493.97 1152.28C1487.77 1181.47 1482.38 1209.31 1475.01 1238.26L1650.77 1237.97C1675.77 1237.94 1712.51 1236.77 1736.55 1238.53C1727.68 1275.13 1721.94 1312.87 1712.91 1349.45C1712.16 1352.48 1711.52 1352.58 1709.01 1353.81L1424.33 1353.59C1380.29 1353.64 1335.34 1354.62 1291.47 1354.13C1295.93 1341.68 1300.58 1316.38 1303.38 1302.76C1308.26 1279.21 1313.31 1255.7 1318.52 1232.22L1379.11 952.63L1394.73 878.518C1396.45 870.6 1400.11 851.899 1402.66 844.899Z"/><path fill="#3CB4E2" d="M1047.48 256.934C1055.16 256.349 1065.23 256.64 1073.09 256.649C1073.72 282.194 1073.57 308.715 1073.85 334.381C1095.73 350.074 1125.72 365.566 1149.81 382.525L1149.6 476.486C1165.47 487.222 1182.92 497.377 1199.39 507.314L1199.46 615.371C1215.82 626.715 1232.31 636.625 1249.23 647.097C1248.88 696.563 1248.82 746.03 1249.04 795.497C1240.23 795.698 1231.05 795.513 1222.21 795.463C1221.26 752.841 1223.73 705.619 1221.64 663.548C1208.79 654.831 1189.42 644.48 1175.53 636.028C1140.12 614.208 1104.44 592.829 1068.5 571.895L1059.58 566.854L944.216 636.754C929.858 645.607 912.674 654.122 899.661 664.198C897.609 701.755 899.4 756.447 899.552 795.145C890.745 795.261 881.602 795.132 872.769 795.116C873.034 745.848 872.963 696.58 872.556 647.313C888.564 636.378 905.738 626.967 921.727 615.858L921.298 507.685C936.855 497.569 955.001 487.517 971.088 477.757C970.833 445.781 970.89 413.802 971.259 381.827C996.615 367.521 1020.66 350.06 1047.52 335.38L1047.48 256.934ZM949.311 524.406C948.662 548.03 948.099 576.639 949.021 600.148C956.653 596.484 963.634 592.672 971.047 588.63L970.973 539.339C976.111 534.594 992.258 525.033 998.943 522.618C998.957 538.609 998.64 555.801 999.037 571.69C1007.61 566.454 1055.73 536.378 1060.49 534.603C1081.87 545.666 1099.93 560.459 1122.67 570.528C1122.85 554.518 1122.65 538.507 1122.09 522.506C1130.48 526.507 1141.54 534.01 1149.7 539.176L1149.83 586.336C1157.57 591.567 1163.38 594.967 1171.59 599.28C1171.95 574.321 1171.78 549.356 1171.08 524.404C1158.81 516.158 1138.32 504.069 1125.45 496.132C1112.03 487.859 1072.76 462.287 1059.42 458.032C1047.69 466.242 1029.83 476.169 1017.2 483.632C994.415 496.959 971.783 510.552 949.311 524.406ZM1122.42 461.998L1122.43 396.434C1110.66 390.003 1067.81 361.977 1059.79 360.126C1048.53 366.001 1009.42 389.691 998.822 397.255C998.846 417.439 998.39 440.977 999.282 460.891C1007.89 455.767 1055.14 426.371 1061.65 426.058C1081.39 436.216 1103.8 452.753 1122.42 461.998Z"/><path fill="#3CB4E2" d="M1840.84 488.746C1896.04 490.363 1952.43 496.523 2002.95 521.392C2020.15 529.86 2029.65 538.929 2041.92 553.238C2082.94 534.09 2112.68 518.563 2161.84 522.351C2150.67 538.697 2138.92 556.563 2130.99 574.629C2100.28 644.556 2092.84 721.384 2108.31 796.023C2117.64 841.057 2125.59 881.627 2145.84 922.957C2156.83 945.383 2152.92 984.909 2138.31 1004.85C2121.09 1028.85 2094.08 1047.2 2064.51 1051.95C2050.95 1054.13 2028.48 1054.58 2016.96 1046.12C2001 1034.38 1996.49 1001.12 1983.18 985.541C1972.25 972.961 1958.62 961.194 1945.05 951.393C1904.89 922.394 1873.99 888.925 1865.12 838.429C1857.38 794.384 1882.82 736.264 1921.01 712.954C1900.68 752.935 1874.49 803.136 1889.96 848.746C1908.9 905.361 1969.35 928.137 2001.03 975.799C2011.09 990.939 2014.46 1006.39 2020.08 1023.18C2023.16 1032.4 2043.46 1030.51 2051.04 1029C2053.87 1026.94 2057.15 1024.94 2057.72 1020.87C2060.46 1001.4 2034.62 973.161 2042.42 956.062C2048.21 951.547 2054.29 957.54 2055.98 960.752C2063.19 974.476 2066.21 1005.99 2084.43 1010.13C2108.11 1015.51 2121.61 990.879 2124.62 971.97C2130.09 937.579 2111.55 913.895 2100.26 883.414C2094.11 866.01 2088.21 838.613 2085.11 820.247C2076.28 765.268 2074.52 709.387 2079.86 653.962C2081.9 634.885 2084.19 615.836 2086.72 596.819C2088 587.429 2089.99 577.283 2090.88 568.006C2068.96 578.224 2057.45 592.462 2044.94 611.941C2000.52 563.983 1967.98 538.987 1899.52 541.69C1904.13 550.284 1912.21 566.003 1917.94 573.184C1796.71 583.084 1701.92 629.73 1622.56 723.273C1605.66 743.204 1590.33 764.418 1576.72 786.725L1573.05 785.613L1571.96 783.178C1572.29 779.559 1572.33 777.286 1572.3 773.641C1576.47 759.303 1587.69 739.542 1594.81 726.322C1627.67 665.259 1677.8 609.585 1738.78 575.548C1781.38 551.77 1809.46 545.751 1856.83 539.301C1853.04 522.042 1844.75 504.631 1840.84 488.746Z"/><path fill="#3CB4E2" d="M2130.24 1164.36C2166.08 1160.01 2194.35 1174.98 2209.22 1208.13C2216.59 1224.71 2219.48 1242.94 2217.61 1260.98C2213.71 1295.36 2194.21 1309.52 2188.56 1338.9C2183.05 1367.6 2182.4 1401.19 2178.86 1430.41C2175.97 1454.25 2179.83 1479.81 2169.9 1502.8C2158.76 1530.78 2132.85 1554.78 2102.6 1559.29C2088.25 1561.42 2073.11 1560.68 2059.83 1567.07C2042.44 1575.58 2031.06 1591.69 2012.96 1599.45C1989.78 1609.54 1965.95 1599.68 1957.01 1575.85C1949.41 1555.59 1953.2 1536.12 1957.89 1515.63C1961.6 1499.46 1964.82 1479.86 1971.58 1464.65C1988 1457.49 2012.55 1458.89 2030.47 1459.13C2016.41 1475.87 2001.9 1481.34 1982.42 1490.2C1981.68 1500.54 1981.62 1512.89 1979.7 1522.76C1973.45 1550.9 1976.12 1595.68 2016.6 1565.1C2026.49 1557.63 2036.51 1548.11 2047.47 1542.45C2067.32 1532.2 2092.9 1530.98 2112.16 1519.78C2120.6 1514.88 2127.63 1507.9 2132.59 1499.5C2146.27 1475.98 2138.42 1448.16 2138.15 1422.51C2138.02 1411.23 2139.01 1397.68 2140.36 1386.43C2142.64 1366.57 2146.91 1347 2153.11 1328C2163.51 1296.5 2185.47 1263.88 2175.09 1229.33C2159.53 1177.55 2098.71 1216.95 2069.23 1224.71C2029.62 1235.13 1992.84 1241.44 1956.1 1221.42C1979.78 1217.44 2010.24 1212.26 2032.45 1202.84C2070.89 1186.54 2086.34 1169.61 2130.24 1164.36Z"/><path fill="#3CB4E2" d="M1858.78 743.77C1862.26 747.29 1855.48 763.955 1853.69 768.713C1819.57 859.284 1806.51 954.292 1855.33 1042.37C1895.27 1114.43 1942.96 1230.58 1877.89 1302.45L1877.02 1302.05C1875.86 1298.2 1878.97 1292.63 1879.61 1287.22C1880.43 1280.29 1881.18 1274.16 1881.35 1267.06C1881.93 1243.38 1877.61 1213.85 1871.51 1190.91C1845.9 1094.57 1797.6 1044.42 1795.31 940.375C1794.42 881.79 1809.49 824.068 1838.88 773.385C1843.58 765.219 1852.47 750.366 1858.78 743.77Z"/><path fill="#3CB4E2" d="M2049.89 1259.93C2051.93 1259.62 2051.15 1259.69 2053.31 1260.36C2053.01 1263.21 2042.65 1273.56 2039.81 1276.89C2034.58 1283.15 2029.65 1289.65 2025.05 1296.39C2011.71 1315.77 2005.06 1329.93 1994.06 1350.66C1980.16 1376.86 1966.84 1413.46 1946.07 1434.27C1939.35 1441.01 1928.31 1446.79 1919.74 1450.55C1881.44 1467.38 1860.04 1442.87 1819.64 1446.09C1793.18 1448.19 1774.09 1457.36 1749.02 1457.28C1741.19 1457 1729.78 1453.46 1725.21 1446.78C1698.2 1407.25 1734.15 1347.05 1764.13 1323.01C1780.36 1312.65 1794.03 1316.2 1809.89 1325.15C1814.88 1327.96 1824.36 1332.82 1824.09 1339.09C1816.21 1348.8 1790.16 1338.48 1777.5 1344.38C1765.29 1351.34 1754.06 1371.68 1748.7 1384.6C1726.14 1438.91 1761.37 1420.65 1788.74 1417.95C1798.28 1417.03 1807.87 1416.73 1817.45 1417.03C1828.19 1417.34 1838.91 1418.2 1849.56 1419.59C1864.27 1421.64 1874.83 1425.61 1889.85 1423.37C1935.11 1416.61 1940.34 1370.36 1962.91 1337.57C1987.86 1301.3 2010 1279.33 2049.89 1259.93Z"/><path fill="#3CB4E2" d="M824.065 1416.62C854.622 1410.5 884.369 1430.26 890.559 1460.81C896.75 1491.35 877.047 1521.14 846.516 1527.4C815.89 1533.68 785.986 1513.9 779.776 1483.26C773.567 1452.62 793.411 1422.76 824.065 1416.62ZM842.547 1512.43C857.29 1509.75 869.451 1499.34 874.384 1485.19C879.318 1471.05 876.262 1455.34 866.384 1444.07C856.506 1432.8 841.332 1427.72 826.659 1430.76C804.353 1435.38 789.911 1457.08 794.261 1479.44C798.611 1501.8 820.135 1516.51 842.547 1512.43Z"/><path fill="#3CB4E2" d="M1058.81 672.747C1064.86 671.903 1090.7 692.537 1097.4 697.526L1097.35 795.54C1088.69 795.644 1080.03 795.64 1071.37 795.526C1070.34 768.752 1071.56 739.947 1070.75 712.599L1060.41 705.986C1056.32 706.191 1052.91 709.715 1049.69 712.347C1049.39 740.069 1049.27 767.793 1049.35 795.516C1041.42 795.845 1031.58 795.627 1023.51 795.652C1022.57 763.937 1023.3 729.885 1023.71 698.141C1034.48 688.636 1046.65 680.34 1058.81 672.747Z"/><path fill="#3CB4E2" d="M243.63 1468.49L498.429 1468.43L578.064 1468.94C586.554 1469.02 616.037 1468.03 620.6 1471.59C621.51 1475.04 621.502 1474.84 620.682 1478.32C617.364 1480.71 601.27 1479.91 596.56 1479.92C562.207 1479.92 527.853 1479.89 493.5 1479.86L241.734 1480.01L156.016 1480.08C148.339 1480.08 118.217 1481.94 114.186 1478.33C113.211 1475.16 112.709 1474.37 113.446 1471.09C114.053 1470.56 114.66 1470.03 115.267 1469.49C143.105 1468.38 220.823 1468.6 243.63 1468.49Z"/><path fill="#3CB4E2" d="M1408.8 1468.5L1642.42 1468.41L1701.86 1468.34C1713.44 1468.33 1732.81 1467.68 1743.31 1469.85C1745.28 1472.94 1745.42 1474.61 1743.71 1477.68C1737.47 1481.55 1729.4 1479.82 1722.26 1479.79L1689.74 1479.88L1578.25 1479.86L1347.41 1479.96L1276.25 1479.88C1268.91 1479.87 1251.06 1480.47 1244.81 1479.67C1240.59 1476.92 1240.23 1473.2 1243.36 1469.58C1249.53 1468.09 1286 1468.64 1294.83 1468.64L1408.8 1468.5Z"/><path fill="#3CB4E2" d="M1122.52 630.756C1128.97 632.986 1144.69 644.571 1150.26 649.127C1150.47 681.766 1150.49 714.407 1150.31 747.047C1150.28 756.764 1150.78 787.23 1149.5 795.423L1122.81 795.404C1121.78 744.851 1121.09 681.26 1122.52 630.756Z"/><path fill="#3CB4E2" d="M994.552 633.952L997.048 634.121C999.07 636.472 998.355 656.517 998.4 661.546C998.88 706.157 998.891 750.772 998.432 795.383C990.701 795.564 982.522 795.435 974.75 795.444L971.989 794.871C970.229 792.28 970.44 662.904 970.47 647.922C978.331 643.169 986.576 638.55 994.552 633.952Z"/><path fill="#3CB4E2" d="M1036.84 1417.97C1053.68 1416.43 1095.3 1417.81 1113.48 1417.94L1113.45 1431.17L1053.49 1431.39L1053.39 1464.47C1061.64 1464.45 1103.48 1463 1106.63 1466.44C1106.87 1469.67 1107.35 1471.96 1106.3 1475.01C1101.98 1477.42 1061.52 1476.37 1053.26 1476.47C1052.46 1483.01 1052.97 1504.85 1052.97 1512.51L1117.24 1512.5L1117.24 1526.2C1090.69 1526.29 1064.14 1526.2 1037.59 1525.95C1036.75 1490.62 1036.99 1453.38 1036.84 1417.97Z"/><path fill="#3CB4E2" d="M724.301 1464.04C724.223 1455.22 723.342 1425.84 725.272 1419.31C728.65 1417.24 735.874 1416.85 738.767 1420.25C739.307 1423.97 739.878 1439.39 739.551 1442.75C738.331 1455.3 742.581 1519 737.514 1525.93C732.652 1526.07 731.006 1526.34 726.224 1525.08C722.87 1520.93 724.209 1484.53 724.234 1476.63C703.387 1476.48 682.538 1476.49 661.691 1476.66C661.267 1492.46 661.747 1510.3 661.81 1526.25L647.231 1526.14C646.394 1496.01 646.992 1465.68 646.889 1435.54C646.869 1429.7 646.913 1423.9 647.385 1418.09C651.754 1417.82 657.138 1417.91 661.6 1417.87C662.196 1432.47 661.847 1449.07 661.863 1463.83C682.519 1464.15 703.609 1464 724.301 1464.04Z"/><path fill="#3CB4E2" d="M1173.11 661.551C1180.32 664.812 1198.28 672.954 1198.48 681.285C1199.4 718.602 1199.12 756.186 1198.94 793.52C1198.44 794.2 1197.93 794.88 1197.42 795.559L1171.68 795.545C1171.26 782.015 1170.52 667.803 1173.11 661.551Z"/><path fill="#3CB4E2" d="M945.641 662.848L947.061 663.551C949.275 667.884 948.883 781.51 948.937 795.576C940.995 795.807 932.232 795.638 924.22 795.655L922.536 794.403C921.317 788.628 921.767 761.065 921.739 753.899L920.914 677.053C929.56 672.826 937.43 667.847 945.641 662.848Z"/><path fill="#3CB4E2" d="M915.272 1417.25C942.595 1416.45 970.828 1417.68 998.212 1417.62C1005.77 1417.6 1006.59 1421.73 1004.85 1428.85C999.437 1432.82 974.653 1431.25 966.727 1431.15L966.979 1487.66L966.927 1526.06C962.136 1526.26 956.573 1526.15 951.713 1526.18C951.334 1494.5 951.164 1462.81 951.203 1431.13L915.381 1431.02C915.058 1427.07 915.256 1421.35 915.272 1417.25Z"/><path fill="#3CB4E2" d="M1987.51 683.391C1997.42 686.017 2021.69 706.195 2030.44 713.17C2034.57 732.328 2039.28 774.965 2039.67 794.737C2035.24 795.519 2027.34 796.096 2023.39 793.87C2017.56 780.999 2009.95 750.674 2004.67 735.392C2000.28 722.662 1990.26 695.341 1987.51 683.391Z"/><path fill="#3CB4E2" d="M1156.55 1418.16C1161.24 1417.97 1166.57 1418.04 1171.32 1418L1171.54 1512.54C1180.84 1512.49 1222.68 1511.52 1229.16 1513.63C1231 1517.45 1230.43 1521.48 1230.35 1525.87C1206.22 1526.4 1180.94 1526 1156.73 1525.94L1156.55 1418.16Z"/><path fill="#3CB4E2" d="M826.123 1387.36L843.454 1387.24C847.547 1391.11 861.555 1402.35 859.023 1407.59C849.41 1410.21 845.728 1405.57 839.314 1399.55C836.297 1397.58 835.979 1397.12 832.533 1396.86C829.688 1398.05 829.627 1398.26 827.851 1400.83L823.285 1407.3C818.978 1407.87 812.243 1408.05 807.695 1408.28C811.203 1403.3 821.665 1391.13 826.123 1387.36Z"/><path fill="#56AACA" fill-opacity="0.98431373" d="M1562.97 796.305C1565.89 788.676 1569 781.118 1572.3 773.641C1572.33 777.286 1572.29 779.559 1571.96 783.178L1573.05 785.613L1576.72 786.725C1574.58 790.155 1571.86 794.257 1569.98 797.742C1566.83 797.546 1566.63 796.276 1562.97 796.305Z"/><path fill="#56AACA" fill-opacity="0.87450981" d="M1562.97 796.305C1566.63 796.276 1566.83 797.546 1569.98 797.742C1567.19 802.36 1561.76 812.228 1557.45 815.136L1556.96 813.616L1558.22 814.685L1556.98 813.385L1558.63 814.307L1557.15 812.38C1558.42 807.186 1560.95 801.373 1562.97 796.305Z"/></svg>