<?xml version="1.0" encoding="utf-8" ?><svg xmlns="http://www.w3.org/2000/svg" xmlns:xlink="http://www.w3.org/1999/xlink" width="2890" height="1472" viewBox="334 469 2336 799"><path fill="#7C7D81" d="M633.78 595.021C706.888 588.202 780.054 582.915 852.981 574.12C856.546 573.69 860.536 573.359 864.116 573.239C868.838 582.752 871.93 592.479 874.351 602.778C878.58 620.762 891.119 702.57 886.088 718.135C882.376 729.622 768.659 854.717 750.521 877.681C692.469 881.244 633.009 883.225 574.674 886.329C588.821 892.471 603.997 897.924 618.475 903.377C619.769 913.426 641.219 1015.85 643.034 1018.38C643.798 1023.15 649.587 1052.34 651.493 1055.19L651.648 1053.83C652.801 1043.22 652.532 1026.63 652.562 1015.7L652.212 947.355C652.163 940.354 651.554 918.563 652.848 912.766C660.819 909.5 740.559 907.026 755.325 906.037C759.062 994.646 754.791 1089.32 754.405 1178.55C727.478 1195.79 700.535 1212.62 674.408 1231.1C668.804 1235.07 647.885 1250.29 641.898 1249.51C628.135 1203.7 612.126 1159.03 597.773 1113.39C596.427 1109.11 594.894 1104.61 593.343 1100.42C585.482 1077.36 577.82 1054.77 568.992 1032C564.358 1020.05 562.903 1008.87 557.77 996.617C554.37 1000.63 554.221 1137.37 554.418 1152.47C554.626 1168.42 555.482 1184.41 556.037 1200.36C545.892 1195.25 505.715 1167.28 496.649 1159.58C497.887 1140.46 497.465 1116.89 497.516 1097.52L497.403 987.151C497.379 956.834 498.231 926.529 498.359 896.213C498.397 887.252 498.641 878.299 498.019 869.352C487.902 854.233 446.018 798.65 444.66 785.845C443.216 772.243 448.439 757.174 449.277 743.375C474.719 736.285 499.869 728.187 524.667 719.1C534.031 716.118 588.979 737.149 601.875 741.384C599.923 765.536 590.85 783.811 586.499 804.952L588.348 807.067C591.826 804.482 600.138 787.962 603.796 783.062C611.354 772.939 625.251 750.651 635.098 743.453C649.135 733.193 683.047 708.675 699.35 707.418C727.56 705.243 756.51 705.396 784.751 701.341C793.294 700.764 805.598 699.822 813.698 697.423C806.603 692.58 797.902 687.464 789.983 684.085C793.583 675.083 799.157 669.539 803.374 661.655C797.338 663.723 762.1 676.073 757.432 676.08C739.377 676.107 690.693 668.868 674.27 662.373C667.119 659.546 641.164 635.804 634.474 630.384C633.985 618.603 633.753 606.812 633.78 595.021Z"/><path fill="#7C7D81" d="M912.41 611.355C920.09 611.861 994.465 641.276 1007.69 646.271C1006.79 671.144 1007.26 696.839 1007.22 721.806L1006.86 832.728C1006.89 926.911 1013.55 1010.06 959.378 1091.94C898.288 1184.27 811.657 1241.94 719.032 1299.01C701.894 1309.57 666.473 1332.12 648.274 1335.95C629.671 1330.7 606.511 1314.75 589.356 1304.7C505.129 1255.4 424.219 1200.25 361.623 1124.3C297.738 1046.78 292.466 984.511 292.413 889.34L292.616 776.211L292.682 683.174C292.602 674.152 290.939 652.833 291.559 646.575L295.182 643.949C321.602 632.614 357.748 621.975 386.043 611.338C387.799 626.099 392.364 638.628 393.966 651.307C389.639 655.397 343.415 670.484 333.378 674.277C332.64 683.863 332.993 700.355 332.982 710.307L332.98 774.39L333.088 863.337C333.192 912.799 332.389 968.156 348.85 1015.67C383.556 1115.84 486.87 1189.13 573.735 1243.57C595.537 1257.23 626.331 1276.24 649.22 1287.3C661.159 1282.05 684.262 1267.57 695.921 1260.43C764.967 1218.13 829.935 1175.85 885.631 1116.88C971.515 1025.94 966.823 943.665 965.512 827.72C964.949 777.87 966.694 725.339 964.922 675.117C949.996 668.142 928.577 660.7 912.88 654.745C912.87 646.086 910.82 616.546 912.41 611.355Z"/><path fill="#223E86" d="M2324.07 740.48C2343.57 740.007 2377.76 740.586 2390.18 757.856C2396.82 767.095 2397.35 781.904 2395.32 792.733C2393 805.157 2386.01 810.788 2376.03 817.557C2391.05 822.685 2399.99 828.471 2402.03 845.968C2409.44 909.513 2341.88 898.291 2297.66 897.871C2265.65 897.699 2229.09 899.019 2197.68 897.702C2197.2 845.469 2198.34 793.412 2197.58 741.172C2202.54 740.878 2207.46 741.066 2212.43 741.027C2249.54 740.739 2287 742.073 2324.07 740.48ZM2259.7 832.498C2254.31 832.499 2253.72 831.661 2249.64 833.967C2245.47 840.627 2248.06 851.507 2247.94 860.777C2266.12 861.08 2284.3 861.258 2302.48 861.309C2313.18 861.345 2329.1 861.652 2339.43 860.278C2347.87 857.795 2353.32 854.771 2352.01 844.683C2351 836.867 2337.88 833.927 2331.64 833.526C2307.74 831.99 2283.63 832.461 2259.7 832.498ZM2247.75 801.048C2270.23 801.292 2326.6 804.457 2343.88 797.975C2346.29 794.124 2348.13 790.764 2347.17 786.004C2346.5 782.73 2344.34 780.213 2341.45 778.633C2331.9 773.43 2263.87 775.805 2248.52 775.807L2247.75 801.048Z"/><path fill="#223E86" d="M1198.98 741.302C1213.43 740.584 1232.13 741.114 1246.87 741.197C1247.6 749.402 1247.2 765.592 1247.21 774.2L1246.92 849.7C1246.91 859.719 1248.81 891.878 1243.11 897.597C1221.23 898.267 1191.75 898.243 1170.01 897.578C1157.65 887.04 1136.24 856.727 1125.06 842.794C1109.78 823.751 1093.49 805.463 1078.18 786.678C1078.12 797.868 1078.75 893.642 1076.46 896.553C1069.3 899 1039.58 897.882 1030.44 897.775C1028.38 862.576 1029.52 824.859 1028.95 789.454C1028.81 781.037 1028.05 747.844 1028.94 742.588L1031.4 741.448L1107.1 741.616C1125.21 760.032 1144.45 787.581 1161.19 807.582C1173.54 822.344 1186.86 836.938 1197.75 852.621C1199.33 817.854 1198.79 776.549 1198.98 741.302Z"/><path fill="#223E86" d="M1704.73 738.458C1726.8 737.629 1793.51 736.433 1811.26 752.226C1821.45 761.298 1823.59 782.418 1823.49 795.887C1815.79 796.106 1783.87 797.759 1776.68 794.262C1774.63 793.26 1774.31 782.387 1770.74 780.908C1749.93 773.185 1723.3 777.147 1701.62 776.784C1663.14 775.683 1668.07 803.861 1667.84 832.207C1667.65 856.468 1686.17 861.295 1706.77 861.243C1720.16 861.209 1780.85 866.547 1775.1 842.144C1768.07 832.628 1729.51 842.193 1717.96 837.498C1714.38 833.793 1715.73 816.095 1715.81 810.121C1717.87 808.609 1718.4 808.05 1721.11 808.088C1755.3 808.561 1790.44 806.502 1824.55 807.539C1825.79 824.821 1825.8 874.033 1813.5 885.755C1803.93 895.261 1775.38 899.976 1762.01 899.233C1716.81 896.723 1619.32 916.549 1619.66 847.773C1620.09 760.96 1612.08 742.554 1704.73 738.458Z"/><path fill="#223E86" d="M2512.31 741.38C2531.05 740.187 2558.89 740.568 2578.02 740.964C2592.75 773.496 2615.08 811.68 2632.18 843.282C2640.66 858.962 2653.74 883.721 2663.02 897.734C2648.14 898.532 2621.63 898.123 2606.5 897.459C2601.38 888.544 2596.41 879.539 2591.61 870.448L2577.25 870.428C2550.85 870.777 2519.28 869.166 2493.51 870.676C2488.9 878.486 2482.89 894.858 2475.28 897.176C2468.41 899.272 2432.64 898.713 2427.29 896.527C2429.58 886.63 2507.87 745.195 2512.31 741.38ZM2509.57 836.469L2539.75 836.385C2545.87 836.412 2570.14 837.368 2573.67 834.714C2573.58 830.785 2548.27 786.459 2544.19 779.662C2539.39 785.518 2531.52 799.674 2527.35 806.825C2521.81 816.328 2514.8 827.001 2509.57 836.469Z"/><path fill="#223E86" d="M1935 741.127L2000.59 741.125C2013.95 765.225 2026.43 789.341 2039.16 813.772C2049.93 834.439 2063.08 854.098 2073.36 875.096C2077 882.549 2081.22 890.76 2086.04 897.459C2069.37 898.018 2047.12 897.91 2030.55 897.221C2025.97 888.61 2020.24 879.222 2015.3 870.714L2000.25 870.764L1915.86 870.537C1911.94 880.041 1905.74 888.914 1899.93 897.355L1849.15 897.556C1857.27 877.86 1880.04 840.399 1890.77 820.946C1904.59 795.876 1920.07 764.785 1935 741.127ZM1933.38 836.179L1969.25 836.165C1974.93 836.186 1993.71 837.052 1997.33 834.458C1992.23 825.643 1970.81 785.139 1965.74 781.637C1954.72 798.544 1943.28 818.564 1933.38 836.179Z"/><path fill="#223E86" d="M1381.53 741.507C1394.07 741.407 1410.55 740.598 1423.01 741.981C1425.79 742.437 1428.13 747.099 1429.44 749.387C1449.12 784.001 1466.71 819.736 1485.71 854.72C1493.55 869.152 1502.45 882.769 1510.51 897.075C1494.12 897.46 1470.42 897.588 1454.47 896.845C1451.93 889.76 1443.6 876.826 1439.4 870.346C1425.74 869.861 1410.52 870.224 1396.75 870.269C1378.61 870.316 1360.47 870.237 1342.33 870.031C1336.86 876.608 1329.57 889.929 1325.34 897.493C1308.01 897.562 1289.26 897.981 1272.04 897.292C1291.53 859.163 1316.11 823.734 1334.64 785.084C1341.72 770.33 1350.4 755.864 1358.56 741.649L1381.53 741.507ZM1358.29 836.594C1368.44 836.793 1378.6 836.83 1388.75 836.704L1421.83 836.61C1418.49 828.608 1395.69 782.669 1390.26 780.547C1382.62 793.001 1363.22 824.313 1358.29 836.594Z"/><path fill="#7C7D81" d="M509.587 518.586C548.327 486.071 552.644 484.903 604.544 484.07C604.151 501.234 604.905 521.019 605.213 538.386C605.961 561.844 606.445 585.31 606.667 608.779C606.834 624.787 606.748 650.58 608.497 666.226C600.329 671.939 563.183 679.62 551.72 681.648C549.873 681.975 544.301 683.069 542.945 681.79C537.537 676.689 511.723 538.436 509.587 518.586Z"/><path fill="#223E86" d="M1980.86 935.278C1985.84 934.946 1990.87 934.176 1995.19 936.488C1996.08 941.379 1996.09 972.82 1996.17 979.667C1996.77 1021.91 1996.57 1064.16 1995.57 1106.4C1990.93 1106.62 1985.62 1106.45 1980.93 1106.4C1980.76 1099.38 1981.09 1091.41 1981.22 1084.32C1968.56 1094.64 1961.78 1102.91 1944.51 1106.92C1927.18 1110.95 1912.79 1106.61 1898.03 1097.53C1894.01 1094.93 1889.32 1090.86 1886.06 1087.4C1863.33 1063.29 1868.43 1019.15 1892.41 997.813C1912.02 980.367 1947.61 976.583 1968.27 994.379C1971.99 997.587 1974.43 1001.41 1978.49 1004.26L1979.77 1003.78C1983.6 987.138 1977.75 953.962 1980.86 935.278ZM1939.52 1094.2C1965.83 1091.24 1984.82 1067.59 1982.03 1041.26C1979.25 1014.93 1955.73 995.789 1929.38 998.404C1902.78 1001.04 1883.42 1024.83 1886.24 1051.41C1889.05 1077.98 1912.97 1097.19 1939.52 1094.2Z"/><path fill="#223E86" d="M1503.93 983.072C1538.38 980.123 1568.75 1005.53 1571.92 1039.96C1575.1 1074.38 1549.9 1104.92 1515.49 1108.33C1480.76 1111.76 1449.88 1086.27 1446.67 1051.52C1443.46 1016.77 1469.16 986.05 1503.93 983.072ZM1517.5 1093.27C1543.71 1089.11 1561.55 1064.45 1557.28 1038.25C1553.02 1012.06 1528.29 994.324 1502.11 998.688C1476.08 1003.03 1458.46 1027.6 1462.7 1053.65C1466.94 1079.69 1491.44 1097.41 1517.5 1093.27Z"/><path fill="#7C7D81" d="M473.584 543.178C476.297 543.044 476.312 542.871 478.768 544.262C481.853 553.093 488.396 589.089 490.604 600.322L509.203 692.291C496.414 697.353 465.443 704.709 450.759 708.609C446.65 709.571 443.233 710.869 439.478 709.405C435.674 704.865 415.2 590.15 413.661 576.993C432.623 559.148 450.096 552.78 473.584 543.178Z"/><path fill="#223E86" d="M1104.29 944.495C1110.16 944.484 1116.62 944.333 1122.43 944.651C1125.04 950.927 1127.87 956.949 1130.73 963.108C1152.87 1010.87 1173.94 1059.68 1198.45 1106.25C1194.1 1106.49 1182.2 1107.72 1180.12 1105.01C1174.28 1097.44 1161.46 1071.58 1158.41 1063.42C1128.98 1063.43 1097.91 1062.8 1068.69 1063.23C1067.67 1065.66 1060.94 1081.96 1059.99 1083.28C1056.64 1089.89 1054.03 1098.44 1049.28 1103.92C1046.07 1107.61 1036.28 1108.59 1032.82 1104.72C1034.2 1098.69 1044.44 1077.75 1047.53 1071.84C1047.99 1068.58 1059.07 1045.88 1061.22 1041.08C1065.79 1030.15 1070.71 1019.37 1075.97 1008.75C1084.06 993.173 1089.75 975.697 1097.41 959.822C1099.74 955.002 1102.38 949.415 1104.29 944.495ZM1074.19 1049.23L1152.72 1049.45C1150.96 1044.87 1149.04 1040.37 1146.88 1035.96C1135.76 1013.21 1125.97 990.354 1116.58 966.846C1114.47 965.136 1115.27 965.167 1113.13 964.81C1108.46 972.859 1105.97 981.391 1102.06 989.572C1096.22 1001.8 1090.92 1009.34 1086.74 1022.49C1082.18 1031.19 1078.76 1040.78 1074.19 1049.23Z"/><path fill="#7C7D81" d="M658.819 457.389C676.116 456.206 697.893 457.007 714.532 461.714C715.024 493.935 714.083 526.128 714.912 558.567C707.176 560.089 696.356 560.978 688.242 561.856C670.338 564.087 650.338 566.632 632.46 567.7C632.098 534.467 633.733 493.098 634.882 459.994C641.464 458.877 652 458.057 658.819 457.389Z"/><path fill="#223E86" d="M2644.7 1089.16C2628.11 1101.53 2607.83 1111.34 2586.56 1108.45C2565.92 1106.1 2542.69 1092.45 2536.4 1071.29C2528.45 1044.57 2531.14 1013.47 2554.72 995.769C2568.22 985.56 2585.26 981.192 2602.01 983.644C2616.62 985.817 2629.36 992.971 2638.11 1004.94C2643.27 1011.82 2647.39 1021.01 2647.77 1029.66C2650.47 1034.98 2650.6 1044.02 2651.01 1050.21C2619.72 1051.99 2582.02 1050.49 2549.67 1051.25C2554.78 1088.07 2580.36 1104.51 2616.59 1090.4C2622.24 1088.19 2628.71 1080.52 2635.01 1079.62C2639.15 1081.42 2641.73 1085.5 2644.7 1089.16ZM2637.02 1038.25C2634.38 1030.01 2632.15 1024.7 2628.72 1016.83C2619.71 1005.85 2610.45 997.683 2595.64 996.077C2584.65 994.934 2573.66 998.323 2565.22 1005.46C2554.7 1014.21 2550.85 1025.93 2548.4 1039L2605.03 1039.06C2614.18 1039.03 2628.25 1039.3 2637.02 1038.25Z"/><path fill="#223E86" d="M2111.86 741.397C2126.16 741.048 2145.02 741.105 2159.24 741.672C2160.21 775.526 2159 810.743 2159.62 844.771C2159.91 860.91 2160.13 878.633 2159.9 894.756C2159.87 896.807 2159.44 896.54 2157.76 897.813C2142.16 897.12 2126.45 897.957 2110.74 897.143C2110.47 881.222 2109.28 745.794 2111.86 741.397Z"/><path fill="#223E86" d="M1535.5 742.232C1543.14 740.837 1574.05 741.664 1583.27 741.788C1583.61 793.546 1583.66 845.305 1583.41 897.064C1571.17 897.995 1547.39 897.521 1534.94 897.137L1535.5 742.232Z"/><path fill="#7C7D81" d="M746.029 469.276C763.569 468.008 796.456 469.018 814.696 468.966C835.353 490.967 832.294 513.922 833.289 543.929L823.005 545.932C804.37 548.362 762.574 554.122 744.612 554.556C745.48 531.952 744.696 509.107 745.127 486.478C745.229 481.152 744.815 474.419 746.029 469.276Z"/><path fill="#223E86" d="M2037.5 984.295C2056.59 983.36 2051.66 985.341 2052.71 1000.96C2054.8 1032.06 2040.95 1092.44 2088.34 1094.37C2107.55 1094.95 2128.21 1082.84 2130.72 1062.18C2133.68 1037.86 2131.76 1009.76 2132.14 984.812C2138.09 984.321 2142.33 984.505 2148.32 984.734C2148.89 993.987 2148.3 1007.87 2148.18 1017.46C2148.4 1031.1 2150.88 1098.58 2145.38 1105.59C2144.42 1106.8 2144.21 1106.59 2142.76 1106.81C2139.11 1107.37 2136.96 1107.16 2134.03 1104.97C2132.73 1100.55 2133.08 1090.24 2133.04 1085.17C2122.6 1095.16 2118.91 1098.46 2104.34 1104.66C2074.86 1117.12 2037.2 1095.95 2037.11 1063.37C2037.09 1054.36 2035.5 988.344 2037.5 984.295Z"/><path fill="#223E86" d="M1310.1 1088.81C1301.86 1092.65 1297.81 1100.5 1287.25 1104.33C1262.71 1113.21 1227.52 1107.92 1218.57 1079.59C1217.19 1075.15 1216.32 1070.56 1216 1065.92C1215.23 1056.2 1214.57 989.947 1217.09 985.123C1221.16 983.526 1225.55 984.074 1230.04 984.179C1232.58 1013.96 1222.85 1061.37 1242.16 1084.84C1257.85 1103.92 1304.92 1092.85 1309.11 1066.36C1313.25 1040.21 1311.29 1011.34 1311.88 984.28C1317.82 984.111 1321.03 984.287 1326.97 984.87C1326.99 1010.32 1326.86 1035.78 1326.59 1061.23C1326.58 1067.45 1327.31 1103.08 1325.03 1106.31C1320.28 1107.32 1318.39 1107.02 1313.56 1106.7C1308.9 1102.14 1310.9 1095.91 1310.1 1088.81Z"/><path fill="#223E86" d="M1745.68 1000.28L1748.08 1001.23C1763.75 987.096 1774.88 982.059 1796.39 982.551C1822.95 983.159 1840.1 1005.91 1841.04 1031.13C1841.66 1047.52 1841.15 1063.18 1841.29 1079.49C1841.33 1084.8 1842.18 1102.26 1839.5 1105.7C1836.67 1106.62 1833.57 1107.46 1830.76 1106C1828.46 1104.8 1827.26 1103.1 1826.61 1100.58C1824.91 1093.99 1826.32 1085.77 1826.61 1078.98C1826.97 1070.43 1826.49 1061.92 1826.4 1053.37C1826.22 1034.53 1827.42 1014.87 1809.46 1003.34C1799.97 997.254 1788.48 995.698 1777.59 998.237C1767.14 1000.67 1756.9 1006.77 1751.17 1016.04C1741.5 1031.67 1746.26 1085.83 1746.52 1106.3C1742.41 1106.64 1738.54 1107.08 1734.43 1106.76L1732.66 1106.97C1730.36 1104.03 1729.36 994.178 1731.03 986.239C1734.51 984.241 1739.16 984.474 1743.35 984.231C1747.09 988.522 1746.28 991.467 1745.87 997.585C1745.81 998.484 1745.75 999.382 1745.68 1000.28Z"/><path fill="#223E86" d="M2216.95 983.451C2237.26 982.049 2252.81 984.084 2271.1 993.664C2267.07 999.174 2265.17 1001.84 2262.04 1007.84C2254.65 1002.1 2251.38 1000.54 2242.57 998.311C2198.74 987.201 2170.79 1030.25 2228.36 1038.82C2248.94 1041.88 2262.79 1045.63 2274.75 1063.46C2274.99 1065.17 2275.17 1066.88 2275.27 1068.6C2277.28 1099.41 2249.52 1106.77 2224.25 1108.25C2205.36 1107.97 2189.68 1102.36 2173.85 1092.34C2178.81 1088.19 2180.24 1086 2184.2 1080.97C2187.61 1081.13 2193.62 1087.47 2196.78 1088.93C2211.76 1095.69 2244.08 1100.06 2255.01 1084.26C2263.94 1071.35 2256.71 1060.43 2243.36 1056.46C2224.51 1051.04 2183.99 1050.18 2178.91 1025.14C2173.51 998.461 2197.33 987.481 2216.95 983.451Z"/><path fill="#999" fill-opacity="0.015686275" d="M643.034 1018.38L646.507 1020C651.097 1014.11 646.449 1006.37 646.191 999.818C645.709 987.567 646.594 975.282 646.905 963.037C647.487 945.42 647.096 927.784 645.733 910.21C654.427 904.893 744.111 903.06 761 903L760.981 1091.75L761.05 1147.89C761.062 1154.08 761.317 1169.26 760.904 1174.81C760.391 1181.69 731.68 1198.48 725.596 1202.46L676.121 1235.1C669.737 1239.28 644.717 1260.92 638.477 1253.23C633.603 1247.22 630.541 1228.67 627.762 1220.48C621.708 1202.65 614.761 1185.02 609.315 1166.98C608.952 1165.78 606.821 1164.15 605.777 1163.47C605.723 1160.7 605.89 1160.55 606.632 1157.97C603.631 1148.51 590.57 1113.62 589.904 1106.01L588.355 1104.57L584.128 1105.05C582.646 1103.02 582.954 1102.07 583.045 1099.55L584.383 1099.02C584.897 1101.09 584.725 1100.51 584.519 1102.75L585.686 1103.61L587.825 1099.82C589.969 1099.9 591.264 1100.1 593.343 1100.42C594.894 1104.61 596.427 1109.11 597.773 1113.39C612.126 1159.03 628.135 1203.7 641.898 1249.51C647.885 1250.29 668.804 1235.07 674.408 1231.1C700.535 1212.62 727.478 1195.79 754.405 1178.55C754.791 1089.32 759.062 994.646 755.325 906.037C740.559 907.026 660.819 909.5 652.848 912.766C651.554 918.563 652.163 940.354 652.212 947.355L652.562 1015.7C652.532 1026.63 652.801 1043.22 651.648 1053.83L651.493 1055.19C649.587 1052.34 643.798 1023.15 643.034 1018.38Z"/><path fill="#223E86" d="M1372.29 966.71C1372.49 963.161 1372.28 962.575 1374.21 959.791C1378.29 957.217 1380.54 956.227 1385.29 957.018C1390.89 961.384 1388.89 975.783 1388.86 983.292C1391.86 985.853 1419.86 984.631 1425.49 984.554L1425.52 997.68L1388.69 997.987C1388.88 1027.19 1373.87 1118.58 1426.44 1089.53C1428.05 1093.32 1430.75 1097.14 1433.01 1100.66C1410.77 1114.26 1376.34 1109.59 1373.07 1079.52C1370.21 1053.15 1372.06 1024.5 1372.16 997.793C1365.45 997.765 1358.75 997.653 1352.05 997.46C1351.98 992.069 1351.33 990.254 1353.89 986.193C1357.52 984.135 1366.44 984.643 1371.46 984.374L1372.29 966.71Z"/><path fill="#223E86" d="M2309.55 957.068C2314.06 956.854 2318.78 956.02 2322.38 958.363C2326.65 963.589 2324.56 976.084 2324.5 984.426L2359.78 984.296L2359.73 996.7C2348.15 997.148 2335.48 997.037 2323.74 997.276C2322.31 1019.2 2322.95 1054.58 2325.19 1076.51C2326.25 1082.26 2328.17 1089.62 2333.23 1092.95C2344.6 1100.42 2351.27 1092.19 2360.85 1090.92C2363.33 1094.06 2364.85 1095.55 2366.11 1099.38C2365.85 1100.16 2364.84 1102.99 2364.17 1103.23C2298.03 1126.54 2308.33 1064.55 2308.12 1021.74C2308.07 1013.28 2308.05 1004.98 2307.92 997.499L2286.62 997.235L2286.45 984.979C2293.36 984.639 2301.56 984.669 2308.56 984.535C2308.62 978.378 2308.33 962.254 2309.55 957.068Z"/><path fill="#223E86" d="M2444.9 983.303C2448.41 983.055 2451.43 982.483 2454.2 984.399C2456.47 987.821 2455.87 993.116 2455.92 997.54C2415.98 1000.53 2410.64 1019.88 2410.15 1058.24C2409.95 1074.19 2410.39 1090.59 2410.55 1106.58C2405.95 1106.87 2402.04 1107.45 2397.61 1106.31C2395.11 1104.05 2395.81 1105.24 2395.44 1101.25C2395.49 1073.4 2393.16 1013.57 2396.63 987.426C2400.25 983.371 2406.28 982.97 2411.06 985.252C2412.17 988.735 2410.67 998.814 2410.35 1003.26C2421.52 991.881 2429.22 987.818 2444.9 983.303Z"/><path fill="#223E86" d="M1667.96 944.513C1668.72 944.44 1669.47 944.373 1670.22 944.31C1673.9 944.003 1678.72 943.292 1681.61 945.732C1682.49 952.272 1682.3 964.988 1682.35 972.08L1682.59 1019.28C1682.7 1042.99 1684.35 1084.42 1682.71 1106.72C1678.1 1106.91 1672.5 1106.74 1667.81 1106.72L1667.95 1004.66C1667.89 986.795 1667 961.888 1667.96 944.513Z"/><path fill="#223E86" d="M2485.63 983.37C2490.13 983.331 2495.15 983.546 2499.69 983.641C2499.06 988.654 2500.88 1001.27 2500.65 1006.03C2499.98 1020.05 2502.45 1098.16 2499.98 1106.58C2495.31 1106.87 2489.79 1106.62 2485.05 1106.52C2485.08 1075.63 2484.19 1018.42 2484.07 985.51C2484.59 984.797 2485.11 984.083 2485.63 983.37Z"/><path fill="#999" fill-opacity="0.035294119" d="M524.667 719.1C521.859 719.169 520.081 719.529 517.664 718.152L518.713 717.077C522.942 716.038 528.285 714.845 532.555 715.712C551.033 719.463 591.27 730.842 606.832 739.197C611.553 744.419 602.858 761.69 602.394 773.359L603.23 773.959C606.485 770.277 604.342 769.714 606.603 764.603C608.511 764.256 609.106 764.151 610.925 763.511C610.875 761.249 610.669 760.23 611.582 758.133L615.163 758.153C617.022 756.682 616.809 754.622 617.353 751.724C620.785 748.593 636.49 733.373 639.801 732.025C655.087 725.8 668.667 714.055 682.375 706.574C690.112 702.351 711.242 704.242 720.502 703.175C741.895 700.712 763.778 700.56 785.066 697.181C787.156 696.858 786.244 696.303 788.748 696.626L784.751 701.341C756.51 705.396 727.56 705.243 699.35 707.418C683.047 708.675 649.135 733.193 635.098 743.453C625.251 750.651 611.354 772.939 603.796 783.062C600.138 787.962 591.826 804.482 588.348 807.067L586.499 804.952C590.85 783.811 599.923 765.536 601.875 741.384C588.979 737.149 534.031 716.118 524.667 719.1Z"/><path fill="#FFFEFE" fill-opacity="0.015686275" d="M1725.87 983.624C1731.84 983.494 1737.47 983.149 1743.35 984.231C1739.16 984.474 1734.51 984.241 1731.03 986.239C1729.36 994.178 1730.36 1104.03 1732.66 1106.97C1730.51 1107.57 1730.43 1107.27 1728.24 1106.52C1725.05 1101.85 1725.89 996.665 1725.87 983.624Z"/><path fill="#FFFEFE" fill-opacity="0.011764706" d="M605.213 538.386C607.403 544.194 608.21 548.919 608.723 555.337C611.588 591.18 610.881 627.984 610.01 663.879C610.002 664.2 608.743 665.894 608.497 666.226C606.748 650.58 606.834 624.787 606.667 608.779C606.445 585.31 605.961 561.844 605.213 538.386Z"/><path fill="#223E86" d="M2487.23 937.854C2492.79 935.186 2499.46 937.426 2502.29 942.909C2505.12 948.392 2503.07 955.129 2497.67 958.114C2494.04 960.123 2489.6 959.997 2486.08 957.786C2482.57 955.576 2480.53 951.629 2480.77 947.483C2481.01 943.338 2483.48 939.649 2487.23 937.854Z"/></svg>