<?xml version="1.0" encoding="utf-8" ?><svg xmlns="http://www.w3.org/2000/svg" xmlns:xlink="http://www.w3.org/1999/xlink" width="2784" height="1536" viewBox="0 0 2784 1536"><path fill="#0A466F" d="M1450.66 763.927C1461.27 763.551 1472.93 763.695 1483.63 763.609C1489.68 776.869 1540.31 859.295 1548.3 864.837C1554.79 861.216 1605.12 776.391 1610.67 765.137C1622.04 764.776 1632.65 765.323 1644.28 764.534C1643.24 807.535 1643.43 853.616 1643.48 896.755L1643.08 936.259C1631.15 936.456 1619.21 936.487 1607.27 936.354L1607.21 838.993C1607.03 839.182 1606.84 839.37 1606.66 839.558L1605.75 840.515C1592.63 854.113 1566.67 898.788 1555.4 916.806C1549.09 917.131 1544.45 916.869 1538.12 916.511C1528.17 899.306 1514.71 883.202 1505.23 865.587C1500.76 857.268 1497.36 850.788 1491.57 843.272L1490.74 843.868C1488.14 853.026 1489.85 922.016 1489.83 935.865C1479.23 936.621 1461.95 936.089 1450.86 936.095C1451.21 880.592 1452.29 818.964 1450.66 763.927Z"/><path fill="#0A466F" d="M545.579 764.321C556.269 763.96 566.545 764.112 577.241 764.251C585.811 772.133 593.413 783.039 600.977 791.741C619.649 813.225 643.652 846.682 664.033 865.183C663.421 831.582 663.241 797.974 663.494 764.369C672.478 763.874 695.706 763.793 704.134 764.678L704.556 887.779C704.644 902.342 704.904 918.267 705.247 932.945C705.306 935.482 704.341 935.62 702.785 936.737C692.078 936.799 681.195 937.026 670.527 936.391C661.395 923.648 591.355 836.684 584.748 836.732C583.913 844.737 584.615 863.361 584.635 872.078L584.378 936.058C571.71 936.273 559.039 936.279 546.37 936.075C546.178 933.433 545.887 905.099 546.176 903.065C548.378 887.6 541.529 771.609 545.579 764.321Z"/><path fill="#0A466F" d="M874.524 753.451C886.409 753.387 898.294 753.413 910.178 753.528C910.374 788.086 910.288 822.645 909.921 857.201C913.27 854.798 916.043 852.139 918.911 849.197C934.049 833.669 951.95 820.193 966.556 804.245C979.842 803.577 1001.32 803.744 1014.57 804.299C998.019 820.282 970.326 841.731 956.573 859.293C969.326 873.866 980.082 890.851 993.294 906.013C999.849 913.948 1011.78 927.645 1016.73 935.888C1003.53 936.655 983.113 936.312 969.944 935.928C959.101 923.135 938.712 898.827 930.179 885.862C923.209 891.073 916.876 895.109 909.564 899.77C909.761 911.888 909.745 924.008 909.517 936.126C897.035 936.437 884.547 936.474 872.062 936.235C871.568 895.84 871.356 855.441 871.425 815.042C871.374 796.407 870.916 776.249 871.866 757.622C872.007 754.855 872.665 754.862 874.524 753.451Z"/><path fill="#0A466F" d="M774.727 802.371C778.971 802.126 783.222 801.999 787.473 801.99C810.335 801.954 839.474 812.494 844.232 837.01C850.196 867.733 848.056 904.726 848.02 936.23C836.016 936.384 824.644 936.551 812.655 936.055C812.572 931.815 812.767 928.93 811.545 924.842C801.88 927.138 790.783 938.695 773.474 938.716C755.492 938.737 742.779 932.863 729.681 920.917C719.671 907.515 714.854 888.454 728.221 875.452C748.664 855.569 782.881 857.706 809.423 857.502C799.247 829.56 783.401 824.049 756.394 836.046C732.463 846.677 740.097 832.438 724.023 818.98L722.87 818.022C740.804 807.503 754.864 805.115 774.727 802.371ZM790.084 910.787C807.14 905.249 807.95 897.215 808.112 880.808C802.291 880.684 785.692 880.078 780.602 881.247C744.587 886.177 762.993 914.895 790.084 910.787Z"/><path fill="#0A466F" d="M1078.18 803.564C1108.97 799.82 1144.78 807.011 1151.76 841.218C1157.53 869.479 1155.48 907.389 1155.51 936.808C1143.5 937.021 1131.48 936.982 1119.47 936.693L1119.41 922.598C1093.56 941.367 1065.59 946.423 1039.67 925.129C1033.22 918.465 1028.28 910.312 1027.25 900.948C1026.35 892.221 1028.9 883.487 1034.37 876.627C1056.71 849.016 1108.4 866.232 1117.81 854.157C1118.07 850.501 1117.46 849.562 1114.81 846.446C1100.49 828.379 1082.44 828.409 1062.49 836.972C1058.58 838.65 1047.59 843.226 1045.31 837.101C1042.96 830.797 1035.84 823.519 1037.13 816.97C1043.76 809.679 1068.42 804.904 1078.18 803.564ZM1098.05 910.316C1115.02 904.011 1117.68 899.151 1117.07 881.644C1107.35 881.318 1097.31 880.766 1087.62 881.306C1052.52 886.702 1067.26 916.024 1098.05 910.316Z"/><path fill="#0A466F" d="M1287.6 802.487C1288.71 802.445 1289.81 802.413 1290.92 802.391C1342.37 801.405 1358.26 826.475 1357.86 874.164C1357.69 894.3 1358.15 915.784 1358.36 935.994C1351 936.06 1325.98 937.42 1321.11 934.117C1321.2 930.636 1321.35 930.013 1320.39 926.75C1316.74 926.734 1312.74 931.291 1307.66 933.445C1298.49 937.258 1288.6 939.013 1278.68 938.583C1261.87 937.898 1249.45 930.657 1238.29 918.498C1234.52 914.143 1231.86 910.266 1230.89 904.501C1229.34 895.433 1231.49 886.124 1236.86 878.653C1258.54 848.782 1314.92 864.265 1321.9 854.69C1321.17 849.07 1317.09 846.252 1313.79 842.134C1297.69 822.02 1273.04 832.763 1252.51 841.63C1217.41 809.552 1264.2 805.101 1287.6 802.487ZM1290.23 911.507C1300.45 911.797 1306.93 910.896 1314.9 903.258C1315.53 902.654 1316.13 902.027 1316.72 901.38C1318.79 893.343 1318.99 888.626 1320.28 880.812L1299.69 880.457C1267.98 883.358 1254.3 906.413 1290.23 911.507Z"/><path fill="#0A466F" d="M1179.16 753.333C1191.91 752.985 1205.72 753.263 1218.55 753.284C1217.41 814.521 1218.95 876.156 1218.21 937.191C1205.23 937.312 1192.24 937.294 1179.26 937.139C1179.53 896.246 1179.49 855.351 1179.15 814.458C1179.08 806.303 1177.73 758.162 1179.16 753.333Z"/><path fill="white" fill-opacity="0.011764706" d="M1644.28 764.534L1647.47 764.764C1649.26 767.801 1646.84 898.927 1644.66 903.994C1643.2 900.785 1643.38 900.397 1643.48 896.755C1643.43 853.616 1643.24 807.535 1644.28 764.534Z"/><path fill="#1596D4" d="M1822.12 554.393C1818.42 550.591 1815.62 548.399 1815.63 543.218C1818.4 537.048 1823.38 535.061 1829.18 532.623C1843.44 526.655 1851.42 529.46 1864.48 535.841C1934.98 570.283 2005.02 609.162 2076.78 640.854C2095.44 632.791 2109.52 627.39 2130.27 627.32C2127.74 621.624 2123.01 613.077 2123.99 606.987C2125.61 605.426 2126.93 604.951 2129.49 605.103C2165.41 607.245 2183.32 607.35 2210.2 631.972C2233.12 624.556 2238.09 621.628 2263.36 618.727C2258.77 629.618 2250.47 638.301 2245.1 652.912C2230.79 692.3 2237.69 738.543 2249.15 777.85C2252.84 790.594 2261.99 803.233 2259.85 817.009C2257.46 832.394 2243.19 843.163 2229.99 849.381C2220.45 853.873 2214.51 854.048 2204.3 853.379C2194.22 842.746 2189.02 829.565 2179.09 818.433C2161.19 798.367 2127.08 782.706 2131.22 751.003C2133.61 732.609 2142.12 716.356 2156.24 704.637C2153.56 718.349 2138.82 737.468 2140.03 754.449C2142.11 780.32 2170.14 792.39 2184.91 811.257C2192.97 821.545 2200.81 846.864 2215.59 845.175C2223.53 838.062 2208.11 821.98 2209.71 811.674L2211.41 811.066C2217.13 813.328 2227.16 831.947 2231.28 838.569L2232.58 837.715C2262.98 817.628 2241.72 795.126 2234.83 768.362C2223.63 724.9 2224.23 681.747 2233.27 637.944C2228.36 640.386 2214.29 654.083 2211.73 654.175C2206.11 654.378 2183.34 625.075 2147.38 626.61C2149.2 629.406 2153.54 635.728 2154.03 638.931C2154.35 641.02 2149.25 641.573 2147.61 641.825C2128.61 644.739 2110.38 647.966 2092.67 655.817C2064.4 668.507 2039.82 688.171 2021.24 712.962C2014.16 722.496 2008.59 733.064 2000.09 741.305L1999.02 742.331C2007.87 714.441 2024.01 696.982 2035.65 673.481C2008.62 665.116 1867.49 614.632 1853.06 602.408C1840.45 591.721 1836.22 575.286 1825.99 562.905L1825.27 562.055C1783.2 597.345 1742.15 636.371 1700.56 672.283C1702.65 680.353 1706.8 697.97 1713.31 702.693C1721.37 702.344 1819.51 589.311 1826.33 590.281C1832.59 594.77 1837.66 608.295 1841.24 615.772C1836.83 620.255 1832.71 624.968 1828.66 629.77C1802.68 660.574 1775.56 690.277 1748.82 720.407C1744.53 724.543 1738.35 732.822 1734.55 737.77C1730.6 733.353 1727.78 729.889 1724.2 725.163C1710.39 714.587 1709.83 715.211 1696.66 726.416C1691.77 729.756 1690.64 731.232 1684.66 730.977C1682.57 727.297 1681.58 725.944 1678.92 722.641L928.332 722.671L672.328 722.722L591.304 722.665C576.024 722.646 560.823 722.513 545.547 722.907C528.69 723.342 524.99 729.945 518.208 743.824C516.443 748.836 514.262 755.676 514.247 760.975C514.17 788.01 511.77 820.909 513.124 847.486C514.508 874.646 508.942 942.667 518.258 964.301C524.88 975.613 531.084 978.817 544.143 979.45C560.427 980.24 576.693 979.937 592.99 979.904L669.972 979.845L915.145 979.93L1693.1 979.25C1691.17 934.714 1688.37 890.22 1684.71 845.794C1682.32 818.346 1677.01 785.865 1677.91 758.649C1678.24 748.65 1684.52 742.199 1691.93 736.421C1700.52 733.264 1701.5 732.456 1710.81 731.028C1716.06 731.993 1718.89 732.248 1723.57 734.836L1732.41 742.39C1742.37 755.971 1739.66 773.875 1737.97 789.983C1733.24 835.209 1732.78 880.644 1728.21 925.824C1726.79 939.838 1721.97 942.07 1713.08 951.451C1732.1 956.594 1751.58 962.035 1770.46 967.578C1802.06 976.856 1819.41 982.043 1852.22 974.919C1816.35 1006.59 1705 1086.19 1695.81 990.047L909.937 989.792L668.424 989.853L590.934 989.929C552.933 989.956 511.528 998.45 503.806 951.585C502.622 930.473 503.243 905.321 503.209 883.803L503.442 756.811C506.207 736.025 516.056 715.991 539.523 714.74C569.345 713.15 599.715 713.97 629.643 713.992L805.393 714.024L1385.77 714.048L1575.82 713.907C1606.68 713.857 1649.66 715.022 1679.52 712.945C1680.18 702.399 1677.64 664.418 1681.87 659.364C1686.13 657.703 1691.77 658.313 1696.45 658.458C1719.2 641.037 1739.25 623.821 1761.16 605.381C1781.29 588.432 1802.86 572.518 1822.12 554.393ZM1712.67 773.866C1729.07 766.924 1722.13 746.226 1705.22 747.091C1692.94 756.929 1694.26 774.623 1712.67 773.866Z"/><path fill="#0A466F" d="M2009.26 802.483C2011.02 802.319 2012.79 802.199 2014.56 802.122C2037.02 801.175 2065.57 811.361 2076.66 832.304C2084.27 846.684 2087.96 865.768 2088.64 882.066C2066.37 882.605 2042.76 881.37 2020.41 881.677C2012.8 881.782 1997.47 880.868 1990.8 882.121C1989.33 886.104 1994.23 895.929 1997.17 898.37C2013.16 911.573 2032.94 907.782 2049.99 899.163C2055.78 896.237 2060.19 894.109 2064.53 899.995C2079.01 915.686 2082.75 919.52 2060.03 930.377C2053.95 933.283 2048.78 935.334 2042.15 936.913C2021.11 941.978 1998.93 938.512 1980.44 927.272C1946.69 906.399 1938.3 866.042 1958.76 831.393C1969.12 813.849 1990.02 806.471 2009.26 802.483ZM1986.76 858.356C1999.43 858.537 2012.11 858.551 2024.78 858.396C2030.68 858.451 2043.59 859.055 2048.7 857.575C2050.95 853.295 2048.27 846.651 2045.22 843.303C2037.08 834.357 2024.77 831.651 2013.27 832.223C1997.07 835.04 1990.45 842.523 1986.76 858.356Z"/><path fill="#0A466F" d="M1852.45 802.449L1853.24 802.433C1906.11 801.452 1911.68 839.202 1911.1 882.869C1910.87 900.249 1911.09 918.395 1911.07 935.846C1898.67 936.288 1886.09 936.081 1873.66 935.995C1872.44 906.079 1877.67 865.31 1863.65 839.821C1850.27 831.372 1841.44 832.139 1828.48 840.429C1824.44 843.767 1818.91 848.688 1817.14 853.702C1813.06 865.284 1816.61 927.353 1812.3 934.86C1805.82 938.08 1786.22 936.792 1777.84 936.633C1777.73 892.699 1776.44 848.503 1775.84 804.511C1782.86 804.113 1806.12 803.406 1812.18 804.795C1814.46 807.805 1813.81 809.411 1814.14 813.764L1815.23 814.638C1832.61 808.495 1832.74 805.33 1852.45 802.449Z"/><path fill="#1596D4" d="M2244.23 903.241C2273.83 900.798 2291.58 914.922 2287.89 947.91C2286.52 960.16 2275.83 972.89 2273.2 986.774C2268.61 1011 2274.38 1038.17 2262.51 1060C2252.7 1077.25 2232.14 1072.57 2218.53 1078.99C2203.14 1086.25 2198.46 1105.86 2176.67 1090.23C2170.18 1076.26 2170.34 1054.7 2178.05 1041.18C2181.7 1034.77 2199.67 1029.65 2205.27 1033.39C2201.36 1040.08 2190.48 1038.47 2185.27 1049.03C2183.04 1056.59 2180.41 1080.32 2189.31 1083.9C2198.96 1083.28 2205.25 1074.38 2213.17 1070.77C2220.93 1067.24 2228.95 1064.98 2236.89 1061.16C2265.2 1048.48 2250.52 1020.62 2254.33 996.311C2257.45 973.997 2278.88 946.901 2266.96 924.545C2259.72 913.113 2237.68 921.885 2228.08 925.043C2219.45 927.882 2181.93 939.669 2177.21 929.929C2180.06 925.901 2196.91 923.466 2203.17 920.727C2217.28 914.554 2229.36 907.258 2244.23 903.241Z"/><path fill="#3A3632" fill-opacity="0.98039216" d="M1541.96 1043.56C1560.51 1042.29 1576.57 1056.3 1577.84 1074.85C1579.1 1093.4 1565.08 1109.46 1546.53 1110.72C1527.99 1111.98 1511.93 1097.97 1510.67 1079.42C1509.41 1060.88 1523.42 1044.82 1541.96 1043.56ZM1546.94 1101.73C1555.84 1100.89 1563.6 1095.34 1567.26 1087.19C1570.92 1079.04 1569.92 1069.55 1564.63 1062.34C1559.35 1055.14 1550.6 1051.33 1541.72 1052.37C1528.22 1053.96 1518.51 1066.11 1519.94 1079.63C1521.37 1093.15 1533.41 1103.01 1546.94 1101.73Z"/><path fill="#3A3632" d="M787.41 1043.73C800.462 1043.1 835.029 1041.47 839.944 1058.64C841.795 1065.11 836.726 1070.6 833.058 1075.64C834.235 1082.3 851.189 1082.19 840.055 1099.03C829.177 1108.25 801.883 1112.45 789.458 1107.28C786.322 1102.62 786.954 1052.44 787.41 1043.73ZM830.401 1097.23C832.481 1094.5 832.513 1094.39 833.217 1090.97C830.357 1079.84 806.283 1078.61 796.734 1078.68C796.636 1084.41 796.049 1094.54 797.359 1099.75C803.575 1105.61 823.34 1100.89 830.401 1097.23ZM796.711 1070.98C806.807 1071.95 818.312 1074.39 826.613 1068.54C835.524 1051.32 806.602 1050.82 796.677 1050.89L796.711 1070.98Z"/><defs><linearGradient id="gradient_0" gradientUnits="userSpaceOnUse" x1="2158.5986" y1="829.11102" x2="2111.4014" y2="843.88898"><stop offset="0" stop-color="#299FD9" stop-opacity="0.9137255"/><stop offset="1" stop-color="#1596D5"/></linearGradient></defs><path fill="url(#gradient_0)" d="M2127.24 721.552C2130.08 724.352 2127.21 729.005 2125.93 732.411C2111.7 770.215 2109.01 808.976 2126.42 846.39C2142.51 880.98 2168.39 921.616 2143.3 958.653C2141.45 957.81 2142.3 958.376 2141.07 956.487C2140.68 945.895 2140.67 927.924 2137.79 918.708C2122.26 869.136 2090.53 823.959 2105.43 769.685C2108.25 759.389 2117.82 727.377 2127.24 721.552Z"/><path fill="#1596D4" d="M2208.24 944.474C2209.27 944.672 2210.46 945.123 2211.49 945.459C2210.96 947.656 2207.21 954.034 2205.53 956.052C2186.51 978.921 2178.01 1032.47 2141.17 1030.42C2125.21 1029.53 2118.56 1024.45 2101.51 1028.59C2085.08 1032.57 2067.11 1035.41 2067.09 1013.23C2066.64 997.461 2074.09 988.227 2084.09 976.632C2096.45 967.115 2104.4 971.564 2114.91 980.809C2101.67 982.561 2082.15 982.803 2079.3 999.631C2074.48 1025.46 2101.54 1011.43 2111.42 1012.8C2138.36 1016.53 2151.03 1023 2166.27 994.92C2176.27 976.48 2191.41 958.855 2208.24 944.474Z"/><path fill="#3A3632" d="M945.513 1044.4C960.948 1043.9 1002.29 1042.7 995.162 1070.07C992.687 1079.57 989.38 1081.03 981.272 1085.75C985.885 1091.05 995.791 1100.38 994.8 1107.31C991.705 1109.19 991.064 1108.45 986.952 1108.23C981.214 1101.01 977.23 1095.35 970.788 1088.51C966.464 1088.12 958.739 1088.37 954.138 1088.39C954.313 1094.51 956.034 1105.75 950.202 1109C945.058 1107.79 944.984 1104.93 944.436 1100.17C943.047 1087.29 943.319 1074.19 943.149 1061.25C943.076 1055.68 942.103 1048.76 945.513 1044.4ZM953.825 1080.75C964.925 1081 971.748 1081.39 982.21 1076.84C1001.44 1058.3 966.549 1052.52 953.709 1052.99L953.825 1080.75Z"/><path fill="#3A3632" fill-opacity="0.98431373" d="M1226.7 1043.6C1227.62 1043.63 1228.63 1043.62 1229.55 1043.79C1233.35 1044.53 1235.34 1047.95 1237.32 1051C1241.69 1057.73 1265.69 1101.68 1263.74 1108.14C1263.24 1109.8 1262.78 1109.69 1261.41 1110.54C1250.6 1106.18 1252.49 1093.47 1239.36 1092.27L1214.67 1091.95C1210.03 1101.09 1209.62 1103.27 1201.65 1109.33L1199.55 1107.28C1199.58 1092.71 1222.15 1062.76 1226.7 1043.6ZM1216.83 1084.18L1227.75 1084.22L1241.55 1084.31C1238.26 1076.43 1234.89 1068.26 1230.29 1061.05C1225.35 1063.84 1219.58 1078.19 1216.83 1084.18Z"/><path fill="#3A3632" fill-opacity="0.97647059" d="M1396.48 1044.44C1410.77 1048.16 1419.31 1078.9 1426.34 1090.88C1429.39 1096.1 1433.33 1101.21 1435.82 1106.54C1436.34 1107.68 1435.1 1108.58 1434.36 1109.52C1420.52 1113.19 1423.14 1095.44 1411.75 1092.67C1404.2 1091.94 1394.09 1092.11 1386.33 1092.03C1382 1098.81 1379.96 1102.12 1374.23 1107.72L1371.01 1106.88L1370.92 1107.16C1371.09 1099.56 1391.68 1055.71 1396.48 1044.44ZM1404.25 1084.88C1408.31 1084.87 1408.79 1085.58 1411.6 1083.49C1412.41 1077.01 1406.5 1066.82 1402.64 1061.87C1402 1061.04 1401.32 1060.24 1400.61 1059.47C1398.52 1061.52 1391.16 1081.02 1390.81 1083.75C1394.7 1085.39 1399.85 1084.9 1404.25 1084.88Z"/><path fill="#3A3632" fill-opacity="0.98823529" d="M1126.46 1044.46C1139.04 1044.11 1159.68 1080.67 1171.57 1091.66C1172.14 1082.83 1170.93 1051.59 1175.03 1045.74C1178.83 1045.21 1177.82 1044.81 1180.91 1046.14C1183.13 1051.3 1181.37 1093.06 1182.03 1104.06L1181.25 1106.09C1170.7 1112.54 1141.4 1070 1135.72 1062.1C1135.97 1075.05 1135.85 1089.86 1135.53 1102.77C1133.68 1106.02 1134.95 1104.82 1131.56 1106.48L1129.57 1105.53C1125.87 1099.62 1123.17 1050.07 1126.46 1044.46Z"/><path fill="#3A3632" fill-opacity="0.98431373" d="M1018.87 1045.28C1022.28 1045.06 1022.87 1044.78 1025.78 1046.25C1030.14 1051.93 1028.86 1069.17 1028.87 1077.03C1035.75 1070.95 1062.43 1041.99 1069.88 1045.93C1069.15 1049.99 1048.06 1070.7 1043.94 1074.99C1049.55 1081.23 1056.13 1087.84 1061.98 1093.95C1065.55 1098.12 1070.3 1102.85 1071.59 1108.02L1070.58 1109.27C1061.28 1107.93 1042.21 1089.15 1035.58 1081.81C1028.74 1089.01 1023.92 1107.31 1018.6 1108.66C1016.35 1101.3 1015.36 1049.74 1018.87 1045.28Z"/><path fill="#3A3632" fill-opacity="0.93333334" d="M903.795 1096.52C910.919 1080.95 908.162 1067.99 910.138 1051.7C910.639 1047.56 911.077 1046.62 913.892 1044.49L916.248 1044.96C918.926 1047.35 918.038 1046.93 918.39 1051.88C917.441 1070.48 920.412 1099.34 900.674 1107.8C893.243 1110.94 884.853 1110.91 877.449 1107.7C858.864 1099.51 860.495 1078.1 860.847 1061.19C860.953 1056.1 860.439 1050.09 862.495 1045.45C864.495 1045.66 866.493 1045.9 868.488 1046.15C875.187 1054.13 858.944 1105.89 886.498 1102.09C893.417 1101.13 897.768 1099.99 903.795 1096.52Z"/><path fill="#3A3632" fill-opacity="0.98823529" d="M1471.42 1044.36C1476.22 1044.35 1491.82 1047.75 1492.47 1053.17C1486.33 1058.19 1457.24 1044.08 1455.44 1062.92C1459.4 1075.39 1494.91 1075.05 1497.1 1090.15C1499.11 1104.08 1480.02 1108.05 1469.5 1109.21C1467.62 1109.14 1465.75 1108.99 1463.89 1108.75C1457.79 1107.95 1449.91 1104.63 1446.2 1099.64L1447.82 1097.83L1446.06 1098.87C1456.23 1093.99 1464.72 1104.27 1475.11 1101.18C1480.77 1099.5 1487.44 1096.92 1486.13 1090.06C1480.48 1082.71 1466.63 1080.99 1458.4 1076.31C1433.27 1062.05 1451.21 1048.24 1471.42 1044.36Z"/><path fill="#3A3632" d="M1315.56 1044.33C1324.85 1044.4 1348.98 1043.22 1355.44 1049.27L1354.97 1050.85C1347.33 1054.84 1334.19 1054.24 1325.36 1054.4C1325.22 1061.1 1325.38 1067.97 1325.45 1074.69C1333.13 1074.83 1348.28 1074.54 1355.03 1076.27C1348.96 1086.12 1336.02 1083.69 1325.52 1083.63C1325.41 1089.96 1326.06 1102.71 1321.09 1106.94C1317.71 1106.71 1318.35 1107.26 1316.14 1105.5C1314.85 1098.06 1313.48 1050.11 1315.56 1044.33Z"/><path fill="white" fill-opacity="0.011764706" d="M518.208 743.824C519.605 780.627 517.05 828.009 517.107 866.38C517.089 886.91 517.217 907.44 517.49 927.968C517.715 938.378 518.873 954.489 518.258 964.301C508.942 942.667 514.508 874.646 513.124 847.486C511.77 820.909 514.17 788.01 514.247 760.975C514.262 755.676 516.443 748.836 518.208 743.824Z"/><path fill="white" fill-opacity="0.011764706" d="M503.806 951.585C500.007 948.721 500.186 944.222 500.06 939.599C499.56 921.252 499.317 902.747 499.162 884.409C498.932 857.489 498.985 830.568 499.322 803.649C499.475 793.471 498.468 763.934 503.442 756.811L503.209 883.803C503.243 905.321 502.622 930.473 503.806 951.585Z"/><path fill="#3A3632" fill-opacity="0.96862745" d="M1089.55 1043.78C1090.13 1043.75 1090.72 1043.73 1091.3 1043.72C1095.34 1043.62 1096.31 1043.48 1098.8 1045.87C1099.69 1052.33 1099.56 1101.46 1098.7 1108.25C1095 1108.59 1094.3 1108.89 1090.94 1107.66C1088.12 1103.93 1089.46 1051.98 1089.55 1043.78Z"/><path fill="#1596D4" d="M2188.52 690.485C2188.68 690.52 2188.85 690.555 2189.01 690.59C2211.69 697.522 2208.1 719.66 2207.88 736.726C2206.78 737.876 2207.1 737.397 2205.05 737.879L2203.29 736.729C2201.35 733.334 2189.38 694.926 2188.52 690.485Z"/><path fill="white" fill-opacity="0.074509807" d="M1748.82 720.407C1746.08 726.055 1738.82 736.993 1733.3 739.513L1732.41 742.39L1723.57 734.836C1726.29 730.965 1725.08 731.516 1724.2 725.163C1727.78 729.889 1730.6 733.353 1734.55 737.77C1738.35 732.822 1744.53 724.543 1748.82 720.407Z"/><path fill="white" fill-opacity="0.023529412" d="M1696.66 726.416L1697.35 730.022C1702.4 731.766 1704.81 730.04 1710.81 731.028C1701.5 732.456 1700.52 733.264 1691.93 736.421L1690.41 734.72C1687.94 734.295 1687.5 734.251 1685.05 733.348L1684.66 730.977C1690.64 731.232 1691.77 729.756 1696.66 726.416Z"/></svg>